<svg width="160" height="184" viewBox="0 0 160 184" fill="none" xmlns="http://www.w3.org/2000/svg">
<path d="M83.1133 85.9618C81.9127 83.6662 79.4254 81.0291 76.4115 78.251C75.1954 77.1274 73.8934 75.9818 72.5539 74.8274L72.3821 74.6776L72.3512 74.6534C65.0546 68.3635 56.9428 61.0228 55.7179 56.2642C55.5922 56.4891 55.4264 56.6892 55.2288 56.8546C55.0371 56.9625 54.7618 56.6167 54.4401 56.4779C53.6739 56.8938 52.7885 57.0353 51.9308 56.8788L51.792 56.8458C51.542 56.8258 51.3018 56.7399 51.0958 56.5968C50.8972 56.5036 50.7077 56.3922 50.5296 56.2642C50.225 56.5009 49.9955 56.8207 49.8687 57.1851C49.8365 57.2643 49.8085 57.3452 49.785 57.4274C49.7629 57.5023 49.7431 57.5794 49.7255 57.6587C49.6715 57.9163 49.6384 58.1779 49.6264 58.4408C49.6264 58.573 49.6153 58.714 49.6264 58.8594C49.9769 60.326 50.2192 61.8164 50.3512 63.3185C50.5554 65.3773 50.5841 67.4498 50.4371 69.5135C51.1773 76.1581 52.9486 82.981 57.8968 87.8521C59.3706 89.3017 62.9 92.5028 65.33 92.5028C65.445 92.5037 65.5599 92.4956 65.6737 92.4786L65.7948 92.4609H65.8169C68.1344 91.9731 70.4824 91.6441 72.8447 91.4762C74.1908 91.4079 75.3166 91.4762 75.8586 91.7604C75.883 91.7713 75.906 91.7854 75.9269 91.8022C75.7506 92.0424 74.8892 92.3706 73.6533 92.7209C72.0054 93.188 69.6877 93.6969 67.4582 94.0978L66.9316 94.1926H66.8986H66.881L66.9757 94.7433L67.2621 94.6971H67.3062C67.4428 94.675 67.6212 94.6486 67.8327 94.62C69.322 94.3997 72.4438 94.0516 74.6865 94.3137C75.3606 94.3604 76.018 94.5441 76.6186 94.8535C76.6778 94.886 76.7319 94.9268 76.7795 94.9747C76.6429 95.1333 76.1472 95.2853 75.4091 95.4263C73.9088 95.7105 71.4083 95.9462 68.8814 96.0762L68.346 96.1004H68.2711L67.304 96.1379V96.6953C67.7446 96.6953 68.2116 96.6953 68.6963 96.6953H68.791L69.344 96.7129C71.6462 96.8098 74.0608 97.0984 74.5191 97.6162C74.1798 97.8894 72.4438 98.0568 70.3552 98.1163L69.8529 98.1273H69.7318C68.8087 98.1449 67.8393 98.1427 66.9052 98.1273L66.8589 98.6803C68.1586 98.8861 69.4468 99.1582 70.7187 99.4954L70.9082 99.5483C71.1153 99.6056 71.3202 99.6672 71.5185 99.7311C72.3997 100.013 73.1752 100.344 73.5784 100.709C73.1298 100.764 72.6764 100.764 72.2279 100.709L71.7432 100.667L71.5537 100.65C70.1966 100.511 68.4033 100.236 66.7598 99.9228L66.654 100.469C67.5617 100.65 69.8904 101.295 70.7562 102.274C70.8421 102.369 70.9161 102.475 70.9765 102.589C70.9838 102.6 70.9897 102.613 70.9941 102.626C70.6901 102.767 69.5247 102.547 68.0772 102.152C67.0065 101.859 65.7794 101.469 64.636 101.062L64.5875 101.049C63.1622 100.809 61.752 100.486 60.3642 100.081C56.9527 99.0792 53.736 97.5051 50.8513 95.4263C50.946 95.7215 51.0429 96.0189 51.1421 96.3075C51.9572 98.7618 52.8649 101.154 53.7682 103.313C54.1868 104.311 54.5481 105.268 54.8851 106.16V106.188C56.2731 109.837 57.2579 112.419 60.0095 112.478C60.5107 112.486 61.0115 112.447 61.5054 112.361C64.7374 111.817 68.7756 109.462 72.5385 106.285C73.1715 105.752 73.7935 105.196 74.4045 104.618L74.5565 104.474L74.7768 104.254C75.3541 103.694 75.9151 103.122 76.46 102.538C77.9313 100.973 79.2723 99.2912 80.4696 97.5082C83.2918 93.2408 84.6753 88.9492 83.1133 85.9618Z" fill="black"/>
<path d="M55.1934 99.3738L53.2437 140.961L41.9772 169.381L37.3684 180.136H56.0614L46.3305 176.812C46.3305 176.812 47.5246 174.723 47.8594 173.727L65.7858 145.308L72.7012 106.646C74.2434 106.135 55.1934 99.3738 55.1934 99.3738Z" fill="black"/>
<path d="M131.083 156.836L115.469 171.178L109.634 164.891L109.539 164.975L90.3258 145.568C90.3258 145.568 79.804 134.361 69.8615 122.61C66.9293 119.146 64.0499 115.635 61.5031 112.35C58.8881 108.975 56.6233 105.84 55.0217 103.236C54.6516 102.637 54.3167 102.064 54.0215 101.524L55.0988 101.572L62.0803 101.887L65.8255 102.057L68.0793 102.158C69.5267 102.553 70.6921 102.773 70.9961 102.632C70.9916 102.619 70.9857 102.606 70.9785 102.595C70.9181 102.481 70.8441 102.375 70.7582 102.28L71.4566 102.31L72.7916 102.37L73.0119 102.381L73.4525 102.401L76.4685 102.535L82.4543 102.806L82.5402 102.956L82.6812 103.201L82.7958 103.401L115.245 159.93L118.8 162.214L131.083 156.836Z" fill="#1173AB"/>
<path d="M105.364 80.8682L100.033 84.4306L80.4606 97.5059L77.8786 99.231L75.7261 95.9263L75.4045 95.4306C76.1425 95.2896 76.6382 95.1376 76.7748 94.979C76.7273 94.9311 76.6731 94.8903 76.614 94.8578C76.0134 94.5484 75.3559 94.3647 74.6819 94.3181L74.2985 93.7254L73.9659 93.2121L73.6486 92.723C74.8846 92.3727 75.746 92.0445 75.9222 91.8043C75.9013 91.7875 75.8784 91.7735 75.8539 91.7625C75.312 91.4695 74.1862 91.41 72.8401 91.4783L72.481 90.9319L67.6342 83.4833L64.9905 82.7298L64.8517 82.5095L64.7878 82.406L63.5585 80.4232L72.3708 74.6775L72.4986 74.5938L73.6773 73.8271L74.9088 75.2988L76.5215 74.3118L76.7197 74.1906L76.9224 74.0673L89.0394 66.6561L89.306 66.4908L89.5704 66.33L94.7895 63.1377L95.4019 64.1644C95.5672 64.5896 95.7236 65.0214 95.869 65.4554L96.0893 65.3078L96.1025 65.3276L96.7018 66.3322L104.853 80.0222L105.129 80.4827L105.364 80.8682Z" fill="black"/>
<path d="M72.9017 26.4126C72.9084 26.4239 72.9143 26.4356 72.9193 26.4478C72.9263 26.4415 72.9323 26.434 72.9369 26.4258L72.9017 26.4126ZM72.3883 26.2275H72.3751C72.3887 26.2614 72.4042 26.2945 72.4214 26.3266C72.4104 26.2892 72.3972 26.2584 72.3883 26.2275Z" fill="black"/>
<path d="M106.318 57.7468C103.834 53.644 100.421 50.1813 96.3555 47.6369C98.6027 41.4485 100.321 36.7185 100.367 36.5819L100.433 36.3991L82.6833 29.9617L94.6658 17.8096L94.8024 17.6708L83.0072 6.0408L82.8706 6.17739C82.8177 6.23027 78.2794 10.8038 74.8558 14.2913C74.8472 14.2988 74.8391 14.3069 74.8316 14.3155C74.1927 14.9764 73.5957 15.5779 73.0691 16.1154C72.0535 17.1597 71.375 18.2017 71.0577 19.2129C70.8756 19.7635 70.8008 20.3438 70.8374 20.9225C70.9153 21.6863 71.0628 22.4415 71.278 23.1785L71.3067 23.2842C71.5062 24.0777 71.7661 24.8547 72.0843 25.6084C72.1725 25.8111 72.265 26.016 72.3663 26.2209H72.3796C72.3796 26.2517 72.4016 26.2826 72.4126 26.3134C72.3954 26.2813 72.3799 26.2482 72.3663 26.2143L70.692 25.6084L70.6259 25.7913L69.5574 28.6994C69.5539 28.7138 69.5487 28.7279 69.542 28.7412C68.0527 32.8147 65.3011 40.3514 63.0782 46.5266L63.0452 46.6147C62.4613 48.2428 61.9128 49.7717 61.4369 51.1178C60.5072 53.7438 60.1613 56.0901 60.4125 58.0949C60.5383 59.1839 60.8687 60.2393 61.3862 61.2056C62.0934 62.49 63.0474 63.6554 63.9682 64.7834L64.1004 64.9442C65.0847 66.1683 66.1607 67.3158 67.3191 68.3766C67.6936 68.7159 68.0828 69.0493 68.4867 69.3768C69.1807 69.9408 69.9165 70.4783 70.6898 71.0137C72.5417 72.2668 74.4936 73.3655 76.5257 74.2984C76.8767 74.4615 77.2314 74.6208 77.5898 74.7765C78.424 75.1393 79.2693 75.4793 80.1255 75.7965C81.1169 76.1644 82.1083 76.4993 83.1217 76.7967C84.6264 77.2484 85.1882 77.4026 85.4173 77.4026C85.5517 77.4026 85.5693 77.3497 85.598 77.2726L88.0081 70.6259L89.5723 66.3167L92.357 58.6324C93.6298 60.3178 94.6557 62.1761 95.4038 64.1511C95.569 64.5763 95.7255 65.0081 95.8709 65.4421C95.8719 65.4479 95.8719 65.4539 95.8709 65.4597C97.1376 69.2402 97.6774 73.3203 97.999 77.1558V77.1999C98.018 77.7645 98.1219 78.323 98.3075 78.8566C98.9133 80.3569 100.874 80.8394 102.625 80.8394C103.331 80.8442 104.035 80.7628 104.721 80.597C104.857 80.5618 104.992 80.5221 105.124 80.4758C105.3 80.4164 105.474 80.3481 105.644 80.2732L105.681 80.2555C107.51 79.4316 109.023 77.6603 110.193 74.9682C110.649 73.9191 110.933 72.8032 111.032 71.6636C111.475 66.9732 109.028 62.1992 106.318 57.7468ZM99.9289 36.6326C98.4859 40.6091 97.1861 44.1957 96.0141 47.4276C95.1945 46.9297 94.3522 46.473 93.4871 46.0573C93.501 45.9624 93.5091 45.8668 93.5114 45.7709C93.5753 43.8366 91.5595 41.1621 89.2793 40.1597C88.8387 39.9636 88.6184 39.7059 88.5831 39.3666C88.4642 37.8994 91.945 35.2711 93.4431 34.2775L99.9289 36.6326ZM92.9915 34.1167C91.793 34.9362 88.0544 37.6416 88.1954 39.4041C88.235 39.8931 88.5479 40.2677 89.1229 40.521C91.2753 41.4683 93.1809 43.9688 93.1214 45.7665V45.8855C91.5489 45.1597 89.9171 44.5701 88.2438 44.123C86.9216 43.7693 85.5798 43.4927 84.2254 43.2947C83.6086 43.092 82.7141 42.8078 81.7778 42.5522C82.8155 41.0321 83.3773 39.4327 82.756 38.188C82.6095 37.9273 82.5284 37.635 82.5196 37.3361C82.5108 37.0372 82.5745 36.7407 82.7053 36.4718C83.7914 34.1872 89.5018 32.8962 89.5547 32.883L92.9915 34.1167ZM83.9897 30.8429L84.0558 30.9883C84.0426 31.0258 83.9809 31.1426 83.7077 31.3496C82.9873 31.8982 81.4055 32.623 79.6783 33.0019L82.3947 30.2657L83.9897 30.8429ZM82.2801 29.8097L81.9805 30.1159L79.0064 33.1297C78.85 33.1562 78.6913 33.1782 78.5349 33.1958C78.3851 33.068 78.1957 32.905 77.9886 32.7222C77.2337 32.0577 76.5187 31.3492 75.8472 30.6006C75.3904 30.0924 74.9674 29.5784 74.5782 29.0585C74.4989 28.9527 74.4196 28.8381 74.3447 28.7412C74.0186 28.3006 73.7212 27.8402 73.448 27.3863C73.3555 27.2343 73.2652 27.0801 73.1815 26.9259L73.1198 26.8157C73.1793 26.7408 73.2498 26.6571 73.3269 26.5646C73.8093 26.0072 74.6289 25.2207 75.2369 25.2427C75.3539 25.252 75.4665 25.2916 75.5635 25.3577C75.6604 25.4237 75.7385 25.514 75.7899 25.6195C76.0232 25.9804 76.3289 26.2889 76.6877 26.5256C77.0464 26.7622 77.4504 26.9218 77.874 26.9942C78.1359 27.0467 78.4022 27.0733 78.6693 27.0735C79.2294 27.0954 79.7832 26.9496 80.2599 26.6549C81.1081 26.0491 84.2012 25.5776 85.2609 26.7893L82.2801 29.8097ZM94.2516 17.6708L88.9356 23.0661C88.3645 23.0724 87.7982 22.9606 87.2723 22.7379C86.922 22.5991 86.7612 22.3523 86.8317 22.0615C86.9352 21.6209 87.5234 21.2023 88.3298 21.2684C88.5652 21.2975 88.8039 21.2508 89.011 21.1351C89.2182 21.0194 89.3831 20.8408 89.482 20.6251C89.9534 19.6822 89.5833 17.9704 88.6911 16.9636C88.5038 16.7433 88.5214 16.6177 88.5523 16.5362C88.7726 15.9414 90.621 15.4479 91.8172 15.2584L94.2516 17.6708ZM83.016 6.58496L84.5779 8.12711C84.2849 8.24387 83.6857 8.47519 82.9102 8.72854C82.8394 8.75938 82.7621 8.77211 82.6852 8.76557C82.6082 8.75903 82.5342 8.73343 82.4696 8.69109C82.181 8.47079 82.1061 7.85393 82.0973 7.51686L83.016 6.58496ZM81.7272 7.88477C81.7756 8.2637 81.9012 8.75278 82.2317 8.99952C82.366 9.10112 82.5303 9.15535 82.6987 9.15374C82.8119 9.15206 82.9242 9.13274 83.0314 9.09646C83.9985 8.78142 84.6969 8.49943 84.8798 8.42232L88.0323 11.5441C87.6512 11.7445 85.2807 11.7644 83.9919 10.806C82.7031 9.8477 81.4496 10.9999 80.3238 12.0023C79.9513 12.3502 79.5568 12.674 79.143 12.9717C78.8279 13.192 78.5746 13.2426 78.3873 13.1479C77.9908 12.9474 77.874 12.1081 77.8608 11.793C79.3104 10.317 80.7248 8.89377 81.7206 7.88918L81.7272 7.88477ZM77.5061 12.1543C77.5678 12.5795 77.7374 13.2558 78.2111 13.496C78.3253 13.5531 78.4513 13.5826 78.579 13.5819C78.8623 13.566 79.1345 13.4663 79.3611 13.2955C79.7884 12.9879 80.196 12.6539 80.5816 12.2953C81.6963 11.3017 82.7494 10.3654 83.7584 11.1189C85.1045 12.1213 87.79 12.2336 88.3143 11.8194L89.7662 13.2514C88.8849 13.1149 86.9881 12.9188 86.1245 13.6414C85.9704 13.7685 85.8488 13.9306 85.7698 14.1141C85.6909 14.2976 85.6569 14.4973 85.6707 14.6967C85.7037 15.6726 84.1792 16.5737 82.6525 17.0341C81.1257 17.4946 79.7136 17.4946 79.4294 17.0341C78.7685 15.9788 76.8496 14.3309 75.4771 14.212L77.5061 12.1543ZM73.3621 16.3864C73.8732 15.8621 74.4637 15.265 75.0761 14.624C76.1182 14.3354 78.3807 16.0383 79.1077 17.2302C79.328 17.6091 79.8986 17.7611 80.5882 17.7611C81.3269 17.7447 82.0596 17.6246 82.7648 17.4042C84.307 16.9394 86.1025 15.9458 86.0694 14.6812C86.0588 14.5415 86.0816 14.4013 86.136 14.2722C86.1904 14.1431 86.2748 14.0288 86.3823 13.9388C87.215 13.2448 89.6296 13.6546 90.3235 13.7912L91.4757 14.928C90.5615 15.0932 88.4972 15.5559 88.1866 16.4062C88.1398 16.5498 88.1357 16.7039 88.1748 16.8498C88.2139 16.9957 88.2945 17.127 88.4069 17.228C89.1802 18.1092 89.537 19.6646 89.1427 20.4555C89.08 20.6031 88.9707 20.7261 88.8314 20.8057C88.6921 20.8853 88.5306 20.917 88.3716 20.8961C87.3164 20.808 86.6092 21.394 86.4616 21.9976C86.347 22.4823 86.607 22.9163 87.1401 23.1256C87.5955 23.3199 88.0803 23.4361 88.5743 23.4693L86.5915 25.4829C86.2457 24.9277 85.0494 22.9185 84.8511 21.231C84.7696 20.5502 84.3554 20.1294 83.7165 20.0567C82.4299 19.9223 80.5595 21.2464 79.8215 23.423C79.6409 23.9539 79.4095 24.2249 79.1342 24.2293C78.123 24.2293 76.3363 21.0811 75.4969 18.8164C75.2083 18.0387 74.7545 17.5254 74.1508 17.2897C73.666 17.1164 73.1393 17.0987 72.6439 17.239C72.8679 16.9422 73.1076 16.6575 73.3621 16.3864ZM71.8773 23.8262C71.8178 23.6213 71.7583 23.4076 71.701 23.1873L71.6724 23.0793C71.4609 22.3654 71.3134 21.634 71.2318 20.8939C71.2164 20.667 71.2208 20.4392 71.245 20.2131C71.3823 20.7673 71.6353 21.2861 71.9874 21.7355C71.8525 22.4237 71.8125 23.1271 71.8684 23.8262H71.8773ZM72.3972 21.7333L72.4236 21.6319L72.3531 21.5548C72.3531 21.5548 71.3419 20.3982 71.5887 18.931C71.7608 18.5189 71.9757 18.1261 72.2297 17.7589C72.547 17.6378 73.3489 17.3844 73.9922 17.6378C74.4857 17.8316 74.8624 18.27 75.1114 18.9376C75.552 20.1382 77.5347 24.6039 79.1143 24.6039H79.1276C79.5858 24.6039 79.9383 24.2381 80.1762 23.5332C80.9076 21.3786 82.7031 20.3299 83.6637 20.429C84.1197 20.4753 84.3907 20.7639 84.4524 21.2618C84.6727 23.141 86.0121 25.3066 86.2985 25.7516L85.5671 26.4963C84.3664 25.029 81.0332 25.6371 80.0396 26.3487C79.599 26.6659 78.7376 26.7893 77.9577 26.6197C77.5869 26.5581 77.2328 26.4202 76.9181 26.2147C76.6033 26.0091 76.3347 25.7404 76.1292 25.4256C76.0455 25.2647 75.9215 25.1281 75.7694 25.0293C75.6173 24.9305 75.4422 24.8727 75.2612 24.8616H75.2149C74.3535 24.8616 73.3665 25.9213 72.9435 26.4302C72.9389 26.4385 72.933 26.4459 72.9259 26.4522C72.9209 26.4401 72.915 26.4283 72.9083 26.417L72.7959 26.1967C72.2389 24.7778 72.0975 23.2296 72.3884 21.7333H72.3972ZM70.9387 26.113L72.6329 26.7276C72.7798 27.0214 72.9413 27.3085 73.1176 27.589C73.4062 28.0671 73.7234 28.5473 74.0715 29.021C73.6838 29.4021 73.2255 29.8427 72.7078 30.3208C72.5872 30.4554 72.4343 30.557 72.2636 30.616C72.0928 30.6749 71.9098 30.6894 71.7319 30.6579C70.8859 30.4772 70.1897 29.195 69.9694 28.7346C70.4541 27.4194 70.7955 26.4875 70.9387 26.113ZM69.7954 29.2325C70.1368 29.8582 70.8022 30.8562 71.6503 31.039C71.7415 31.0591 71.8346 31.0694 71.9279 31.0699C72.3224 31.055 72.6961 30.8894 72.9722 30.6072C73.4745 30.1446 73.9217 29.7128 74.294 29.336C74.6818 29.8516 75.1018 30.3612 75.5542 30.865C76.235 31.6269 76.9611 32.3472 77.7286 33.0218L77.9886 33.2421C77.3634 33.2874 76.735 33.2482 76.1204 33.1253C73.285 32.5195 72.0469 35.3438 70.8484 38.0778C70.4732 38.9974 70.0398 39.8922 69.5508 40.7567C69.1344 41.4419 68.6806 41.7746 68.2069 41.7613C67.0591 41.7151 66.0413 39.7169 66.0303 39.6971L65.9642 39.7301C67.4138 35.7205 68.8348 31.8475 69.791 29.2325H69.7954ZM65.8298 40.1245C66.1691 40.7127 67.0878 42.1072 68.1959 42.1491H68.2532C68.8591 42.1491 69.4076 41.7481 69.8901 40.9572C70.3896 40.0808 70.8311 39.1727 71.2119 38.2386C72.3994 35.5289 73.5207 32.9711 76.0455 33.5109C76.8213 33.6612 77.6159 33.6895 78.4005 33.5946C78.6208 33.7774 78.7288 33.8435 78.8015 33.8435C78.8264 33.841 78.8505 33.8332 78.8721 33.8207C78.8938 33.8082 78.9125 33.7912 78.9271 33.7708C78.9601 33.7378 79.0372 33.6629 79.2113 33.4844C81.7844 33.0328 84.2321 31.7616 84.4347 31.1029C84.4436 31.0742 84.4495 31.0447 84.4524 31.0148L88.8827 32.6208C87.7217 32.9116 83.3905 34.1211 82.3572 36.2889C82.2017 36.6114 82.1255 36.9665 82.1351 37.3244C82.1446 37.6824 82.2397 38.0329 82.4123 38.3466C82.9543 39.4349 82.4123 40.944 81.3791 42.4289C79.7158 41.9883 78.0348 41.6975 77.6691 42.1381C77.6021 42.2237 77.5645 42.3286 77.5617 42.4373C77.5589 42.546 77.5912 42.6528 77.6537 42.7417C77.9203 43.233 78.4732 43.6229 79.1033 43.9446L78.9227 43.9248C75.4286 43.5282 75.2568 43.8873 75.1532 44.1032C75.0893 44.2332 75.0717 44.4425 75.3493 44.6892C75.8714 45.1563 76.9355 45.5396 78.0635 45.8348C77.896 45.967 77.7308 46.0904 77.5634 46.2093C75.9838 46.3393 74.6179 46.5794 74.3954 47.0179C74.3555 47.0949 74.3392 47.182 74.3487 47.2682C74.3581 47.3544 74.3927 47.4359 74.4482 47.5025C74.5184 47.5909 74.6043 47.6656 74.7016 47.7228C74.001 47.9431 73.4326 47.9431 73.0823 47.7074C70.985 46.3107 65.9069 44.98 63.6576 46.13C64.345 44.2023 65.0874 42.1513 65.8232 40.1245H65.8298ZM61.8202 51.261C62.2983 49.9149 62.8469 48.3838 63.4329 46.7535C65.0742 45.2907 70.4981 46.4605 72.8642 48.0379C73.1358 48.2075 73.4519 48.2918 73.7719 48.2802C74.2669 48.262 74.7547 48.1561 75.2127 47.9674C75.8216 48.154 76.4486 48.2759 77.0831 48.3309C72.5095 48.853 72.3796 49.3994 72.3179 49.6637C72.276 49.8334 72.3179 50.0889 72.7365 50.3247C73.6926 50.871 75.4352 50.9614 77.1624 50.8776C73.2806 51.9131 73.2123 52.4198 73.1771 52.6709C73.1594 52.7987 73.1771 53.0388 73.5406 53.2217C74.6531 53.7835 77.581 53.453 79.9537 53.0499C79.2278 54.7396 78.9493 56.5879 79.1452 58.4165C79.2663 59.5776 79.046 60.3002 78.4843 60.5667C76.5808 61.4766 70.7933 57.2423 67.5196 53.9707C66.4181 52.8692 65.2636 52.3603 64.0674 52.4286C62.6596 52.5101 61.5801 53.3803 61.0646 53.8892C61.2564 52.9977 61.5067 52.1197 61.8136 51.261H61.8202ZM64.4177 64.6997L64.2855 64.5389C63.3756 63.4241 62.4327 62.2719 61.7431 61.014C61.3523 60.2905 61.0759 59.5109 60.9236 58.7029C61.6486 59.987 62.7401 61.0256 64.0586 61.6859C64.5389 63.6409 65.3891 65.4857 66.5635 67.1209C65.8563 66.4027 65.1447 65.6051 64.4111 64.7085L64.4177 64.6997ZM89.0524 66.6472C88.4311 68.3568 87.9134 69.7888 87.4772 70.9872C85.8822 75.3824 85.4261 76.6403 85.2961 77.0016C84.9987 76.9377 84.2122 76.7174 83.2429 76.4266C82.3418 76.1578 81.4408 75.8604 80.5463 75.5344C79.6078 75.1929 78.6759 74.8228 77.7572 74.4328C77.4819 74.3139 77.2109 74.1905 76.9399 74.0671C74.8428 73.1189 72.8301 71.9942 70.9233 70.7052C70.5356 70.4409 70.1574 70.1706 69.7887 69.8945C69.954 69.1939 70.8176 65.8166 72.3707 65.1866C72.829 64.9993 73.3004 65.0764 73.8137 65.4201C75.0871 66.2749 76.7284 66.5216 78.4402 66.1251C80.1057 65.7351 81.6346 64.7592 82.2427 63.7017C82.7053 62.8932 84.2012 61.4986 86.0628 60.4962C87.2525 59.8595 89.7684 59.1105 91.5154 59.8816C90.546 62.5186 89.7353 64.7702 89.0458 66.656L89.0524 66.6472ZM91.6388 59.5159C88.4245 58.0002 83.0468 61.4986 81.899 63.4946C81.3504 64.4529 79.8898 65.376 78.3477 65.7373C76.746 66.1119 75.2127 65.8805 74.0319 65.0874C73.4106 64.671 72.8025 64.5807 72.2231 64.8164C70.5841 65.4774 69.694 68.6211 69.4495 69.6279C69.2292 69.4561 69.0089 69.2777 68.7886 69.1014C65.202 65.5919 64.4529 61.5515 64.4441 61.5096L64.4265 61.4083L64.3318 61.3664C64.3031 61.3532 61.5294 60.1173 60.765 57.2357C60.7352 56.2956 60.809 55.3551 60.9853 54.4312L61.0646 54.4951C61.0778 54.4797 62.3314 52.9221 64.1158 52.8185C65.1954 52.7591 66.2594 53.2393 67.2706 54.2505C69.5927 56.5726 75.0783 61.08 77.8828 61.08C78.1573 61.0866 78.4298 61.0316 78.6803 60.9192C79.4007 60.5755 79.6981 59.7185 79.5616 58.3769C79.3643 56.5276 79.6687 54.6593 80.4428 52.9683C81.8704 52.7128 83.0226 52.4506 83.3178 52.3823C85.3843 51.8977 89.2374 55.33 90.3676 56.3919C90.9929 56.9787 91.5759 57.6089 92.1124 58.2777C91.9377 58.7037 91.7776 59.1193 91.6322 59.5247L91.6388 59.5159ZM110.534 71.6327C110.439 72.7174 110.17 73.7797 109.737 74.7787C108.616 77.3519 107.181 79.0372 105.463 79.8017C105.451 79.8087 105.439 79.8139 105.426 79.8171C105.245 79.8972 105.059 79.9671 104.87 80.0264C104.784 80.0551 104.699 80.0793 104.613 80.1013C103.015 80.5177 99.561 80.5287 98.8142 78.6781C98.6505 78.1918 98.5584 77.6841 98.541 77.1712V77.1272C98.2436 73.6023 97.7655 69.8571 96.7146 66.3322C96.6001 65.9444 96.4774 65.5589 96.3467 65.1755C96.344 65.1656 96.3403 65.1561 96.3357 65.1469C95.5054 62.5855 94.2383 60.187 92.5905 58.0574C92.498 57.9385 92.4032 57.8217 92.3063 57.7071C91.832 57.1351 91.3236 56.5922 90.784 56.0813C90.7619 56.057 90.7377 56.035 90.7135 56.013C90.3346 55.6583 89.8146 55.1868 89.211 54.6911C88.8277 54.3761 88.4113 54.0501 87.9773 53.735C87.15 53.1168 86.2522 52.5991 85.3028 52.1929C84.7987 51.9726 84.2575 51.85 83.7077 51.8316C83.5411 51.831 83.3748 51.8487 83.212 51.8844H83.1834C82.5071 52.0409 81.6523 52.2215 80.7292 52.3911L80.2423 52.4793C77.6757 52.9199 74.7633 53.257 73.7895 52.7635L73.7234 52.726C74.1068 52.1752 78.1604 51.0781 81.8924 50.3269C81.9673 50.2608 82.04 50.2013 82.1127 50.1418L82.0378 49.7651C81.9254 49.7871 75.1202 51.0869 73.0052 49.8818C72.9493 49.852 72.8974 49.8149 72.851 49.7717C73.2916 49.2474 77.7352 48.69 81.7029 48.4675L81.6809 47.9454C79.8612 48.0004 77.4025 47.9255 75.9772 47.6413C75.7759 47.6024 75.5772 47.5509 75.3823 47.4871C75.2035 47.4402 75.0383 47.3519 74.8999 47.2294C75.0849 47.0729 75.7282 46.9408 76.6293 46.8372C76.8914 46.8086 77.1734 46.7799 77.473 46.7557C78.7949 46.6455 80.4626 46.5861 82.0158 46.5861L82.0488 46.0661C82.0224 46.0661 80.5816 45.8789 79.0526 45.544L78.5768 45.4339C77.3937 45.1497 76.2415 44.7729 75.7128 44.3323C76.1975 44.2067 77.7749 44.3191 79.5704 44.5526L80.0617 44.6143C80.7424 44.7068 81.443 44.8104 82.1171 44.9227L82.2052 44.4072C81.6722 44.3099 81.146 44.1782 80.63 44.0129C80.4957 43.971 80.3613 43.9248 80.2269 43.8785C79.3214 43.5524 78.4248 43.0964 78.1119 42.5192C78.1052 42.5079 78.0993 42.4961 78.0943 42.4839C78.3917 42.3385 79.5836 42.5434 81.0398 42.9246L81.4518 43.0303C82.3022 43.2506 83.2142 43.5304 84.0955 43.8168L84.1395 43.8278C85.4821 44.0229 86.8121 44.2966 88.1227 44.6474C89.8032 45.0992 91.4406 45.6986 93.0157 46.4385L93.3682 46.6059C94.2186 47.0201 95.0491 47.4739 95.8532 47.9652C95.9656 48.0335 96.0735 48.1018 96.1881 48.1745C100.142 50.6711 103.46 54.053 105.882 58.053C108.342 62.0935 110.585 66.3938 110.585 70.6237C110.574 70.9388 110.559 71.2868 110.528 71.6349L110.534 71.6327ZM78.2772 46.1587C78.3631 46.0904 78.4512 46.0243 78.5349 45.9538C78.7552 46.0111 78.9932 46.0617 79.2179 46.108C78.9072 46.1212 78.59 46.1366 78.2772 46.1587Z" fill="black"/>
<path d="M105.697 80.2689L105.457 79.8041L97.8165 65.061L97.4883 64.4265L96.3383 65.18L96.1069 65.332L95.8866 65.4774L95.1883 65.9356L90.3415 69.1103L88.0106 70.6392L87.7396 70.8177L87.4664 70.9961L80.5399 75.5433L80.335 75.6777L80.1323 75.8099L76.4113 78.2509L72.6462 80.7206L71.0864 78.317L64.8803 82.3464L64.79 82.4037L64.6644 82.4875L61.6132 84.4702L62.8116 86.561L61.9172 87.4422L65.2659 91.9607L65.6602 92.4895L65.7814 92.4719H65.8034C68.1209 91.9841 70.469 91.655 72.8313 91.4871C74.1774 91.4188 75.3032 91.4871 75.8451 91.7713C75.8696 91.7823 75.8925 91.7963 75.9134 91.8131C75.7372 92.0533 74.8758 92.3815 73.6398 92.7318C71.9919 93.1989 69.6743 93.7078 67.4447 94.1088L66.9182 94.2035L67.2949 94.7102C67.4315 94.6882 67.61 94.6617 67.8215 94.6331C69.3108 94.4128 72.4325 94.0647 74.6753 94.3269C75.3493 94.3735 76.0068 94.5572 76.6074 94.8666C76.6665 94.8991 76.7207 94.9399 76.7682 94.9878C76.6316 95.1464 76.1359 95.2984 75.3979 95.4394C73.8976 95.7236 71.3971 95.9593 68.8701 96.0893L68.3348 96.1136L68.7908 96.7282L69.3438 96.7459C71.646 96.8428 74.0606 97.1314 74.5189 97.6491C74.1796 97.9223 72.4436 98.0897 70.355 98.1492L69.8527 98.1602L70.2779 98.6978L70.3748 98.83L70.9058 99.546C71.1129 99.6033 71.3178 99.6649 71.516 99.7288C72.3973 100.011 73.1728 100.341 73.5759 100.707C73.1274 100.761 72.674 100.761 72.2254 100.707L71.7408 100.665L72.1814 101.262L73.0031 102.364L74.5453 104.446L76.5281 107.111L82.6703 103.183L85.0673 101.641L108.896 86.4023L105.697 80.2689Z" fill="#1173AB"/>
<path d="M48.8774 31.8145C47.0176 31.8127 45.1781 32.2009 43.4777 32.9542C41.7772 33.7075 40.2537 34.809 39.0054 36.1876C38.3766 35.4019 37.5588 34.7886 36.6285 34.405C35.6981 34.0214 34.6857 33.8801 33.6859 33.9943C32.686 34.1086 31.7316 34.4746 30.9117 35.0581C30.0919 35.6417 29.4335 36.4237 28.9981 37.331C28.5628 38.2382 28.3648 39.2411 28.4225 40.2458C28.4803 41.2504 28.792 42.224 29.3285 43.0754C29.865 43.9268 30.6087 44.6281 31.4901 45.1139C32.3714 45.5996 33.3615 45.8537 34.3679 45.8526C34.772 45.8531 35.1751 45.8118 35.5708 45.7292C35.7228 49.1574 37.1917 52.3948 39.6713 54.7669C42.151 57.1391 45.4502 58.463 48.8818 58.4631C49.0823 58.4631 49.2806 58.4631 49.4789 58.4476H49.6265C50.0561 58.4234 50.4813 58.3816 50.8976 58.3177C51.4936 58.2273 52.0825 58.0956 52.6601 57.9233C53.12 57.7897 53.5716 57.6293 54.0128 57.443C54.4286 57.2702 54.8353 57.076 55.2311 56.8614C55.4228 56.7579 55.6101 56.6411 55.7951 56.5354C58.2811 55.0263 60.2051 52.7453 61.2735 50.0405C62.3419 47.3356 62.4961 44.3555 61.7124 41.5549C60.9287 38.7543 59.2503 36.287 56.9333 34.5295C54.6162 32.772 51.7878 31.8208 48.8796 31.8211L48.8774 31.8145ZM56.0815 45.9297C56.704 46.649 57.4446 47.2569 58.2714 47.7274C58.3288 48.1656 58.3539 48.6074 58.3463 49.0493L56.9121 49.3357L56.5199 49.415L54.0965 49.8975C54.8267 48.6103 55.4893 47.2859 56.0815 45.9297ZM57.0773 53.9357C57.0773 53.9489 57.0641 53.9181 57.0509 53.8476C56.4985 54.8443 55.7075 55.6883 54.7486 56.304C54.6473 56.3657 54.5438 56.4252 54.4402 56.4781C54.3186 56.5414 54.1935 56.598 54.0657 56.6477C54.0126 56.6715 53.9582 56.6921 53.9027 56.7094L53.863 56.7248H53.8366C53.7976 56.7393 53.7579 56.7518 53.7176 56.7623H53.6868C53.6383 56.7777 53.592 56.7931 53.5436 56.8041L53.4929 56.8174C53.4356 56.8328 53.3761 56.8438 53.3188 56.857L53.1492 56.8857C53.1004 56.8948 53.0511 56.9007 53.0016 56.9033H52.9421C52.9201 56.9033 52.8959 56.9033 52.8738 56.9033H52.8055C52.5104 56.9214 52.2143 56.9014 51.9243 56.8438L51.856 56.8284C51.8284 56.8342 51.8004 56.8379 51.7723 56.8394C51.737 56.8394 51.7018 56.8218 51.6665 56.813L51.585 56.7865C51.471 56.7689 51.3603 56.734 51.2568 56.683C51.2259 56.6676 51.1995 56.6499 51.1708 56.6323L51.1224 56.6103C51.013 56.5607 50.9071 56.504 50.8051 56.4406L50.6663 56.3547C50.6201 56.3261 50.5738 56.2952 50.5297 56.2622C49.9889 55.8673 49.5383 55.3619 49.2079 54.7795C50.3359 54.6539 51.466 53.678 52.5125 52.3165L52.5257 52.3561C52.55 52.3231 52.5742 52.2922 52.6028 52.2592C52.6315 52.2261 52.6601 52.1997 52.6888 52.1733C52.6888 52.1534 52.6755 52.1336 52.6667 52.1138L52.8165 51.9089C52.876 51.8274 52.9355 51.7436 52.9928 51.6577C53.0765 51.5388 53.158 51.4176 53.2373 51.2942C53.4114 51.0365 53.5766 50.7743 53.7396 50.5033L53.8806 50.4747L56.4737 49.9569L57.1985 49.8115L58.3155 49.5912C58.2887 50.0182 58.2335 50.4428 58.1502 50.8624C58.1172 51.0298 58.0797 51.1929 58.0401 51.3559C58.4344 52.0168 58.7605 52.5412 58.7605 52.5412C58.7605 52.5412 57.1038 53.7991 57.0773 53.9357Z" fill="black"/>
<path d="M64.0652 33.8921L63.8097 33.5969C63.8427 33.5683 67.1451 30.6514 65.3144 28.5298C64.1864 27.2278 63.6378 25.6658 63.8097 24.2448C63.9639 22.989 64.6535 21.8941 65.8057 21.0811L66.026 21.3984C64.9663 22.1474 64.3318 23.1476 64.193 24.2933C64.0344 25.6151 64.5477 27.0559 65.6052 28.2742C67.6937 30.6888 64.1093 33.8591 64.0652 33.8921Z" fill="black"/>
<path d="M62.2279 35.6501H61.838C61.8271 35.4717 61.8553 35.293 61.9208 35.1267C61.9863 34.9604 62.0873 34.8104 62.2169 34.6873C62.5182 34.4544 62.8982 34.3478 63.2766 34.3899L63.2281 34.7754C62.9596 34.7489 62.6908 34.8218 62.4725 34.9803C62.3859 35.0678 62.3192 35.1729 62.277 35.2885C62.2348 35.4041 62.2181 35.5274 62.2279 35.6501Z" fill="black"/>
<path d="M95.0579 30.3408C94.7319 27.8469 96.0251 25.6328 99.5456 22.6917C103.538 19.3672 104.659 16.3776 103.291 12.7007L103.657 12.5641C105.086 16.4305 103.936 19.5479 99.799 22.9979C96.3974 25.8355 95.1372 27.9461 95.4501 30.2902L95.0579 30.3408Z" fill="black"/>
<path d="M95.6814 32.9028L95.4325 32.6054C95.5282 32.5432 95.6082 32.4598 95.6663 32.3615C95.7244 32.2633 95.759 32.153 95.7674 32.0392C95.7499 31.9401 95.7126 31.8454 95.6577 31.761C95.6028 31.6766 95.5315 31.6041 95.4479 31.5479L95.6682 31.2219C95.8019 31.3127 95.9149 31.4306 96 31.568C96.085 31.7054 96.1401 31.8592 96.1617 32.0194C96.1575 32.1942 96.1118 32.3655 96.0283 32.5191C95.9448 32.6727 95.8259 32.8043 95.6814 32.9028Z" fill="black"/>
<path d="M94.0336 14.9677V14.5778C94.1503 14.5778 94.5821 14.3575 94.8972 13.8486C95.2959 13.2053 95.5713 12.0376 94.6196 10.1363C94.1636 9.22427 94.1085 8.37388 94.4522 7.60941C95.1968 5.95709 97.5365 5.31599 97.64 5.28955L97.7414 5.66628C97.7171 5.66628 95.4744 6.28755 94.8069 7.77023C94.5138 8.43116 94.5689 9.16038 94.9699 9.96231C96.0009 12.0244 95.6793 13.3242 95.2299 14.0534C94.8399 14.6835 94.2913 14.9677 94.0336 14.9677Z" fill="black"/>
<path d="M98.6314 5.67073L98.5763 5.28739C99.4774 5.15741 99.6272 3.49848 99.6294 3.48306L100.017 3.51391C100.019 3.59322 99.8387 5.5077 98.6314 5.67073Z" fill="black"/>
<path d="M100.971 42.3784L100.81 42.0237C102.099 41.4377 103.104 35.2492 102.372 29.7415C102.112 27.7896 103.172 26.0227 105.437 24.6347C106.526 23.9807 107.696 23.4733 108.918 23.1256L109.014 23.5045C108.946 23.5222 102.185 25.3419 102.76 29.6886C103.348 34.0882 102.844 41.528 100.971 42.3784Z" fill="black"/>
<path d="M98.9507 45.2488H98.5608C98.5608 43.927 100.266 42.9841 100.339 42.9444L100.526 43.2859C100.511 43.2947 98.9507 44.1605 98.9507 45.2488Z" fill="black"/>
<path d="M67.828 94.6152C67.6077 94.6438 67.4381 94.6702 67.3015 94.6923H67.2574L66.8917 94.1856H66.9248L67.4513 94.0908L67.828 94.6152Z" fill="black"/>
<path d="M69.3504 96.7279L68.7974 96.7103H68.7027L68.2621 96.1044H68.337L68.8723 96.0802L69.3504 96.7279Z" fill="black"/>
<path d="M71.5117 99.7307C71.3134 99.6668 71.1085 99.6051 70.9014 99.5478L70.7119 99.4949L70.203 98.7899L70.1413 98.704L69.7382 98.1444H69.8593L70.3616 98.1334L70.7604 98.6886L70.9807 98.9992L71.5117 99.7307Z" fill="black"/>
<path d="M85.1729 101.841L82.7781 103.401L76.4817 107.51L74.3932 104.608L72.7827 102.372L71.9786 101.257L71.538 100.658L71.7274 100.676L72.2121 100.718L72.6307 101.297L73.426 102.399L74.7589 104.249L76.6029 106.809L82.5138 102.954L84.8843 101.412L85.0517 101.667L85.1729 101.841Z" fill="black"/>
<path d="M70.2033 98.7904L69.8729 98.7088H70.1417L69.7385 98.1493C68.8154 98.1669 67.846 98.1647 66.9119 98.1493L66.8657 98.7022C68.1627 98.9011 69.4487 99.1658 70.7189 99.4953L70.2033 98.7904ZM68.2668 96.1004L67.2997 96.1378V96.6952C67.7403 96.6952 68.2073 96.6952 68.692 96.6952L68.2668 96.1004ZM66.9251 94.1859H66.8921H66.8745L66.9692 94.7367L67.2556 94.6904H67.2997L66.9251 94.1859ZM70.2033 98.7904L69.8729 98.7088H70.1417L69.7385 98.1493C68.8154 98.1669 67.846 98.1647 66.9119 98.1493L66.8657 98.7022C68.1627 98.9011 69.4487 99.1658 70.7189 99.4953L70.2033 98.7904ZM68.2668 96.1004L67.2997 96.1378V96.6952C67.7403 96.6952 68.2073 96.6952 68.692 96.6952L68.2668 96.1004ZM66.9251 94.1859H66.8921H66.8745L66.9692 94.7367L67.2556 94.6904H67.2997L66.9251 94.1859ZM70.2033 98.7904L69.8729 98.7088H70.1417L69.7385 98.1493C68.8154 98.1669 67.846 98.1647 66.9119 98.1493L66.8657 98.7022C68.1627 98.9011 69.4487 99.1658 70.7189 99.4953L70.2033 98.7904ZM68.2668 96.1004L67.2997 96.1378V96.6952C67.7403 96.6952 68.2073 96.6952 68.692 96.6952L68.2668 96.1004ZM66.9251 94.1859H66.8921H66.8745L66.9692 94.7367L67.2556 94.6904H67.2997L66.9251 94.1859ZM70.2033 98.7904L69.8729 98.7088H70.1417L69.7385 98.1493C68.8154 98.1669 67.846 98.1647 66.9119 98.1493L66.8657 98.7022C68.1627 98.9011 69.4487 99.1658 70.7189 99.4953L70.2033 98.7904ZM68.2668 96.1004L67.2997 96.1378V96.6952C67.7403 96.6952 68.2073 96.6952 68.692 96.6952L68.2668 96.1004ZM66.9251 94.1859H66.8921H66.8745L66.9692 94.7367L67.2556 94.6904H67.2997L66.9251 94.1859ZM70.2033 98.7904L69.8729 98.7088H70.1417L69.7385 98.1493C68.8154 98.1669 67.846 98.1647 66.9119 98.1493L66.8657 98.7022C68.1627 98.9011 69.4487 99.1658 70.7189 99.4953L70.2033 98.7904ZM68.2668 96.1004L67.2997 96.1378V96.6952C67.7403 96.6952 68.2073 96.6952 68.692 96.6952L68.2668 96.1004ZM66.9251 94.1859H66.8921H66.8745L66.9692 94.7367L67.2556 94.6904H67.2997L66.9251 94.1859ZM70.2033 98.7904L69.8729 98.7088H70.1417L69.7385 98.1493C68.8154 98.1669 67.846 98.1647 66.9119 98.1493L66.8657 98.7022C68.1627 98.9011 69.4487 99.1658 70.7189 99.4953L70.2033 98.7904ZM68.2668 96.1004L67.2997 96.1378V96.6952C67.7403 96.6952 68.2073 96.6952 68.692 96.6952L68.2668 96.1004ZM66.9251 94.1859H66.8921H66.8745L66.9692 94.7367L67.2556 94.6904H67.2997L66.9251 94.1859ZM70.3708 98.8322L70.2033 98.7904L69.8729 98.7088H70.1417H70.2738L69.8597 98.1515H69.7385C68.8154 98.1691 67.846 98.1669 66.9119 98.1515L66.8657 98.7044C68.1626 98.9025 69.4487 99.1665 70.7189 99.4953L70.9083 99.5482L70.3708 98.8322ZM68.3417 96.096H68.2668L67.2997 96.1334V96.6908C67.7403 96.6908 68.2073 96.6908 68.692 96.6908H68.7868L68.3417 96.096ZM66.9251 94.1859H66.8921H66.8745L66.9692 94.7367L67.2556 94.6904H67.2997L66.9251 94.1859ZM70.3708 98.8322L70.2033 98.7904L69.8729 98.7088H70.1417H70.2738L69.8597 98.1515H69.7385C68.8154 98.1691 67.846 98.1669 66.9119 98.1515L66.8657 98.7044C68.1626 98.9025 69.4487 99.1665 70.7189 99.4953L70.9083 99.5482L70.3708 98.8322ZM67.3107 96.6952C67.7513 96.6952 68.2184 96.6952 68.703 96.6952H68.7978L68.3417 96.0806H68.2668L67.2997 96.118L67.3107 96.6952ZM66.9736 94.7455L67.26 94.6992H67.3041L66.9273 94.1925H66.8943H66.8767L66.9714 94.7433L66.9736 94.7455ZM76.9051 94.3732C76.2883 94.0008 75.363 93.8026 74.3011 93.7122C73.6019 93.6589 72.9002 93.6434 72.1993 93.666C72.8977 93.4985 73.4815 93.3421 73.9618 93.1989C76.3852 92.4851 76.4513 92.0753 76.4888 91.8528C76.5108 91.7162 76.4888 91.4607 76.1142 91.258C75.4181 90.8857 74.0323 90.8328 72.4879 90.9275C69.6371 91.1038 66.251 91.7911 65.6936 91.9057C65.5523 91.9348 65.4082 91.9481 65.264 91.9454C62.9926 91.9145 59.3796 88.5416 58.2714 87.4511C52.3583 81.6305 51.0805 72.8842 50.6135 65.0941V65.0478C50.6072 64.4597 50.5151 63.8756 50.3403 63.314C50.3369 63.2997 50.3325 63.2858 50.3271 63.2721C49.4458 60.9303 45.4648 60.8047 43.5305 61.2585C41.1071 61.8291 39.0913 63.7987 37.5513 67.1165C37.0378 68.2268 36.7068 69.4126 36.571 70.6283C35.9937 75.6447 38.4854 80.7933 41.2635 85.6093C43.7083 89.8718 47.0808 93.5297 51.1312 96.3119C53.908 98.2146 56.9675 99.6673 60.1969 100.617C61.5987 101.026 63.0227 101.355 64.4621 101.601C64.5766 101.641 65.1032 101.822 65.8148 102.058C66.3325 102.225 66.9494 102.419 67.5773 102.595C69.2053 103.06 70.135 103.216 70.6836 103.216C71.1242 103.216 71.3269 103.111 71.4371 102.985C71.5112 102.895 71.5542 102.784 71.5598 102.667C71.5653 102.551 71.5331 102.436 71.4679 102.34C71.4636 102.33 71.4585 102.32 71.4525 102.311C71.1749 101.793 70.6065 101.364 69.9544 101.02L70.1461 101.046C70.8907 101.15 71.4944 101.216 71.9834 101.256L72.1817 101.271C72.3492 101.282 72.5034 101.291 72.6422 101.295C73.964 101.342 74.0896 101.11 74.1689 100.952C74.2482 100.793 74.2636 100.592 73.975 100.322C73.411 99.7928 72.2258 99.3455 70.9854 98.9996C70.7806 98.9402 70.5757 98.8851 70.373 98.8344L70.2055 98.7926L69.8751 98.711H70.1439H70.276L70.7629 98.6978C72.7986 98.6251 74.7593 98.4114 75.0523 97.8739C75.0954 97.7922 75.1143 97.6999 75.1069 97.6078C75.0995 97.5158 75.0661 97.4277 75.0105 97.3539C74.6756 96.8693 73.5344 96.5785 72.217 96.4044C73.3959 96.3148 74.5685 96.1559 75.7287 95.9285C77.2026 95.6069 77.2841 95.2896 77.3347 95.1046C77.3854 94.9195 77.3436 94.6375 76.9029 94.3732H76.9051ZM75.407 95.4218C73.9067 95.706 71.4062 95.9418 68.8793 96.0717L68.3439 96.096H68.269L67.3019 96.1334V96.6908C67.7425 96.6908 68.2095 96.6908 68.6942 96.6908H68.789L69.3419 96.7084C71.6442 96.8054 74.0588 97.094 74.517 97.6117C74.1777 97.8849 72.4417 98.0523 70.3532 98.1118L69.8508 98.1228H69.7297C68.8066 98.1404 67.8372 98.1382 66.9031 98.1228L66.8568 98.6758C68.1573 98.883 69.4463 99.1566 70.7189 99.4953L70.9083 99.5482C71.1154 99.6055 71.3203 99.6672 71.5186 99.7311C72.3998 100.013 73.1753 100.344 73.5785 100.709C73.1299 100.763 72.6765 100.763 72.228 100.709L71.7433 100.667L71.5538 100.65C70.1967 100.511 68.4034 100.236 66.7599 99.9227L66.6542 100.469C67.5618 100.65 69.8905 101.295 70.7563 102.273C70.8423 102.369 70.9162 102.475 70.9766 102.588C70.9839 102.6 70.9898 102.613 70.9943 102.626C70.6902 102.767 69.5248 102.547 68.0774 102.152C67.0067 101.859 65.7795 101.469 64.6361 101.062L64.5877 101.049C63.1623 100.809 61.7521 100.486 60.3643 100.081C56.9528 99.0791 53.7361 97.5051 50.8514 95.4262C47.1376 92.7453 44.0374 89.3041 41.757 85.3317C39.2918 81.0555 37.0556 76.5193 37.0556 72.1131C37.0545 71.6398 37.081 71.1668 37.1349 70.6966C37.2648 69.5422 37.5787 68.4161 38.0647 67.3611C39.5297 64.2085 41.4134 62.3402 43.6671 61.8115C44.286 61.6779 44.9177 61.6128 45.5508 61.6176C47.2824 61.6176 49.2828 62.0582 49.8159 63.4792C49.9769 64.0019 50.0615 64.545 50.0671 65.0919V65.1404C50.153 66.5768 50.2676 68.044 50.4328 69.5201C51.173 76.1646 52.9443 82.9876 57.8925 87.8586C59.3663 89.3083 62.8957 92.5093 65.3257 92.5093C65.4407 92.5102 65.5556 92.5021 65.6694 92.4851L65.7906 92.4675H65.8126C68.1301 91.9797 70.4781 91.6507 72.8404 91.4827C74.1865 91.4144 75.3123 91.4827 75.8543 91.7669C75.8787 91.7779 75.9017 91.792 75.9226 91.8088C75.7463 92.0489 74.8849 92.3772 73.649 92.7275C72.0011 93.1945 69.6834 93.7034 67.4539 94.1044L66.9273 94.1991H66.8943H66.8767L66.9714 94.7499L67.2578 94.7036H67.3019C67.4385 94.6816 67.6169 94.6552 67.8284 94.6265C69.3177 94.4062 72.4395 94.0581 74.6822 94.3203C75.3563 94.367 76.0137 94.5506 76.6143 94.86C76.6735 94.8925 76.7276 94.9333 76.7752 94.9812C76.6386 95.1288 76.1429 95.2808 75.4048 95.4218H75.407ZM66.9273 94.1859H66.8943H66.8767L66.9714 94.7367L67.2578 94.6904H67.3019L66.9273 94.1859ZM68.3439 96.096H68.269L67.3019 96.1334V96.6908C67.7425 96.6908 68.2095 96.6908 68.6942 96.6908H68.789L68.3439 96.096ZM70.373 98.8322L70.2055 98.7904L69.8751 98.7088H70.1439H70.276L69.8619 98.1515H69.7407C68.8176 98.1691 67.8482 98.1669 66.9141 98.1515L66.8679 98.7044C68.1641 98.9026 69.4494 99.1666 70.7189 99.4953L70.9083 99.5482L70.373 98.8322ZM66.9273 94.1859H66.8943H66.8767L66.9714 94.7367L67.2578 94.6904H67.3019L66.9273 94.1859ZM68.269 96.1004L67.3019 96.1378V96.6952C67.7425 96.6952 68.2095 96.6952 68.6942 96.6952L68.269 96.1004ZM70.2055 98.7904L69.8751 98.7088H70.1439L69.7407 98.1493C68.8176 98.1669 67.8482 98.1647 66.9141 98.1493L66.8679 98.7022C68.1641 98.9011 69.4495 99.1658 70.7189 99.4953L70.2055 98.7904ZM66.9273 94.1859H66.8943H66.8767L66.9714 94.7367L67.2578 94.6904H67.3019L66.9273 94.1859ZM68.269 96.1004L67.3019 96.1378V96.6952C67.7425 96.6952 68.2095 96.6952 68.6942 96.6952L68.269 96.1004ZM70.2055 98.7904L69.8751 98.7088H70.1439L69.7407 98.1493C68.8176 98.1669 67.8482 98.1647 66.9141 98.1493L66.8679 98.7022C68.1641 98.9011 69.4495 99.1658 70.7189 99.4953L70.2055 98.7904ZM66.9273 94.1859H66.8943H66.8767L66.9714 94.7367L67.2578 94.6904H67.3019L66.9273 94.1859ZM68.269 96.1004L67.3019 96.1378V96.6952C67.7425 96.6952 68.2095 96.6952 68.6942 96.6952L68.269 96.1004ZM70.2055 98.7904L69.8751 98.7088H70.1439L69.7407 98.1493C68.8176 98.1669 67.8482 98.1647 66.9141 98.1493L66.8679 98.7022C68.1641 98.9011 69.4495 99.1658 70.7189 99.4953L70.2055 98.7904ZM66.9273 94.1859H66.8943H66.8767L66.9714 94.7367L67.2578 94.6904H67.3019L66.9273 94.1859ZM68.269 96.1004L67.3019 96.1378V96.6952C67.7425 96.6952 68.2095 96.6952 68.6942 96.6952L68.269 96.1004ZM70.2055 98.7904L69.8751 98.7088H70.1439L69.7407 98.1493C68.8176 98.1669 67.8482 98.1647 66.9141 98.1493L66.8679 98.7022C68.1641 98.9011 69.4495 99.1658 70.7189 99.4953L70.2055 98.7904ZM66.9273 94.1859H66.8943H66.8767L66.9714 94.7367L67.2578 94.6904H67.3019L66.9273 94.1859ZM68.269 96.1004L67.3019 96.1378V96.6952C67.7425 96.6952 68.2095 96.6952 68.6942 96.6952L68.269 96.1004ZM70.2055 98.7904L69.8751 98.7088H70.1439L69.7407 98.1493C68.8176 98.1669 67.8482 98.1647 66.9141 98.1493L66.8679 98.7022C68.1641 98.9011 69.4495 99.1658 70.7189 99.4953L70.2055 98.7904ZM66.9273 94.1859H66.8943H66.8767L66.9714 94.7367L67.2578 94.6904H67.3019L66.9273 94.1859ZM68.269 96.1004L67.3019 96.1378V96.6952C67.7425 96.6952 68.2095 96.6952 68.6942 96.6952L68.269 96.1004ZM70.2055 98.7904L69.8751 98.7088H70.1439L69.7407 98.1493C68.8176 98.1669 67.8482 98.1647 66.9141 98.1493L66.8679 98.7022C68.1641 98.9011 69.4495 99.1658 70.7189 99.4953L70.2055 98.7904ZM66.9273 94.1859H66.8943H66.8767L66.9714 94.7367L67.2578 94.6904H67.3019L66.9273 94.1859ZM68.269 96.1004L67.3019 96.1378V96.6952C67.7425 96.6952 68.2095 96.6952 68.6942 96.6952L68.269 96.1004ZM70.2055 98.7904L69.8751 98.7088H70.1439L69.7407 98.1493C68.8176 98.1669 67.8482 98.1647 66.9141 98.1493L66.8679 98.7022C68.1641 98.9011 69.4495 99.1658 70.7189 99.4953L70.2055 98.7904Z" fill="black"/>
<path d="M54.7485 53.0808L54.6956 52.964C54.3662 52.2671 53.8459 51.6779 53.195 51.2649C52.5442 50.8519 51.7895 50.6321 51.0186 50.6309C50.7485 50.6313 50.4792 50.6586 50.2145 50.7124C50.1903 50.7124 50.166 50.7124 50.1418 50.7257C49.3599 50.9003 48.6466 51.301 48.0907 51.8779C48.0276 51.944 47.9659 52.0123 47.9057 52.0828C47.4958 52.5723 47.207 53.1516 47.0629 53.7736C46.9187 54.3957 46.9232 55.0429 47.076 55.6629C47.2288 56.2828 47.5256 56.8581 47.9423 57.3419C48.359 57.8257 48.8838 58.2045 49.4743 58.4475L49.6197 58.5048C50.0676 58.6698 50.5413 58.7541 51.0186 58.7537C51.211 58.7533 51.4032 58.7393 51.5936 58.7119C51.6267 58.7119 51.6575 58.7119 51.6884 58.6986C52.3155 58.5924 52.9092 58.3412 53.4222 57.965L53.5434 57.8703C53.7113 57.7369 53.8675 57.5895 54.0104 57.4297C54.1244 57.3079 54.2297 57.1784 54.3255 57.0419C54.4335 56.8911 54.5307 56.7328 54.6163 56.5682C54.6647 56.4801 54.7088 56.3898 54.7485 56.2973C54.968 55.7883 55.0812 55.2399 55.0812 54.6857C55.0812 54.1315 54.968 53.5831 54.7485 53.0741V53.0808ZM53.9752 56.793L53.8893 56.9075C53.6824 57.1736 53.44 57.4101 53.1688 57.6103C53.1321 57.6387 53.0938 57.6652 53.0543 57.6896C52.9302 57.773 52.7998 57.8467 52.6643 57.9099C52.3742 58.0603 52.0641 58.1686 51.7434 58.2316C51.7036 58.242 51.6631 58.2501 51.6223 58.2558C51.4251 58.2896 51.2253 58.3066 51.0252 58.3065H50.8909C50.2368 58.2823 49.6015 58.0814 49.0526 57.7251C48.5036 57.3687 48.0614 56.8703 47.7731 56.2828C47.4847 55.6952 47.361 55.0405 47.415 54.3883C47.4689 53.736 47.6987 53.1106 48.0797 52.5785C48.1304 52.5057 48.1855 52.4375 48.2427 52.3692C48.7393 51.7762 49.4137 51.359 50.166 51.1795L50.2343 51.1619C50.491 51.1043 50.7533 51.0755 51.0164 51.0759C51.7236 51.0752 52.4154 51.2818 53.0063 51.6703C53.5972 52.0587 54.0612 52.6119 54.3409 53.2614C54.3585 53.2989 54.3739 53.3363 54.3894 53.376C54.598 53.9089 54.6773 54.4837 54.6206 55.0532C54.5639 55.6227 54.3729 56.1706 54.0633 56.652C54.0347 56.6982 54.0038 56.7445 53.9752 56.793Z" fill="#1173AB"/>
<path d="M64.7196 82.5843L63.444 80.357L72.4899 74.5628L72.6287 74.7787L63.7877 80.4407L64.9421 82.4565L64.7196 82.5843Z" fill="white"/>
<path d="M157.469 179.885H3.05347V180.396H157.469V179.885Z" fill="black"/>
<path d="M20.3147 163.926C23.302 161.282 26.7036 155.704 27.0429 149.941C27.2478 146.361 26.2828 141.395 20.5217 138.068L20.2904 137.934L20.2045 138.187C20.0547 138.628 18.4134 143.391 16.9968 148.835C15.8864 147.246 14.3487 145.855 12.3835 144.662C10.1804 143.34 8.75944 143.036 8.0148 143.761C5.63987 146.075 12.3373 158.685 15.1859 163.768L15.274 163.922H7.03442V167.515H8.61404C8.7991 168.059 9.66932 170.599 10.5726 173.095C12.6743 178.923 12.8858 178.923 13.1105 178.923H22.13L25.6131 167.515H27.7435V163.926H20.3147ZM21.8106 178.491H13.1855C12.7008 177.83 10.4779 171.622 9.09211 167.566L25.0821 167.766L21.8106 178.491ZM17.0387 150.481C17.0827 150.3 17.129 150.119 17.1752 149.939C17.2215 149.758 17.2766 149.536 17.3273 149.337C18.6249 144.297 20.156 139.699 20.5328 138.586C25.8929 141.798 26.7983 146.517 26.6023 149.914C26.263 155.83 22.6367 161.525 19.6427 163.926H18.1138C24.6503 154.77 21.1783 141.437 21.1496 141.303L20.7244 141.417C20.7619 141.558 24.2494 154.942 17.5762 163.926H15.7807C15.7124 163.807 15.6397 163.677 15.5604 163.538C15.0757 161.73 15.1837 157.995 17.0387 150.481ZM14.9479 162.426C13.8001 160.331 12.1081 157.138 10.6827 153.986C9.25734 150.833 7.04985 145.325 8.32323 144.081C8.42466 143.99 8.54315 143.921 8.67177 143.876C8.8004 143.832 8.93656 143.814 9.07228 143.823C9.77727 143.823 10.8215 144.233 12.1566 145.041C14.1945 146.277 15.7631 147.738 16.8492 149.408C16.4086 151.148 15.99 152.944 15.6573 154.675L10.6497 146.16L10.2686 146.381L15.5317 155.332L15.5758 155.094C15.0537 157.898 14.7607 160.511 14.9479 162.426ZM27.3029 167.079H7.47504V164.367H27.3029V167.079Z" fill="black"/>
</svg>
