<svg width="120" height="126" viewBox="0 0 120 126" fill="none" xmlns="http://www.w3.org/2000/svg">
<g clip-path="url(#clip0_2560_14125)">
<path d="M65.7005 68.9011C66.0777 70.7938 67.4236 72.0214 68.7069 71.642C69.9903 71.2626 70.7247 69.4189 70.3474 67.5262C70.2068 66.7674 69.8765 66.071 69.3832 65.5018L67.6802 57.5113L63.6984 58.8237L65.8009 66.562C65.5755 67.3454 65.542 68.1489 65.7049 68.9011H65.7005Z" fill="#F8A8AB"/>
<path d="M56.7257 121.44H61.3994V114.808H56.7257V121.44Z" fill="#F8A8AB"/>
<path d="M60.8816 125.238C60.0826 125.31 56.0829 125.627 55.882 124.709C55.699 123.868 55.969 122.989 56.007 122.868C56.3909 119.042 56.5337 119 56.6208 118.976C56.7569 118.935 57.1542 119.125 57.7993 119.54L57.8394 119.567L57.8484 119.614C57.8595 119.674 58.1452 121.078 59.5 120.862C60.4285 120.714 60.7298 120.509 60.8258 120.408C60.7477 120.373 60.6495 120.31 60.5803 120.203C60.4799 120.047 60.462 119.846 60.529 119.605C60.7031 118.969 61.2253 118.029 61.2477 117.991L61.3079 117.884L66.62 121.469L69.901 122.406C70.1488 122.477 70.3474 122.654 70.4479 122.89C70.5863 123.221 70.5014 123.605 70.2336 123.846C69.6377 124.381 68.4547 125.299 67.2115 125.413C66.8812 125.444 66.4437 125.455 65.9527 125.455C63.9015 125.455 60.9062 125.243 60.8839 125.238H60.8816Z" fill="#2F2E43"/>
<path d="M43.778 121.44H48.4518V114.808H43.778V121.44Z" fill="#F8A8AB"/>
<path d="M47.9339 125.238C47.1349 125.31 43.1352 125.627 42.9343 124.709C42.7513 123.868 43.0213 122.989 43.0593 122.868C43.4432 119.042 43.586 119 43.6731 118.976C43.8092 118.935 44.2065 119.125 44.8516 119.54L44.8917 119.567L44.9007 119.614C44.9118 119.674 45.1975 121.078 46.5523 120.862C47.4808 120.714 47.7821 120.509 47.8781 120.408C47.8 120.373 47.7018 120.31 47.6326 120.203C47.5322 120.047 47.5143 119.846 47.5813 119.605C47.7554 118.969 48.2776 118.029 48.3 117.991L48.3602 117.884L53.6723 121.469L56.9533 122.406C57.2011 122.477 57.3997 122.654 57.5002 122.89C57.6386 123.221 57.5537 123.605 57.2859 123.846C56.69 124.381 55.507 125.299 54.2638 125.413C53.9335 125.444 53.496 125.455 53.005 125.455C50.9538 125.455 47.9585 125.243 47.9362 125.238H47.9339Z" fill="#2F2E43"/>
<path d="M47.5656 22.3823L54.8129 24.7638V14.3315H48.2375L47.5656 22.3823Z" fill="#F8A8AB"/>
<path d="M53.9156 17.2197C57.9034 17.2197 61.1361 13.987 61.1361 9.99926C61.1361 6.01152 57.9034 2.77881 53.9156 2.77881C49.9279 2.77881 46.6952 6.01152 46.6952 9.99926C46.6952 13.987 49.9279 17.2197 53.9156 17.2197Z" fill="#F8A8AB"/>
<path d="M52.0765 10.5639L53.0719 11.7714L54.8731 8.61989C54.8731 8.61989 57.1721 8.73819 57.1721 7.03296C57.1721 5.32773 59.2813 5.27863 59.2813 5.27863C59.2813 5.27863 62.2654 0.0669599 56.0829 1.43963C56.0829 1.43963 51.7952 -1.49766 49.6615 1.01332C49.6615 1.01332 43.1218 4.30548 44.9944 10.0394L48.1035 15.9497L48.8088 14.6128C48.8088 14.6128 48.3825 8.9971 52.0787 10.5617L52.0765 10.5639Z" fill="#2F2E43"/>
<path d="M0 125.453C0 125.6 0.118295 125.718 0.265605 125.718H119.734C119.882 125.718 120 125.6 120 125.453C120 125.305 119.882 125.187 119.734 125.187H0.265605C0.118295 125.187 0 125.305 0 125.453Z" fill="#484565"/>
<path d="M73.3874 77.8982L59.7433 73.5124C58.0604 72.9722 56.2525 73.8762 55.6789 75.5502L49.5142 93.5265C48.8847 95.3612 49.9963 97.3343 51.8912 97.7494L67.5731 101.18C69.2962 101.557 71.0059 100.488 71.421 98.7739L75.5479 81.7528C75.9475 80.1012 75.0056 78.4183 73.3874 77.8982Z" fill="#E2E3E4"/>
<path d="M72.0036 81.6903L71.1242 81.5341C71.6866 78.3379 72.4633 69.8162 69.3274 68.7717C67.8074 68.265 66.2763 69.1511 64.7787 71.4076C63.6024 73.1821 62.915 75.1462 62.9083 75.1663L62.0646 74.8739C62.1851 74.5279 65.0532 66.4058 69.6087 67.9235C74.1106 69.4234 72.0906 81.1882 72.0013 81.6881L72.0036 81.6903Z" fill="#2F2E43"/>
<path d="M61.6583 56.7346H37.2695L43.2378 118.268L50.157 117.822L50.4985 73.5079L54.853 92.9551L56.1275 117.487L62.4328 117.822L63.1649 89.9152L61.6583 56.7346Z" fill="#2F2E43"/>
<path d="M47.1706 18.5678L55.4289 20.5766L62.4886 51.0855L61.6583 56.7346L40.9791 60.2344L37.2695 56.7346L47.1706 18.5678Z" fill="#1173AB"/>
<path d="M47.1572 17.0411L44.3338 20.2083L38.6065 21.5832L28.8416 64.9996L47.6572 68.1869L52.8979 23.9692L47.1572 17.0411Z" fill="#2F2E43"/>
<path d="M55.4245 18.6236L53.9514 23.8732L60.77 70.9501H64.2876L62.665 24.8821L57.8886 21.0877L55.4245 18.6236Z" fill="#2F2E43"/>
<path d="M59.8326 24.2995L62.665 24.8821C62.665 24.8821 63.906 25.3374 64.3568 28.8639C64.8055 32.3905 64.8858 44.2333 64.8858 44.2333L69.7024 63.339L64.2318 65.1425L61.6561 54.862L59.8304 24.2973L59.8326 24.2995Z" fill="#2F2E43"/>
<path d="M55.1075 21.8488L53.7371 24.362L56.4779 53.842L53.2795 56.8127L50.3088 54.0719L52.4805 24.4759L49.3155 21.8488L50.4226 21.0475L51.5654 22.418L53.8509 21.9627L54.7638 20.59L55.1075 21.8488Z" fill="#2F2E43"/>
<path d="M41.6464 61.4932C42.7959 63.0444 44.5369 63.5779 45.5346 62.6873C46.5322 61.7967 46.4095 59.817 45.26 58.2635C44.8092 57.6363 44.2132 57.1498 43.5213 56.8462L38.5663 50.3489L35.5264 53.2371L40.7336 59.3349C40.8653 60.1406 41.1777 60.8794 41.6464 61.491V61.4932Z" fill="#F8A8AB"/>
<path d="M40.8697 22.2952L38.6065 21.5832C38.6065 21.5832 35.5398 22.3443 34.5242 26.1744L29.567 44.8337L37.9748 59.5915L42.4678 54.1366L38.236 40.5885L40.8719 22.2952H40.8697Z" fill="#2F2E43"/>
</g>
<defs>
<clipPath id="clip0_2560_14125">
<rect width="120" height="125.718" fill="white"/>
</clipPath>
</defs>
</svg>
