<svg width="250" height="127" viewBox="0 0 250 127" fill="none" xmlns="http://www.w3.org/2000/svg">
<g clip-path="url(#clip0_2560_14060)">
<path d="M239.647 121.861C232.37 127.104 222.94 127.367 213.825 126.723C212.552 126.633 211.288 126.528 210.036 126.414C210.028 126.412 210.018 126.413 210.011 126.411C209.951 126.405 209.89 126.399 209.833 126.396C209.574 126.372 209.316 126.347 209.06 126.323L209.12 126.439L209.31 126.797C209.242 126.677 209.174 126.559 209.105 126.44C209.085 126.404 209.063 126.368 209.043 126.332C206.682 122.223 204.34 117.963 203.742 113.27C203.125 108.4 204.86 102.885 209.146 100.492C209.709 100.178 210.304 99.9292 210.921 99.7482C211.178 99.6703 211.438 99.6071 211.7 99.5512C213.308 99.1942 214.982 99.2718 216.549 99.7761C218.117 100.28 219.522 101.193 220.62 102.42C221.718 103.648 222.469 105.145 222.796 106.759C223.124 108.373 223.015 110.045 222.482 111.603C226.116 107.877 225.438 101.831 224.185 96.7791C222.929 91.7269 221.408 86.1051 223.963 81.5672C225.383 79.0414 227.88 77.4742 230.683 76.8429C230.769 76.8244 230.854 76.8059 230.941 76.7898C234.28 76.1135 237.751 76.7217 240.661 78.4931C246.02 81.87 248.772 88.2726 249.666 94.5445C251.105 104.637 247.92 115.901 239.647 121.861Z" fill="#F2F2F2"/>
<path d="M237.297 105.683C237.086 107.909 236.551 110.092 235.71 112.164C234.934 113.998 233.889 115.705 232.609 117.229C229.994 120.375 226.535 122.741 222.78 124.317C219.908 125.493 216.899 126.301 213.825 126.723C212.552 126.633 211.288 126.528 210.036 126.414C210.028 126.412 210.018 126.413 210.011 126.411C209.951 126.405 209.89 126.399 209.833 126.396C209.574 126.372 209.316 126.348 209.06 126.323L209.12 126.439L209.31 126.797C209.242 126.677 209.174 126.559 209.105 126.44C209.085 126.404 209.063 126.368 209.043 126.332C211.348 124.035 213.069 121.22 214.061 118.121C215.054 115.023 215.29 111.732 214.748 108.523C214.182 105.338 212.871 102.331 210.921 99.7482C211.178 99.6703 211.438 99.6071 211.7 99.5512C212.441 100.564 213.091 101.64 213.642 102.767C215.62 106.788 216.251 111.338 215.442 115.744C214.69 119.732 212.815 123.422 210.039 126.381C210.282 126.364 210.527 126.344 210.767 126.322C215.318 125.937 219.858 124.959 223.985 122.955C227.513 121.284 230.575 118.771 232.903 115.638C235.403 112.191 236.504 108.045 236.693 103.83C236.894 99.3188 236.308 94.728 235.279 90.3405C234.227 85.8426 232.63 81.4902 230.521 77.3804C230.474 77.2872 230.464 77.1794 230.494 77.0794C230.525 76.9793 230.592 76.8947 230.683 76.843C230.758 76.792 230.851 76.7729 230.941 76.7899C230.984 76.8015 231.025 76.8228 231.06 76.8523C231.094 76.8819 231.121 76.9188 231.14 76.9603C231.4 77.468 231.655 77.9761 231.901 78.4898C233.946 82.7688 235.452 87.2852 236.383 91.9355C237.288 96.4216 237.771 101.114 237.297 105.683Z" fill="white"/>
<path d="M142.284 124.178C146.001 126.856 150.818 126.99 155.475 126.661C156.125 126.615 156.77 126.561 157.41 126.503C157.414 126.502 157.419 126.503 157.423 126.502C157.454 126.499 157.484 126.496 157.514 126.494C157.646 126.482 157.778 126.469 157.909 126.457L157.878 126.516L157.781 126.699C157.816 126.638 157.85 126.578 157.885 126.516C157.896 126.498 157.907 126.48 157.917 126.461C159.123 124.362 160.32 122.186 160.625 119.789C160.94 117.301 160.054 114.484 157.864 113.262C157.577 113.102 157.273 112.974 156.958 112.882C156.827 112.842 156.694 112.81 156.56 112.781C155.739 112.599 154.884 112.639 154.083 112.896C153.282 113.154 152.564 113.62 152.004 114.247C151.443 114.874 151.059 115.639 150.892 116.463C150.725 117.288 150.78 118.142 151.052 118.938C149.196 117.034 149.542 113.946 150.183 111.365C150.824 108.784 151.601 105.913 150.296 103.595C149.926 102.973 149.43 102.436 148.838 102.021C148.246 101.605 147.573 101.319 146.863 101.181C146.819 101.172 146.775 101.162 146.731 101.154C145.026 100.809 143.253 101.119 141.766 102.024C139.029 103.749 137.623 107.02 137.166 110.224C136.431 115.379 138.058 121.133 142.284 124.178Z" fill="#F2F2F2"/>
<path d="M143.484 115.913C143.592 117.05 143.865 118.166 144.295 119.224C144.691 120.161 145.225 121.033 145.879 121.812C147.239 123.403 148.961 124.645 150.9 125.432C152.367 126.033 153.904 126.446 155.475 126.661C156.125 126.615 156.77 126.561 157.41 126.503C157.414 126.502 157.419 126.503 157.423 126.502C157.454 126.499 157.484 126.496 157.514 126.494C157.646 126.482 157.778 126.469 157.909 126.457L157.878 126.516L157.781 126.699C157.816 126.638 157.85 126.578 157.885 126.516C157.896 126.498 157.907 126.48 157.917 126.461C156.74 125.288 155.861 123.85 155.354 122.267C154.847 120.684 154.726 119.003 155.003 117.364C155.292 115.737 155.962 114.201 156.958 112.882C156.827 112.842 156.694 112.81 156.56 112.781C156.181 113.299 155.849 113.848 155.568 114.424C154.557 116.478 154.235 118.802 154.648 121.053C155.033 123.09 155.99 124.975 157.409 126.487C157.284 126.478 157.159 126.468 157.036 126.457C154.699 126.302 152.411 125.719 150.284 124.736C148.482 123.883 146.918 122.599 145.729 120.999C144.452 119.238 143.89 117.12 143.793 114.967C143.719 112.648 143.962 110.33 144.515 108.076C145.052 105.779 145.869 103.555 146.946 101.456C146.97 101.408 146.975 101.353 146.959 101.302C146.944 101.251 146.91 101.208 146.863 101.181C146.825 101.155 146.777 101.146 146.731 101.154C146.709 101.16 146.688 101.171 146.671 101.186C146.653 101.201 146.639 101.22 146.63 101.241C146.497 101.501 146.367 101.76 146.241 102.023C145.196 104.208 144.427 106.516 143.951 108.891C143.445 111.195 143.287 113.562 143.484 115.913Z" fill="white"/>
<path d="M43.1737 3.48103H4.47533C3.28891 3.48271 2.15157 3.95476 1.31265 4.79368C0.473722 5.6326 0.00167835 6.76994 0 7.95636V68.7681C0.00167905 69.9546 0.473722 71.0919 1.31265 71.9308C2.15157 72.7697 3.28891 73.2418 4.47533 73.2435H43.1737C44.3601 73.2418 45.4975 72.7697 46.3364 71.9308C47.1753 71.0919 47.6474 69.9546 47.6491 68.7681V7.95636C47.6474 6.76994 47.1753 5.63261 46.3364 4.79368C45.4975 3.95476 44.3601 3.48271 43.1737 3.48103ZM47.1226 68.7681C47.1213 69.815 46.7048 70.8187 45.9646 71.559C45.2243 72.2992 44.2206 72.7157 43.1737 72.717H4.47533C3.42843 72.7157 2.42477 72.2992 1.6845 71.559C0.944227 70.8187 0.527782 69.815 0.526509 68.7681V7.95636C0.527782 6.90946 0.944227 5.9058 1.6845 5.16553C2.42477 4.42526 3.42843 4.00882 4.47533 4.00754H43.1737C44.2206 4.00882 45.2243 4.42526 45.9646 5.16553C46.7048 5.9058 47.1213 6.90946 47.1226 7.95636V68.7681Z" fill="#3F3D56"/>
<path d="M126.099 73.2435H87.4005C86.214 73.2421 85.0764 72.7702 84.2374 71.9312C83.3984 71.0922 82.9265 69.9547 82.9252 68.7681V7.95636C82.9265 6.76984 83.3984 5.6323 84.2374 4.7933C85.0764 3.9543 86.214 3.48237 87.4005 3.48103H126.099C127.285 3.48237 128.423 3.9543 129.262 4.7933C130.101 5.6323 130.573 6.76984 130.574 7.95636V68.7681C130.573 69.9547 130.101 71.0922 129.262 71.9312C128.423 72.7702 127.285 73.2421 126.099 73.2435ZM87.4005 4.00754C86.3536 4.00873 85.3499 4.42514 84.6096 5.16543C83.8693 5.90572 83.4529 6.90943 83.4517 7.95636V68.7681C83.4529 69.8151 83.8693 70.8188 84.6096 71.5591C85.3499 72.2994 86.3536 72.7158 87.4005 72.717H126.099C127.146 72.7158 128.15 72.2994 128.89 71.5591C129.63 70.8188 130.047 69.8151 130.048 68.7681V7.95636C130.047 6.90943 129.63 5.90572 128.89 5.16543C128.15 4.42514 127.146 4.00873 126.099 4.00754H87.4005Z" fill="#3F3D56"/>
<path d="M70.5522 38.7571H54.4937C54.4238 38.7571 54.3569 38.7294 54.3075 38.68C54.2581 38.6307 54.2304 38.5637 54.2304 38.4939C54.2304 38.4241 54.2581 38.3571 54.3075 38.3077C54.3569 38.2584 54.4238 38.2306 54.4937 38.2306H70.5522C70.622 38.2306 70.689 38.2584 70.7383 38.3077C70.7877 38.3571 70.8154 38.4241 70.8154 38.4939C70.8154 38.5637 70.7877 38.6307 70.7383 38.68C70.689 38.7294 70.622 38.7571 70.5522 38.7571Z" fill="#3F3D56"/>
<path d="M67.1301 45.9771C67.075 45.9771 67.0213 45.9599 66.9765 45.9278C66.9317 45.8957 66.8982 45.8503 66.8805 45.7981C66.8629 45.7459 66.8621 45.6895 66.8782 45.6368C66.8943 45.5841 66.9265 45.5378 66.9704 45.5044L75.3481 39.1221C75.4448 39.0484 75.5232 38.9534 75.5771 38.8444C75.6311 38.7354 75.6592 38.6155 75.6592 38.4939C75.6592 38.3723 75.6311 38.2523 75.5771 38.1434C75.5232 38.0344 75.4448 37.9394 75.3481 37.8657L66.9704 31.4833C66.9149 31.441 66.8786 31.3784 66.8693 31.3092C66.86 31.2401 66.8785 31.1701 66.9208 31.1146C66.963 31.0591 67.0256 31.0227 67.0947 31.0133C67.1638 31.0039 67.2339 31.0223 67.2894 31.0645L75.6671 37.4469C75.8283 37.5697 75.959 37.7281 76.0489 37.9097C76.1389 38.0913 76.1857 38.2912 76.1857 38.4939C76.1857 38.6965 76.1389 38.8965 76.0489 39.0781C75.959 39.2597 75.8283 39.4181 75.6671 39.5409L67.2894 45.9232C67.2437 45.9582 67.1877 45.9772 67.1301 45.9771Z" fill="#3F3D56"/>
<path d="M153.214 38.7571H137.156C137.086 38.7571 137.019 38.7294 136.969 38.68C136.92 38.6307 136.892 38.5637 136.892 38.4939C136.892 38.4241 136.92 38.3571 136.969 38.3077C137.019 38.2584 137.086 38.2306 137.156 38.2306H153.214C153.284 38.2306 153.351 38.2584 153.4 38.3077C153.45 38.3571 153.477 38.4241 153.477 38.4939C153.477 38.5637 153.45 38.6307 153.4 38.68C153.351 38.7294 153.284 38.7571 153.214 38.7571Z" fill="#3F3D56"/>
<path d="M149.792 45.9771C149.737 45.9771 149.683 45.9599 149.638 45.9278C149.594 45.8957 149.56 45.8503 149.542 45.7981C149.525 45.7459 149.524 45.6895 149.54 45.6368C149.556 45.5841 149.588 45.5378 149.632 45.5044L158.01 39.1221C158.107 39.0484 158.185 38.9534 158.239 38.8444C158.293 38.7354 158.321 38.6155 158.321 38.4939C158.321 38.3723 158.293 38.2523 158.239 38.1434C158.185 38.0344 158.107 37.9394 158.01 37.8657L149.632 31.4833C149.577 31.441 149.54 31.3784 149.531 31.3092C149.522 31.2401 149.54 31.1701 149.583 31.1146C149.625 31.0591 149.688 31.0227 149.757 31.0133C149.826 31.0039 149.896 31.0223 149.951 31.0645L158.329 37.4469C158.49 37.5697 158.621 37.7281 158.711 37.9097C158.801 38.0913 158.848 38.2912 158.848 38.4939C158.848 38.6965 158.801 38.8965 158.711 39.0781C158.621 39.2597 158.49 39.4181 158.329 39.5409L149.951 45.9232C149.906 45.9582 149.85 45.9772 149.792 45.9771Z" fill="#3F3D56"/>
<path d="M111.488 28.0953H102.274C101.681 28.0946 101.112 27.8587 100.693 27.4392C100.273 27.0197 100.037 26.4509 100.037 25.8576V16.907C100.037 16.3137 100.273 15.745 100.693 15.3255C101.112 14.906 101.681 14.67 102.274 14.6693H111.488C112.082 14.67 112.65 14.906 113.07 15.3255C113.489 15.745 113.725 16.3137 113.726 16.907V25.8576C113.725 26.4509 113.489 27.0197 113.07 27.4392C112.65 27.8587 112.082 28.0946 111.488 28.0953Z" fill="#1173AB"/>
<path d="M113.199 27.9637C113.165 27.9637 113.131 27.957 113.099 27.9437C113.067 27.9305 113.038 27.9111 113.013 27.8866L100.377 15.2504C100.353 15.2259 100.333 15.1969 100.32 15.165C100.307 15.133 100.3 15.0988 100.3 15.0642C100.3 15.0296 100.307 14.9954 100.32 14.9635C100.333 14.9316 100.353 14.9025 100.377 14.8781C100.402 14.8536 100.431 14.8343 100.462 14.821C100.494 14.8078 100.529 14.801 100.563 14.801C100.598 14.801 100.632 14.8078 100.664 14.821C100.696 14.8343 100.725 14.8537 100.749 14.8781L113.386 27.5143C113.422 27.5511 113.447 27.598 113.458 27.6491C113.468 27.7001 113.463 27.7531 113.443 27.8012C113.423 27.8493 113.389 27.8904 113.346 27.9193C113.302 27.9482 113.251 27.9637 113.199 27.9637Z" fill="white"/>
<path d="M100.563 27.9637C100.511 27.9637 100.46 27.9482 100.417 27.9193C100.374 27.8904 100.34 27.8493 100.32 27.8012C100.3 27.7531 100.295 27.7002 100.305 27.6491C100.315 27.598 100.34 27.5511 100.377 27.5143L113.013 14.8781C113.038 14.8537 113.067 14.8343 113.099 14.821C113.131 14.8078 113.165 14.801 113.199 14.801C113.234 14.801 113.268 14.8078 113.3 14.821C113.332 14.8343 113.361 14.8537 113.386 14.8781C113.41 14.9025 113.429 14.9316 113.443 14.9635C113.456 14.9954 113.463 15.0297 113.463 15.0642C113.463 15.0988 113.456 15.133 113.443 15.165C113.429 15.1969 113.41 15.2259 113.386 15.2504L100.749 27.8866C100.725 27.9111 100.696 27.9305 100.664 27.9437C100.632 27.957 100.598 27.9638 100.563 27.9637Z" fill="white"/>
<path d="M115.305 41.9162H98.1939C97.3212 41.9162 96.4842 41.5695 95.8671 40.9524C95.25 40.3352 94.9033 39.4982 94.9033 38.6255C94.9033 37.7528 95.25 36.9158 95.8671 36.2986C96.4842 35.6815 97.3212 35.3348 98.1939 35.3348H115.305C116.178 35.3348 117.015 35.6815 117.632 36.2986C118.249 36.9158 118.596 37.7528 118.596 38.6255C118.596 39.4982 118.249 40.3352 117.632 40.9524C117.015 41.5695 116.178 41.9162 115.305 41.9162ZM98.1939 35.8613C97.4608 35.8613 96.7578 36.1526 96.2394 36.6709C95.721 37.1893 95.4298 37.8924 95.4298 38.6255C95.4298 39.3586 95.721 40.0617 96.2394 40.5801C96.7578 41.0985 97.4608 41.3897 98.1939 41.3897H115.305C116.039 41.3897 116.742 41.0985 117.26 40.5801C117.778 40.0617 118.07 39.3586 118.07 38.6255C118.07 37.8924 117.778 37.1893 117.26 36.6709C116.742 36.1526 116.039 35.8613 115.305 35.8613H98.1939Z" fill="#3F3D56"/>
<path d="M115.305 51.9199H98.1939C97.3212 51.9199 96.4842 51.5732 95.8671 50.956C95.25 50.3389 94.9033 49.5019 94.9033 48.6292C94.9033 47.7564 95.25 46.9194 95.8671 46.3023C96.4842 45.6852 97.3212 45.3385 98.1939 45.3385H115.305C116.178 45.3385 117.015 45.6852 117.632 46.3023C118.249 46.9194 118.596 47.7564 118.596 48.6292C118.596 49.5019 118.249 50.3389 117.632 50.956C117.015 51.5732 116.178 51.9199 115.305 51.9199ZM98.1939 45.865C97.4608 45.865 96.7578 46.1562 96.2394 46.6746C95.721 47.193 95.4298 47.8961 95.4298 48.6292C95.4298 49.3623 95.721 50.0654 96.2394 50.5837C96.7578 51.1021 97.4608 51.3934 98.1939 51.3934H115.305C116.039 51.3934 116.742 51.1021 117.26 50.5837C117.778 50.0654 118.07 49.3623 118.07 48.6292C118.07 47.8961 117.778 47.193 117.26 46.6746C116.742 46.1562 116.039 45.865 115.305 45.865H98.1939Z" fill="#3F3D56"/>
<path d="M115.305 61.9235H98.1939C97.3212 61.9235 96.4842 61.5768 95.8671 60.9597C95.25 60.3426 94.9033 59.5056 94.9033 58.6328C94.9033 57.7601 95.25 56.9231 95.8671 56.306C96.4842 55.6889 97.3212 55.3422 98.1939 55.3422H115.305C116.178 55.3422 117.015 55.6889 117.632 56.306C118.249 56.9231 118.596 57.7601 118.596 58.6328C118.596 59.5056 118.249 60.3426 117.632 60.9597C117.015 61.5768 116.178 61.9235 115.305 61.9235ZM98.1939 55.8687C97.4608 55.8687 96.7578 56.1599 96.2394 56.6783C95.721 57.1967 95.4298 57.8997 95.4298 58.6328C95.4298 59.3659 95.721 60.069 96.2394 60.5874C96.7578 61.1058 97.4608 61.397 98.1939 61.397H115.305C116.039 61.397 116.742 61.1058 117.26 60.5874C117.778 60.069 118.07 59.3659 118.07 58.6328C118.07 57.8997 117.778 57.1967 117.26 56.6783C116.742 56.1599 116.039 55.8687 115.305 55.8687H98.1939Z" fill="#3F3D56"/>
<path d="M205.557 0.0607428L167.381 6.39669C166.211 6.5926 165.166 7.24449 164.476 8.20945C163.786 9.17441 163.506 10.3737 163.699 11.5444L173.655 71.5355C173.851 72.7057 174.503 73.7504 175.468 74.4406C176.433 75.1309 177.632 75.4103 178.803 75.2177L216.979 68.8818C218.149 68.6859 219.194 68.034 219.884 67.069C220.575 66.1041 220.854 64.9048 220.662 63.7341L210.705 3.74295C210.509 2.57282 209.857 1.52811 208.892 0.837865C207.927 0.147617 206.728 -0.131848 205.557 0.0607428ZM220.142 63.8203C220.312 64.8533 220.066 65.9116 219.457 66.7631C218.848 67.6146 217.926 68.1897 216.893 68.3624L178.717 74.6983C177.684 74.8685 176.626 74.622 175.774 74.0129C174.923 73.4038 174.348 72.4819 174.175 71.4493L164.218 11.4582C164.048 10.4252 164.295 9.36688 164.904 8.5154C165.513 7.66391 166.435 7.08876 167.467 6.9161L205.644 0.58015C206.677 0.41 207.735 0.656501 208.586 1.26558C209.438 1.87466 210.013 2.79659 210.186 3.82916L220.142 63.8203Z" fill="#3F3D56"/>
<path d="M198.832 24.6601L181.952 27.4618C181.091 27.6047 180.208 27.3997 179.499 26.8919C178.789 26.3842 178.31 25.6152 178.167 24.7543C178.024 23.8933 178.229 23.0108 178.737 22.301C179.244 21.5912 180.013 21.1121 180.874 20.9692L197.755 18.1676C198.616 18.0253 199.498 18.2306 200.207 18.7383C200.916 19.2461 201.395 20.0148 201.538 20.8754C201.681 21.7361 201.476 22.6182 200.969 23.3279C200.461 24.0376 199.693 24.5168 198.832 24.6601ZM180.96 21.4886C180.237 21.6088 179.592 22.0113 179.165 22.6075C178.739 23.2037 178.567 23.9448 178.687 24.6679C178.807 25.391 179.209 26.0369 179.805 26.4634C180.401 26.8899 181.142 27.0622 181.866 26.9424L198.746 24.1407C199.469 24.0206 200.115 23.6181 200.541 23.0219C200.968 22.4257 201.14 21.6845 201.02 20.9614C200.9 20.2383 200.498 19.5925 199.901 19.166C199.305 18.7394 198.564 18.5672 197.841 18.687L180.96 21.4886Z" fill="#CCCCCC"/>
<path d="M200.815 36.6065L183.934 39.4081C183.508 39.4791 183.072 39.4654 182.651 39.3678C182.229 39.2702 181.832 39.0905 181.48 38.8391C181.128 38.5877 180.83 38.2695 180.601 37.9026C180.372 37.5357 180.218 37.1274 180.147 36.7009C180.077 36.2744 180.091 35.8382 180.188 35.4171C180.286 34.996 180.466 34.5984 180.718 34.2468C180.969 33.8953 181.288 33.5968 181.655 33.3683C182.022 33.1399 182.43 32.986 182.857 32.9155L199.738 30.1139C200.598 29.971 201.481 30.176 202.191 30.6838C202.901 31.1915 203.38 31.9605 203.523 32.8214C203.665 33.6824 203.46 34.5649 202.953 35.2747C202.445 35.9845 201.676 36.4636 200.815 36.6065ZM182.943 33.4349C182.22 33.5552 181.575 33.9577 181.148 34.5539C180.722 35.1501 180.55 35.8912 180.67 36.6142C180.79 37.3371 181.192 37.9829 181.788 38.4094C182.384 38.8359 183.125 39.0083 183.848 38.8887L200.729 36.0871C201.452 35.9667 202.097 35.5642 202.524 34.9681C202.95 34.3719 203.122 33.6308 203.002 32.9078C202.882 32.1848 202.48 31.5391 201.884 31.1126C201.288 30.686 200.547 30.5137 199.824 30.6333L182.943 33.4349Z" fill="#CCCCCC"/>
<path d="M202.798 48.5528L185.917 51.3544C185.491 51.4254 185.054 51.4117 184.633 51.3141C184.212 51.2165 183.814 51.0368 183.463 50.7854C183.111 50.534 182.812 50.2158 182.584 49.8489C182.355 49.482 182.201 49.0737 182.13 48.6472C182.059 48.2207 182.073 47.7845 182.171 47.3634C182.269 46.9423 182.449 46.5446 182.701 46.1931C182.952 45.8416 183.271 45.5431 183.638 45.3146C184.005 45.0862 184.413 44.9323 184.84 44.8618L201.72 42.0602C202.581 41.9179 203.463 42.1232 204.172 42.631C204.882 43.1387 205.36 43.9074 205.503 44.768C205.646 45.6287 205.441 46.5108 204.934 47.2205C204.427 47.9302 203.658 48.4094 202.798 48.5528ZM184.926 45.3812C184.568 45.4406 184.225 45.5699 183.916 45.7618C183.608 45.9538 183.341 46.2045 183.13 46.4998C182.918 46.795 182.767 47.129 182.685 47.4826C182.603 47.8363 182.591 48.2026 182.651 48.5608C182.71 48.9189 182.84 49.2619 183.032 49.57C183.224 49.8781 183.474 50.1454 183.77 50.3566C184.065 50.5678 184.399 50.7187 184.753 50.8008C185.106 50.8829 185.473 50.8945 185.831 50.835L202.712 48.0333C203.07 47.9741 203.413 47.8448 203.721 47.6529C204.029 47.461 204.297 47.2102 204.508 46.915C204.719 46.6197 204.87 46.2857 204.953 45.932C205.035 45.5783 205.047 45.2119 204.987 44.8537C204.928 44.4955 204.798 44.1525 204.606 43.8444C204.414 43.5362 204.163 43.2689 203.868 43.0577C203.573 42.8465 203.238 42.6956 202.885 42.6136C202.531 42.5315 202.165 42.52 201.806 42.5796L184.926 45.3812Z" fill="#CCCCCC"/>
<path d="M204.78 60.499L187.9 63.3007C187.474 63.3714 187.037 63.3575 186.616 63.2597C186.196 63.162 185.798 62.9822 185.447 62.7308C185.095 62.4794 184.797 62.1612 184.568 61.7944C184.34 61.4277 184.186 61.0195 184.115 60.5932C184.044 60.1668 184.058 59.7308 184.156 59.3098C184.253 58.8889 184.433 58.4914 184.685 58.1399C184.936 57.7884 185.254 57.4899 185.621 57.2614C185.988 57.0329 186.396 56.8789 186.822 56.8081L203.703 54.0065C204.564 53.8642 205.446 54.0695 206.155 54.5772C206.864 55.085 207.343 55.8537 207.486 56.7143C207.629 57.575 207.424 58.4571 206.917 59.1668C206.409 59.8765 205.641 60.3557 204.78 60.499ZM186.908 57.3275C186.55 57.3869 186.207 57.5163 185.899 57.7083C185.591 57.9002 185.324 58.151 185.113 58.4462C184.686 59.0425 184.514 59.7837 184.634 60.5069C184.754 61.2302 185.157 61.8761 185.753 62.3026C186.349 62.7291 187.09 62.9013 187.814 62.7813L204.694 59.9796C205.417 59.8595 206.063 59.457 206.489 58.8608C206.916 58.2646 207.088 57.5234 206.968 56.8003C206.848 56.0772 206.446 55.4314 205.849 55.0049C205.253 54.5783 204.512 54.4061 203.789 54.5259L186.908 57.3275Z" fill="#CCCCCC"/>
<path d="M211.023 7.26439L164.536 14.9796C164.502 14.9854 164.467 14.9844 164.433 14.9766C164.399 14.9689 164.367 14.9545 164.339 14.9344C164.311 14.9143 164.287 14.8888 164.269 14.8594C164.25 14.83 164.238 14.7973 164.232 14.7631C164.227 14.729 164.228 14.694 164.236 14.6603C164.243 14.6265 164.258 14.5947 164.278 14.5665C164.298 14.5384 164.324 14.5145 164.353 14.4962C164.383 14.478 164.416 14.4657 164.45 14.4602L210.936 6.74499C210.971 6.7392 211.006 6.74021 211.039 6.74796C211.073 6.75571 211.105 6.77006 211.133 6.79017C211.161 6.81027 211.185 6.83575 211.204 6.86515C211.222 6.89454 211.234 6.92726 211.24 6.96144C211.246 6.99562 211.245 7.03058 211.237 7.06433C211.229 7.09807 211.214 7.12992 211.194 7.15807C211.174 7.18621 211.148 7.2101 211.119 7.22834C211.09 7.24659 211.057 7.25883 211.023 7.26439Z" fill="#3F3D56"/>
<path d="M169.586 11.8764C170.604 11.8764 171.429 11.0514 171.429 10.0336C171.429 9.01588 170.604 8.19084 169.586 8.19084C168.568 8.19084 167.743 9.01588 167.743 10.0336C167.743 11.0514 168.568 11.8764 169.586 11.8764Z" fill="#1173AB"/>
<path d="M206.291 2.87437L201.097 3.7364C201.028 3.74757 200.958 3.73103 200.901 3.6904C200.845 3.64977 200.807 3.58838 200.795 3.51965C200.784 3.45093 200.8 3.38049 200.841 3.32376C200.881 3.26703 200.942 3.22864 201.011 3.217L206.205 2.35496C206.274 2.34378 206.344 2.36031 206.401 2.40093C206.457 2.44156 206.496 2.50297 206.507 2.5717C206.518 2.64043 206.502 2.71089 206.462 2.76762C206.421 2.82435 206.36 2.86274 206.291 2.87437Z" fill="#3F3D56"/>
<path d="M206.55 4.43258L201.356 5.29462C201.287 5.30579 201.217 5.28925 201.16 5.24862C201.103 5.20799 201.065 5.14659 201.054 5.07787C201.042 5.00914 201.059 4.9387 201.099 4.88198C201.14 4.82525 201.201 4.78686 201.27 4.77521L206.464 3.91318C206.532 3.90201 206.603 3.91855 206.659 3.95918C206.716 3.99981 206.754 4.06121 206.766 4.12993C206.777 4.19865 206.761 4.26909 206.72 4.32582C206.68 4.38255 206.619 4.42094 206.55 4.43258Z" fill="#3F3D56"/>
<path d="M206.808 5.9908L201.614 6.85283C201.58 6.85862 201.545 6.8576 201.512 6.84984C201.478 6.84209 201.446 6.82774 201.418 6.80763C201.389 6.78752 201.365 6.76204 201.347 6.73266C201.329 6.70327 201.316 6.67055 201.311 6.63637C201.305 6.6022 201.306 6.56724 201.314 6.5335C201.322 6.49977 201.336 6.46792 201.357 6.43977C201.377 6.41163 201.402 6.38775 201.432 6.3695C201.461 6.35125 201.494 6.33899 201.528 6.33343L206.722 5.4714C206.756 5.46561 206.791 5.46662 206.825 5.47437C206.859 5.48212 206.891 5.49646 206.919 5.51657C206.947 5.53668 206.971 5.56216 206.99 5.59155C207.008 5.62095 207.02 5.65367 207.026 5.68785C207.032 5.72203 207.03 5.75699 207.023 5.79073C207.015 5.82448 207 5.85633 206.98 5.88448C206.96 5.91262 206.934 5.93651 206.905 5.95475C206.875 5.97299 206.843 5.98524 206.808 5.9908Z" fill="#3F3D56"/>
<path d="M33.6966 43.1008H13.9525C13.3592 43.1002 12.7905 42.8642 12.371 42.4447C11.9515 42.0252 11.7155 41.4564 11.7148 40.8632V20.8558C11.7155 20.2625 11.9515 19.6938 12.371 19.2743C12.7905 18.8548 13.3592 18.6188 13.9525 18.6181H33.6966C34.2899 18.6188 34.8586 18.8548 35.2781 19.2743C35.6976 19.6938 35.9336 20.2626 35.9343 20.8558V40.8632C35.9336 41.4564 35.6976 42.0252 35.2781 42.4447C34.8586 42.8642 34.2899 43.1002 33.6966 43.1008Z" fill="#1173AB"/>
<path d="M32.2487 57.9747H15.1371C14.2644 57.9747 13.4274 57.628 12.8103 57.0109C12.1932 56.3938 11.8465 55.5568 11.8465 54.684C11.8465 53.8113 12.1932 52.9743 12.8103 52.3572C13.4274 51.74 14.2644 51.3933 15.1371 51.3933H32.2487C33.1214 51.3933 33.9584 51.74 34.5755 52.3572C35.1927 52.9743 35.5394 53.8113 35.5394 54.684C35.5394 55.5568 35.1927 56.3938 34.5755 57.0109C33.9584 57.628 33.1214 57.9747 32.2487 57.9747ZM15.1371 51.9199C14.404 51.9199 13.701 52.2111 13.1826 52.7295C12.6642 53.2478 12.373 53.9509 12.373 54.684C12.373 55.4171 12.6642 56.1202 13.1826 56.6386C13.701 57.157 14.404 57.4482 15.1371 57.4482H32.2487C32.9818 57.4482 33.6849 57.157 34.2033 56.6386C34.7216 56.1202 35.0129 55.4171 35.0129 54.684C35.0129 53.9509 34.7216 53.2478 34.2033 52.7295C33.6849 52.2111 32.9818 51.9199 32.2487 51.9199H15.1371Z" fill="#3F3D56"/>
<path d="M35.4077 42.706C35.3731 42.706 35.3389 42.6992 35.307 42.686C35.275 42.6727 35.246 42.6533 35.2216 42.6288L12.0552 19.4624C12.0305 19.438 12.0108 19.409 11.9974 19.377C11.984 19.345 11.977 19.3106 11.9769 19.2759C11.9768 19.2412 11.9836 19.2068 11.9968 19.1747C12.01 19.1426 12.0295 19.1135 12.054 19.089C12.0786 19.0644 12.1077 19.045 12.1398 19.0317C12.1719 19.0185 12.2063 19.0117 12.241 19.0119C12.2757 19.012 12.3101 19.019 12.3421 19.0324C12.3741 19.0458 12.4031 19.0655 12.4275 19.0902L35.5939 42.2566C35.6307 42.2934 35.6558 42.3403 35.6659 42.3914C35.6761 42.4424 35.6709 42.4953 35.6509 42.5434C35.631 42.5915 35.5973 42.6326 35.554 42.6616C35.5107 42.6905 35.4598 42.706 35.4077 42.706Z" fill="white"/>
<path d="M12.2413 42.706C12.1893 42.706 12.1384 42.6905 12.0951 42.6616C12.0518 42.6327 12.0181 42.5916 11.9981 42.5435C11.9782 42.4954 11.973 42.4424 11.9831 42.3914C11.9933 42.3403 12.0184 42.2934 12.0552 42.2566L35.2216 19.0902C35.246 19.0655 35.275 19.0458 35.307 19.0324C35.339 19.019 35.3733 19.012 35.4081 19.0119C35.4428 19.0118 35.4772 19.0185 35.5092 19.0317C35.5413 19.045 35.5705 19.0644 35.595 19.089C35.6196 19.1135 35.639 19.1427 35.6523 19.1748C35.6655 19.2068 35.6723 19.2412 35.6722 19.2759C35.6721 19.3107 35.6651 19.345 35.6516 19.377C35.6382 19.409 35.6186 19.438 35.5939 19.4624L12.4275 42.6288C12.4031 42.6533 12.3741 42.6727 12.3421 42.686C12.3102 42.6992 12.2759 42.706 12.2413 42.706Z" fill="white"/>
<path d="M215.62 69.6078C215.742 69.2128 215.775 68.7958 215.719 68.3862C215.662 67.9767 215.516 67.5846 215.291 67.2375C215.067 66.8904 214.769 66.5968 214.418 66.3773C214.068 66.1578 213.674 66.0179 213.263 65.9672L199.75 50.1764L196.598 53.4857L210.058 68.6264C210.019 69.3214 210.236 70.0067 210.668 70.5523C211.1 71.098 211.718 71.4663 212.403 71.5872C213.089 71.7082 213.795 71.5735 214.387 71.2087C214.98 70.8439 215.419 70.2743 215.62 69.6078Z" fill="#A0616A"/>
<path d="M203.664 53.503L198.834 57.0334C198.696 57.1338 198.539 57.2035 198.372 57.2376C198.205 57.2717 198.033 57.2694 197.867 57.231C197.702 57.1926 197.546 57.1188 197.411 57.0148C197.276 56.9108 197.166 56.779 197.086 56.6283L194.31 51.3486C193.8 50.6425 193.591 49.763 193.729 48.9029C193.866 48.0428 194.339 47.2723 195.044 46.7605C195.749 46.2486 196.628 46.0371 197.488 46.1722C198.349 46.3074 199.12 46.7783 199.634 47.4816L203.809 51.715C203.929 51.8363 204.021 51.9818 204.079 52.1418C204.137 52.3018 204.16 52.4725 204.146 52.6422C204.132 52.8118 204.082 52.9766 203.999 53.1251C203.916 53.2737 203.802 53.4026 203.664 53.503Z" fill="#1173AB"/>
<path d="M194.343 42.9531C197.914 42.9531 200.809 40.0583 200.809 36.4873C200.809 32.9164 197.914 30.0215 194.343 30.0215C190.772 30.0215 187.877 32.9164 187.877 36.4873C187.877 40.0583 190.772 42.9531 194.343 42.9531Z" fill="#A0616A"/>
<path d="M197.152 65.6581C197.085 65.6581 197.018 65.6526 196.952 65.6414L185.607 63.7318C185.333 63.6862 185.085 63.5462 184.904 63.3361C184.724 63.126 184.623 62.8591 184.619 62.5821C184.584 59.9866 184.778 53.4345 187.321 48.6623C188.116 47.1706 189.426 46.0185 191.007 45.4204C192.589 44.8222 194.333 44.8187 195.916 45.4105C197.5 46.0023 198.815 47.149 199.616 48.6375C200.417 50.1259 200.65 51.8548 200.272 53.5024C199.421 57.1682 198.771 60.8777 198.324 64.6144C198.29 64.9014 198.151 65.1661 197.936 65.3583C197.72 65.5506 197.441 65.6572 197.152 65.6581Z" fill="#2F2E41"/>
<path d="M173.366 44.3684C173.398 44.5104 173.419 44.6548 173.429 44.8002L184.738 51.3241L187.486 49.7417L190.417 53.5779L185.823 56.8522C185.452 57.1167 185.005 57.2537 184.549 57.2426C184.093 57.2315 183.654 57.0729 183.296 56.7906L171.635 47.591C171.108 47.7858 170.535 47.8158 169.992 47.6769C169.448 47.538 168.959 47.2369 168.591 46.8136C168.223 46.3903 167.992 45.8649 167.929 45.3073C167.867 44.7496 167.975 44.1861 168.241 43.6917C168.507 43.1974 168.916 42.7956 169.416 42.5398C169.915 42.284 170.481 42.1863 171.037 42.2598C171.593 42.3333 172.114 42.5744 172.53 42.951C172.946 43.3277 173.238 43.8221 173.366 44.3684Z" fill="#A0616A"/>
<path d="M184.893 50.672C184.927 50.5052 184.997 50.3477 185.097 50.2103C185.197 50.0729 185.326 49.9587 185.475 49.8757L190.665 46.9739C191.354 46.4418 192.226 46.2048 193.09 46.3149C193.954 46.425 194.739 46.8731 195.273 47.5611C195.808 48.2491 196.047 49.1207 195.939 49.985C195.832 50.8493 195.386 51.6356 194.699 52.1716L190.562 56.4683C190.444 56.5909 190.3 56.6866 190.142 56.7489C189.984 56.8112 189.814 56.8386 189.644 56.8293C189.474 56.82 189.308 56.7742 189.157 56.6949C189.006 56.6157 188.875 56.5049 188.771 56.3701L185.116 51.6331C185.012 51.4984 184.938 51.3428 184.899 51.1769C184.861 51.011 184.859 50.8388 184.893 50.672Z" fill="#1173AB"/>
<path d="M179.418 123.648H176.19L175.43 111.239L179.418 111.199L179.418 123.648Z" fill="#A0616A"/>
<path d="M180.241 126.776L169.834 126.776V126.644C169.834 126.112 169.939 125.586 170.142 125.094C170.346 124.603 170.644 124.156 171.02 123.78C171.397 123.404 171.843 123.106 172.335 122.902C172.826 122.699 173.353 122.594 173.885 122.594L180.241 122.594L180.241 126.776Z" fill="#2F2E41"/>
<path d="M210.218 123.648H206.991L205.456 111.199H210.219L210.218 123.648Z" fill="#A0616A"/>
<path d="M211.041 126.776L200.635 126.776V126.644C200.635 126.112 200.74 125.586 200.943 125.094C201.147 124.603 201.445 124.156 201.821 123.78C202.197 123.404 202.644 123.106 203.135 122.902C203.627 122.699 204.153 122.594 204.685 122.594L211.042 122.594L211.041 126.776Z" fill="#2F2E41"/>
<path d="M206.549 117.192C206.303 117.192 206.064 117.115 205.864 116.973C205.663 116.831 205.512 116.63 205.43 116.399L195.144 87.0126C195.105 86.9 195.036 86.8003 194.944 86.724C194.852 86.6478 194.742 86.5979 194.624 86.5796C194.506 86.5614 194.385 86.5756 194.275 86.6206C194.164 86.6656 194.068 86.7398 193.997 86.8352L183.964 100.212C183.886 100.317 183.831 100.436 183.802 100.564L180.605 114.827C180.548 115.08 180.409 115.308 180.21 115.475C180.011 115.642 179.762 115.739 179.503 115.751L175.674 115.925C175.509 115.933 175.344 115.907 175.19 115.847C175.035 115.787 174.896 115.695 174.78 115.577C174.663 115.46 174.573 115.319 174.514 115.165C174.455 115.011 174.429 114.846 174.437 114.681L175.104 101.663C175.315 97.4511 176.4 93.3295 178.291 89.5603C182.494 81.1796 184.925 72.0232 185.434 62.6615L185.442 62.5158L197.223 64.3902L198.992 66.8389C199.781 67.9437 200.636 69 201.552 70.0021C203.804 72.4441 204.481 75.7101 204.651 78.0198C204.872 80.8584 205.273 83.68 205.854 86.4673L211.697 115.178C211.741 115.341 211.749 115.512 211.722 115.678C211.694 115.845 211.631 116.004 211.538 116.144C211.444 116.284 211.321 116.403 211.178 116.492C211.034 116.581 210.874 116.638 210.706 116.66L206.701 117.182C206.651 117.189 206.6 117.192 206.549 117.192Z" fill="#2F2E41"/>
<path d="M201.492 31.9996C200.979 30.4426 200.6 28.8445 200.359 27.2227C200.284 26.2786 200.526 25.2627 201.213 24.6112C202.5 23.3921 204.686 23.9727 206.032 25.1265C207.977 26.7941 208.947 29.3567 209.313 31.8922C209.68 34.4277 209.519 37.006 209.607 39.5663C209.695 42.1267 210.061 44.7593 211.367 46.9637C212.672 49.168 215.094 50.8601 217.649 50.6725C218.68 50.6167 219.66 50.2018 220.417 49.4995C220.789 49.1459 221.07 48.7083 221.238 48.2234C221.406 47.7385 221.455 47.2205 221.381 46.7127C222.687 49.051 222.025 52.2202 220.077 54.0585C218.129 55.8967 215.133 56.4164 212.572 55.6315C210.012 54.8467 207.904 52.8787 206.645 50.5148C205.386 48.1508 204.925 45.4199 204.992 42.7425C205.043 40.6865 205.393 38.6136 205.045 36.5864C204.698 34.5593 203.429 32.501 201.429 32.0236L201.492 31.9996Z" fill="#2F2E41"/>
<path d="M192.509 34.6647C192.167 35.8041 190.863 36.5067 189.689 36.314C188.516 36.1213 187.55 35.1548 187.194 34.0202C186.871 32.8613 187.003 31.6231 187.563 30.5582C187.871 29.92 188.302 29.3487 188.832 28.8773C189.361 28.4058 189.978 28.0434 190.648 27.8107C191.321 27.5875 192.038 27.5295 192.738 27.6414C193.439 27.7533 194.102 28.032 194.672 28.4538C194.733 28.1978 194.861 27.9627 195.043 27.7725C195.225 27.5824 195.454 27.4442 195.707 27.372C196.216 27.2347 196.754 27.2427 197.259 27.3949C198.715 27.8098 199.976 28.7274 200.819 29.9847C201.651 31.2381 202.201 32.6569 202.432 34.1435C202.829 36.3729 202.683 38.809 201.431 40.6959C200.179 42.5827 197.617 43.6969 195.539 42.7973C195.409 42.1349 195.716 41.4678 196.072 40.8938C196.427 40.3197 196.848 39.7605 196.984 39.0995C197.12 38.4384 196.859 37.6297 196.219 37.4135C195.674 37.2291 195.092 37.5279 194.518 37.564C194.191 37.5845 193.865 37.5188 193.572 37.3735C193.279 37.2282 193.03 37.0084 192.848 36.7362C192.667 36.464 192.561 36.1489 192.54 35.8226C192.519 35.4962 192.584 35.1701 192.729 34.8769L192.509 34.6647Z" fill="#2F2E41"/>
<path d="M240.039 126.947H139.739C139.67 126.947 139.603 126.92 139.553 126.87C139.504 126.821 139.476 126.754 139.476 126.684C139.476 126.614 139.504 126.547 139.553 126.498C139.603 126.449 139.67 126.421 139.739 126.421H240.039C240.109 126.421 240.176 126.449 240.226 126.498C240.275 126.547 240.303 126.614 240.303 126.684C240.303 126.754 240.275 126.821 240.226 126.87C240.176 126.92 240.109 126.947 240.039 126.947Z" fill="#CCCCCC"/>
</g>
<defs>
<clipPath id="clip0_2560_14060">
<rect width="250" height="126.974" fill="white"/>
</clipPath>
</defs>
</svg>
