<svg width="24" height="24" viewBox="0 0 24 24" fill="none" xmlns="http://www.w3.org/2000/svg">
<mask id="mask0_2169_22224" style="mask-type:alpha" maskUnits="userSpaceOnUse" x="0" y="0" width="24" height="24">
<rect width="24" height="24" fill="#D9D9D9"/>
</mask>
<g mask="url(#mask0_2169_22224)">
<path d="M8 22C7.45 22 6.97917 21.8042 6.5875 21.4125C6.19583 21.0208 6 20.55 6 20V19C6 18.2167 6.17083 17.4917 6.5125 16.825C6.85417 16.1583 7.3 15.6 7.85 15.15L7.225 11H5C4.45 11 3.97917 10.8042 3.5875 10.4125C3.19583 10.0208 3 9.55 3 9V5C3 4.45 3.19583 3.97917 3.5875 3.5875C3.97917 3.19583 4.45 3 5 3H10V2H14V3H17.975L16.15 15.15C16.7 15.6 17.1458 16.1583 17.4875 16.825C17.8292 17.4917 18 18.2167 18 19V20C18 20.55 17.8042 21.0208 17.4125 21.4125C17.0208 21.8042 16.55 22 16 22H8ZM6.925 9L6.325 5H5V9H6.925ZM12 19C12.2833 19 12.5208 18.9042 12.7125 18.7125C12.9042 18.5208 13 18.2833 13 18C13 17.7167 12.9042 17.4792 12.7125 17.2875C12.5208 17.0958 12.2833 17 12 17C11.7167 17 11.4792 17.0958 11.2875 17.2875C11.0958 17.4792 11 17.7167 11 18C11 18.2833 11.0958 18.5208 11.2875 18.7125C11.4792 18.9042 11.7167 19 12 19ZM9.7 14H14.3L15.65 5H8.35L9.7 14ZM8 20H16V19C16 18.1667 15.7083 17.4583 15.125 16.875C14.5417 16.2917 13.8333 16 13 16H11C10.1667 16 9.45833 16.2917 8.875 16.875C8.29167 17.4583 8 18.1667 8 19V20Z" fill="#1C1B1F"/>
</g>
</svg>
