<svg width="50" height="50" viewBox="0 0 50 50" fill="none" xmlns="http://www.w3.org/2000/svg">
<circle cx="25" cy="25" r="23" fill="white" stroke="#1173AB" stroke-width="4"/>
<g clip-path="url(#clip0_487_3795)">
<path fill-rule="evenodd" clip-rule="evenodd" d="M17.3568 15.6387C17.5756 15.4203 17.8382 15.2509 18.1273 15.1417C18.4165 15.0325 18.7255 14.986 19.034 15.0052C19.3425 15.0245 19.6434 15.1091 19.9167 15.2534C20.19 15.3978 20.4295 15.5985 20.6193 15.8424L22.8631 18.7249C23.2743 19.2537 23.4193 19.9424 23.2568 20.5924L22.5731 23.3299C22.5377 23.4717 22.5396 23.6202 22.5786 23.7611C22.6176 23.9019 22.6924 24.0303 22.7956 24.1337L25.8668 27.2049C25.9704 27.3084 26.099 27.3832 26.24 27.4222C26.3811 27.4612 26.5299 27.463 26.6718 27.4274L29.4081 26.7437C29.7289 26.6635 30.0637 26.6573 30.3872 26.7255C30.7107 26.7937 31.0145 26.9346 31.2756 27.1374L34.1581 29.3799C35.1943 30.1862 35.2893 31.7174 34.3618 32.6437L33.0693 33.9362C32.1443 34.8612 30.7618 35.2674 29.4731 34.8137C26.1746 33.6531 23.1797 31.7647 20.7106 29.2887C18.2347 26.82 16.3463 23.8255 15.1856 20.5274C14.7331 19.2399 15.1393 17.8562 16.0643 16.9312L17.3568 15.6387Z" fill="#1173AB"/>
</g>
<defs>
<clipPath id="clip0_487_3795">
<rect width="20" height="20" fill="white" transform="translate(15 15)"/>
</clipPath>
</defs>
</svg>
