<svg width="200" height="200" viewBox="0 0 200 200" fill="none" xmlns="http://www.w3.org/2000/svg">
<rect width="200" height="200" fill="white"/>
<path fill-rule="evenodd" clip-rule="evenodd" d="M155.995 103.692C156.345 146.738 137.515 178.185 101.517 179.97C75.2792 181.271 90.9747 140.105 58.0912 112.772C37.0425 95.2768 23.1499 49.8193 75.0267 38.0657C126.903 26.3123 155.646 60.6453 155.995 103.692Z" fill="#1173AB"/>
<path d="M49.7657 166.198C46.5 160.178 47.0333 152.893 47.7075 146.078C49.2582 130.4 51.6459 113.518 62.627 102.222C65.5314 99.2347 69.0765 96.7017 73.145 95.8022C76.2976 95.1051 79.3349 93.8889 82.0972 92.2173C82.7631 88.318 79.0942 85.2476 76.5309 82.2347C73.6604 78.8607 71.8697 74.5819 71.4814 70.1691C71.2516 67.5571 70.7031 63.9981 68.0833 63.8868C65.9299 63.7952 64.3087 61.1968 65.1731 59.2223C66.0376 57.2479 69.0466 56.6766 70.5745 58.1969C68.395 50.0258 72.9993 40.5982 80.7836 37.2933C79.5143 35.4781 82.2847 33.3027 84.4843 33.5627C86.6839 33.8227 88.813 35.1513 90.9728 34.6604C90.2326 33.3571 91.4185 31.6255 92.8797 31.2916C94.3409 30.9578 95.8404 31.5921 97.151 32.3193C105.564 36.9869 111.124 46.4 111.151 56.0213C111.368 54.2651 114.004 53.6637 115.293 54.8761C116.582 56.0886 116.52 58.2586 115.605 59.7731C114.69 61.2876 113.13 62.282 111.586 63.1464C111.625 69.5267 109.198 75.8909 104.921 80.6257C101.809 84.071 97.3999 87.7257 98.4212 92.2547C100.077 91.8884 101.752 93.7983 101.172 95.3918C108.27 94.8005 114.894 99.0847 119.923 104.129C127.295 111.523 132.594 120.964 135.066 131.108C135.498 132.88 138.019 133.364 139.578 132.418C141.138 131.473 141.94 129.685 142.651 128.005L156.691 94.824C155.787 90.3538 156.519 85.7338 157.252 81.2323L159.686 66.2929C159.907 64.9368 160.856 63.1473 162.108 63.7126C162.541 63.908 162.782 64.3303 162.935 64.7956C163.005 65.0113 163.057 65.2363 163.1 65.4522C163.859 69.2829 164.102 73.2157 163.819 77.1107L168.68 68.796C169.466 67.4505 171.096 65.9621 172.313 66.5187C172.77 66.6085 173.08 67.0648 173.145 67.5301C173.319 68.1627 173.172 68.9234 172.974 69.5796C172.087 72.5187 170.642 75.2882 168.738 77.6963C171.305 78.5719 174.278 79.9014 174.728 82.576C174.461 87.4249 170.887 92.9918 168.252 95.8819C168.857 95.517 169.252 96.6026 169.132 97.2985C166.241 114.021 159.198 130.009 148.811 143.429C145.745 147.389 142.185 150.454 136.601 151.006C128.99 151.76 124 140.534 119.867 140.834C119.867 140.834 116 160.8 113.2 163.467C110.4 166.134 92 171.734 86.4552 169.867C80.9105 168 75.3644 172.992 68.0833 172.492C60.5372 171.973 49.7657 166.198 49.7657 166.198Z" fill="white"/>
<path d="M165.404 99.4955C165.338 99.4074 165.293 99.3037 165.274 99.1952C165.202 98.786 165.568 98.3579 165.983 98.3663C166.399 98.3748 166.748 98.8173 166.659 99.2233C166.57 99.6293 166.068 99.8853 165.687 99.7191C165.576 99.6705 165.477 99.5927 165.404 99.4955Z" fill="#00160A"/>
<path d="M97.5801 56.7998C97.2977 56.7361 97.1602 56.382 97.2382 56.1032C97.3162 55.8243 97.5457 55.6154 97.7823 55.4486C99.3942 54.3124 101.846 54.6065 103.144 56.0915C103.247 56.2098 103.349 56.3486 103.344 56.5057C103.339 56.6627 103.167 56.8149 103.028 56.7422C102.297 56.3612 101.552 55.9753 100.742 55.8282C99.9311 55.6811 99.0293 55.8069 98.4123 56.3529C98.1661 56.5707 97.9008 56.8722 97.5801 56.7998Z" fill="#00160A"/>
<path d="M83.7429 56.7447C83.6544 57.017 83.2998 57.1166 83.024 57.0395C82.7482 56.9625 82.5267 56.7636 82.293 56.5982C81.5245 56.0545 80.5501 55.8469 79.6108 55.9079C78.6715 55.9688 77.763 56.2834 76.9216 56.7054C76.7288 56.8021 76.4993 56.5776 76.5112 56.3622C76.523 56.1469 76.685 55.972 76.8484 55.8312C77.7236 55.0775 78.9132 54.7333 80.0667 54.7927C81.2202 54.8521 82.3352 55.295 83.2853 55.9519C83.5551 56.1385 83.8442 56.4326 83.7429 56.7447Z" fill="black"/>
<path d="M165.801 102.536C165.703 102.667 165.563 102.759 165.421 102.84C165.274 102.923 165.111 102.999 164.942 102.986C164.718 102.969 164.53 102.792 164.438 102.587C164.21 102.081 164.597 101.39 165.151 101.37C165.705 101.351 166.133 102.092 165.801 102.536Z" fill="#00160A"/>
<path d="M116.475 123.62C116.744 123.743 116.552 124.178 116.278 124.289C116.003 124.401 115.657 124.404 115.478 124.64C115.351 124.808 115.356 125.038 115.369 125.249C115.395 125.679 115.422 126.135 115.217 126.514C115.012 126.893 114.478 127.126 114.137 126.864C113.823 126.623 113.851 126.156 113.84 125.76C113.829 125.365 113.63 124.87 113.235 124.888C111.302 124.977 109.368 125.065 107.434 125.154C107.189 125.165 106.91 125.163 106.743 124.983C106.514 124.737 106.669 124.302 106.958 124.131C107.247 123.959 107.606 123.973 107.941 123.992C109.362 124.074 110.783 124.156 112.204 124.239C112.425 124.251 112.656 124.262 112.856 124.167C113.056 124.072 113.206 123.834 113.125 123.629C112.908 123.077 113.196 122.38 113.739 122.142C113.928 122.06 114.013 121.842 114.06 121.642C114.107 121.442 114.14 121.224 114.283 121.075C114.426 120.927 114.725 120.918 114.8 121.109C114.973 121.551 115.396 121.837 115.693 122.207C115.991 122.577 116.128 123.192 115.752 123.481C115.773 123.752 116.228 123.507 116.475 123.62Z" fill="#00160A"/>
<path d="M78.6533 73.7054C78.3834 73.689 78.2714 73.2565 78.4994 73.1112C78.786 73.0908 78.9121 73.5816 78.6511 73.7019L78.6533 73.7054Z" fill="#FFB61D"/>
<path d="M100.225 66.9356C100.147 66.7959 100.228 66.5944 100.381 66.5472C100.533 66.5 100.714 66.6206 100.729 66.7796C100.687 66.9864 100.385 67.0804 100.233 66.934L100.225 66.9356Z" fill="#FFB61D"/>
<path d="M99.3197 64.2708C99.2057 64.4963 98.7934 64.4334 98.7519 64.1841C98.8352 64.0706 98.9549 63.9841 99.0889 63.9406C99.2025 64.0241 99.2899 64.1427 99.3361 64.276L99.3197 64.2708Z" fill="#FFB61D"/>
<path d="M93.7996 74.3228C93.9685 74.3115 94.1394 74.413 94.2104 74.5667C94.1533 74.7407 93.9375 74.8613 93.7755 74.7759C93.6135 74.6905 93.6291 74.3916 93.8089 74.357L93.7996 74.3228Z" fill="#FFB61D"/>
<path d="M98.8645 74.5747C98.9479 74.3669 99.3349 74.4462 99.3299 74.6701C99.2131 74.7859 99.0615 74.8663 98.9 74.8979C98.77 74.8534 98.7376 74.6483 98.8476 74.5659L98.8645 74.5747Z" fill="#FFB61D"/>
<path d="M90.1457 65.19C89.975 65.1908 89.8495 65.4103 89.9355 65.5577C90.0215 65.7052 90.2743 65.7041 90.359 65.5559C90.4437 65.4076 90.3164 65.1893 90.1457 65.19Z" fill="#FFB61D"/>
<path d="M79.8513 67.7915C79.7137 67.6884 79.4797 67.7886 79.4593 67.9593C79.4389 68.13 79.6427 68.2825 79.8007 68.2149C79.9587 68.1472 79.9889 67.8945 79.8513 67.7915Z" fill="#FFB61D"/>
<path d="M102.858 68.2014C102.693 68.2554 102.507 68.0714 102.556 67.9055C102.605 67.7396 102.858 67.6856 102.973 67.8151C103.088 67.9446 103.008 68.1866 102.839 68.2244L102.858 68.2014Z" fill="#FFB61D"/>
<path d="M89.165 73.2789C89.1014 73.119 88.8494 73.0823 88.7428 73.2172C88.6362 73.3522 88.7303 73.5889 88.9005 73.6137C89.0707 73.6386 89.2286 73.4387 89.165 73.2789Z" fill="#FFB61D"/>
<path d="M88.8962 77.5019C88.7766 77.5368 88.6842 77.3913 88.6638 77.2684C88.7817 77.0448 89.1904 77.1072 89.2362 77.3557C89.164 77.4648 89.0247 77.525 88.8958 77.5029L88.8962 77.5019Z" fill="#FFB61D"/>
<path d="M90.5283 77.3019C90.3429 77.3477 90.0821 77.257 90.1007 77.067C90.2113 76.9529 90.384 76.8707 90.5279 76.938C90.6719 77.0052 90.6798 77.27 90.523 77.2961L90.5283 77.3019Z" fill="#FFB61D"/>
<path d="M98.8996 77.2148C98.8231 77.1584 98.7706 77.0703 98.7576 76.9761C98.8376 76.8611 98.9569 76.7741 99.0909 76.7331C99.17 76.8129 99.2491 76.8928 99.3282 76.9727C99.241 77.1227 99.0727 77.2221 98.8992 77.2261L98.8996 77.2148Z" fill="#FFB61D"/>
<path d="M91.5861 65.6693C91.4506 65.8531 91.098 65.7635 91.0668 65.5372C91.182 65.2924 91.6406 65.4016 91.6331 65.672L91.5861 65.6693Z" fill="#FFB61D"/>
<path d="M95.3418 74.7104C95.1886 74.8581 94.8783 74.704 94.9033 74.4927C94.9284 74.2814 95.2662 74.2042 95.3806 74.3836C95.2961 74.4456 95.2618 74.5674 95.3016 74.6643L95.3418 74.7104Z" fill="#FFB61D"/>
<path d="M85.9945 65.2597C86.1589 65.2057 86.3454 65.3897 86.296 65.5556C86.2467 65.7214 85.9938 65.7755 85.879 65.646C85.7642 65.5165 85.8445 65.2745 86.0134 65.2367L85.9945 65.2597Z" fill="#FFB61D"/>
<path d="M90.008 70.6325C90.1693 70.4978 90.4628 70.615 90.4869 70.8237C90.3765 70.9241 90.2256 71.0067 90.0827 70.9637C89.9397 70.9207 89.8719 70.6941 90.0019 70.6206L90.008 70.6325Z" fill="#FFB61D"/>
<path d="M93.6695 71.9804C93.7801 71.7555 94.1901 71.8147 94.2326 72.0617C94.1098 72.2864 93.6996 72.2261 93.6467 71.9756L93.6695 71.9804Z" fill="#FFB61D"/>
<path d="M93.8957 73.2708C94.0089 73.1039 94.3315 73.2121 94.3212 73.4135C94.2477 73.5299 94.1296 73.6174 93.9967 73.6536C93.8642 73.5826 93.8101 73.3955 93.8844 73.2647L93.8957 73.2708Z" fill="#FFB61D"/>
<path d="M99.2361 65.4316C99.1306 65.294 98.876 65.3274 98.8096 65.4875C98.7432 65.6477 98.8994 65.8515 99.0713 65.8289C99.2432 65.8064 99.3416 65.5692 99.2361 65.4316Z" fill="#FFB61D"/>
<path d="M96.499 78.1845C96.5317 78.0345 96.7955 78.1072 96.8119 78.2598C96.8283 78.4124 96.7048 78.5402 96.5912 78.6435C96.5052 78.5883 96.4139 78.5269 96.3775 78.4315C96.3411 78.336 96.3955 78.2016 96.4977 78.1989L96.499 78.1845Z" fill="#FFB61D"/>
<path d="M83.7784 64.1409C83.7149 63.9811 83.4628 63.9443 83.3562 64.0793C83.2496 64.2143 83.3438 64.4509 83.5139 64.4758C83.6841 64.5006 83.842 64.3007 83.7784 64.1409Z" fill="#FFB61D"/>
<path d="M90.3258 78.1848C90.2387 78.0464 89.9968 78.0557 89.9205 78.2003C89.8442 78.3449 89.9732 78.5498 90.1365 78.5436C90.2999 78.5373 90.4129 78.3232 90.3258 78.1848Z" fill="#FFB61D"/>
<path d="M79.6083 73.0349C79.7002 72.9309 79.8883 73.0573 79.8842 73.196C79.8801 73.3347 79.7683 73.4431 79.6645 73.5352C79.4412 73.4996 79.4032 73.117 79.6152 73.0382L79.6083 73.0349Z" fill="#FFB61D"/>
<path d="M91.5905 75.9668C91.4959 76.0254 91.4013 76.084 91.3067 76.1426C91.1337 76.079 91.1134 75.7916 91.2757 75.7044C91.4381 75.6171 91.6666 75.7925 91.6241 75.9719L91.5905 75.9668Z" fill="#FFB61D"/>
<path d="M102.62 73.1708C102.567 73.0071 102.886 72.9543 102.949 73.1143C103.012 73.2744 102.885 73.4473 102.743 73.5445C102.603 73.4823 102.512 73.3242 102.529 73.172L102.62 73.1708Z" fill="#FFB61D"/>
<path d="M98.7559 73.3202C98.8596 73.1705 99.0867 73.1243 99.2408 73.2215C99.281 73.4456 98.9971 73.6516 98.7965 73.5438C98.7768 73.4702 98.7571 73.3966 98.7373 73.323L98.7559 73.3202Z" fill="#FFB61D"/>
<path d="M83.4936 71.8005C83.658 71.7465 83.8445 71.9306 83.7951 72.0965C83.7458 72.2623 83.4929 72.3163 83.3781 72.1869C83.2633 72.0574 83.3436 71.8153 83.5125 71.7775L83.4936 71.8005Z" fill="#FFB61D"/>
<path d="M101.344 63.0276C101.346 62.8833 101.496 62.7602 101.638 62.7869C101.78 62.8135 101.875 62.9827 101.824 63.1178C101.675 63.2308 101.436 63.1958 101.325 63.0448L101.344 63.0276Z" fill="#FFB61D"/>
<path d="M97.6959 70.6256C97.8345 70.5142 98.082 70.6403 98.0735 70.8179C97.9517 71.0073 97.6267 71.0074 97.5047 70.8181C97.5686 70.7541 97.6326 70.6902 97.6965 70.6262L97.6959 70.6256Z" fill="#FFB61D"/>
<path d="M81.9645 74.4222C82.1043 74.2743 82.3822 74.2996 82.4931 74.4703C82.4089 74.5866 82.2985 74.7056 82.155 74.7125C82.0116 74.7194 81.8761 74.5329 81.9753 74.4292L81.9645 74.4222Z" fill="#FFB61D"/>
<path d="M102.891 75.9158C102.833 75.992 102.746 76.0447 102.652 76.0592C102.481 75.9614 102.481 75.6566 102.665 75.5859C102.849 75.5151 103.047 75.8005 102.9 75.9314L102.891 75.9158Z" fill="#FFB61D"/>
<path d="M79.7775 75.9937C79.9119 75.9003 79.8916 75.6586 79.7434 75.5889C79.5952 75.5193 79.3962 75.6577 79.4099 75.8208C79.4236 75.984 79.643 76.0872 79.7775 75.9937Z" fill="#FFB61D"/>
<path d="M102.815 71.0251C102.681 71.1624 102.454 70.8772 102.584 70.7359C102.714 70.5945 102.966 70.6668 103.082 70.8198C103.002 70.8995 102.923 70.9793 102.843 71.0591L102.815 71.0251Z" fill="#FFB61D"/>
<path d="M78.2832 64.4673C78.2464 64.2342 78.624 64.0818 78.7593 64.2753C78.6469 64.423 78.5344 64.5707 78.422 64.7184C78.3402 64.6614 78.2833 64.5697 78.2685 64.471L78.2832 64.4673Z" fill="#FFB61D"/>
<path d="M79.73 71.0251C79.5956 71.1624 79.3688 70.8772 79.4989 70.7359C79.629 70.5945 79.8808 70.6668 79.9969 70.8198C79.917 70.8995 79.8372 70.9793 79.7573 71.0591L79.73 71.0251Z" fill="#FFB61D"/>
<path d="M100.218 64.3583C100.103 64.2488 100.126 64.0316 100.26 63.9478C100.395 63.864 100.6 63.94 100.647 64.0914C100.58 64.2441 100.41 64.345 100.244 64.3307L100.218 64.3583Z" fill="#FFB61D"/>
<path d="M83.2752 65.5344C83.3811 65.3447 83.6991 65.3336 83.818 65.5155C83.7805 65.7815 83.3046 65.7959 83.251 65.5326L83.2752 65.5344Z" fill="#FFB61D"/>
<path d="M92.9623 66.6328C92.9653 66.7683 92.9183 66.9044 92.8323 67.0093C92.683 67.0933 92.4829 66.9052 92.5347 66.7419C92.5864 66.5785 92.8175 66.5201 92.9596 66.6159L92.9623 66.6328Z" fill="#FFB61D"/>
<path d="M89.0395 75.7873C88.9914 75.6331 88.758 75.5807 88.6485 75.6995C88.5391 75.8183 88.6104 76.0467 88.768 76.0821C88.9256 76.1175 89.0877 75.9415 89.0395 75.7873Z" fill="#FFB61D"/>
<path d="M94.0682 77.0584C94.1376 77.241 93.9999 77.4705 93.8062 77.4951C93.6783 77.4409 93.6185 77.267 93.686 77.1456C93.7535 77.0241 93.9328 76.9831 94.0464 77.0631L94.0682 77.0584Z" fill="#FFB61D"/>
<path d="M85.8547 78.417C85.8549 78.2419 85.9583 78.0707 86.1133 77.9891C86.2255 78.1014 86.306 78.2746 86.2374 78.4177C86.1687 78.5609 85.9035 78.5652 85.8804 78.4081L85.8547 78.417Z" fill="#FFB61D"/>
<path d="M100.273 76.9606C100.407 76.8233 100.634 77.1085 100.504 77.2499C100.374 77.3912 100.122 77.3189 100.006 77.1659C100.086 77.0862 100.166 77.0064 100.246 76.9266L100.273 76.9606Z" fill="#FFB61D"/>
<path d="M88.8263 65.4179C88.9607 65.2806 89.1875 65.5658 89.0574 65.7071C88.9273 65.8485 88.6755 65.7762 88.5593 65.6232C88.6392 65.5434 88.7191 65.4637 88.799 65.3839L88.8263 65.4179Z" fill="#FFB61D"/>
<path d="M80.915 73.4639C80.8169 73.3576 80.9507 73.1703 81.0953 73.175C81.2399 73.1797 81.3532 73.299 81.4336 73.4193C81.3194 73.5861 81.0474 73.6112 80.9046 73.4683L80.915 73.4639Z" fill="#FFB61D"/>
<path d="M83.6981 69.0295C83.835 69.0186 83.89 69.2332 83.796 69.3334C83.7021 69.4335 83.546 69.4382 83.4096 69.4224C83.2852 69.2529 83.502 68.9734 83.6971 69.0516L83.6981 69.0295Z" fill="#FFB61D"/>
<path d="M90.4335 81.0614C90.2908 81.2436 89.9379 81.1499 89.9044 80.9208C90.0263 80.7047 90.4348 80.8141 90.4324 81.0622L90.4335 81.0614Z" fill="#FFB61D"/>
<path d="M83.3496 73.5369C83.2732 73.3878 83.3737 73.1752 83.5393 73.1504C83.705 73.1256 83.8651 73.3154 83.8032 73.471C83.7412 73.6266 83.4797 73.6447 83.4052 73.4947L83.3496 73.5369Z" fill="#FFB61D"/>
<path d="M88.7999 78.5599C88.6798 78.5985 88.5935 78.4452 88.5613 78.3232C88.6844 78.1339 89.0083 78.132 89.1336 78.3198C89.0517 78.4338 88.9334 78.5212 88.8004 78.566L88.7999 78.5599Z" fill="#FFB61D"/>
<path d="M89.8865 68.1241C89.9327 67.8766 90.3332 67.8061 90.4611 68.023C90.401 68.2547 90.0382 68.325 89.8959 68.1325L89.8865 68.1241Z" fill="#FFB61D"/>
<path d="M102.891 72.036C102.843 71.8818 102.609 71.8293 102.5 71.9481C102.39 72.0669 102.462 72.2953 102.619 72.3307C102.777 72.3661 102.939 72.1902 102.891 72.036Z" fill="#FFB61D"/>
<path d="M91.7333 73.5125C91.5947 73.6239 91.3472 73.4978 91.3558 73.3203C91.4776 73.1308 91.8026 73.1307 91.9246 73.32C91.8607 73.384 91.7967 73.4479 91.7328 73.5119L91.7333 73.5125Z" fill="#FFB61D"/>
<path d="M88.9905 80.6798C89.1107 80.6415 89.1972 80.7945 89.2291 80.9166C89.106 81.1059 88.7821 81.1078 88.6569 80.92C88.7387 80.806 88.857 80.7186 88.99 80.6738L88.9905 80.6798Z" fill="#FFB61D"/>
<path d="M104.333 62.8349C104.396 62.8979 104.459 62.9609 104.522 63.0239C104.411 63.1947 104.122 63.2542 104.009 63.084C103.897 62.9138 104.213 62.6722 104.306 62.854L104.333 62.8349Z" fill="#FFB61D"/>
<path d="M98.9062 67.0108C99.0301 67.1197 99.2615 67.0413 99.2937 66.8795C99.326 66.7178 99.1424 66.5566 98.9862 66.6096C98.83 66.6625 98.7822 66.902 98.9062 67.0108Z" fill="#FFB61D"/>
<path d="M91.2104 77.2207C91.2601 77.1053 91.4415 77.0789 91.522 77.1754C91.6123 77.3209 91.5302 77.5555 91.3602 77.5751C91.1901 77.5946 91.0735 77.3188 91.2227 77.2348L91.2104 77.2207Z" fill="#FFB61D"/>
<path d="M83.5078 74.4276C83.6281 74.3892 83.7144 74.5424 83.7465 74.6646C83.6658 74.7792 83.5469 74.8664 83.4133 74.9087C83.3375 74.8493 83.2848 74.7611 83.2685 74.6662C83.3486 74.586 83.4286 74.5058 83.5086 74.4257L83.5078 74.4276Z" fill="#FFB61D"/>
<path d="M100.665 70.8602C100.698 71.0844 100.37 71.2566 100.205 71.1018C100.134 70.8773 100.505 70.6693 100.63 70.8684L100.665 70.8602Z" fill="#FFB61D"/>
<path d="M87.6423 70.6782C87.7523 70.7454 87.8133 70.8844 87.7882 71.0109C87.6514 71.0639 87.5008 71.0809 87.3556 71.0595C87.3107 70.9888 87.2936 70.9011 87.3086 70.8188C87.4207 70.7706 87.5327 70.7225 87.6448 70.6743L87.6423 70.6782Z" fill="#FFB61D"/>
<path d="M93.9998 75.7688C94.0497 75.8714 94.0616 75.9921 94.0326 76.1024C93.9019 76.2161 93.6568 76.1108 93.6492 75.9378C93.6416 75.7648 93.8766 75.6385 94.0167 75.7403L93.9998 75.7688Z" fill="#FFB61D"/>
<path d="M101.922 73.5023C101.769 73.6408 101.476 73.5306 101.453 73.3261C101.504 73.2079 101.655 73.1444 101.775 73.1911C101.895 73.2378 101.963 73.3869 101.921 73.5083L101.922 73.5023Z" fill="#FFB61D"/>
<path d="M89.038 64.276C89.126 64.3351 89.1652 64.4575 89.128 64.5567C88.9957 64.6819 88.7299 64.6397 88.6843 64.4633C88.6387 64.2869 88.9319 64.1373 89.0209 64.2963L89.038 64.276Z" fill="#FFB61D"/>
<path d="M79.8173 72.1153C79.8256 71.9535 79.6243 71.823 79.48 71.8967C79.3358 71.9704 79.3234 72.2099 79.4593 72.298C79.5953 72.3861 79.8089 72.2771 79.8173 72.1153Z" fill="#FFB61D"/>
<path d="M92.6423 71.188C92.4831 71.1373 92.4713 70.8734 92.6185 70.7944C92.7657 70.7154 92.97 70.8431 92.9815 71.0098C92.9125 71.1187 92.7736 71.1784 92.6471 71.1534L92.6423 71.188Z" fill="#FFB61D"/>
<path d="M79.5574 65.4141C79.4506 65.2708 79.7829 65.1481 79.8583 65.3101C79.9337 65.4721 79.7999 65.655 79.6545 65.7588C79.5489 65.691 79.4926 65.5544 79.5197 65.4318L79.5574 65.4141Z" fill="#FFB61D"/>
<path d="M90.2895 75.9162C90.2321 75.9926 90.1441 76.0452 90.0496 76.0595C89.9733 76.0038 89.9211 75.916 89.9086 75.8223C89.985 75.7073 90.1042 75.6214 90.2374 75.5852C90.3685 75.63 90.4035 75.8349 90.2947 75.9207L90.2895 75.9162Z" fill="#FFB61D"/>
<path d="M101.64 76.0128C101.528 76.0609 101.416 76.109 101.304 76.1571C101.227 76.0963 101.174 76.0074 101.156 75.9115C101.255 75.8298 101.37 75.7462 101.498 75.7564C101.626 75.7667 101.737 75.9305 101.652 76.0273L101.64 76.0128Z" fill="#FFB61D"/>
<path d="M92.6682 76.8855C92.7778 76.9423 92.8874 76.9992 92.997 77.0561C92.8776 77.1822 92.7196 77.2712 92.5499 77.308C92.4733 77.2523 92.4207 77.1646 92.4076 77.0708C92.4643 76.9943 92.5526 76.9418 92.6469 76.9286L92.6682 76.8855Z" fill="#FFB61D"/>
<path d="M79.8038 76.9729C79.8918 77.032 79.9311 77.1544 79.8939 77.2536C79.7615 77.3788 79.4958 77.3367 79.4502 77.1603C79.4046 76.9839 79.6978 76.8342 79.7868 76.9932L79.8038 76.9729Z" fill="#FFB61D"/>
<path d="M88.766 72.2589C88.8045 72.4885 89.243 72.415 89.2045 72.1854C89.166 71.9558 88.7275 72.0293 88.766 72.2589Z" fill="#FFB61D"/>
<path d="M93.7489 66.4527C93.9558 66.4306 94.1297 66.6942 94.028 66.8757C93.9273 66.953 93.7639 66.9279 93.6911 66.8239C93.6183 66.7199 93.6506 66.5578 93.7578 66.4897L93.7489 66.4527Z" fill="#FFB61D"/>
<path d="M78.439 72.0536C78.5519 71.9409 78.7673 72.1112 78.7171 72.2627C78.6669 72.4141 78.4577 72.4622 78.3152 72.3905C78.2195 72.2809 78.2774 72.0792 78.4166 72.037L78.439 72.0536Z" fill="#FFB61D"/>
<path d="M88.7974 69.3258C88.9137 69.1598 89.2361 69.2709 89.2253 69.4734C89.1319 69.6016 88.9517 69.6588 88.8014 69.608C88.731 69.5313 88.7282 69.4018 88.7952 69.3221L88.7974 69.3258Z" fill="#FFB61D"/>
<path d="M100.34 65.2891C100.418 65.3405 100.47 65.4304 100.475 65.524C100.393 65.7306 100.009 65.6559 100.011 65.4336C100.076 65.3233 100.216 65.2629 100.341 65.2907L100.34 65.2891Z" fill="#FFB61D"/>
<path d="M82.4173 78.3925C82.4936 78.5416 82.3931 78.7542 82.2275 78.779C82.0618 78.8038 81.9017 78.614 81.9636 78.4584C82.0256 78.3028 82.2871 78.2847 82.3616 78.4347L82.4173 78.3925Z" fill="#FFB61D"/>
<path d="M85.9131 75.7771C86.0731 75.7598 86.2779 75.7674 86.339 75.9163C86.2668 76.0309 86.1487 76.1158 86.017 76.1476C85.941 76.106 85.8601 76.0591 85.825 75.9799C85.79 75.9007 85.8334 75.784 85.92 75.7816L85.9131 75.7771Z" fill="#FFB61D"/>
<path d="M102.843 65.6726C102.996 65.6192 103.042 65.3828 102.919 65.2764C102.796 65.1701 102.568 65.2491 102.538 65.4088C102.507 65.5684 102.689 65.7259 102.843 65.6726Z" fill="#FFB61D"/>
<path d="M96.6358 66.6833C96.8071 66.7876 96.6988 67.1157 96.4992 67.0977C96.3853 67.0591 96.3167 66.9206 96.3548 66.8065C96.3929 66.6925 96.531 66.6231 96.6452 66.6607L96.6358 66.6833Z" fill="#FFB61D"/>
<path d="M91.6086 78.2307C91.5644 78.0081 91.1392 78.0926 91.1834 78.3152C91.2277 78.5378 91.6529 78.4533 91.6086 78.2307Z" fill="#FFB61D"/>
<path d="M80.699 65.6188C80.7433 65.8415 81.1685 65.7569 81.1242 65.5343C81.08 65.3117 80.6548 65.3962 80.699 65.6188Z" fill="#FFB61D"/>
<path d="M101.784 77.3088C101.679 77.48 101.351 77.3718 101.369 77.1721C101.408 77.0583 101.546 76.9896 101.661 77.0277C101.775 77.0658 101.844 77.2039 101.806 77.3182L101.784 77.3088Z" fill="#FFB61D"/>
<path d="M79.7026 63.9719C79.8685 63.9089 80.0622 64.1126 79.9909 64.2752C79.8442 64.3537 79.6585 64.3541 79.5114 64.2762C79.5308 64.1587 79.6078 64.052 79.7133 63.9966L79.7026 63.9719Z" fill="#FFB61D"/>
<path d="M88.8969 67.0178C88.8185 66.9664 88.7669 66.8764 88.762 66.7828C88.844 66.5763 89.2278 66.651 89.2264 66.8732C89.1608 66.9835 89.0209 67.044 88.8956 67.0162L88.8969 67.0178Z" fill="#FFB61D"/>
<path d="M96.3545 74.8581C96.2804 74.7237 96.4064 74.5305 96.5594 74.5421C96.7124 74.5536 96.8085 74.7604 96.7204 74.886C96.6323 75.0116 96.4076 74.9937 96.3386 74.8567L96.3545 74.8581Z" fill="#FFB61D"/>
<path d="M92.4074 68.127C92.4588 68.0486 92.5488 67.997 92.6424 67.9921C92.849 68.0741 92.7743 68.4579 92.552 68.4565C92.4417 68.3909 92.3813 68.251 92.409 68.1257L92.4074 68.127Z" fill="#FFB61D"/>
<path d="M103.055 64.0342C103.066 64.115 103.077 64.1959 103.088 64.2767C102.939 64.3525 102.754 64.353 102.605 64.2781C102.6 64.0664 102.868 63.9028 103.054 64.0041L103.055 64.0342Z" fill="#FFB61D"/>
<path d="M87.7875 79.5726C87.6866 79.3702 87.2999 79.5629 87.4009 79.7653C87.5018 79.9678 87.8884 79.775 87.7875 79.5726Z" fill="#FFB61D"/>
<path d="M96.7402 69.2739C96.5801 69.1149 96.2764 69.4206 96.4365 69.5797C96.5966 69.7387 96.9003 69.4329 96.7402 69.2739Z" fill="#FFB61D"/>
<path d="M92.7893 64.0861C92.6884 63.8837 92.3018 64.0765 92.4027 64.2789C92.5036 64.4813 92.8902 64.2885 92.7893 64.0861Z" fill="#FFB61D"/>
<path d="M101.652 74.7571C101.554 74.5464 101.152 74.7331 101.249 74.9438C101.347 75.1544 101.749 74.9677 101.652 74.7571Z" fill="#FFB61D"/>
<path d="M79.3777 74.7117C79.4767 74.9126 79.8603 74.7234 79.7613 74.5225C79.6622 74.3217 79.2786 74.5108 79.3777 74.7117Z" fill="#FFB61D"/>
<path d="M95.2904 78.5121C95.239 78.5904 95.149 78.6421 95.0555 78.647C94.8489 78.5649 94.9236 78.1812 95.1459 78.1826C95.2562 78.2482 95.3166 78.3881 95.2888 78.5134L95.2904 78.5121Z" fill="#FFB61D"/>
<path d="M87.832 72.0235C87.7329 71.8226 87.3493 72.0118 87.4483 72.2127C87.5474 72.4136 87.931 72.2244 87.832 72.0235Z" fill="#FFB61D"/>
<path d="M100.337 67.9825C100.459 68.1095 100.33 68.3656 100.155 68.3434C100.028 68.3067 99.9584 68.1416 100.02 68.025C100.082 67.9085 100.258 67.8739 100.36 67.9583L100.337 67.9825Z" fill="#FFB61D"/>
<path d="M91.2518 81.1108C91.1881 81.047 91.1243 80.9831 91.0606 80.9193C91.1792 80.7291 91.5031 80.7254 91.6261 80.9127C91.5647 81.0564 91.405 81.1514 91.2495 81.1367L91.2518 81.1108Z" fill="#FFB61D"/>
<path d="M103.131 66.9229C103.067 66.9867 103.003 67.0504 102.94 67.1142C102.749 66.9956 102.746 66.6717 102.933 66.5487C103.077 66.6101 103.172 66.7698 103.157 66.9253L103.131 66.9229Z" fill="#FFB61D"/>
<path d="M84.7123 66.6842C84.7637 66.6058 84.8537 66.5542 84.9473 66.5493C85.1538 66.6313 85.0791 67.0151 84.8569 67.0137C84.7466 66.9481 84.6861 66.8082 84.7139 66.6829L84.7123 66.6842Z" fill="#FFB61D"/>
<path d="M80.0317 67.0213C79.9124 67.0856 79.7435 67.0239 79.6937 66.8979C79.6439 66.7719 79.7251 66.6114 79.8561 66.5768C80.0313 66.6057 80.1272 66.8482 80.0189 66.9891L80.0317 67.0213Z" fill="#FFB61D"/>
<path d="M95.3051 68.2214C95.3041 67.9975 94.8764 67.9993 94.8773 68.2232C94.8783 68.4472 95.306 68.4454 95.3051 68.2214Z" fill="#FFB61D"/>
<path d="M92.8855 75.9174C92.7846 75.715 92.398 75.9077 92.4989 76.1102C92.5998 76.3126 92.9864 76.1198 92.8855 75.9174Z" fill="#FFB61D"/>
<path d="M103.784 65.6188C103.829 65.8415 104.254 65.7569 104.21 65.5343C104.165 65.3117 103.74 65.3962 103.784 65.6188Z" fill="#FFB61D"/>
<path d="M91.1026 72.017C91.2437 71.869 91.5228 71.8958 91.6332 72.0679C91.5542 72.1823 91.4356 72.2688 91.3026 72.3091C91.2019 72.2434 91.1258 72.141 91.0921 72.0257L91.1026 72.017Z" fill="#FFB61D"/>
<path d="M100.034 71.991C100.191 71.8974 100.426 71.9966 100.468 72.1743C100.377 72.2988 100.201 72.3528 100.056 72.3006C99.9853 72.2245 99.9822 72.0954 100.049 72.0161L100.034 71.991Z" fill="#FFB61D"/>
<path d="M91.2705 70.7163C91.214 70.6131 91.342 70.4858 91.4586 70.5018C91.5752 70.5179 91.6597 70.6204 91.7166 70.7235C91.6287 70.9046 91.3224 70.9111 91.227 70.7339L91.2705 70.7163Z" fill="#FFB61D"/>
<path d="M103.998 73.274C104.102 73.1028 104.43 73.211 104.412 73.4106C104.373 73.5245 104.235 73.5932 104.121 73.555C104.007 73.5169 103.938 73.3788 103.975 73.2646L103.998 73.274Z" fill="#FFB61D"/>
<path d="M90.0499 71.9294C90.1842 71.8553 90.3775 71.9812 90.3659 72.1342C90.3544 72.2872 90.1476 72.3834 90.022 72.2952C89.8964 72.2071 89.9143 71.9825 90.0513 71.9135L90.0499 71.9294Z" fill="#FFB61D"/>
<path d="M91.158 74.5712C91.239 74.5023 91.3694 74.5005 91.4522 74.5673C91.4594 74.7399 91.357 74.9123 91.202 74.9886C91.0476 74.9166 91.0193 74.6697 91.1532 74.5646L91.158 74.5712Z" fill="#FFB61D"/>
<path d="M102.5 74.768C102.66 74.927 102.964 74.6212 102.804 74.4622C102.644 74.3032 102.34 74.6089 102.5 74.768Z" fill="#FFB61D"/>
<path d="M87.6859 67.0734C87.5031 66.9213 87.717 66.5567 87.9389 66.6421C88.0391 66.8133 87.8903 67.0684 87.692 67.0656L87.6859 67.0734Z" fill="#FFB61D"/>
<path d="M87.7358 65.4826C87.6367 65.2818 87.2531 65.471 87.3522 65.6718C87.4512 65.8727 87.8348 65.6835 87.7358 65.4826Z" fill="#FFB61D"/>
<path d="M78.2189 65.7682C78.1425 65.7119 78.0901 65.6239 78.0769 65.5299C78.1555 65.4163 78.2729 65.33 78.4048 65.2889C78.5385 65.4501 78.427 65.7415 78.2198 65.7722L78.2189 65.7682Z" fill="#FFB61D"/>
<path d="M100.155 76.1829C100.003 76.1825 99.8884 75.9925 99.9601 75.8593C100.032 75.7261 100.257 75.7196 100.334 75.8496C100.411 75.9796 100.295 76.1756 100.144 76.1677L100.155 76.1829Z" fill="#FFB61D"/>
<path d="M102.751 62.8682C102.886 62.9125 103.005 63.0048 103.081 63.1249C102.974 63.2822 102.73 63.3238 102.576 63.2112C102.62 63.0969 102.664 62.9826 102.708 62.8683L102.751 62.8682Z" fill="#FFB61D"/>
<path d="M90.0496 74.5705C90.0519 74.4377 90.1939 74.3261 90.3235 74.3555C90.4531 74.3848 90.5333 74.5466 90.4782 74.6675C90.3284 74.7695 90.0975 74.7203 90.0024 74.566L90.0496 74.5705Z" fill="#FFB61D"/>
<path d="M92.382 69.4845C92.3115 69.3501 92.4227 69.1596 92.5744 69.1551C92.7261 69.1506 92.8486 69.3341 92.7861 69.4724C92.6739 69.5474 92.5167 69.5478 92.4041 69.4735L92.382 69.4845Z" fill="#FFB61D"/>
<path d="M82.3788 64.2345C82.3322 64.4152 82.0713 64.4946 81.9319 64.3706C81.8794 64.2592 81.9361 64.1071 82.0518 64.065C82.1675 64.0229 82.3135 64.1113 82.3222 64.2341L82.3788 64.2345Z" fill="#FFB61D"/>
<path d="M80.6054 72.2226C80.5621 72.1113 80.6252 71.9706 80.7371 71.929C80.849 71.8874 80.9887 71.9527 81.0286 72.0652C80.9923 72.2414 80.7554 72.3393 80.6053 72.2401L80.6054 72.2226Z" fill="#FFB61D"/>
<path d="M84.7594 74.81C84.6833 74.7521 84.6306 74.6644 84.6152 74.57C84.6945 74.4917 84.7738 74.4133 84.8531 74.335C85.0584 74.4228 84.9831 74.8039 84.7599 74.807L84.7594 74.81Z" fill="#FFB61D"/>
<path d="M80.9093 76.1431C80.7571 76.1988 80.6278 75.9508 80.7401 75.8339C80.8524 75.717 81.0713 75.7762 81.1495 75.9182C81.0702 75.9978 80.9909 76.0775 80.9115 76.1571L80.9093 76.1431Z" fill="#FFB61D"/>
<path d="M80.7189 64.5186C80.6067 64.3808 80.7331 64.1326 80.9106 64.1423C81.0212 64.208 81.0823 64.3477 81.0555 64.4736C80.9523 64.524 80.832 64.5387 80.7197 64.5146L80.7189 64.5186Z" fill="#FFB61D"/>
<path d="M99.1833 70.7712C99.3191 70.808 99.2627 71.0432 99.1253 71.0736C98.9878 71.1039 98.8565 71.0102 98.7486 70.9197C98.8448 70.7886 99.0288 70.7297 99.1832 70.7807L99.1833 70.7712Z" fill="#FFB61D"/>
<path d="M101.476 70.8961C101.401 70.8412 101.326 70.7864 101.251 70.7315C101.369 70.5341 101.704 70.528 101.829 70.721C101.762 70.8308 101.622 70.8909 101.496 70.8641L101.476 70.8961Z" fill="#FFB61D"/>
<path d="M103.781 64.456C103.696 64.3381 103.808 64.1454 103.953 64.1507C104.098 64.156 104.197 64.3407 104.131 64.4696C104.022 64.5458 103.865 64.5465 103.755 64.4714L103.781 64.456Z" fill="#FFB61D"/>
<path d="M95.2923 72.2619C95.1541 72.3736 94.9064 72.2475 94.9154 72.0701C94.9613 71.9902 95.0514 71.9378 95.1435 71.9373C95.2728 71.9834 95.3538 72.1357 95.3199 72.2687L95.2923 72.2619Z" fill="#FFB61D"/>
<path d="M83.6275 76.801C83.7028 76.8582 83.7782 76.9154 83.8535 76.9725C83.7311 77.0899 83.5769 77.1736 83.4119 77.2123C83.2989 77.0763 83.4286 76.8279 83.6048 76.8429L83.6275 76.801Z" fill="#FFB61D"/>
<path d="M82.4009 66.6833C82.3 66.4808 81.9134 66.6736 82.0143 66.876C82.1152 67.0784 82.5019 66.8857 82.4009 66.6833Z" fill="#FFB61D"/>
<path d="M80.6715 77.0713C80.729 76.995 80.817 76.9423 80.9115 76.9276C80.9876 76.9852 81.0403 77.0729 81.0554 77.1671C80.9756 77.2469 80.8958 77.3267 80.816 77.4064C80.7076 77.3366 80.6483 77.1979 80.6728 77.0713L80.6715 77.0713Z" fill="#FFB61D"/>
<path d="M89.9126 64.3679C90.0468 64.5325 90.3612 64.2761 90.227 64.1115C90.0928 63.9469 89.7783 64.2033 89.9126 64.3679Z" fill="#FFB61D"/>
<path d="M101.349 69.4748C101.338 69.2539 101.719 69.1657 101.805 69.3692C101.777 69.5721 101.458 69.6486 101.341 69.4805L101.349 69.4748Z" fill="#FFB61D"/>
<path d="M103.998 72.214C103.92 72.3634 103.633 72.2299 103.697 72.0737C103.713 71.9526 103.866 71.8724 103.975 71.9277C104.083 71.9831 104.109 72.1534 104.02 72.2378L103.998 72.214Z" fill="#FFB61D"/>
<path d="M91.49 68.1595C91.3379 68.2152 91.2086 67.9671 91.3209 67.8502C91.4331 67.7333 91.6521 67.7926 91.7303 67.9345C91.651 68.0141 91.5716 68.0938 91.4923 68.1734L91.49 68.1595Z" fill="#FFB61D"/>
<path d="M82.262 76.9458C82.365 76.8867 82.495 77.0157 82.4787 77.1333C82.4623 77.251 82.3586 77.3358 82.2551 77.3939C82.0814 77.3095 82.0886 77.0089 82.266 76.9328L82.262 76.9458Z" fill="#FFB61D"/>
<path d="M85.9658 64.5685C85.9169 64.3655 86.1784 64.1313 86.3297 64.2753C86.3203 64.3897 86.3065 64.5142 86.2261 64.5963C86.1457 64.6783 85.9751 64.6724 85.9427 64.5622L85.9658 64.5685Z" fill="#FFB61D"/>
<path d="M95.4866 79.4728C95.4981 79.6937 95.1171 79.7819 95.0305 79.5784C95.0586 79.3756 95.3779 79.299 95.4948 79.4671L95.4866 79.4728Z" fill="#FFB61D"/>
<path d="M84.9029 76.971C84.6834 77.001 84.7406 77.4203 84.9602 77.3903C85.1797 77.3603 85.1224 76.9411 84.9029 76.971Z" fill="#FFB61D"/>
<path d="M95.0482 76.9298C95.2386 77.0514 95.2412 77.3765 95.0529 77.5012C94.8632 77.3772 94.8626 77.0518 95.0517 76.927L95.0482 76.9298Z" fill="#FFB61D"/>
<path d="M86.2478 68.1243C86.0958 68.2271 85.8628 68.1784 85.7648 68.0233C85.8649 67.9424 85.9798 67.8587 86.1082 67.869C86.2365 67.8794 86.3469 68.0439 86.2614 68.1401L86.2478 68.1243Z" fill="#FFB61D"/>
<path d="M90.2432 79.8129C90.1647 79.9623 89.8783 79.8288 89.9422 79.6726C89.9582 79.5515 90.1105 79.4713 90.2195 79.5266C90.3284 79.582 90.3535 79.7523 90.2651 79.8367L90.2432 79.8129Z" fill="#FFB61D"/>
<path d="M78.5045 69.6023C78.3523 69.658 78.2231 69.4099 78.3354 69.293C78.4476 69.1761 78.6666 69.2354 78.7448 69.3773C78.6655 69.4569 78.5861 69.5366 78.5068 69.6162L78.5045 69.6023Z" fill="#FFB61D"/>
<path d="M99.285 63.1723C99.2064 63.3217 98.9201 63.1882 98.984 63.032C99 62.9108 99.1523 62.8307 99.2613 62.886C99.3702 62.9413 99.3953 63.1117 99.3069 63.196L99.285 63.1723Z" fill="#FFB61D"/>
<path d="M93.8357 65.4375C93.8941 65.5893 93.8348 65.7777 93.6999 65.8687C93.6115 65.7597 93.5175 65.6293 93.5474 65.4921C93.5774 65.355 93.8141 65.3003 93.8472 65.4368L93.8357 65.4375Z" fill="#FFB61D"/>
<path d="M90.2423 73.2709C90.354 73.409 90.228 73.6568 90.0505 73.6478C89.9707 73.6019 89.9182 73.5118 89.9177 73.4197C89.9639 73.2903 90.1161 73.2093 90.2491 73.2433L90.2423 73.2709Z" fill="#FFB61D"/>
<path d="M91.2217 64.4232C91.2086 64.6327 91.6088 64.6578 91.6219 64.4483C91.6351 64.2387 91.2349 64.2136 91.2217 64.4232Z" fill="#FFB61D"/>
<path d="M97.84 67.8853C97.9167 67.9416 97.9691 68.0298 97.9818 68.124C97.9137 68.2332 97.775 68.2933 97.6488 68.2683C97.5347 68.1325 97.6638 67.8827 97.8405 67.8972L97.84 67.8853Z" fill="#FFB61D"/>
<path d="M92.6942 80.918C92.6367 80.9943 92.5487 81.047 92.4543 81.0616C92.378 81.0043 92.3254 80.9165 92.3109 80.8223C92.3839 80.7355 92.4883 80.6569 92.6004 80.6741C92.7126 80.6913 92.7866 80.8563 92.695 80.9233L92.6942 80.918Z" fill="#FFB61D"/>
<path d="M101.735 68.0262C101.638 68.177 101.411 68.2247 101.261 68.1262C101.193 68.0236 101.301 67.8761 101.424 67.8669C101.547 67.8576 101.658 67.9394 101.742 68.0297L101.735 68.0262Z" fill="#FFB61D"/>
<path d="M83.3904 66.952C83.297 66.839 83.4047 66.6364 83.5512 66.6425C83.6976 66.6486 83.7919 66.8446 83.7125 66.9678C83.6332 67.091 83.4273 67.0944 83.3363 66.9795L83.3904 66.952Z" fill="#FFB61D"/>
<path d="M87.6869 78.4181C87.715 78.4944 87.6986 78.5855 87.6456 78.6472C87.498 78.7163 87.2897 78.5766 87.3265 78.4179C87.3632 78.2592 87.6561 78.2645 87.6643 78.4272L87.6869 78.4181Z" fill="#FFB61D"/>
<path d="M100.249 74.7001C100.141 74.6907 100.134 74.5148 100.222 74.4536C100.311 74.3923 100.43 74.4126 100.536 74.4353C100.586 74.5021 100.604 74.5923 100.583 74.6731C100.479 74.722 100.358 74.7355 100.246 74.7111L100.249 74.7001Z" fill="#FFB61D"/>
<path d="M90.0495 66.6344C90.1458 66.6343 90.2422 66.6342 90.3385 66.6341C90.3838 66.7053 90.4009 66.7938 90.3853 66.8767C90.2769 66.9199 90.1519 66.9626 90.0481 66.9095C89.9442 66.8564 89.9372 66.6609 90.0531 66.6478L90.0495 66.6344Z" fill="#FFB61D"/>
<path d="M95.5017 66.7422C95.4267 66.5461 95.0522 66.6893 95.1272 66.8854C95.2022 67.0815 95.5767 66.9383 95.5017 66.7422Z" fill="#FFB61D"/>
<path d="M101.357 67.0688C101.333 66.9603 101.356 66.8307 101.448 66.7681C101.54 66.7055 101.699 66.7621 101.699 66.8734C101.682 66.9702 101.659 67.0765 101.58 67.1355C101.502 67.1945 101.354 67.1535 101.358 67.0552L101.357 67.0688Z" fill="#FFB61D"/>
<path d="M78.5261 67.1607C78.3748 67.2118 78.2042 67.0316 78.2634 66.8833C78.3227 66.735 78.5705 66.7221 78.6449 66.8634C78.5985 66.947 78.552 67.0306 78.5055 67.1142L78.5261 67.1607Z" fill="#FFB61D"/>
<path d="M84.5187 79.7661C84.5027 79.589 84.7537 79.4587 84.8892 79.5738C84.9477 79.6712 84.9074 79.8141 84.8067 79.8667C84.706 79.9193 84.5657 79.8707 84.5191 79.7671L84.5187 79.7661Z" fill="#FFB61D"/>
<path d="M96.6587 73.5341C96.8124 73.3931 96.5431 73.0995 96.3895 73.2405C96.2358 73.3815 96.505 73.6751 96.6587 73.5341Z" fill="#FFB61D"/>
<path d="M88.9907 74.9921C88.8584 75.0343 88.7242 74.8636 88.7803 74.7366C88.8365 74.6095 89.0256 74.5785 89.1342 74.6652C89.1666 74.7912 89.1033 74.9354 88.9885 74.9967L88.9907 74.9921Z" fill="#FFB61D"/>
<path d="M97.5848 63.4281C97.4402 63.2868 97.6559 62.9942 97.8336 63.0905C97.9724 63.2274 97.7661 63.5092 97.5936 63.4183L97.5848 63.4281Z" fill="#FFB61D"/>
<path d="M89.0874 68.0726C88.9258 68.0908 88.7197 68.0798 88.6582 67.9293C88.7553 67.8035 88.9342 67.7478 89.0855 67.7963C89.1555 67.8735 89.1582 68.0027 89.0917 68.0828L89.0874 68.0726Z" fill="#FFB61D"/>
<path d="M96.3432 65.4168C96.5065 65.3491 96.7027 65.5545 96.6277 65.7146C96.5507 65.7958 96.4053 65.7967 96.3273 65.7165C96.2494 65.6363 96.2545 65.4909 96.3379 65.4164L96.3432 65.4168Z" fill="#FFB61D"/>
<path d="M95.0037 64.182C95.0611 64.1056 95.1492 64.053 95.2436 64.0384C95.3199 64.0956 95.3725 64.1835 95.3868 64.2778C95.3296 64.354 95.2417 64.4066 95.1475 64.4208C95.0709 64.3639 95.0185 64.2756 95.0051 64.1811L95.0037 64.182Z" fill="#FFB61D"/>
<path d="M89.0727 70.8358C88.9698 71.0118 88.6639 71.0021 88.5722 70.8201C88.6597 70.6376 88.9671 70.6291 89.0646 70.8064L89.0727 70.8358Z" fill="#FFB61D"/>
<path d="M82.2553 75.7653C82.3587 75.7515 82.4367 75.8824 82.403 75.9811C82.3693 76.0797 82.2643 76.1375 82.1617 76.1559C82.0856 76.0986 82.0332 76.0108 82.019 75.9167C82.0758 75.8401 82.1641 75.7876 82.2585 75.7744L82.2553 75.7653Z" fill="#FFB61D"/>
<path d="M92.8638 78.4604C92.8682 78.5355 92.8725 78.6107 92.8769 78.6858C92.7839 78.8188 92.5286 78.7471 92.5185 78.5852C92.5084 78.4232 92.7528 78.3203 92.8616 78.4408L92.8638 78.4604Z" fill="#FFB61D"/>
<path d="M97.8404 74.4261C97.9167 74.4836 97.9694 74.5716 97.9839 74.6661C97.9267 74.7424 97.8389 74.795 97.7446 74.8093C97.6683 74.7521 97.6158 74.6642 97.6015 74.57C97.6584 74.4934 97.7468 74.4409 97.8413 74.4276L97.8404 74.4261Z" fill="#FFB61D"/>
<path d="M85.9711 79.8601C85.9359 79.7536 85.9655 79.6205 86.0607 79.5612C86.1559 79.5019 86.3086 79.5546 86.3247 79.6656C86.284 79.7487 86.2432 79.8317 86.2025 79.9148C86.1212 79.9054 86.0399 79.8961 85.9586 79.8867L85.9711 79.8601Z" fill="#FFB61D"/>
<path d="M92.8956 65.6248C92.9067 65.7537 92.7691 65.8719 92.6434 65.8416C92.5177 65.8113 92.4492 65.6433 92.5179 65.5337C92.6236 65.4325 92.831 65.4898 92.8697 65.631L92.8956 65.6248Z" fill="#FFB61D"/>
<path d="M82.0574 73.362C82.1534 73.2225 82.4257 73.3432 82.3868 73.508C82.3464 73.591 82.2564 73.6473 82.1641 73.6472C82.0578 73.6065 82.0055 73.4641 82.06 73.3643L82.0574 73.362Z" fill="#FFB61D"/>
<path d="M101.504 65.2858C101.622 65.4688 101.391 65.7463 101.189 65.6634C101.162 65.4827 101.314 65.2953 101.497 65.2856L101.504 65.2858Z" fill="#FFB61D"/>
<path d="M80.6672 69.3768C80.6615 69.197 80.9092 69.0701 81.0519 69.1797C81.126 69.379 80.7847 69.5569 80.6638 69.3819L80.6672 69.3768Z" fill="#FFB61D"/>
<path d="M103.803 69.2301C103.868 69.1443 103.99 69.1063 104.093 69.1395C104.14 69.2059 104.157 69.2931 104.138 69.3724C104.059 69.4187 103.98 69.4649 103.9 69.5112C103.795 69.4686 103.745 69.3271 103.799 69.2276L103.803 69.2301Z" fill="#FFB61D"/>
<path d="M93.9508 64.1732C94.0902 64.2691 93.9695 64.5415 93.8048 64.5025C93.7218 64.4622 93.6654 64.3721 93.6655 64.2798C93.7062 64.1736 93.8486 64.1212 93.9484 64.1758L93.9508 64.1732Z" fill="#FFB61D"/>
<path d="M82.3119 65.5199C82.4514 65.6158 82.3306 65.8881 82.1659 65.8492C82.0829 65.8089 82.0266 65.7188 82.0267 65.6265C82.0674 65.5203 82.2097 65.4679 82.3096 65.5224L82.3119 65.5199Z" fill="#FFB61D"/>
<path d="M94.1358 69.183C94.0322 69.3325 93.8054 69.3785 93.6518 69.2813C93.649 69.0542 94.0416 68.977 94.125 69.1882L94.1358 69.183Z" fill="#FFB61D"/>
<path d="M85.8657 74.7628C85.9232 74.6865 86.0112 74.6338 86.1057 74.6193C86.182 74.6764 86.2346 74.7643 86.2489 74.8586C86.1917 74.9348 86.1038 74.9874 86.0095 75.0016C85.933 74.9447 85.8805 74.8564 85.8672 74.7619L85.8657 74.7628Z" fill="#FFB61D"/>
<path d="M87.7886 68.2211C87.7311 68.2974 87.6431 68.3501 87.5486 68.3646C87.4723 68.3074 87.4197 68.2196 87.4054 68.1253C87.4626 68.049 87.5505 67.9965 87.6448 67.9822C87.7213 68.0391 87.7738 68.1275 87.7871 68.222L87.7886 68.2211Z" fill="#FFB61D"/>
<path d="M101.362 72.1716C101.438 71.9957 101.736 71.9888 101.82 72.1609C101.734 72.3451 101.425 72.3558 101.327 72.1779L101.362 72.1716Z" fill="#FFB61D"/>
<path d="M93.9418 80.9129C93.862 80.9615 93.7823 81.0102 93.7026 81.0588C93.6269 81.0035 93.5754 80.9161 93.5637 80.8231C93.6325 80.7142 93.7713 80.6542 93.8978 80.6788C93.9437 80.7483 93.96 80.8367 93.9419 80.918L93.9418 80.9129Z" fill="#FFB61D"/>
<path d="M93.7529 78.3221C93.7083 78.2149 93.8834 78.162 93.9983 78.1788C94.0481 78.282 94.0624 78.402 94.0381 78.514C93.969 78.5601 93.8814 78.5772 93.8001 78.5606C93.7541 78.4913 93.7378 78.403 93.756 78.3219L93.7529 78.3221Z" fill="#FFB61D"/>
<path d="M85.8657 66.9715C85.9232 66.8951 86.0112 66.8425 86.1057 66.8279C86.182 66.8851 86.2346 66.973 86.2489 67.0672C86.1917 67.1435 86.1038 67.196 86.0095 67.2103C85.933 67.1534 85.8805 67.065 85.8672 66.9706L85.8657 66.9715Z" fill="#FFB61D"/>
<path d="M98.9939 69.2319C99.0999 69.1849 99.1545 69.3606 99.1371 69.4754C99.0341 69.5255 98.9145 69.5407 98.8022 69.5181C98.7566 69.4484 98.7395 69.3606 98.7557 69.2788C98.825 69.2329 98.9133 69.2165 98.9945 69.2347L98.9939 69.2319Z" fill="#FFB61D"/>
<path d="M82.3974 68.1265C82.4216 68.2066 82.4064 68.2976 82.3575 68.3654C82.2743 68.3851 82.1831 68.368 82.1127 68.3195C82.1134 68.223 82.1142 68.1265 82.1149 68.03C82.196 67.9257 82.4005 67.9933 82.4034 68.1254L82.3974 68.1265Z" fill="#FFB61D"/>
<path d="M86.3065 72.3152C86.2105 72.4547 85.9382 72.3339 85.9771 72.1692C86.0175 72.0862 86.1075 72.0299 86.1998 72.03C86.3061 72.0707 86.3584 72.213 86.3039 72.3129L86.3065 72.3152Z" fill="#FFB61D"/>
<path d="M83.7448 67.8497C83.8384 67.8703 83.873 68.0135 83.7992 68.0746C83.6393 68.0908 83.4353 68.0824 83.3742 67.9338C83.4413 67.8012 83.6295 67.7481 83.756 67.8261L83.7448 67.8497Z" fill="#FFB61D"/>
<path d="M88.991 79.6203C89.0673 79.6778 89.12 79.7658 89.1345 79.8603C89.0773 79.9366 88.9895 79.9892 88.8952 80.0035C88.8189 79.9463 88.7664 79.8584 88.7521 79.7642C88.809 79.6876 88.8974 79.6351 88.9919 79.6218L88.991 79.6203Z" fill="#FFB61D"/>
<path d="M92.405 71.9706C92.527 71.8818 92.7255 71.9354 92.7861 72.0736C92.6889 72.1991 92.5102 72.2544 92.3591 72.2058C92.2944 72.1407 92.3243 72.011 92.4109 71.9807L92.405 71.9706Z" fill="#FFB61D"/>
<path d="M84.9598 71.0647C84.8639 71.2042 84.5916 71.0835 84.6305 70.9187C84.6708 70.8357 84.7609 70.7794 84.8532 70.7795C84.9594 70.8202 85.0118 70.9626 84.9572 71.0624L84.9598 71.0647Z" fill="#FFB61D"/>
<path d="M92.6513 74.5188C92.5467 74.3582 92.24 74.5579 92.3446 74.7185C92.4492 74.8791 92.7559 74.6794 92.6513 74.5188Z" fill="#FFB61D"/>
<path d="M82.3728 72.1182C82.3518 72.3194 82.0016 72.3561 81.9393 72.1636C82.0083 72.0087 82.2565 71.9802 82.3588 72.1154L82.3728 72.1182Z" fill="#FFB61D"/>
<path d="M91.306 79.8937C91.0981 79.8151 91.173 79.4284 91.3952 79.4331C91.4976 79.5816 91.4508 79.8113 91.2985 79.9079L91.306 79.8937Z" fill="#FFB61D"/>
<path d="M80.9878 68.1066C80.9145 68.0529 80.8411 67.9992 80.7677 67.9455C80.844 67.7607 81.1578 67.7539 81.2421 67.9351C81.1877 68.0116 81.1002 68.0636 81.0071 68.0748L80.9878 68.1066Z" fill="#FFB61D"/>
<path d="M95.0985 75.7219C95.2395 75.8182 95.2123 76.0738 95.0542 76.1382C94.8632 76.0749 94.8977 75.7283 95.0975 75.704L95.0985 75.7219Z" fill="#FFB61D"/>
<path d="M101.395 64.5213C101.5 64.6819 101.806 64.4822 101.702 64.3216C101.597 64.161 101.29 64.3608 101.395 64.5213Z" fill="#FFB61D"/>
<path d="M92.4164 79.4816C92.4933 79.3053 92.7928 79.2999 92.8761 79.4733C92.7951 79.6494 92.4927 79.6477 92.4137 79.4708L92.4164 79.4816Z" fill="#FFB61D"/>
<path d="M87.471 64.2579C87.5247 64.1845 87.5785 64.1111 87.6322 64.0377C87.817 64.114 87.8238 64.4278 87.6426 64.5121C87.5661 64.4577 87.5141 64.3702 87.5029 64.2771L87.471 64.2579Z" fill="#FFB61D"/>
<path d="M99.001 68.065C98.8782 68.0451 98.8935 67.8333 99.0106 67.7913C99.1277 67.7493 99.2557 67.8312 99.3277 67.9326C99.26 68.0415 99.121 68.101 98.9954 68.0748L99.001 68.065Z" fill="#FFB61D"/>
<path d="M97.6109 72.0742C97.6717 71.9382 97.8645 71.8828 97.9883 71.9657C98.0258 72.0708 97.9577 72.2006 97.85 72.2296C97.7423 72.2586 97.6183 72.1803 97.598 72.0706L97.6109 72.0742Z" fill="#FFB61D"/>
<path d="M86.196 70.5903C86.3188 70.6102 86.3035 70.822 86.1864 70.864C86.0693 70.906 85.9413 70.8241 85.8693 70.7227C85.937 70.6138 86.076 70.5543 86.2016 70.5805L86.196 70.5903Z" fill="#FFB61D"/>
<path d="M96.3932 72.3126C96.4978 72.4732 96.8045 72.2735 96.6999 72.1129C96.5953 71.9523 96.2886 72.152 96.3932 72.3126Z" fill="#FFB61D"/>
<path d="M87.8883 77.268C88.0489 77.1634 87.8491 76.8568 87.6885 76.9614C87.528 77.066 87.7278 77.3726 87.8883 77.268Z" fill="#FFB61D"/>
<path d="M100.226 69.5495C100.152 69.4957 100.079 69.442 100.005 69.3883C100.082 69.2035 100.396 69.1967 100.48 69.3779C100.425 69.4544 100.338 69.5064 100.245 69.5176L100.226 69.5495Z" fill="#FFB61D"/>
<path d="M99.2253 72.063C99.1483 72.2393 98.8488 72.2447 98.7656 72.0713C98.8465 71.8952 99.149 71.8969 99.228 72.0739L99.2253 72.063Z" fill="#FFB61D"/>
<path d="M102.977 69.3698C102.9 69.5461 102.6 69.5514 102.517 69.378C102.598 69.2019 102.9 69.2036 102.979 69.3806L102.977 69.3698Z" fill="#FFB61D"/>
<path d="M84.4803 75.9947C84.5329 75.8847 84.5854 75.7747 84.638 75.6647C84.7428 75.7365 84.8376 75.8563 84.8077 75.9798C84.7778 76.1033 84.5601 76.1384 84.5349 76.0139L84.4803 75.9947Z" fill="#FFB61D"/>
<path d="M104.171 68.1155C104.061 68.0629 103.951 68.0104 103.841 67.9578C103.913 67.853 104.033 67.7582 104.156 67.7881C104.28 67.818 104.315 68.0357 104.19 68.0609L104.171 68.1155Z" fill="#FFB61D"/>
<path d="M97.6504 76.9311C97.7349 76.9082 97.8293 76.9247 97.901 76.975C97.8631 77.1115 97.7708 77.2321 97.649 77.3043C97.4996 77.2489 97.5019 76.9899 97.6523 76.9371L97.6504 76.9311Z" fill="#FFB61D"/>
<path d="M78.3091 70.8358C78.2489 70.6172 78.6701 70.507 78.7247 70.7271C78.6638 70.8587 78.4748 70.9095 78.3561 70.826L78.3091 70.8358Z" fill="#FFB61D"/>
<path d="M78.3203 68.1612C78.1975 68.1413 78.2129 67.9295 78.33 67.8875C78.4471 67.8455 78.575 67.9274 78.6471 68.0288C78.5793 68.1378 78.4404 68.1972 78.3148 68.171L78.3203 68.1612Z" fill="#FFB61D"/>
<path d="M96.6464 75.7237C96.641 75.8203 96.5809 75.9119 96.4944 75.9553C96.3172 75.8739 96.3191 75.5696 96.4972 75.4904C96.5732 75.545 96.6249 75.6323 96.6362 75.7252L96.6464 75.7237Z" fill="#FFB61D"/>
<path d="M80.9135 75.0181C80.7682 75.0198 80.7459 74.8093 80.7751 74.6669C80.8482 74.594 80.9805 74.5933 81.0545 74.6653C81.0867 74.7914 81.0233 74.9354 80.9086 74.9969L80.9135 75.0181Z" fill="#FFB61D"/>
<path d="M97.9722 75.9198C97.9252 75.7317 97.5659 75.8216 97.613 76.0097C97.66 76.1978 98.0193 76.1079 97.9722 75.9198Z" fill="#FFB61D"/>
<path d="M97.7859 65.805C97.6822 65.8635 97.5697 65.695 97.6306 65.5927C97.6915 65.4904 97.8302 65.4678 97.9488 65.4783C97.9971 65.6037 97.9161 65.7622 97.7862 65.7965L97.7859 65.805Z" fill="#FFB61D"/>
<path d="M93.8911 67.897C94.0139 67.917 93.9986 68.1287 93.8815 68.1707C93.7644 68.2127 93.6364 68.1309 93.5644 68.0294C93.6321 67.9205 93.7711 67.861 93.8967 67.8872L93.8911 67.897Z" fill="#FFB61D"/>
<path d="M79.8588 69.2623C79.9189 69.481 79.4978 69.5912 79.4432 69.3711C79.5041 69.2395 79.6931 69.1887 79.8118 69.2721L79.8588 69.2623Z" fill="#FFB61D"/>
<path d="M86.2948 73.2717C86.392 73.3796 86.343 73.5802 86.2071 73.6312C85.9926 73.5823 86.0972 73.1709 86.3091 73.2304L86.2948 73.2717Z" fill="#FFB61D"/>
<path d="M90.1639 69.1326C90.1771 69.2144 90.1903 69.2962 90.2036 69.378C90.0816 69.4692 89.8804 69.4172 89.8179 69.2783C89.8828 69.1691 90.0219 69.1098 90.1456 69.1388L90.1639 69.1326Z" fill="#FFB61D"/>
<path d="M83.4638 78.61C83.2658 78.6571 83.2378 78.295 83.4101 78.1865C83.5661 78.2587 83.5976 78.5063 83.4646 78.6152L83.4638 78.61Z" fill="#FFB61D"/>
<path d="M87.8313 80.8826C87.954 80.9025 87.9387 81.1143 87.8216 81.1563C87.7045 81.1983 87.5765 81.1164 87.5045 81.015C87.5722 80.906 87.7112 80.8465 87.8368 80.8727L87.8313 80.8826Z" fill="#FFB61D"/>
<path d="M97.7877 69.1848C97.8113 69.2646 97.7966 69.3549 97.7487 69.423C97.6225 69.4521 97.4769 69.3956 97.4169 69.2808C97.4844 69.1481 97.6726 69.0949 97.7996 69.1726L97.7877 69.1848Z" fill="#FFB61D"/>
<path d="M97.4086 64.2791C97.4623 64.2013 97.5518 64.1493 97.646 64.1412C97.7932 64.2018 97.7942 64.4542 97.6475 64.516C97.5677 64.4365 97.4878 64.3571 97.4079 64.2777L97.4086 64.2791Z" fill="#FFB61D"/>
<path d="M82.2097 69.3725C82.1019 69.4697 81.9013 69.4208 81.8503 69.2848C81.8992 69.0703 82.3106 69.175 82.251 69.3868L82.2097 69.3725Z" fill="#FFB61D"/>
<path d="M92.8443 73.3985C92.9045 73.6171 92.4833 73.7273 92.4287 73.5072C92.4896 73.3756 92.6786 73.3248 92.7973 73.4083L92.8443 73.3985Z" fill="#FFB61D"/>
<path d="M94.9016 65.4214C95.0058 65.3717 95.1462 65.4238 95.1928 65.5294C95.1141 65.6078 95.0353 65.6862 94.9565 65.7647C94.8272 65.7162 94.7946 65.5136 94.9023 65.427L94.9016 65.4214Z" fill="#FFB61D"/>
<path d="M96.2471 64.4812C96.1515 64.4145 96.1501 64.2503 96.2446 64.182C96.339 64.1137 96.4945 64.1664 96.5279 64.2781C96.4724 64.3825 96.3688 64.4601 96.253 64.4839L96.2471 64.4812Z" fill="#FFB61D"/>
<path d="M96.5571 77.1674C96.5471 77.3008 96.3429 77.3649 96.2584 77.261C96.2149 77.1346 96.2959 76.9921 96.4099 76.9221C96.4589 77.0008 96.508 77.0794 96.557 77.158L96.5571 77.1674Z" fill="#FFB61D"/>
<path d="M105.342 66.918C105.262 66.9416 105.172 66.9268 105.104 66.879C105.075 66.7528 105.131 66.6072 105.246 66.5472C105.379 66.6147 105.432 66.8029 105.354 66.9299L105.342 66.918Z" fill="#FFB61D"/>
<path d="M91.2026 66.9242C91.1123 66.8049 91.1644 66.6063 91.3017 66.5468C91.4102 66.6133 91.4695 66.7515 91.4428 66.876C91.3734 66.9216 91.2853 66.9378 91.2042 66.9198L91.2026 66.9242Z" fill="#FFB61D"/>
<path d="M97.5709 66.7588C97.6252 66.6845 97.6795 66.6103 97.7338 66.536C97.8517 66.5966 97.918 66.7434 97.8853 66.872C97.8072 66.9784 97.6001 66.9101 97.6007 66.7781L97.5709 66.7588Z" fill="#FFB61D"/>
<path d="M99.0901 78.563C98.9997 78.4437 99.0519 78.2452 99.1892 78.1857C99.2977 78.2522 99.3569 78.3904 99.3303 78.5148C99.2609 78.5605 99.1728 78.5767 99.0917 78.5587L99.0901 78.563Z" fill="#FFB61D"/>
<path d="M84.6622 69.4277C84.6007 69.3431 84.6353 69.2061 84.7297 69.161C84.824 69.1159 84.9524 69.1748 84.9797 69.2758C84.9408 69.4071 84.7846 69.4902 84.654 69.4491L84.6622 69.4277Z" fill="#FFB61D"/>
<path d="M83.5267 79.2931C83.6361 79.3453 83.7455 79.3975 83.8548 79.4498C83.7933 79.5724 83.6452 79.6449 83.5106 79.6182C83.442 79.5382 83.4386 79.4096 83.5028 79.3261L83.5267 79.2931Z" fill="#FFB61D"/>
<path d="M94.012 79.6168C94.0243 79.6977 94.0366 79.7786 94.0489 79.8594C93.9802 79.9078 93.889 79.9227 93.8085 79.8987C93.6678 79.7886 93.8475 79.5131 94.005 79.5974L94.012 79.6168Z" fill="#FFB61D"/>
<path d="M97.8972 78.5134C97.8907 78.6103 97.8306 78.7018 97.7444 78.7463C97.6312 78.6863 97.5698 78.5426 97.6049 78.4194C97.6836 78.3139 97.8895 78.383 97.8885 78.5146L97.8972 78.5134Z" fill="#FFB61D"/>
<path d="M95.2438 69.4237C95.1805 69.4832 95.1172 69.5427 95.0539 69.6022C94.9218 69.5751 94.871 69.3738 94.9743 69.2872C95.0776 69.2006 95.2669 69.2859 95.2705 69.4207L95.2438 69.4237Z" fill="#FFB61D"/>
<path d="M104.133 66.7809C104.189 66.9276 104.06 67.1107 103.903 67.1072C103.769 66.9646 103.97 66.6857 104.148 66.7685L104.133 66.7809Z" fill="#FFB61D"/>
<path d="M104.094 70.9631C103.987 71.0082 103.933 70.8321 103.95 70.7168C104.072 70.6299 104.268 70.6847 104.326 70.8219C104.272 70.8978 104.185 70.9494 104.092 70.9605L104.094 70.9631Z" fill="#FFB61D"/>
<path d="M81.0532 66.8744C81.0772 67.0171 80.8922 67.1444 80.7674 67.0711C80.7627 66.9665 80.764 66.8468 80.8424 66.7774C80.9207 66.7079 81.0873 66.7773 81.0489 66.8748L81.0532 66.8744Z" fill="#FFB61D"/>
<path d="M96.3031 79.8116C96.2253 79.7578 96.1733 79.6683 96.1652 79.5742C96.2258 79.427 96.4782 79.4259 96.54 79.5726C96.4605 79.6525 96.3811 79.7324 96.3017 79.8123L96.3031 79.8116Z" fill="#FFB61D"/>
<path d="M87.549 76.0605C87.4726 76.003 87.42 75.915 87.4054 75.8205C87.4629 75.7442 87.5508 75.6915 87.6452 75.6768C87.7381 75.7943 87.683 75.9958 87.5432 76.0498L87.549 76.0605Z" fill="#FFB61D"/>
<path d="M96.2963 71.0642C96.2211 70.9423 96.3435 70.7566 96.4852 70.7776C96.6272 70.8872 96.4497 71.1651 96.2905 71.0825L96.2963 71.0642Z" fill="#FFB61D"/>
<path d="M81.1844 70.7016C81.2758 70.8628 80.99 71.053 80.8765 70.9065C80.778 70.7707 81.0409 70.5991 81.152 70.7248L81.1844 70.7016Z" fill="#FFB61D"/>
<path d="M100.247 63.0816C100.323 63.052 100.416 63.0698 100.476 63.1256C100.541 63.2452 100.407 63.4133 100.276 63.377C100.145 63.3407 100.117 63.1277 100.234 63.0585L100.247 63.0816Z" fill="#FFB61D"/>
<path d="M99.1929 75.671C99.2681 75.793 99.1457 75.9787 99.004 75.9577C98.862 75.848 99.0395 75.5701 99.1987 75.6527L99.1929 75.671Z" fill="#FFB61D"/>
<path d="M95.0977 71.1012C94.9715 71.1599 94.8927 70.9564 94.9087 70.8182C94.9767 70.7376 95.1225 70.7453 95.1815 70.8327C95.2405 70.92 95.1932 71.0582 95.093 71.0911L95.0977 71.1012Z" fill="#FFB61D"/>
<path d="M86.3021 69.3243C86.3611 69.412 86.3218 69.5489 86.2253 69.5919C86.1288 69.635 86.0007 69.5728 85.9749 69.4703C86.0362 69.3598 86.1767 69.3 86.2989 69.3324L86.3021 69.3243Z" fill="#FFB61D"/>
<path d="M87.6958 69.4904C87.6149 69.5032 87.534 69.5161 87.453 69.529C87.3724 69.4096 87.4994 69.219 87.6406 69.2475C87.7353 69.2685 87.7697 69.4138 87.6945 69.475L87.6958 69.4904Z" fill="#FFB61D"/>
<path d="M84.7626 65.7717C84.5898 65.8151 84.613 65.5001 84.7559 65.3937C84.907 65.4444 84.9064 65.7068 84.7551 65.7568L84.7626 65.7717Z" fill="#FFB61D"/>
<path d="M83.5141 75.7671C83.5893 75.8891 83.4669 76.0748 83.3252 76.0538C83.1833 75.9442 83.3607 75.6662 83.5199 75.7489L83.5141 75.7671Z" fill="#FFB61D"/>
<path d="M81.9852 70.9908C82.0377 70.9245 82.0901 70.8583 82.1426 70.792C82.2631 70.7969 82.3444 70.9575 82.277 71.0575C82.2095 71.1575 82.0301 71.1423 81.9805 71.0323L81.9852 70.9908Z" fill="#FFB61D"/>
<path d="M96.3889 67.9861C96.3356 67.8842 96.3893 67.7416 96.4965 67.7002C96.5735 67.7515 96.6249 67.8394 96.6318 67.9316C96.5997 68.0235 96.4619 68.0549 96.3932 67.9859L96.3889 67.9861Z" fill="#FFB61D"/>
<path d="M83.3072 70.9679C83.2539 70.866 83.3076 70.7234 83.4148 70.682C83.4918 70.7333 83.5432 70.8212 83.55 70.9134C83.518 71.0053 83.3802 71.0367 83.3115 70.9678L83.3072 70.9679Z" fill="#FFB61D"/>
<path d="M105.363 65.4784C105.376 65.5627 105.388 65.6471 105.401 65.7314C105.317 65.748 105.233 65.7645 105.149 65.7811C105.07 65.6556 105.194 65.462 105.341 65.4817L105.363 65.4784Z" fill="#FFB61D"/>
<path d="M84.8641 72.0165C84.933 72.1454 84.8067 72.3282 84.6617 72.3094C84.6171 72.2385 84.6003 72.1507 84.6156 72.0683C84.6852 72.0224 84.7736 72.006 84.855 72.0242L84.8641 72.0165Z" fill="#FFB61D"/>
<path d="M84.6684 68.2561C84.5172 68.2111 84.5129 67.9495 84.6625 67.8994C84.8125 67.949 84.809 68.2111 84.6577 68.2566L84.6684 68.2561Z" fill="#FFB61D"/>
<path d="M84.9066 78.5116C84.9156 78.6046 84.8515 78.6995 84.7619 78.7259C84.6442 78.7114 84.577 78.548 84.6505 78.4549C84.724 78.3618 84.8986 78.3892 84.94 78.5004L84.9066 78.5116Z" fill="#FFB61D"/>
<path d="M86.0004 77.3163C85.9472 77.2145 86.0009 77.0719 86.1081 77.0304C86.1851 77.0817 86.2364 77.1696 86.2433 77.2619C86.2113 77.3538 86.0734 77.3851 86.0048 77.3162L86.0004 77.3163Z" fill="#FFB61D"/>
<path d="M84.7044 64.183C84.7142 64.0387 84.8848 63.8943 84.9954 63.9876C85.0103 64.0817 85.0107 64.1913 84.9411 64.2564C84.8715 64.3216 84.7206 64.2728 84.7399 64.1795L84.7044 64.183Z" fill="#FFB61D"/>
<path d="M97.7915 73.5989C97.7001 73.6442 97.5883 73.534 97.6084 73.4339C97.6285 73.3339 97.737 73.2714 97.8391 73.2704C97.9231 73.3674 97.9 73.5368 97.793 73.6078L97.7915 73.5989Z" fill="#FFB61D"/>
<path d="M87.4671 74.5489C87.5201 74.4841 87.5732 74.4193 87.6263 74.3546C87.7402 74.3497 87.8276 74.4975 87.7686 74.5951C87.7095 74.6926 87.538 74.6836 87.4895 74.5804L87.4671 74.5489Z" fill="#FFB61D"/>
<path d="M95.2427 73.6519C95.1607 73.6726 95.0706 73.659 94.9984 73.6149C94.9993 73.4856 95.1119 73.3489 95.2384 73.3759C95.3648 73.4028 95.3644 73.6417 95.2353 73.6348L95.2427 73.6519Z" fill="#FFB61D"/>
<path d="M93.988 70.5932C94.0968 70.6232 94.1526 70.7708 94.0907 70.8652C93.9996 70.8871 93.8991 70.8657 93.8248 70.8086C93.8755 70.7285 93.9263 70.6484 93.977 70.5683L93.988 70.5932Z" fill="#FFB61D"/>
<path d="M84.706 73.2059C84.8629 73.2001 84.7861 73.4583 84.6618 73.5542C84.5798 73.4581 84.6052 73.2911 84.712 73.2237L84.706 73.2059Z" fill="#FFB61D"/>
<path d="M100.195 73.2231C100.321 73.2837 100.288 73.5122 100.15 73.5349C99.9871 73.503 100.035 73.194 100.201 73.2134L100.195 73.2231Z" fill="#FFB61D"/>
<path d="M91.1414 69.408C91.0629 69.3652 91.112 69.2293 91.1989 69.2085C91.2858 69.1877 91.3723 69.2378 91.4477 69.2858C91.4439 69.4174 91.2349 69.4786 91.1607 69.3697L91.1414 69.408Z" fill="#FFB61D"/>
<path d="M87.7413 73.558C87.6806 73.6833 87.4521 73.6503 87.4294 73.513C87.4613 73.3497 87.7703 73.398 87.7509 73.5633L87.7413 73.558Z" fill="#FFB61D"/>
<path d="M80.8724 78.2292C80.9078 78.1162 81.103 78.1131 81.1419 78.225C81.1035 78.3372 80.9077 78.3344 80.8725 78.2211L80.8724 78.2292Z" fill="#FFB61D"/>
<path d="M86.0666 80.8263C86.102 80.7133 86.2972 80.7102 86.3361 80.822C86.2977 80.9342 86.1018 80.9314 86.0667 80.8181L86.0666 80.8263Z" fill="#FFB61D"/>
<path d="M105.28 64.2715C105.253 64.3791 105.108 64.4363 105.015 64.376C104.969 64.2895 105.005 64.1639 105.096 64.1289C105.188 64.0939 105.306 64.1831 105.284 64.2786L105.28 64.2715Z" fill="#FFB61D"/>
<path d="M102.725 77.3447C102.661 77.2917 102.596 77.2386 102.531 77.1855C102.526 77.0716 102.674 76.9842 102.771 77.0432C102.869 77.1023 102.86 77.2738 102.757 77.3223L102.725 77.3447Z" fill="#FFB61D"/>
<path d="M100.198 78.6131C100.103 78.5714 100.138 78.3959 100.242 78.3936C100.379 78.3979 100.307 78.6836 100.201 78.5945L100.198 78.6131Z" fill="#FFB61D"/>
<path d="M86.4552 169.067C80.4006 163.536 75.2756 156.99 71.3591 149.784C69.7072 146.745 68.2309 143.331 68.8492 139.927C70.0059 133.562 67.6154 127.165 65.7324 120.975C63.8493 114.784 62.5153 107.794 65.5443 102.077C60.7662 106.483 58.8499 113.16 57.8256 119.578C55.4508 134.458 56.7873 149.916 61.6809 164.168C55.935 153.649 55.7091 141.065 56.254 129.092C56.678 119.775 57.7199 109.854 63.5723 102.592C54.5624 109.94 51.8209 122.344 49.8328 133.799C47.966 144.555 46.3044 155.845 49.7657 166.198C46.5 160.178 47.0333 152.893 47.7075 146.078C49.2582 130.4 51.6459 113.518 62.627 102.222C65.5314 99.2347 69.0765 96.7017 73.145 95.8022C76.2976 95.1051 79.3349 93.8889 82.0972 92.2173C82.7631 88.318 79.0942 85.2476 76.5309 82.2347C73.6604 78.8607 71.8697 74.5819 71.4814 70.1691C71.2516 67.5571 70.7031 63.9981 68.0833 63.8868C65.9299 63.7952 64.3087 61.1968 65.1731 59.2223C66.0376 57.2479 69.0466 56.6766 70.5745 58.1969C68.395 50.0258 72.9993 40.5982 80.7836 37.2933C79.5143 35.4781 82.2847 33.3027 84.4843 33.5627C86.6839 33.8227 88.813 35.1513 90.9728 34.6604C90.2326 33.3571 91.4185 31.6255 92.8797 31.2916C94.3409 30.9578 95.8404 31.5921 97.151 32.3193C105.564 36.9869 111.124 46.4 111.151 56.0213C111.368 54.2651 114.004 53.6637 115.293 54.8761C116.582 56.0886 116.52 58.2586 115.605 59.7731C114.69 61.2876 113.13 62.282 111.586 63.1464C111.625 69.5267 109.198 75.8909 104.921 80.6257C101.809 84.071 97.3999 87.7257 98.4212 92.2547C100.077 91.8884 101.752 93.7983 101.172 95.3918C108.27 94.8005 114.894 99.0847 119.923 104.129C127.295 111.523 132.594 120.964 135.066 131.108C135.498 132.88 138.019 133.364 139.578 132.418C141.138 131.473 141.94 129.685 142.65 128.005C147.331 116.945 152.011 105.884 156.691 94.824C155.125 85.1974 156.519 85.7338 157.252 81.2323C159.258 76.0002 158.875 71.2727 159.686 66.2929C159.907 64.9368 160.856 63.1473 162.108 63.7126C162.741 63.9986 162.965 64.7706 163.1 65.4522C163.859 69.2829 164.102 73.2157 163.819 77.1107C165.439 74.3391 167.06 71.5676 168.68 68.796C169.566 67.2792 171.525 65.5806 172.755 66.8355C173.43 67.5248 173.253 68.6556 172.974 69.5796C172.087 72.5187 170.642 75.2882 168.738 77.6963C171.305 78.5719 174.278 79.9014 174.728 82.576C174.914 83.6854 174.6 84.8147 174.227 85.8762C172.932 89.5666 170.887 92.9918 168.252 95.8819C168.857 95.517 169.252 96.6026 169.132 97.2985C166.241 114.021 159.198 130.009 148.811 143.429C145.745 147.389 141.587 151.474 136.601 151.006C133.48 150.714 130.842 148.666 128.401 146.701C125.771 144.584 123.142 142.468 120.512 140.351C126.633 141.719 130.042 149.354 136.268 150.108C141.33 150.72 145.579 146.481 148.639 142.401C158.622 129.091 165.44 113.422 168.376 97.0449C164.384 97.715 160.229 97.388 156.391 96.1018C152.582 107.909 147.786 119.398 142.069 130.409C141.08 132.312 139.322 134.524 137.293 133.832C136.384 133.523 135.77 132.689 135.258 131.877C130.142 123.762 128.953 112.942 121.491 106.914C124.499 125.565 119.757 144.532 114.39 162.646C118.499 148.531 121.002 133.949 121.835 119.272C122.026 115.902 122.122 112.458 121.168 109.221C120.214 105.983 118.037 102.937 114.877 101.752C112.819 115.138 100.764 125.095 97.7132 138.291C95.2465 148.961 91.4557 159.324 86.4552 169.067ZM98.8471 132.423C103.434 123.704 109.446 115.722 113.18 106.605C114.028 104.532 114.729 102.068 113.575 100.148C113.158 99.4551 112.537 98.9128 111.927 98.3826C110.961 97.5441 109.902 96.6649 108.628 96.5612C106.937 96.4236 105.47 97.6886 104.382 98.9905C101.744 102.148 100.04 105.964 98.4198 109.746C94.5444 118.792 90.9418 128 88.676 137.577C86.4103 147.154 85.5069 157.151 87.0651 166.869C89.0381 157.957 95.6725 150.406 96.5818 141.324C96.7316 139.828 96.7217 138.31 97.0471 136.842C97.3924 135.284 98.1043 133.835 98.8471 132.423ZM107.927 50.1326C107.306 48.9353 106.53 47.79 105.471 46.9555C103.11 45.0966 99.7866 45.0917 96.8333 45.6441C94.9455 45.9972 93.0935 46.5417 91.315 47.2666C90.8507 47.4558 90.3575 47.6615 89.8642 47.5719C89.3709 47.4822 88.9271 46.9503 89.1293 46.4915C89.1682 46.4032 89.2285 46.3213 89.2388 46.2254C89.2677 45.9568 88.9262 45.8224 88.6588 45.7838C84.5944 45.1978 80.2663 45.8832 76.8494 48.161C73.4326 50.4388 71.0671 54.4106 71.1937 58.5152C71.2221 59.4362 71.9147 60.1898 72.6098 60.7947C73.673 61.72 74.8446 62.5206 76.093 63.1748C76.6534 63.4684 77.4221 63.7014 77.8504 63.2358C78.7 62.3122 80.1113 62.2404 81.366 62.2673C85.7267 62.3607 90.1108 62.8638 94.4337 62.2827C97.0672 61.9288 99.632 61.1773 102.255 60.7544C103.059 60.6248 103.888 60.5272 104.68 60.7148C105.472 60.9024 106.229 61.4292 106.481 62.2031C107.502 61.0489 108.421 59.8037 109.222 58.487C109.463 58.092 109.696 57.6812 109.785 57.2274C109.864 56.8246 109.825 56.4087 109.771 56.0017C109.503 53.9582 108.875 51.9623 107.927 50.1326ZM101.386 78.8047C102.925 78.1298 103.79 76.4932 104.372 74.9167C105.76 71.1596 106.206 67.0588 105.658 63.0913C105.603 62.6925 105.53 62.2746 105.275 61.9625C104.872 61.4681 104.152 61.3915 103.515 61.4175C102.016 61.4785 100.558 61.8915 99.099 62.2398C96.0272 62.973 92.8803 63.4288 89.7221 63.4394C86.6011 63.4499 83.4853 63.0265 80.3666 63.1477C79.7458 63.1718 79.0895 63.23 78.5856 63.5935C77.7869 64.1697 77.6464 65.2861 77.6145 66.2705C77.4931 70.013 77.9347 73.7733 78.9201 77.3858C78.9793 77.6029 79.046 77.8293 79.2039 77.9895C79.3741 78.1624 79.6211 78.2294 79.8539 78.2976C83.6217 79.401 86.8811 82.5612 90.7977 82.2886C93.703 82.0864 96.1459 80.0025 98.9899 79.3747C99.7935 79.1973 100.633 79.1352 101.386 78.8047ZM69.1758 140.628C68.9421 144.024 70.8635 147.151 72.7112 150.009C74.5817 152.903 76.4522 155.797 78.3226 158.69C75.564 149.509 74.2626 139.954 73.3775 130.408C72.4534 120.441 71.9945 110.216 74.72 100.585C75.1525 99.0562 75.6707 97.5346 76.5073 96.1845C73.9986 96.1192 71.3294 96.3114 69.283 97.7639C67.9525 98.7083 67.0081 100.109 66.3086 101.583C64.1471 106.138 64.1417 111.454 65.0974 116.404C66.053 121.354 67.9069 126.078 69.3595 130.905C69.7816 132.308 70.1737 133.748 70.1223 135.213C70.058 137.047 69.3019 138.797 69.1758 140.628ZM81.3614 79.7747C80.0684 79.2781 78.5 78.8727 77.9858 77.5866C77.7443 76.9827 77.8031 76.3071 77.7335 75.6604C77.6639 75.0138 77.3928 74.3045 76.7879 74.0655C75.3304 73.4896 73.9323 72.7635 72.6229 71.9024C73.2725 75.7224 75.0023 79.3528 77.5599 82.2638C78.8408 83.7217 80.3258 85.0055 81.4608 86.5796C82.5959 88.1538 83.3678 90.1343 82.9498 92.0294C82.8166 92.6334 83.6842 92.8963 84.3025 92.8817C88.4093 92.7846 92.5158 92.6698 96.6216 92.5374C97.3174 92.515 97.7277 91.7023 97.7115 91.0064C97.6953 90.3105 97.415 89.6379 97.4241 88.9418C97.4375 87.9189 98.0647 87.0156 98.703 86.2162C100.594 83.8478 102.802 81.7521 104.768 79.4454C106.733 77.1387 108.485 74.5544 109.232 71.6174C107.931 73.8115 105.187 74.9426 104.17 77.2815C103.592 78.6091 102.195 79.3902 100.812 79.8169C99.4285 80.2437 97.9623 80.4171 96.642 81.0109C95.9651 81.3154 95.3407 81.7245 94.6778 82.0583C92.349 83.2311 89.5425 83.4172 87.0792 82.5622C85.0739 81.8661 83.343 80.5358 81.3614 79.7747ZM163.601 85.5768C165.028 85.4921 166.751 86.0471 167.696 84.9749C167.913 84.7294 168.056 84.3915 167.977 84.0738C167.87 83.6413 167.415 83.4035 167.001 83.2398C164.355 82.1946 161.393 81.9647 158.617 82.589C157.65 82.8064 157.085 83.6989 156.874 84.6669C156.662 85.6349 156.713 86.6827 156.874 87.6606C157.281 90.1441 157.688 92.6276 158.096 95.1111C158.114 95.2231 158.134 95.3388 158.197 95.4331C158.292 95.5748 158.463 95.6405 158.624 95.6954C160.63 96.3786 162.763 96.6833 164.88 96.5887C165.721 96.5511 166.631 96.418 167.222 95.8174C170.113 92.8778 172.226 89.1803 173.292 85.1974C172.712 85.7166 171.967 86.1207 171.19 86.0607C170.414 86.0007 169.66 85.3401 169.71 84.5632C168.222 85.71 166.469 86.9236 164.629 86.5428C163.223 86.2516 161.67 86.8749 160.855 88.0579C160.358 87.9272 160.549 87.1583 160.911 86.7934C161.619 86.0784 162.596 85.6365 163.601 85.5768ZM78.1521 107.684C77.1779 107.835 76.2082 108.017 75.2465 108.234C74.5701 108.387 73.7649 108.697 73.6774 109.385C73.5029 110.756 73.4082 112.138 73.3939 113.52C80.7492 111.785 88.5592 112.019 95.7979 114.189C96.567 112.387 97.3362 110.585 98.1053 108.783C91.6285 107.029 84.7825 106.652 78.1521 107.684ZM105.327 96.8743C104.163 96.2583 102.807 96.0109 101.501 96.176C101.243 96.2086 100.953 96.28 100.829 96.5082C100.333 97.4197 99.2489 97.8137 98.2458 98.0794C93.1984 99.4162 87.8689 99.3862 82.6953 98.681C81.7335 98.5499 80.7586 98.3909 79.8847 97.9682C79.0108 97.5455 78.2384 96.8185 77.979 95.8831C77.2904 95.8728 76.8767 96.6251 76.632 97.2689C75.8919 99.216 75.2523 101.201 74.7166 103.214C83.1044 101.314 91.9691 101.56 100.239 103.922C101.028 102.958 101.614 101.828 101.947 100.628C102.102 100.068 102.532 99.6327 102.946 99.2243C103.74 98.4409 104.533 97.6576 105.327 96.8743ZM91.6267 125.255C92.4373 123.463 93.1257 121.615 93.6855 119.729C87.2276 118.659 80.614 118.534 74.1201 119.358C73.8447 119.393 73.5392 119.447 73.3727 119.669C73.2264 119.865 73.2339 120.131 73.2479 120.375C73.3171 121.584 73.3863 122.794 73.4555 124.003C73.4741 124.328 73.6291 124.767 73.9479 124.701C79.7756 123.5 85.8857 123.691 91.6267 125.255ZM172.181 69.7505C172.366 69.2916 172.544 68.8091 172.504 68.316C172.463 67.8228 172.142 67.3176 171.656 67.2261C171.353 67.1691 171.04 67.2789 170.778 67.4409C170.134 67.8379 169.731 68.5195 169.353 69.1744C167.641 72.1396 165.93 75.1047 164.219 78.0698C163.997 78.4542 163.356 78.3351 163.112 77.9639C162.869 77.5927 162.901 77.1124 162.936 76.6699C163.223 72.9614 163.008 69.2141 162.296 65.5631C162.252 65.3363 162.202 65.102 162.066 64.9156C161.671 64.3753 160.748 64.5631 160.35 65.1014C159.952 65.6397 159.929 66.3587 159.924 67.0281C159.884 72.1276 159.933 77.4081 157.873 82.0732C159.965 81.2611 162.32 81.1438 164.483 81.7442C164.792 81.83 165.112 81.931 165.428 81.8714C165.743 81.8118 166.042 81.5246 165.987 81.2086C165.781 80.0245 166.631 78.9479 167.378 78.0065C169.365 75.5041 170.988 72.714 172.181 69.7505ZM100.43 94.1674C100.288 93.5829 99.7636 93.0461 99.1644 93.0998C93.0505 93.6472 86.9015 93.8028 80.7676 93.5654C80.4045 93.5513 80.0222 93.54 79.7001 93.7081C79.4726 93.8268 79.2949 94.0279 79.1743 94.2544C78.6848 95.1732 79.1818 96.3715 80.0163 96.994C80.8507 97.6166 81.9256 97.7983 82.9585 97.9287C87.4676 98.498 92.0631 98.438 96.5395 97.6516C97.506 97.4818 98.4976 97.2653 99.2976 96.697C100.098 96.1287 100.662 95.1208 100.43 94.1674ZM89.5304 131.606C89.5659 131.484 89.5996 131.346 89.5353 131.236C89.4667 131.119 89.3163 131.084 89.1824 131.061C84.3221 130.237 79.3473 130.642 74.4344 131.049C74.2954 131.061 74.1374 131.083 74.0593 131.198C73.9984 131.288 74.0071 131.406 74.0181 131.515C74.1605 132.909 74.3028 134.304 74.4452 135.699C74.4725 135.967 74.5859 136.314 74.8548 136.3C79.1269 136.082 83.4197 136.272 87.656 136.865C87.9251 136.903 88.087 136.581 88.1628 136.32C88.6186 134.749 89.0745 133.178 89.5304 131.606ZM86.7445 144.156C86.7656 143.956 86.7777 143.727 86.6387 143.581C86.5323 143.469 86.3676 143.44 86.2147 143.419C82.889 142.955 79.5098 143.284 76.1682 143.614C76.0012 143.63 75.808 143.663 75.7274 143.81C75.6721 143.911 75.6896 144.035 75.7087 144.148C75.9329 145.485 76.157 146.821 76.3812 148.157C76.4134 148.35 76.5152 148.597 76.708 148.568C79.8954 148.093 83.2875 147.953 86.2027 149.327C86.3833 147.603 86.5639 145.88 86.7445 144.156ZM73.3749 71.3854C74.579 72.2123 75.9008 72.8676 77.288 73.3251C76.684 70.5395 76.5657 67.6493 76.94 64.8237C76.9873 64.4664 76.5849 64.2356 76.2529 64.0956C74.3105 63.2769 72.5477 62.0353 71.1226 60.4822C71.2698 63.43 71.5885 66.3693 72.0764 69.2802C72.1496 69.7168 72.2313 70.1653 72.4677 70.5397C72.69 70.8917 73.0317 71.1496 73.3749 71.3854ZM105.471 74.3782C106.765 73.3272 107.898 72.0876 108.9 70.7563C109.441 70.038 109.951 69.2812 110.251 68.4334C110.552 67.5811 110.63 66.6673 110.666 65.764C110.76 63.3996 110.579 61.0244 110.129 58.7014C109.091 60.1123 108.052 61.5232 107.014 62.9341C106.854 63.1507 106.691 63.3751 106.63 63.6369C106.581 63.8467 106.6 64.0657 106.618 64.2805C106.895 67.6782 106.503 71.1292 105.471 74.3782ZM85.4072 160.664C85.6345 160.71 85.7387 160.392 85.7442 160.16C85.7772 158.774 85.8101 157.387 85.8431 156.001C85.8461 155.876 85.8479 155.746 85.794 155.633C85.6943 155.425 85.4441 155.346 85.2208 155.288C83.9587 154.959 82.6782 154.629 81.3743 154.645C80.2912 154.658 79.2187 154.91 78.1358 154.884C78.0131 154.881 77.8531 154.901 77.8273 155.021C77.8184 155.063 77.8301 155.106 77.8419 155.147C78.3198 156.805 78.9488 158.42 79.7187 159.965C79.8196 160.168 79.9401 160.385 80.1509 160.467C80.2996 160.525 80.4658 160.503 80.6241 160.484C82.2142 160.285 83.8366 160.346 85.4072 160.664ZM111.386 56.5525C111.138 56.9354 110.919 57.3539 110.878 57.808C110.853 58.0866 110.897 58.3663 110.94 58.6426C111.107 59.7075 111.274 60.7724 111.441 61.8373C111.451 61.8991 111.462 61.9646 111.503 62.0117C111.6 62.1224 111.78 62.0636 111.911 61.9971C112.44 61.7286 112.975 61.456 113.421 61.0656C113.779 60.7525 114.071 60.3715 114.345 59.9832C114.92 59.1718 115.447 58.2668 115.484 57.2734C115.521 56.2801 114.912 55.2003 113.934 55.0209C112.899 54.8309 111.957 55.6686 111.386 56.5525ZM66.3967 58.6612C65.9999 59.0088 65.8563 59.561 65.7903 60.0844C65.7299 60.5637 65.7195 61.0629 65.8858 61.5164C66.115 62.1422 66.6601 62.6112 67.2632 62.8947C67.8663 63.1782 68.5306 63.2998 69.1863 63.4187C69.51 63.4774 69.8337 63.5361 70.1573 63.5948C70.2375 63.6093 70.3324 63.6195 70.3891 63.561C70.4361 63.5124 70.4361 63.4365 70.4331 63.3689C70.3796 62.1702 70.3261 60.9716 70.2726 59.7729C70.2499 59.2637 69.8858 58.8151 69.4371 58.5733C68.9883 58.3315 68.4659 58.2664 67.9564 58.2535C67.4061 58.2394 66.8107 58.2984 66.3967 58.6612ZM170.431 79.1729C170.193 78.9128 169.842 78.7936 169.504 78.6925C169.146 78.5852 168.76 78.4872 168.404 78.6041C168.001 78.7367 167.735 79.1136 167.522 79.4807C167.2 80.036 166.934 80.623 166.727 81.2304C166.654 81.4455 166.587 81.6717 166.618 81.8968C166.648 82.1219 166.802 82.3457 167.025 82.3876C167.937 82.5585 168.733 83.2456 169.036 84.1222C169.459 83.2349 169.883 82.3475 170.306 81.4602C170.482 81.0932 170.659 80.7194 170.719 80.3172C170.779 79.915 170.706 79.4728 170.431 79.1729ZM173.605 81.0312C173.171 80.6235 172.449 80.652 171.948 80.9729C171.447 81.2938 171.135 81.8425 170.933 82.4025C170.703 83.0403 170.591 83.7204 170.605 84.3982C170.608 84.5601 170.62 84.7274 170.694 84.871C170.874 85.2176 171.35 85.2951 171.728 85.1995C172.556 84.9906 173.107 84.2218 173.516 83.4729C173.727 83.087 173.923 82.6821 173.977 82.2458C174.032 81.8096 173.925 81.3323 173.605 81.0312ZM86.3437 167.577C86.1402 166.4 85.9366 165.224 85.7331 164.047C85.7094 163.91 85.6777 163.76 85.5662 163.677C85.493 163.622 85.3985 163.608 85.308 163.596C84.2592 163.46 83.1936 163.453 82.1431 163.576C83.383 165.065 84.7957 166.411 86.3437 167.577Z" fill="#00160A"/>
<path d="M26.1152 52.8585C25.0681 54.8656 24.525 57.0925 24.5382 59.3453C23.6687 57.6326 22.6276 55.8614 20.6201 55.3423C18.9387 54.8927 16.9914 55.8164 16.7638 57.6328C16.4915 59.8149 18.4565 61.7201 19.9305 63.0649C21.6573 64.6537 23.6531 65.9296 25.6989 67.0798C26.7463 67.6661 27.805 68.208 28.868 68.7618C28.6329 69.5058 28.4082 70.3536 28.8571 71.0233C29.2092 71.5402 29.9201 71.7652 30.4374 71.3082C30.9548 70.8511 30.9414 70.0631 30.6013 69.5419C30.3035 69.0993 29.8384 68.7983 29.3457 68.5341C29.3724 68.4572 29.3914 68.3966 29.4181 68.3196C29.611 67.685 29.8203 67.0579 30.0459 66.4382C30.4809 65.1914 30.9607 63.9552 31.3914 62.6965C32.1579 60.4824 32.8011 58.1923 32.9034 55.8437C32.9776 54.0563 32.8943 51.3855 31.1668 50.3211C29.077 49.0122 27.0105 51.1485 26.1152 52.8585ZM30.3453 69.8904C30.5068 70.2213 30.5285 70.6569 30.2509 70.946C29.7828 71.4255 29.196 70.9403 29.0595 70.4525C28.9229 69.9646 29.0572 69.432 29.2165 68.9305C29.6721 69.1679 30.1286 69.4452 30.3453 69.8904ZM32.5069 54.6039C32.561 55.7667 32.477 56.9261 32.2628 58.0657C31.8517 60.3923 31.0325 62.6121 30.2133 64.8319C29.7887 65.9943 29.3562 67.173 28.9928 68.3535C28.7098 68.2146 28.4355 68.0994 28.181 67.9636C27.1758 67.456 26.1905 66.9277 25.2086 66.3713C23.2033 65.2198 21.2636 63.9101 19.6049 62.2831C18.647 61.3417 17.5846 60.2636 17.1785 58.9601C16.7508 57.5972 17.2832 56.1672 18.7165 55.6723C21.4263 54.7398 23.3978 57.4893 24.5306 59.5496C24.5384 59.7215 24.5463 59.8933 24.5541 60.0651C24.5715 60.3007 24.9191 60.2414 24.9103 60.0295C24.8402 57.7706 25.2332 55.5446 26.2181 53.4795C26.7067 52.4551 27.3392 51.3379 28.3689 50.7482C29.5106 50.0907 30.877 50.2384 31.6435 51.3301C32.2969 52.2614 32.458 53.4929 32.5069 54.6039Z" fill="#FFB61D"/>
<path d="M165.345 25.0754C163.253 25.9399 161.405 27.2966 159.967 29.0309C160.402 27.16 160.743 25.1339 159.539 23.4459C158.54 22.0207 156.454 21.4767 155.112 22.7217C153.501 24.2182 153.782 26.9408 154.047 28.9185C154.348 31.2456 155.057 33.5058 155.885 35.7019C156.31 36.8243 156.773 37.9199 157.231 39.0274C156.573 39.4463 155.856 39.9513 155.769 40.7529C155.707 41.3752 156.107 42.0045 156.797 41.9869C157.487 41.9693 157.983 41.3571 158.058 40.7392C158.114 40.2087 157.951 39.6792 157.744 39.1601C157.813 39.1184 157.867 39.0841 157.937 39.0424C158.493 38.6802 159.056 38.3343 159.627 38.0047C160.762 37.3292 161.924 36.6906 163.063 36.0032C165.073 34.7998 167.038 33.4589 168.626 31.7255C169.832 30.404 171.485 28.3045 170.846 26.3787C170.086 24.0328 167.13 24.3409 165.345 25.0754ZM157.637 40.8416C157.548 41.1989 157.285 41.5466 156.887 41.5896C156.22 41.656 156.082 40.9071 156.291 40.4457C156.5 39.9842 156.945 39.6625 157.39 39.3808C157.586 39.8554 157.758 40.3613 157.637 40.8416ZM169.119 30.5209C168.413 31.4465 167.604 32.2806 166.707 33.0159C164.897 34.5339 162.842 35.7079 160.788 36.8818C159.715 37.4993 158.626 38.1243 157.589 38.7949C157.462 38.5066 157.326 38.2421 157.218 37.9744C156.774 36.9395 156.359 35.9014 155.965 34.844C155.169 32.673 154.525 30.4228 154.3 28.1103C154.171 26.7734 154.05 25.2646 154.577 24.0051C155.125 22.6861 156.452 21.9328 157.868 22.4751C160.544 23.5026 160.287 26.8761 159.83 29.1825C159.726 29.3192 159.621 29.4558 159.517 29.5925C159.379 29.7841 159.683 29.9621 159.812 29.7942C161.211 28.0187 162.943 26.5661 165.025 25.6172C166.057 25.1465 167.26 24.6973 168.428 24.9074C169.725 25.1376 170.677 26.1291 170.562 27.4581C170.464 28.5915 169.796 29.6384 169.119 30.5209Z" fill="#FFB61D"/>
</svg>
