<svg width="70" height="70" viewBox="0 0 70 70" fill="none" xmlns="http://www.w3.org/2000/svg">
<g clip-path="url(#clip0_759_4192)">
<path d="M53.2439 41.6938C63.337 30.3538 67.5851 21.2013 69.1733 14.49C70.092 10.6094 70.1095 7.57751 69.8733 5.45563C69.7819 4.62328 69.6239 3.79959 69.4008 2.99251C69.3055 2.65112 69.1915 2.3152 69.0595 1.98626C68.7401 1.26876 68.3245 0.958133 67.5195 0.691258C67.2886 0.6174 67.0551 0.551733 66.8195 0.494383C65.9998 0.295645 65.1661 0.159627 64.3258 0.0875081C62.182 -0.104992 59.1195 -0.0437419 55.2258 0.910008C48.5058 2.54626 39.397 6.78563 28.2714 16.6775L17.7714 17.7188H17.7451C15.2222 18.0001 12.8704 19.1327 11.0776 20.93L0.656391 31.3688C0.326318 31.7012 0.10876 32.1287 0.0343231 32.5912C-0.0401143 33.0536 0.0323151 33.5278 0.241422 33.947C0.450529 34.3662 0.78579 34.7093 1.20004 34.928C1.61429 35.1467 2.08669 35.23 2.55077 35.1663L10.8458 33.9806C12.0708 33.8056 13.4358 34.0375 15.0239 34.5581C16.0389 34.8906 16.9358 35.2581 17.8895 35.6431L18.7776 36.0063C19.6351 39.5763 21.6651 42.9188 24.3558 45.6094C27.0376 48.2956 30.3758 50.3344 33.9414 51.1963L34.3001 52.08C34.6895 53.0338 35.057 53.935 35.3895 54.9544C35.9058 56.5425 36.142 57.9119 35.967 59.1369L34.7814 67.4494C34.7188 67.9126 34.8027 68.3837 35.0213 68.7969C35.2399 69.21 35.5822 69.5444 36.0004 69.7533C36.4185 69.9621 36.8916 70.0349 37.3531 69.9615C37.8147 69.888 38.2418 69.672 38.5745 69.3438L48.9958 58.905C50.7895 57.1113 51.9183 54.7531 52.1983 52.2288L53.2439 41.6938ZM53.7251 25.5106C50.2383 29.0106 45.2814 29.715 42.6651 27.0944C40.0489 24.4694 40.7576 19.5125 44.2445 16.0169C47.7358 12.5213 52.6883 11.8169 55.3045 14.4375C57.9251 17.0581 57.2164 22.015 53.7295 25.5106H53.7251Z" fill="white"/>
<path d="M22.7723 47.1934C25.0958 49.5449 27.7557 51.5383 30.6648 53.1084C25.7736 57.514 9.10043 61.9809 8.55355 61.434C8.0023 60.8784 11.7779 43.1071 16.5992 38.7715C18.1129 41.7902 20.2611 44.6777 22.7723 47.1934Z" fill="white"/>
</g>
<defs>
<clipPath id="clip0_759_4192">
<rect width="70" height="70" fill="white"/>
</clipPath>
</defs>
</svg>
