<svg width="200" height="200" viewBox="0 0 200 200" fill="none" xmlns="http://www.w3.org/2000/svg">
<g id="Illustration/Order Placed">
<rect width="200" height="200" fill="white"/>
<path id="Blob" fill-rule="evenodd" clip-rule="evenodd" d="M123.842 41.2215C124.156 29.5907 109.435 9.7354 85.3203 13.1948C58.9177 16.9824 39.7601 47.3197 43.5765 81.2273L43.7219 82.5296C46.0648 103.708 46.8476 120.391 42.7995 143.882C39.7729 161.446 61.2951 200.331 108.903 194.18C156.511 188.028 182.661 130.942 160.195 104.006C130.188 68.0275 123.157 66.6774 123.842 41.2215Z" fill="#1173AB"/>
<path id="Path" fill-rule="evenodd" clip-rule="evenodd" d="M95.5694 75.1307C94.7526 73.0288 93.2054 71.3121 91.8661 69.4979C88.285 64.6472 86.0643 58.8031 85.5204 52.7983C85.23 49.5926 86.3326 33.9466 92.1638 30.2762C89.285 29.3898 86.3326 28.4656 83.9713 26.5954C81.6099 24.7252 79.9388 21.6677 80.5743 18.7233C81.536 14.2667 87.324 12.3535 91.6415 13.8182C95.9589 15.283 99.0646 18.9887 101.938 22.5282C104.686 22.2967 105.368 18.2481 107.878 17.1056C109.57 16.335 111.538 17.1251 113.179 18.0005C117.955 20.5481 122.428 24.0415 124.953 28.8291C127.479 33.6167 127.697 39.8662 124.48 44.2188C125.652 42.8771 128.081 44.5459 127.942 46.322C127.803 48.0982 126.234 49.3872 124.736 50.3516C123.238 51.3161 121.564 52.3161 120.972 53.9965C119.482 58.2265 117.115 62.1454 114.064 65.4327C112.201 67.4412 110.061 69.2483 108.678 71.614C107.296 73.9798 106.834 77.1592 108.446 79.3746C110.591 77.0924 114.287 76.4507 117.075 77.8764C119.863 79.3022 121.506 82.6741 120.911 85.7486C124.796 86.082 128.286 89.1597 129.103 92.9724C136.98 100.913 143.414 110.28 147.998 120.482C150.908 126.958 153.069 133.74 155.223 140.505C156.066 143.152 156.919 145.925 156.449 148.663C155.496 154.223 149.464 157.498 143.862 158.156C136.886 158.976 129.618 156.941 124.082 152.619C121.125 161.815 118.173 171.86 121.534 180.916C122.254 182.856 120.815 185.059 118.934 185.92C117.053 186.782 114.889 186.656 112.825 186.513C101.258 185.711 89.6906 184.91 78.1235 184.108C75.6995 183.94 72.3854 182.514 73.2434 180.24C75.1594 175.164 75.7069 169.578 74.813 164.226C74.1311 167.831 72.9485 171.34 71.31 174.622C71.31 174.622 65.5362 186.513 59.7781 180.411C56.4963 173.78 56.3548 166.015 57.3235 158.68C58.2922 151.344 60.2948 144.167 61.0773 136.809C61.8396 129.642 61.4345 122.389 62.18 115.22C62.9255 108.051 64.986 100.709 69.8793 95.4168C73.751 91.2295 77.6227 87.0423 81.4943 82.855C82.5367 81.7276 83.6355 80.5617 85.077 80.0328C86.5184 79.5038 88.4028 79.8402 89.1442 81.1848C90.058 80.0479 91.1273 78.8225 92.578 78.6704C94.0287 78.5183 95.5428 80.2956 94.6114 81.4181C96.2806 79.902 96.3861 77.2326 95.5694 75.1307Z" fill="white"/>
<path id="Path_2" fill-rule="evenodd" clip-rule="evenodd" d="M126.437 92.973C134.314 100.913 140.748 110.281 145.332 120.483C148.241 126.959 150.402 133.741 152.556 140.506C153.399 143.153 154.252 145.925 153.783 148.663C152.829 154.223 146.798 157.499 141.195 158.157C134.22 158.976 127.399 156.517 121.863 152.195C118.905 161.391 115.506 171.861 118.868 180.917C119.172 181.738 119.967 182.666 119.628 183.459C119.167 184.541 117.352 185.424 116.267 185.921C115.982 186.052 116.744 183.346 116.711 179.376C116.654 172.618 113.821 149.141 120.49 150.692C136.779 154.48 149.059 153.893 149.317 149.852C150.624 129.337 125.62 89.1604 126.437 92.973Z" fill="#E7EAEE"/>
<path id="Combined Shape" fill-rule="evenodd" clip-rule="evenodd" d="M93.7027 75.1307C93.0623 73.4828 91.973 72.0718 90.887 70.6649L90.8869 70.6648L90.8869 70.6648L90.8869 70.6648L90.8869 70.6648L90.8868 70.6647L90.8868 70.6647L90.8868 70.6647L90.8868 70.6647L90.8867 70.6647L90.8867 70.6646L90.8867 70.6646L90.8867 70.6646L90.8867 70.6646C90.5875 70.277 90.2886 69.8897 89.9994 69.4979C86.4183 64.6472 84.1976 58.8031 83.6537 52.7983C83.3633 49.5926 84.4659 33.9466 90.2971 30.2762C87.4183 29.3898 84.4659 28.4656 82.1046 26.5954C79.7432 24.7252 78.0721 21.6677 78.7076 18.7233C79.6693 14.2667 85.4573 12.3535 89.7748 13.8182C94.0922 15.283 97.1979 18.9887 100.071 22.5282C101.585 22.4007 102.472 21.1152 103.382 19.7951C104.125 18.7185 104.883 17.6189 106.011 17.1056C107.704 16.335 109.672 17.1251 111.313 18.0005C116.088 20.5481 120.562 24.0415 123.087 28.8291C125.612 33.6167 125.831 39.8662 122.613 44.2188C123.785 42.8771 126.214 44.5459 126.075 46.322C125.936 48.0982 124.367 49.3872 122.869 50.3516C122.79 50.403 122.709 50.4544 122.629 50.506C121.196 51.4245 119.666 52.4055 119.106 53.9965C117.616 58.2265 115.249 62.1454 112.198 65.4327C111.702 65.9672 111.186 66.4874 110.671 67.0076L110.67 67.0078L110.67 67.0078C109.249 68.4426 107.826 69.8779 106.812 71.614C105.429 73.9798 104.967 77.1592 106.58 79.3746C108.724 77.0924 112.42 76.4507 115.208 77.8764C117.996 79.3022 119.639 82.6741 119.044 85.7486C122.929 86.082 126.42 89.1597 127.236 92.9724C135.114 100.913 141.548 110.28 146.131 120.482C149.041 126.958 151.202 133.74 153.356 140.505C154.199 143.152 155.052 145.925 154.583 148.663C153.629 154.223 147.598 157.498 141.995 158.156C135.02 158.976 127.751 156.941 122.215 152.619C119.258 161.815 116.306 171.86 119.668 180.916C119.965 181.718 119.894 182.565 119.575 183.343C117.386 178.586 116.985 173.157 117.57 167.951C118.16 162.703 119.704 157.615 121.24 152.562C121.494 151.724 120.163 151.503 119.296 151.384C117.755 151.173 116.637 149.86 115.673 148.639L111.756 143.677C109.227 140.473 106.312 137.036 102.279 136.415C101.16 136.243 100.028 136.306 98.8946 136.369H98.8945H98.8944H98.8943H98.8942H98.8941H98.894H98.8939H98.8939H98.8938H98.8937H98.8936H98.8935H98.8934H98.8933H98.8932H98.8931C98.203 136.407 97.5122 136.445 96.8234 136.43C94.1467 136.373 91.4932 135.492 89.3139 133.937C88.7913 133.564 88.2609 133.097 88.1537 132.464C88.0489 131.845 88.6075 131.121 89.2008 131.278L89.2429 131.291C89.2288 131.286 89.2148 131.282 89.2008 131.278C87.3124 130.708 85.5142 129.841 83.8929 128.718C83.5941 128.51 83.2894 128.281 83.1354 127.951C82.8028 127.24 83.3534 126.368 84.079 126.068C84.8047 125.768 85.6267 125.877 86.4037 125.992C85.4768 125.804 84.5211 125.603 83.7444 125.064C82.9677 124.524 82.4112 123.549 82.6517 122.635C82.8921 121.72 84.1527 121.154 84.8634 121.778C84.5535 120.854 85.2255 119.831 86.105 119.412C86.9844 118.993 88.0035 119.026 88.9762 119.08C93.0575 119.305 97.1271 119.741 101.164 120.384L100.572 112.081C100.548 111.742 100.519 111.387 100.335 111.102C100.1 110.736 99.665 110.562 99.2572 110.41C91.0411 107.367 82.5888 104.961 74.0014 103.221L75.9252 139.262C75.9842 140.367 76.292 141.769 77.3839 141.948C84.1683 143.065 90.8234 144.966 97.1744 147.6C98.0664 147.97 98.7188 146.721 98.883 145.769L100.51 136.337C100.736 140.325 100.166 144.355 98.8425 148.123C99.8548 148.361 100.44 147.024 100.602 145.997L102.072 136.676C102.322 139.98 102.033 143.324 101.22 146.537C101.033 147.274 100.75 148.09 100.06 148.411C99.4763 148.683 98.7925 148.507 98.1744 148.326L76.6843 142.059C76.3465 141.961 75.9938 141.854 75.7433 141.607C75.3706 141.239 75.3196 140.664 75.2909 140.141L73.5024 107.644C73.3865 105.537 73.5016 103.426 73.6167 101.319L74.2062 90.5297C70.7471 102.715 70.4205 115.63 71.8777 128.213C73.3349 140.795 76.5356 153.107 80.0426 165.278C78.5671 162.754 77.4894 159.998 76.8615 157.143C75.1461 159.598 73.3463 162.396 73.8357 165.351C74.6576 170.313 74.1336 175.492 72.3341 180.189C71.9237 181.26 72.6616 182.495 73.6719 183.039C74.6821 183.582 75.8804 183.609 77.0274 183.623L92.298 183.813C91.8768 183.278 92.0287 182.391 92.6039 182.027C92.45 183.687 94.5786 184.468 96.2302 184.693C104.033 185.754 112.327 186.75 119.499 183.518C119.021 184.549 118.112 185.442 117.067 185.92C115.187 186.782 113.022 186.656 110.958 186.513L76.2568 184.108C73.8328 183.94 70.5187 182.514 71.3767 180.24C73.2927 175.164 73.8402 169.578 72.9463 164.226C72.2644 167.831 71.0818 171.34 69.4433 174.622C70.1153 169.142 71.9527 163.807 74.7979 159.075C76.8231 155.707 75.6564 151.421 74.6162 147.631C69.6912 129.687 68.9277 110.614 72.4026 92.3342C64.9864 97.7553 61.8903 107.375 61.0106 116.519C60.6428 120.342 60.582 124.191 60.5212 128.039C60.4366 133.393 60.3521 138.743 59.4401 144.01C59.0235 146.417 58.4356 148.795 57.8482 151.171C56.9202 154.926 55.9932 158.676 55.7441 162.526C55.3551 168.539 56.637 174.521 57.9114 180.411C54.6296 173.78 54.4881 166.015 55.4568 158.68C55.9014 155.313 56.5637 151.98 57.2259 148.647L57.226 148.647C58.0067 144.718 58.7872 140.79 59.2106 136.809C59.5945 133.2 59.6824 129.568 59.7702 125.937C59.8567 122.358 59.9433 118.779 60.3133 115.22C61.0588 108.051 63.1193 100.709 68.0126 95.4168L79.6276 82.855C80.67 81.7276 81.7688 80.5617 83.2103 80.0328C84.6517 79.5038 86.5361 79.8402 87.2775 81.1848C88.1913 80.0479 89.2606 78.8225 90.7113 78.6704C92.162 78.5183 93.6761 80.2956 92.7447 81.4181C94.4139 79.902 94.5194 77.2326 93.7027 75.1307ZM119.499 183.518C119.525 183.46 119.551 183.402 119.575 183.343C119.593 183.382 119.61 183.42 119.628 183.459L119.57 183.485L119.499 183.518ZM153.79 145.621C154.182 148.896 152.427 152.188 149.822 154.211C147.217 156.234 143.881 157.123 140.591 157.349C133.663 157.824 126.582 155.449 121.342 150.892C125.364 146.769 125.589 139.527 121.829 135.163C125.064 133.658 128.371 132.133 131.916 131.743C135.462 131.353 139.353 132.294 141.658 135.016C142.052 135.482 142.393 135.989 142.733 136.496L142.733 136.496C143.151 137.119 143.569 137.741 144.085 138.284C143.638 135.332 141.337 132.866 138.582 131.714C135.828 130.563 132.694 130.588 129.78 131.236C126.865 131.884 124.12 133.12 121.398 134.347C120.881 134.581 120.493 133.836 120.409 133.275L119.922 130.021C119.721 128.681 119.742 126.926 121.005 126.433C121.954 126.063 121.705 124.616 121.077 123.814C120.972 123.68 120.859 123.545 120.746 123.408C120.18 122.731 119.586 122.019 119.736 121.185C121.328 112.322 122.929 103.424 125.762 94.8766C125.85 94.6118 125.956 94.3248 126.198 94.1849C126.524 93.9958 126.936 94.1593 127.264 94.3448C129.918 95.8445 131.504 98.5238 133.087 101.197C133.645 102.141 134.203 103.084 134.808 103.974C135.74 105.347 136.809 106.618 137.878 107.89L137.878 107.89L137.878 107.89L137.878 107.89L137.878 107.89L137.878 107.89L137.878 107.89L137.878 107.89L137.878 107.89L137.878 107.89L137.878 107.891L137.878 107.891L137.878 107.891L137.878 107.891L137.878 107.891C138.672 108.835 139.465 109.779 140.204 110.765C144.756 116.847 146.989 124.161 149.227 131.491L149.227 131.491L149.227 131.492L149.227 131.492L149.227 131.492L149.227 131.492L149.227 131.493L149.228 131.493L149.228 131.493L149.228 131.494L149.228 131.494L149.228 131.494L149.228 131.494L149.228 131.495L149.228 131.495C150.249 134.837 151.27 138.183 152.513 141.416C152.563 141.547 152.614 141.679 152.665 141.81C153.146 143.051 153.631 144.302 153.79 145.621ZM118.123 126.482C118.773 126.475 119.453 126.462 120.021 126.148C120.59 125.834 120.992 125.115 120.729 124.522C120.479 123.958 119.759 123.755 119.148 123.835C118.794 123.881 118.455 123.997 118.116 124.113C117.87 124.197 117.624 124.281 117.371 124.339C116.112 124.627 114.827 124.247 113.549 123.87C112.166 123.461 110.791 123.055 109.466 123.501C110.323 122.082 110.266 120.327 110.213 118.66L110.204 118.399C109.932 109.546 111.897 100.632 115.865 92.7127C114.4 93.7605 113.349 95.3712 112.979 97.134C112.935 97.3434 112.9 97.5558 112.865 97.7682C112.776 98.3139 112.686 98.8594 112.445 99.3535C111.469 101.356 108.713 101.504 106.494 101.304C104.675 101.14 102.77 100.902 101.289 99.8339C100.546 99.2984 99.9479 98.5795 99.3532 97.8645C98.5614 96.9127 97.7755 95.968 96.6615 95.4724C94.814 94.6504 92.8395 95.3354 90.8417 96.0285C89.037 96.6546 87.2132 97.2873 85.4468 96.8216C84.4515 96.5592 83.7632 97.7811 83.4644 98.7661L82.1629 103.058C81.5557 100.712 82.2973 98.0654 84.0353 96.3767C83.2909 95.8885 83.4914 94.8863 83.6898 93.8939C83.8908 92.8888 84.0898 91.8939 83.3029 91.4537C80.9277 90.125 80.4577 86.9691 80.2549 84.2551C77.2329 85.371 75.5087 88.6374 74.9773 91.8147C74.6641 93.6876 74.6677 95.5884 74.6714 97.4912C74.6739 98.8165 74.6764 100.143 74.5719 101.461C83.6832 103.245 92.6639 105.695 101.419 108.786C101.955 108.975 102.518 109.186 102.875 109.628C103.26 110.103 103.332 110.751 103.388 111.36C103.674 114.438 103.944 117.644 102.842 120.533L102.852 111.53C102.852 111.032 102.767 110.408 102.293 110.255C101.555 110.017 101.209 111.145 101.269 111.918L101.796 118.61C101.869 119.526 102.002 120.558 102.739 121.107L89.4925 119.776C88.1165 119.638 86.4675 119.615 85.6627 120.74C85.7951 121.815 87.0814 122.267 88.1426 122.488L96.5746 124.246C93.936 124.792 91.1629 124.303 88.6665 123.289C88.4768 123.212 88.2877 123.131 88.0984 123.051C87.3081 122.716 86.5148 122.38 85.6675 122.268C84.6173 122.129 83.4305 122.415 82.8205 123.281C86.5932 125.776 90.9778 127.339 95.4781 127.791C95.4508 128.28 94.7995 128.426 94.3117 128.39C93.0423 128.298 91.8216 127.926 90.5997 127.553C90.0325 127.38 89.4651 127.207 88.8924 127.062C87.0861 126.604 85.0611 126.452 83.4577 127.402C87.0667 130.345 91.8254 131.368 96.3882 132.301L88.8329 132.14C90.1691 134.518 93.1672 135.394 95.8908 135.538C96.6961 135.58 97.5086 135.579 98.3208 135.578H98.3212C100.256 135.576 102.189 135.573 104.018 136.161C107.337 137.229 109.741 140.046 111.962 142.735L116.244 147.919C116.828 148.626 117.941 148.704 118.766 148.305C119.591 147.905 120.173 147.134 120.629 146.339C121.536 144.759 122.075 142.904 121.783 141.106C121.49 139.308 120.249 137.609 118.501 137.096C115.498 136.216 113.367 133.547 111.893 130.787C111.387 129.839 110.933 128.861 110.479 127.884L110.479 127.884C109.61 126.015 108.742 124.148 107.517 122.497C107.15 122.003 106.75 121.526 106.35 121.049C105.362 119.87 104.374 118.692 103.885 117.25C106.401 119.684 108.536 122.511 110.189 125.596C110.368 125.931 110.566 126.292 110.912 126.447C111.134 126.547 111.386 126.546 111.629 126.544L118.123 126.482ZM117.431 51.0001C118.039 50.921 118.519 50.4652 118.954 50.0329L121.069 47.9291C117.162 57.6111 111.582 66.9721 103.123 73.0927C101.406 74.3354 99.3646 75.48 97.2779 75.107C96.1848 74.9117 95.2043 74.3121 94.3349 73.6214C92.5244 72.1828 91.092 70.3202 89.8671 68.3589C86.4087 62.8217 84.4883 56.3144 84.5174 49.7859C84.5466 43.2574 86.5432 36.7319 90.2797 31.3784C90.4082 31.1944 90.5522 31.0012 90.7643 30.9279C90.9796 30.8535 91.2153 30.9195 91.4332 30.9857C99.2647 33.3663 107.021 35.9932 114.688 38.8611C115.901 39.3151 116.407 40.7434 116.627 42.0203C117.082 44.6502 116.961 47.3779 116.275 49.9572C116.117 50.5496 116.823 51.0791 117.431 51.0001ZM112.321 31.4253C113.245 31.4335 113.889 32.669 113.367 33.4311C112.845 34.1932 111.46 34.0388 111.119 33.1804C110.736 32.2175 109.748 31.6949 108.817 31.2018L108.816 31.2017L108.816 31.2016C108.717 31.1494 108.619 31.0975 108.523 31.0454C105.392 29.3591 102.985 26.6813 100.59 24.0165L100.59 24.0164L100.589 24.0163L100.589 24.0162C99.9611 23.3172 99.3336 22.6191 98.6941 21.94C97.4789 20.6497 96.2044 19.4152 94.8759 18.2418C93.419 16.955 91.8731 15.7268 90.0891 14.9546C88.3052 14.1824 86.2426 13.9011 84.4067 14.5399C85.2337 14.5819 85.8816 15.5243 85.6246 16.3115C85.3676 17.0987 84.2884 17.4772 83.596 17.0231C82.9036 16.569 82.8207 15.4283 83.4403 14.8789C81.5629 15.4347 79.9854 16.9195 79.3171 18.7598C79.1853 19.1227 79.0873 19.524 79.2079 19.8908C79.2758 20.0976 79.4092 20.2812 79.541 20.4628C79.7272 20.7193 79.9104 20.9715 79.9019 21.2789C79.8342 23.7393 82.243 25.9669 84.6906 25.7073C85.17 25.6564 85.3631 26.1345 85.5635 26.6304C85.6591 26.867 85.7563 27.1077 85.8871 27.297C86.1207 27.6351 86.5109 27.8234 86.8846 27.9944C90.6834 29.732 94.6143 31.1809 98.632 32.3246C99.0976 32.4571 99.735 32.5124 99.9325 32.0704C100.197 31.4773 100.967 31.1694 101.568 31.4162C102.169 31.663 102.5 32.4232 102.272 33.0313C102.169 33.3038 102.505 33.5247 102.779 33.6236L116.466 38.5722C116.213 37.5592 117.5 36.5524 118.422 37.0411C119.345 37.5299 119.235 39.16 118.255 39.52L123.257 42.0423L124.155 34.7014C124.197 34.3585 124.06 33.8485 123.729 33.9466C123.115 34.1284 122.392 33.7813 122.149 33.1889C121.907 32.5964 122.18 31.8418 122.745 31.5413C123.18 31.31 123.342 30.7399 123.246 30.2567C123.149 29.7735 122.852 29.3581 122.555 28.965C119.342 24.7123 115.273 21.0919 110.605 18.5189C109.354 17.8293 107.838 17.2079 106.545 17.8155C105.797 18.1672 105.294 18.8595 104.802 19.5362L104.802 19.5363C104.723 19.6439 104.645 19.7512 104.567 19.8566C103.582 21.1761 102.365 22.3208 100.987 23.2215L105.348 27.6583C104.987 26.8796 105.536 25.8306 106.382 25.683C107.227 25.5355 108.099 26.3365 108.023 27.1913C107.948 28.0461 106.949 28.6818 106.142 28.3882C107.964 29.8596 109.98 31.4045 112.321 31.4253ZM117.872 91.5212C118.535 91.5698 119.208 91.1718 119.485 90.5676C119.762 89.9635 119.623 89.1939 119.154 88.7237C118.567 88.1363 119.246 87.0392 120.072 86.9539C120.898 86.8686 121.649 87.3962 122.311 87.8974L125.502 90.3131C125.888 90.606 126.322 91.0437 126.153 91.4985C122.509 101.299 120.113 111.563 119.042 121.964C118.956 122.807 118.143 123.428 117.309 123.579C116.475 123.73 115.623 123.519 114.802 123.309L111.866 122.557C111.667 122.506 111.458 122.45 111.31 122.308C111.098 122.104 111.065 121.781 111.048 121.487C110.451 111.471 112.511 101.309 116.962 92.316C117.152 91.9315 117.444 91.4899 117.872 91.5212ZM111.406 85.2391C110.612 84.6397 110.794 83.1765 111.711 82.7902C109.441 82.9864 107.37 83.998 105.297 85.0106C103.298 85.9873 101.297 86.9649 99.1137 87.2126C100.426 88.1028 101.045 89.8089 100.867 91.3845C100.689 92.96 99.8068 94.3945 98.6601 95.4894C99.6419 97.3698 101.264 98.9086 103.193 99.7905C103.873 100.101 104.652 100.334 105.36 100.094C105.514 100.042 105.679 99.9716 105.847 99.9005C106.458 99.6413 107.106 99.3668 107.413 99.8761C107.988 100.831 109.457 100.612 110.41 100.033C111.061 99.6369 111.666 99.1007 111.934 98.3876C112.202 97.6744 112.043 96.7638 111.417 96.3302C110.897 95.9701 110.722 95.1927 111.038 94.6445C111.353 94.0962 112.114 93.8577 112.686 94.1272C113.186 94.3626 113.654 93.7759 113.953 93.311C114.655 92.2165 115.691 91.3388 116.885 90.8246C116.407 90.1214 116.474 89.0957 117.04 88.4609C115.578 87.3923 114.405 85.932 113.677 84.2739C113.557 85.2618 112.2 85.8385 111.406 85.2391ZM92.0445 81.4135C92.0264 81.5316 92.0083 81.6495 91.9942 81.7666C91.9283 82.3124 91.9871 82.9473 92.4246 83.2803C94.0937 81.2571 95.075 78.6764 95.1716 76.0554C95.1909 75.5318 95.9846 75.6075 96.4794 75.7799C97.94 76.2887 99.5797 76.0349 100.996 75.4144C102.413 74.7939 103.65 73.8331 104.869 72.8822C104.512 75.2587 104.823 77.732 105.757 79.9462L100.935 83.5674C100.744 83.7106 100.566 84.0387 100.784 84.1343C102.612 83.5418 104.163 82.3368 105.683 81.1568L105.825 81.0462C107.39 79.8316 109.029 78.613 110.947 78.1162C112.864 77.6194 115.147 78.0114 116.369 79.5707C116.971 80.3392 117.26 81.3009 117.535 82.2377L118.389 85.1389C118.574 85.7677 118.756 86.4609 118.49 87.0597C118.223 87.6586 117.286 87.9537 116.911 87.4154L115.163 84.8998C114.33 83.7014 113.385 82.4209 111.978 82.032C110.444 81.6077 108.861 82.3744 107.434 83.0806C104.934 84.3181 102.374 85.4353 99.7662 86.4269C98.9644 86.7318 98.0751 86.4342 97.2051 86.143C96.2146 85.8116 95.2492 85.4885 94.4663 86.0722C94.1757 86.2888 93.765 86.1704 93.43 86.032C91.1264 85.0801 89.0628 83.5537 87.4782 81.6296L90.7956 79.4748C91.2566 79.1754 91.8979 79.6053 92.0544 80.1323C92.1773 80.5462 92.1107 80.9814 92.0445 81.4135ZM94.4835 94.2677C92.9739 93.0335 92.2443 90.9179 92.6724 89.0155C92.7811 88.5321 92.2786 88.1576 91.8724 87.8737C91.4663 87.5898 91.064 87.0362 91.3775 86.6524C91.5464 86.4456 91.3162 86.1561 91.1051 85.9925L87.0462 82.8458C86.5592 82.4683 86.057 82.0729 85.7759 81.5245C85.2678 80.5334 83.9115 80.0863 82.9136 80.5809C81.4965 81.2834 81.2989 83.1882 81.2912 84.7698C81.2894 85.1426 81.3942 85.6374 81.7664 85.6585C82.7177 85.7123 83.168 87.1894 82.4085 87.7648C81.6646 88.3283 82.1955 89.5501 82.9353 90.1189C83.0967 90.2431 83.2695 90.362 83.4432 90.4815C84.0655 90.9097 84.6991 91.3457 84.8612 92.0571C84.9819 92.5865 84.8034 93.1477 84.629 93.6958C84.4109 94.3813 84.1994 95.0464 84.5874 95.6037C85.0626 96.286 86.0762 96.2196 86.8934 96.0664C89.45 95.5871 91.9838 94.9867 94.4835 94.2677ZM112.522 127.342C114.361 127.193 116.214 127.197 118.053 127.352C118.207 127.365 118.37 127.383 118.494 127.475C118.684 127.618 118.719 127.886 118.74 128.123C118.916 130.072 119.286 132.003 119.843 133.879C119.757 134.109 119.511 134.165 119.255 134.223C119.089 134.261 118.918 134.3 118.784 134.388C118.353 134.675 118.479 135.361 118.799 135.767C118.912 135.911 119.043 136.042 119.174 136.173L119.174 136.173L119.174 136.173L119.174 136.173L119.174 136.173L119.174 136.173L119.175 136.173C119.414 136.413 119.652 136.651 119.777 136.962C115.831 135.726 112.955 132.192 111.418 128.354C111.325 128.121 111.235 127.862 111.32 127.626C111.404 127.39 111.752 127.251 111.912 127.445C111.975 127.521 111.991 127.624 112.004 127.722L112.273 129.64C112.308 129.89 112.719 129.893 112.858 129.682C112.997 129.47 112.945 129.192 112.889 128.945L112.522 127.342ZM99.732 89.6073C99.202 88.0799 97.774 86.9028 96.1736 86.674C95.5879 86.5903 94.9277 86.6498 94.5085 87.0672C93.5868 87.9847 93.2226 89.384 93.4388 90.6664C93.6551 91.9488 94.4079 93.1061 95.4005 93.9463C96.1425 94.5743 97.1886 95.0496 98.0694 94.6385C98.3317 94.5161 98.5556 94.3238 98.7551 94.1141C99.8699 92.9432 100.262 91.1346 99.732 89.6073ZM117.318 49.3242C117.753 46.2953 118.158 43.0293 116.728 40.324C116.629 40.1357 116.526 39.8879 116.668 39.7297L121.158 41.9539C121.514 42.1303 121.935 42.4717 121.769 42.8328C121.576 43.2545 121.539 43.7206 121.503 44.1872C121.487 44.3844 121.472 44.5816 121.444 44.7757C121.279 45.949 120.669 47.0237 119.896 47.9214C119.122 48.8191 118.187 49.5601 117.258 50.2952C117.226 49.9716 117.272 49.646 117.318 49.3242ZM121.838 136.311C121.323 135.586 120.635 134.875 119.75 134.787C119.408 134.753 118.949 135.099 119.197 135.336C121.34 137.386 122.776 140.318 122.51 143.272C122.245 146.225 120.017 149.044 117.086 149.494C117.953 150.523 119.607 150.604 120.782 149.947C121.957 149.291 122.712 148.068 123.189 146.809C124.489 143.374 123.966 139.305 121.838 136.311ZM75.8322 102.289C79.0839 102.798 82.2565 103.712 85.4191 104.624L94.0369 107.11C96.6599 107.866 99.3122 108.635 101.678 109.997C100.556 109.956 99.4647 109.636 98.3911 109.308C96.4927 108.727 94.6007 108.115 92.7082 107.502C86.5693 105.513 80.426 103.523 74.0477 102.638C74.4551 102.15 75.2044 102.19 75.8322 102.289ZM122.951 45.0264C122.457 45.4698 122.221 46.1312 122.08 46.7794C122.038 46.9698 122.003 47.162 121.967 47.3542L121.967 47.3543C121.882 47.8165 121.798 48.2785 121.625 48.7142C121.597 48.7857 121.566 48.8578 121.535 48.9305C121.379 49.2948 121.219 49.6715 121.335 50.0393C123.196 49.9197 124.88 48.4201 125.214 46.585C125.326 45.969 125.259 45.2456 124.771 44.8531C124.255 44.4372 123.444 44.583 122.951 45.0264ZM113.421 20.9342C113.635 21.542 113.312 22.2881 112.722 22.5475C112.132 22.8069 111.364 22.5408 111.06 21.972C110.727 21.3459 111.031 20.4659 111.681 20.1803C112.33 19.8947 113.185 20.265 113.421 20.9342ZM91.2631 21.5079C91.2999 20.9552 90.9529 20.3977 90.4407 20.1868C89.7888 19.9183 88.9508 20.2753 88.6928 20.9313C88.4347 21.5874 88.805 22.4196 89.4651 22.6672C90.2401 22.9579 91.208 22.3338 91.2631 21.5079ZM116.474 27.0752C116.492 27.7745 117.134 28.3977 117.834 28.3958C118.575 28.3938 119.237 27.6804 119.182 26.9404C119.131 26.2428 118.461 25.6504 117.762 25.6852C117.064 25.7199 116.456 26.376 116.474 27.0752ZM96.5348 27.8872C96.0276 28.521 94.9206 28.5226 94.4115 27.8903C93.9025 27.2579 94.1405 26.1767 94.868 25.8166C95.5955 25.4565 96.5996 25.9229 96.7937 26.7111C96.8932 27.1148 96.7946 27.5625 96.5348 27.8872ZM92.4219 38.4515C91.9927 39.1221 91.9011 39.9974 92.1821 40.7423C92.2863 41.0185 92.4415 41.2801 92.6621 41.4763C93.3697 42.1058 94.5795 41.8398 95.1752 41.1035C95.7709 40.3671 95.8529 39.3281 95.6772 38.3974C95.6071 38.0264 95.4781 37.6303 95.1615 37.4245C94.9411 37.2813 94.6638 37.2555 94.4016 37.2743C93.6075 37.3311 92.851 37.7809 92.4219 38.4515ZM106.673 45.3146C106.439 45.0755 106.285 44.7674 106.189 44.4469C105.834 43.2588 106.334 41.8671 107.364 41.177C107.83 40.8649 108.431 40.6915 108.958 40.8825C109.605 41.1167 109.96 41.8221 110.083 42.4988C110.259 43.4671 110.047 44.5525 109.334 45.2308C108.621 45.9091 107.361 46.0179 106.673 45.3146ZM88.8189 58.6721C88.8426 58.0738 88.8912 57.4765 88.9645 56.8823C88.9899 56.6763 89.1681 56.4993 89.3742 56.4754C89.4697 57.941 89.5141 59.41 89.5075 60.8787C88.8593 60.4035 88.787 59.4752 88.8189 58.6721ZM112.898 52.3095C112.703 51.4185 112.034 50.6458 111.18 50.3257C111.037 50.2721 111.043 50.0437 111.164 49.9496C111.284 49.8555 111.455 49.865 111.603 49.9012C112.415 50.0995 112.917 50.8964 113.289 51.6454C113.387 51.8436 113.484 52.0746 113.397 52.2782C113.311 52.4817 112.945 52.5256 112.898 52.3095ZM98.048 182.163C97.9626 181.97 97.7458 181.878 97.5476 181.806C94.4456 180.675 91.1522 180.072 87.8508 180.028C87.3802 180.022 86.8305 180.068 86.5714 180.461C86.8234 180.673 87.1854 180.672 87.5147 180.667C91.0102 180.615 94.5149 181.264 97.7598 182.564C97.9555 182.643 98.1334 182.356 98.048 182.163ZM99.1679 47.411L99.1678 47.411C98.9354 47.5556 98.7031 47.7 98.4989 47.8812C98.1137 48.223 97.8352 48.7756 98.0344 49.2504C98.2804 49.8369 99.0707 49.9478 99.6966 49.8348L99.7377 49.8273L99.7742 49.8204L99.7753 49.8202C99.9732 49.7829 100.175 49.7448 100.368 49.7975C100.586 49.8573 100.778 50.0872 100.703 50.3008C100.651 50.4507 100.493 50.5343 100.345 50.5922C99.4285 50.9509 98.2839 50.8174 97.6036 50.1056C96.9233 49.3938 96.9062 48.0904 97.6833 47.4858L100.719 45.1238C100.688 45.846 100.324 46.5416 99.7663 47.0012C99.5796 47.1549 99.3737 47.283 99.1679 47.411ZM111.393 53.0983C111.581 54.1649 111.308 55.2609 110.921 56.2724C109.254 60.6277 105.319 64.0409 100.772 65.075C98.9418 65.4911 96.9229 65.5155 95.2944 64.5829C93.6659 63.6502 92.6191 61.5524 93.3332 59.8169C94.1714 57.7799 96.7664 57.2087 98.9686 57.1625C99.1615 57.1585 99.3565 57.1556 99.5527 57.1526H99.5528C101.596 57.1223 103.778 57.0899 105.257 55.7292C105.783 55.2451 106.163 54.6359 106.543 54.0255L106.543 54.0254C106.864 53.5109 107.185 52.9956 107.595 52.5536C108.491 51.5874 110.246 51.1256 111.034 52.1823C111.232 52.4477 111.335 52.7724 111.393 53.0983ZM110.457 54.7236C110.684 53.8556 110.584 52.6069 109.697 52.4758C109.367 52.427 109.038 52.5748 108.763 52.765C108.081 53.2382 107.644 53.9509 107.205 54.6676C106.856 55.2364 106.506 55.8077 106.03 56.2636C104.789 57.4542 102.931 57.6648 101.218 57.8132L97.9241 58.0984C97.084 58.1712 96.2136 58.2531 95.4825 58.6732C94.1092 59.4624 93.633 61.4796 94.5084 62.7996C95.455 64.2269 97.4288 64.5368 99.1336 64.3719C104.389 63.8637 109.121 59.8313 110.457 54.7236ZM112.334 121.442C112.155 121.462 111.969 121.412 111.826 121.304C111.728 121.231 111.65 121.132 111.602 121.021C111.443 120.658 111.657 120.181 112.034 120.06C112.41 119.938 112.863 120.198 112.947 120.585C113.031 120.972 112.727 121.397 112.334 121.442ZM118.426 121.491C118.296 121.377 118.122 121.315 117.95 121.32C117.525 121.332 117.184 121.812 117.311 122.217C117.438 122.622 117.992 122.821 118.348 122.589C118.703 122.357 118.745 121.771 118.426 121.491ZM105.618 90.6343C105.177 90.1265 105.215 89.2736 105.699 88.8068C106.184 88.34 107.037 88.3336 107.529 88.7931C108.053 89.2838 108.06 90.2209 107.543 90.7195C107.026 91.218 106.09 91.1766 105.618 90.6343ZM99.8459 94.8678C99.7447 95.1388 99.7363 95.4435 99.8223 95.7197C100.067 96.5054 101.153 96.8792 101.829 96.4106C102.506 95.942 102.538 94.794 101.888 94.2887C101.239 93.7835 100.134 94.0968 99.8459 94.8678ZM88.1653 92.8694C88.013 93.3725 87.5313 93.758 87.0071 93.7962C86.2334 93.8527 85.5107 93.0849 85.6138 92.316C85.7168 91.5472 86.6163 90.9969 87.3478 91.2551C87.9756 91.4768 88.3581 92.2321 88.1653 92.8694Z" fill="#00160A"/>
</g>
</svg>
