<svg width="200" height="200" viewBox="0 0 200 200" fill="none" xmlns="http://www.w3.org/2000/svg">
<rect width="200" height="200" fill="white"/>
<path fill-rule="evenodd" clip-rule="evenodd" d="M80.1794 152.181C108.114 160.036 121.706 129.89 145.641 132.184C158.743 133.439 184.858 139.802 184.8 93.449C184.654 63.5233 157.071 56.0295 128.627 71.3766C120.257 74.6498 113.649 73.6354 106.474 70.3831C99.2996 67.1308 90.0721 52.6118 72.6809 49.6248C20.3452 40.6362 -24.4348 122.762 80.1794 152.181Z" fill="#1173AB"/>
<path fill-rule="evenodd" clip-rule="evenodd" d="M146.562 76.8926C147.086 76.6378 148.027 77.1319 147.481 77.9272C146.273 79.6882 150.945 83.2059 149.445 80.1061C149.285 79.7746 148.463 77.4827 149.626 78.666C150.789 79.8492 152.411 85.0783 151.362 86.8799C150.442 88.461 148.005 89.2132 144.68 89.3022L144.53 89.3056L144.459 89.3099C142.499 89.401 141.012 88.1877 140.052 85.8248L140.006 85.7096C139.035 83.2361 139.301 81.2534 140.872 79.9167C140.901 79.8924 140.931 79.8706 140.963 79.8515L141.013 79.8249L146.562 76.8926Z" fill="white"/>
<path fill-rule="evenodd" clip-rule="evenodd" d="M40.6468 30.6043C40.4181 30.2798 40.0475 30.0929 39.6518 30.1414C39.2465 30.1906 38.9076 30.4724 38.7843 30.8612L38.7514 30.9652C38.7265 31.0419 38.6967 31.1298 38.6619 31.2287C38.5625 31.5109 38.4419 31.8241 38.2995 32.161C37.8946 33.1188 37.3963 34.0748 36.8014 34.9641C35.5179 36.8828 33.9715 38.2185 32.1586 38.7329C31.8753 38.8133 31.7107 39.1082 31.7911 39.3916C31.832 39.5354 34.4795 40.8586 37.1824 40.525C39.804 40.2014 42.4836 38.225 42.5052 38.0905L42.5382 37.8104L42.5476 37.7166C42.7353 35.6803 42.3789 33.38 41.0077 31.1518C40.8938 30.9667 40.7735 30.7841 40.6468 30.6043Z" fill="#E7EAEE"/>
<path fill-rule="evenodd" clip-rule="evenodd" d="M46.1025 31.1963L46.0885 31.304C45.8986 32.6826 45.3664 34.6024 44.4039 36.0506C43.219 37.8335 41.5467 39.1971 39.8662 40.0758C37.4418 41.3434 34.8029 41.5754 32.2046 39.9287L32.09 39.8549C30.7246 38.9618 29.6884 38.5318 28.2667 38.8867C26.845 39.2415 26.1545 40.277 25.5408 41.2377L25.5127 41.2783C25.4143 41.4097 25.2704 41.5008 25.1082 41.5328L22.4126 41.9598L23.3942 43.1792C23.6897 43.5489 23.8997 43.8154 24.0243 43.9787L25.1032 45.4001C28.3188 49.6174 31.7793 53.6442 38.5276 52.2502L38.7563 52.2012C40.5441 51.8038 42.0431 52.8711 43.9236 54.4443L44.3253 54.7826C44.8228 55.2036 46.3267 56.5294 46.9422 57.1675L47.1433 57.3786L47.3289 57.5783C47.3676 57.6204 47.4044 57.6609 47.4394 57.6997L47.6313 57.916L47.749 57.7769C49.022 56.2444 49.8193 53.9104 50.232 51.985C50.3879 51.2575 50.4774 50.561 50.5147 49.9183L50.5192 49.8346C50.5289 49.6467 50.5332 49.4827 50.5339 49.3457V49.244L50.3417 49.3004C48.116 49.9316 45.6118 49.9943 43.1684 49.7124C42.5781 49.6443 49.0531 44.4 47.7241 37.6083C47.4211 36.0604 47.2289 33.9907 46.6999 32.586C46.533 32.143 46.3601 31.7378 46.1887 31.3755L46.1025 31.1963Z" fill="white"/>
<path fill-rule="evenodd" clip-rule="evenodd" d="M146.844 77.7308L141.304 80.4237C139.976 81.5536 139.751 83.2341 140.627 85.4652C140.934 86.2479 141.703 88.1126 141.703 87.3802C141.703 87.1514 146.844 83.7913 147.83 84.12C148.742 84.424 147.104 81.6837 146.645 80.4237L146.844 77.6619L146.996 77.3867" fill="#E7EAEE"/>
<path fill-rule="evenodd" clip-rule="evenodd" d="M139.453 79.752C139.821 79.752 137.735 80.7331 137.842 82.5427C137.95 84.3522 139.364 87.6873 139.02 87.8187C138.676 87.9502 138.024 86.9779 137.892 86.6339C137.075 84.494 136.92 83.6208 136.949 82.3726C136.987 80.7387 137.847 79.752 139.453 79.752Z" fill="#E7EAEE"/>
<ellipse cx="148.736" cy="81.5441" rx="1.44004" ry="3.25312" fill="#E7EAEE"/>
<path fill-rule="evenodd" clip-rule="evenodd" d="M48.1511 115.844C48.1511 110.2 48.7782 107.745 55.5128 104.665C69.3155 99.0857 69.3155 98.8707 95.7582 88.6473C102.751 85.9576 117.494 92.4008 123.905 89.7005C128.179 87.9003 132.176 86.5636 135.707 84.7783C136.048 87.0111 138.259 90.7915 139.037 91.4413C134.902 92.3091 130.903 93.651 127.038 95.4671C118.684 99.393 123.634 98.3231 110.401 110.802C109.28 111.86 105.159 114.271 99.2004 116.783C99.2004 116.783 87.2004 115.171 82.3876 113.169C77.4895 111.132 70.0678 104.665 70.0678 104.665C70.0678 104.665 61.4116 110.312 56.4353 112.85C54.1061 114.038 48.1511 115.844 48.1511 115.844Z" fill="white"/>
<path fill-rule="evenodd" clip-rule="evenodd" d="M48.1511 112.91C48.1511 111.586 48.0111 110.661 48.1511 109.638C48.6074 106.304 50.3958 104.598 55.5496 102.24C69.3523 96.6612 69.3155 95.9371 95.7582 85.7137C102.751 83.0241 117.494 89.4672 123.905 86.7669C128.179 84.9667 132.175 83.63 135.706 81.8447C135.717 81.9087 135.349 84.96 135.349 84.96C135.349 84.96 126.632 89.563 120.866 90.5391C114.74 91.5762 106.325 86.7669 97.922 89.1323C85.1261 92.7343 55.6389 104.056 52.1506 106.893C49.4097 109.122 48.1511 112.91 48.1511 112.91Z" fill="#E7EAEE"/>
<path fill-rule="evenodd" clip-rule="evenodd" d="M40.6468 30.6043C40.4181 30.2798 40.0475 30.0929 39.6518 30.1414C39.2465 30.1906 38.9076 30.4724 38.7843 30.8612L38.7514 30.9652C38.7265 31.0419 38.6967 31.1298 38.6619 31.2287C38.5625 31.5109 38.4419 31.8241 38.2995 32.161C37.8946 33.1188 37.3963 34.0748 36.8014 34.9641C35.5179 36.8828 33.9715 38.2185 32.1586 38.7329C31.8753 38.8133 31.7107 39.1082 31.7911 39.3916C31.8716 39.6749 36.2762 37.6678 37.688 35.5571C38.3236 34.607 38.8525 33.5924 39.282 32.5764C39.4116 32.2698 39.5244 31.981 39.621 31.7146L39.6679 31.5832C39.7058 31.4758 39.7383 31.3796 39.7659 31.2946C39.7728 31.234 39.7793 31.2137 39.7853 31.2338C42.8407 33.324 41.6396 38.5115 41.9331 38.5367C42.2132 38.5608 42.4613 38.3637 42.5052 38.0905L42.5382 37.8104L42.5476 37.7166C42.7353 35.6803 42.3789 33.38 41.0077 31.1518C40.8938 30.9667 40.7735 30.7841 40.6468 30.6043Z" fill="#E7EAEE"/>
<path fill-rule="evenodd" clip-rule="evenodd" d="M47.0086 30.5883L47.0759 30.7085L47.1581 30.8627C47.2075 30.9577 47.2631 31.0678 47.3236 31.1922C47.5331 31.6234 47.7448 32.1114 47.9475 32.6495C48.5179 34.1642 48.9168 35.799 49.053 37.5021C49.2377 39.8133 48.9041 41.9945 48.0592 43.9788L47.9869 44.1453C47.3004 45.6954 46.3003 47.1157 45.0022 48.3899L44.8735 48.5145L44.9829 48.5198C46.8524 48.5983 48.7011 48.431 50.3263 47.9128C50.6748 47.8017 51.0548 47.859 51.3551 48.0679C51.6547 48.2763 51.8409 48.6117 51.8597 48.9762L51.8639 49.0894L51.8666 49.2389V49.2965C51.8666 49.5051 51.8604 49.7391 51.8456 49.9954C51.8046 50.7035 51.7064 51.4673 51.5355 52.2646C51.0527 54.517 50.0873 56.6267 48.5094 58.4043C48.3 58.6403 48.0054 58.7817 47.6922 58.7984L47.6198 58.8001C47.2854 58.7938 46.98 58.6556 46.7629 58.4194L46.604 58.2348L46.526 58.1463L46.3604 57.9623L46.179 57.7665C46.1159 57.6993 46.0504 57.6304 45.9824 57.5599C45.403 56.9592 44.7636 56.3636 44.0845 55.8156C42.2022 54.2968 40.3866 53.4392 38.836 53.5322C36.2995 53.6846 34.199 53.5661 32.2503 53.0193C29.731 52.3125 27.7527 50.9255 26.4436 48.7177L26.3702 48.5918C25.6925 47.4099 24.6915 46.0483 23.5107 44.6311C23.1458 44.1931 22.7858 43.7766 22.4428 43.3915L22.2968 43.2284C22.0631 42.9684 21.8716 42.7612 21.7914 42.6768C21.495 42.3646 21.392 41.9166 21.5215 41.5069L21.5405 41.4515C21.6827 41.0687 22.0135 40.785 22.4166 40.7055L24.5783 40.2782L24.6035 40.2418C25.3769 39.1424 26.4813 38.2111 27.9483 37.836C29.4785 37.4447 31.0887 37.7849 32.7102 38.8138L32.8234 38.8867C35.0135 40.3191 37.1843 40.2401 39.2482 39.161C40.7224 38.3901 42.1275 37.0812 43.1922 35.4792C44.1822 33.9897 44.7706 32.3974 44.8126 31.1407C44.8301 30.6155 45.1923 30.1645 45.7018 30.0359C46.2117 29.907 46.745 30.1328 47.0086 30.5883ZM46.1023 31.1964L46.0883 31.3041C45.8984 32.6826 45.3662 34.6025 44.4038 36.0507C43.2188 37.8336 41.5465 39.1971 39.866 40.0759C37.4416 41.3434 34.8028 41.5755 32.2045 39.9288L32.0898 39.855C30.7244 38.9619 29.6883 38.5319 28.2666 38.8867C26.8448 39.2416 26.1543 40.2771 25.5406 41.2378L25.5125 41.2784C25.4141 41.4098 25.2702 41.5008 25.108 41.5329L22.4124 41.9598L23.3941 43.1793C23.6895 43.5489 23.8995 43.8154 24.0241 43.9787L25.103 45.4001C28.3186 49.6175 31.7791 53.6443 38.5274 52.2503L38.7561 52.2012C40.544 51.8038 42.0429 52.8712 43.9234 54.4443L44.3252 54.7827C44.8226 55.2036 46.3265 56.5294 46.942 57.1676L47.1432 57.3787L47.3288 57.5783C47.3674 57.6205 47.4043 57.661 47.4392 57.6997L47.6311 57.9161L47.7489 57.7769C49.0219 56.2445 49.8191 53.9105 50.2318 51.9851C50.3878 51.2576 50.4773 50.561 50.5145 49.9183L50.5191 49.8346C50.5287 49.6468 50.5331 49.4828 50.5338 49.3458V49.2441L50.3415 49.3004C48.1158 49.9317 45.6117 49.9944 43.1682 49.7125C42.578 49.6444 49.053 44.4001 47.7239 37.6084C47.421 36.0604 47.2287 33.9908 46.6997 32.5861C46.5328 32.143 46.3599 31.7379 46.1885 31.3756L46.1023 31.1964Z" fill="#E7EAEE"/>
<path fill-rule="evenodd" clip-rule="evenodd" d="M29.2 43.1997C29.7146 43.1997 30.1333 42.781 30.1333 42.2663C30.1333 41.7517 29.7146 41.333 29.2 41.333C28.6853 41.333 28.2666 41.7517 28.2666 42.2663C28.2666 42.7809 28.6853 43.1997 29.2 43.1997Z" fill="#00160A"/>
<ellipse cx="30.0001" cy="45.7332" rx="1.46667" ry="1.2" fill="#FFB61D"/>
<ellipse cx="30.0001" cy="45.7332" rx="1.46667" ry="1.2" fill="#FFB61D"/>
<path fill-rule="evenodd" clip-rule="evenodd" d="M47.0087 30.5883L47.0761 30.7085L47.1582 30.8627C47.2076 30.9577 47.2632 31.0678 47.3237 31.1922C47.5332 31.6234 47.7449 32.1114 47.9476 32.6495C48.518 34.1642 48.9169 35.799 49.0531 37.5021C49.2379 39.8133 48.9042 41.9945 48.0593 43.9788L47.987 44.1453C47.3005 45.6954 46.3004 47.1157 45.0023 48.3899L44.8736 48.5145L44.983 48.5198C46.8525 48.5983 48.7012 48.431 50.3264 47.9128C50.6749 47.8017 51.0549 47.859 51.3552 48.0679C51.6549 48.2763 51.841 48.6117 51.8598 48.9762L51.864 49.0894L51.8667 49.2389V49.2965C51.8667 49.5051 51.8605 49.7391 51.8457 49.9954C51.8047 50.7035 51.7066 51.4673 51.5356 52.2646C51.0528 54.517 50.0874 56.6267 48.5095 58.4043C48.3001 58.6403 48.0055 58.7817 47.6923 58.7984L47.6199 58.8001C47.2855 58.7938 46.9801 58.6556 46.763 58.4194L46.6041 58.2348L46.5261 58.1463L46.3605 57.9623L46.1791 57.7665C46.116 57.6993 46.0505 57.6304 45.9825 57.5599C45.4031 56.9592 44.7637 56.3636 44.0846 55.8156C42.2023 54.2968 40.3867 53.4392 38.8361 53.5322C36.2996 53.6846 34.1991 53.5661 32.2504 53.0193C29.7311 52.3125 27.7528 50.9255 26.4437 48.7177L26.3703 48.5918C25.6926 47.4099 24.6916 46.0483 23.5108 44.6311C23.1459 44.1931 22.786 43.7766 22.4429 43.3915L22.2969 43.2284C22.0632 42.9684 21.8717 42.7612 21.7915 42.6768C21.4951 42.3646 21.3922 41.9166 21.5216 41.5069L21.5406 41.4515C21.6828 41.0687 22.0136 40.785 22.4167 40.7055L24.5784 40.2782L24.6036 40.2418C25.3771 39.1424 26.4814 38.2111 27.9484 37.836C29.3924 37.4668 30.9077 37.7489 32.4365 38.6466C34.13 38.079 35.584 36.7837 36.8014 34.9637C37.3963 34.0744 37.8946 33.1185 38.2995 32.1607C38.4419 31.8238 38.5625 31.5106 38.6619 31.2283C38.6967 31.1295 38.7265 31.0416 38.7514 30.9648L38.7843 30.8608C38.9076 30.472 39.2465 30.1902 39.6518 30.1411C40.0475 30.0926 40.4181 30.2795 40.6468 30.604C40.7735 30.7838 40.8938 30.9663 41.0077 31.1514C42.0721 32.8811 42.525 34.6541 42.5866 36.3134C42.7985 36.0458 43.0009 35.7672 43.1923 35.4792C44.1823 33.9897 44.7707 32.3974 44.8127 31.1407C44.8302 30.6155 45.1925 30.1645 45.7019 30.0359C46.2118 29.907 46.7451 30.1328 47.0087 30.5883ZM39.2483 39.161C37.2435 40.2092 35.1379 40.3138 33.0117 39.0061C34.4432 38.3442 36.7401 36.9738 37.688 35.5568C38.3236 34.6066 38.8525 33.5921 39.282 32.576C39.4116 32.2695 39.5244 31.9807 39.621 31.7142L39.6679 31.5829C39.7058 31.4755 39.7383 31.3793 39.7659 31.2943C39.7729 31.2337 39.7793 31.2134 39.7853 31.2334C41.8163 32.6228 41.9665 35.3808 41.9252 37.0814C41.1088 37.9525 40.1927 38.6671 39.2483 39.161ZM39.8661 40.0759C40.6796 39.6505 41.4913 39.1115 42.2466 38.4662C42.3047 38.4324 42.3561 38.3879 42.3977 38.335C43.1443 37.6765 43.831 36.9126 44.4039 36.0507C45.3664 34.6025 45.8986 32.6826 46.0884 31.3041L46.1024 31.1964L46.1886 31.3756C46.36 31.7379 46.533 32.143 46.6998 32.5861C47.068 33.5637 47.273 34.8633 47.4658 36.0849V36.085L47.4658 36.085C47.55 36.6188 47.6319 37.1377 47.724 37.6084C48.7427 42.8139 45.1768 47.1105 43.7214 48.864C43.278 49.3984 43.0305 49.6966 43.1683 49.7125C45.6118 49.9944 48.1159 49.9317 50.3416 49.3004L50.5339 49.2441V49.3458C50.5332 49.4828 50.5289 49.6468 50.5192 49.8346L50.5146 49.9183C50.4774 50.561 50.3879 51.2576 50.2319 51.9851C49.8192 53.9105 49.022 56.2445 47.749 57.7769L47.6312 57.9161L47.4393 57.6997C47.4044 57.661 47.3675 57.6205 47.3289 57.5783L47.1433 57.3787L46.9421 57.1676C46.3266 56.5294 44.8227 55.2036 44.3253 54.7827L43.9235 54.4443C42.043 52.8712 40.5441 51.8038 38.7562 52.2012L38.5275 52.2503C31.7793 53.6443 28.3187 49.6175 25.1031 45.4001L24.0242 43.9787C23.8996 43.8154 23.6896 43.5489 23.3942 43.1793L22.4125 41.9598L25.1081 41.5329C25.2703 41.5008 25.4142 41.4098 25.5126 41.2784L25.5407 41.2378C26.1544 40.2771 26.8449 39.2416 28.2667 38.8867C29.6884 38.5319 30.7245 38.9619 32.09 39.855L32.2046 39.9288C34.8029 41.5755 37.4418 41.3434 39.8661 40.0759ZM146.562 76.8923C147.086 76.6375 148.027 77.1315 147.481 77.9269C146.655 79.1308 147.573 81.9265 148.132 83.6293C148.39 84.4172 148.572 84.971 148.469 85.025C148.142 85.1955 147.74 85.0693 147.569 84.7429C146.646 82.9759 146.115 81.5727 145.983 80.5061C145.917 79.9754 145.903 79.4621 145.94 78.9667L145.945 78.9095L141.675 80.9847L141.621 81.0343C140.658 81.9385 140.234 82.988 140.939 84.8473L140.981 84.9551C141.746 86.9045 143.042 88.3027 144.391 88.2446L144.496 88.2391C147.493 88.179 149.283 87.2772 149.923 86.1793C150.727 84.7988 150.945 83.2055 149.445 80.1057C149.285 79.7743 148.463 77.4824 149.626 78.6656C150.789 79.8488 152.411 85.0779 151.362 86.8796C150.486 88.3836 148.239 89.1375 145.16 89.2841C145.177 89.3625 145.181 89.4455 145.169 89.5299C144.877 91.5096 143.974 92.7549 142.463 93.1152C141.307 93.3908 140.065 93.0258 138.928 92.1463C134.931 93.0046 131.063 94.3126 127.322 96.0706L126.767 96.3331C124.859 97.2449 123.764 97.8559 122.965 98.45C122.496 98.7985 122.109 99.1554 121.693 99.6147L121.626 99.6911C121.423 99.9254 120.983 100.463 120.482 101.075C119.815 101.89 119.041 102.836 118.578 103.371L118.355 103.628C116.478 105.779 114.111 108.22 110.859 111.287L110.768 111.371C109.548 112.461 106.308 114.303 102.267 116.161C113.419 115.765 121.461 111.508 126.469 103.384C126.689 103.026 127.181 102.959 127.489 103.244C136.101 111.22 146.079 114.911 157.462 114.334C168.875 113.756 177.25 110.79 182.614 105.464C182.875 105.205 183.297 105.206 183.556 105.468C183.816 105.729 183.814 106.151 183.553 106.41C177.927 111.997 165.981 116.19 154.267 116.783C142.875 117.36 136.077 112.666 127.386 104.95L127.173 104.76L127.097 104.877C121.593 113.22 109.633 119.304 97.6987 119.39L97.3247 119.391C85.1174 119.391 78.077 113.481 69.8413 105.402L69.7771 105.338L69.7477 105.363L69.0284 105.969C61.3113 112.463 55.5531 117.309 46.8914 118.547L46.6151 118.585C36.8487 120.561 22.037 115.298 19.7609 112.718C17.6753 110.354 20.1079 111.823 20.7757 112.227L20.7769 112.228L20.78 112.229L20.7814 112.23L20.7827 112.231L20.7864 112.233L20.7874 112.234C20.8426 112.267 20.8848 112.293 20.9098 112.307C27.3738 116.008 34.8265 117.417 43.7682 116.197C45.0023 116.029 46.2285 115.806 47.4469 115.529L47.4328 115.398C47.0424 111.689 47.0401 110.069 47.6027 108.209C48.3679 105.678 50.2256 103.756 53.5675 102.227L54.4877 101.82C58.6157 100.001 61.8942 98.6351 65.2946 97.3081L65.5436 97.211C65.925 97.0627 66.3114 96.9134 66.7058 96.7621L67.0922 96.6147C67.2319 96.5653 69.0537 95.843 71.823 94.7452C78.2104 92.2129 89.6386 87.6823 97.094 84.7999C98.7067 84.1796 100.66 83.9733 103.055 84.097L103.261 84.1084C105.055 84.2141 106.82 84.4576 109.714 84.9582L112.255 85.4034C115.094 85.8948 116.469 86.0884 118.075 86.2029C118.58 86.2388 119.06 86.2834 119.516 86.3258C121.204 86.4828 122.563 86.6091 123.646 86.153C124.609 85.7473 125.554 85.3557 126.479 84.9719C129.504 83.7168 132.327 82.546 134.946 81.244C135.126 80.0792 135.585 79.2192 136.304 78.6528C137.413 77.7793 138.984 77.7646 140.346 78.2942C140.689 78.4277 140.859 78.814 140.726 79.1572C140.682 79.2682 140.405 79.2171 140.012 79.1447C139.192 78.9933 137.868 78.7492 137.129 79.7004C136.307 80.7586 136.034 82.3797 136.762 85.5717C137.289 87.885 140.709 91.8183 142.153 91.8183C143.764 91.8183 144.14 90.2549 144.354 89.3683L144.367 89.3129C142.452 89.3624 140.997 88.1504 140.052 85.8245L140.006 85.7092C139.035 83.2358 139.301 81.2531 140.872 79.9163C140.901 79.8921 140.931 79.8703 140.963 79.8511L141.013 79.8245L146.562 76.8923ZM137.698 90.9411C137.63 90.8595 137.563 90.7758 137.498 90.6902C137.472 90.6633 137.448 90.6366 137.428 90.6114C137.367 90.5379 137.305 90.4633 137.242 90.3873L137.241 90.3864C136.724 89.7658 136.126 89.0468 135.657 88.0098L135.589 87.8586C134.837 86.1741 134.747 84.2819 134.794 82.7216L134.801 82.5404L134.761 82.5605C131.654 84.0982 128.274 85.6408 124.622 87.1883L124.164 87.3818C122.6 88.0405 120.647 88.5058 118.172 88.3458L117.98 88.3328C116.29 88.2124 114.868 88.0103 111.885 87.4925L109.659 87.1021C103.383 86.0155 100.242 85.8459 97.6536 86.8136C97.6536 86.8136 59.0581 101.332 54.1151 103.443C51.1088 104.818 50.0888 106.112 48.8456 108.209C48.2025 109.293 48.2676 112.285 48.3127 114.363C48.3203 114.711 48.3273 115.034 48.3303 115.318C55.6281 113.493 62.6431 109.698 69.3798 103.927C69.6454 103.699 70.0416 103.716 70.2875 103.964C70.8325 104.515 71.3866 105.048 71.9499 105.561L99.743 93.9498C99.8192 93.9179 99.8979 93.9013 99.9758 93.8985C100.185 93.7997 100.411 93.7181 100.653 93.6536C103.077 93.0093 105.012 94.0575 106.349 96.6378L108.772 94.8706C109.129 94.61 109.636 94.7631 109.79 95.1779C112.001 101.153 111.357 105.246 107.716 107.222C104.045 109.214 100.853 107.571 98.3636 102.592C98.2373 102.34 98.2869 102.048 98.4616 101.851C97.8683 99.4406 97.7582 97.5201 98.1619 96.1293L73.8115 107.164C77.4526 110.12 81.4508 112.35 85.8089 113.854C85.9087 113.758 86.0165 113.676 86.1226 113.618C89.7936 111.607 98.8376 109.259 101.072 108.678L101.072 108.678C101.265 108.628 101.408 108.591 101.491 108.569C102.539 108.288 101.465 109.267 101.149 109.414L101.109 109.431L87.908 114.514C91.8349 115.632 96.0398 116.191 100.525 116.191C100.78 116.191 101.033 116.189 101.285 116.186L101.58 115.994C104.403 114.159 109.124 111.09 109.944 110.317L110.326 109.956C113.044 107.318 115.067 104.788 116.833 102.58L116.833 102.58C118.77 100.157 120.398 98.121 122.294 96.7552C123.769 95.6933 124.304 95.4507 125.56 94.8805L125.56 94.8803C125.896 94.7278 126.284 94.5519 126.755 94.3306C130.086 92.7649 133.87 91.8583 137.421 91.0073L137.698 90.9411ZM100.996 94.9422C102.916 94.4316 104.354 95.3335 105.451 97.8518L105.485 98.0235C105.891 100.114 105.716 101.285 105.161 101.596C104.637 101.89 104.12 101.604 103.452 100.401C103.295 100.107 102.938 99.9711 102.62 100.097L102.615 100.099L99.6886 101.253L99.6154 100.932C98.8139 97.2989 99.3361 95.3835 100.996 94.9422ZM68.7303 125.225C69.0399 125.026 71.177 123.983 69.2738 125.943C67.3706 127.903 52.5483 136.218 44.5472 136.678C36.8355 137.122 29.9885 133.901 24.0313 129.686L23.8339 129.545L23.7945 129.596C23.5308 129.93 23.2599 130.234 22.9814 130.506L22.8616 130.621C22.357 131.095 21.4837 131.631 20.222 132.254C19.8918 132.417 18.7254 132.567 19.329 131.952C19.9326 131.336 21.2536 130.45 22.023 129.942C22.5258 129.61 22.6846 129.221 22.8421 128.836C22.9257 128.632 23.0088 128.428 23.1427 128.235C23.3578 127.923 23.7883 127.853 24.091 128.08C29.9636 132.482 36.824 134.828 44.5472 134.383C52.3023 133.937 60.3115 130.642 68.7303 125.225ZM114.343 129.476C114.614 129.226 114.614 127.445 114.343 127.695C111.348 130.458 105.077 132.89 97.3381 133.335C89.5899 133.781 83.4981 132.563 79.051 129.703C78.7413 129.504 77.2084 128.977 78.1297 129.903C79.051 130.829 89.4067 135.66 97.4147 135.199L97.6545 135.185C105.545 134.703 111.108 132.461 114.343 129.476ZM108.873 96.5955L108.833 96.4756L106.826 97.9402L106.863 98.1472C107.267 100.508 106.991 102.051 105.872 102.725L105.813 102.759C104.646 103.413 103.548 102.951 102.63 101.607L102.589 101.547L99.8904 102.637L99.9528 102.75C102.016 106.473 104.302 107.509 106.993 106.096L107.08 106.05C109.783 104.583 110.448 101.591 108.967 96.8857L108.873 96.5955ZM30.1333 42.2668C30.1333 42.7814 29.7147 43.2001 29.2 43.2001C28.6853 43.2001 28.2667 42.7813 28.2667 42.2668C28.2667 41.7521 28.6853 41.3334 29.2 41.3334C29.7147 41.3334 30.1333 41.7521 30.1333 42.2668Z" fill="#00160A"/>
</svg>
