<svg width="25" height="20" viewBox="0 0 25 20" fill="none" xmlns="http://www.w3.org/2000/svg">
<path d="M3.18408 20V7.9602L0.563847 9.98342L0 9.25373L12.073 0L24.1459 9.25373L23.5821 9.98342L20.9619 7.9602V20H3.18408ZM4.11277 19.0713H20.0332V7.26368L12.073 1.19403L4.11277 7.26368V19.0713ZM6.76617 13.3665C6.52294 13.3665 6.30735 13.2725 6.1194 13.0846C5.93145 12.8966 5.83748 12.681 5.83748 12.4378C5.83748 12.1946 5.93145 11.979 6.1194 11.791C6.30735 11.6031 6.52294 11.5091 6.76617 11.5091C7.0094 11.5091 7.22499 11.6031 7.41294 11.791C7.60088 11.979 7.69486 12.1946 7.69486 12.4378C7.69486 12.681 7.60088 12.8966 7.41294 13.0846C7.22499 13.2725 7.0094 13.3665 6.76617 13.3665ZM12.073 13.3665C11.8297 13.3665 11.6142 13.2725 11.4262 13.0846C11.2383 12.8966 11.1443 12.681 11.1443 12.4378C11.1443 12.1946 11.2383 11.979 11.4262 11.791C11.6142 11.6031 11.8297 11.5091 12.073 11.5091C12.3162 11.5091 12.5318 11.6031 12.7197 11.791C12.9077 11.979 13.0017 12.1946 13.0017 12.4378C13.0017 12.681 12.9077 12.8966 12.7197 13.0846C12.5318 13.2725 12.3162 13.3665 12.073 13.3665ZM17.3798 13.3665C17.1365 13.3665 16.921 13.2725 16.733 13.0846C16.5451 12.8966 16.4511 12.681 16.4511 12.4378C16.4511 12.1946 16.5451 11.979 16.733 11.791C16.921 11.6031 17.1365 11.5091 17.3798 11.5091C17.623 11.5091 17.8386 11.6031 18.0265 11.791C18.2145 11.979 18.3085 12.1946 18.3085 12.4378C18.3085 12.681 18.2145 12.8966 18.0265 13.0846C17.8386 13.2725 17.623 13.3665 17.3798 13.3665Z" fill="#7F7F7F"/>
</svg>
