<svg width="180" height="200" viewBox="0 0 180 200" fill="none" xmlns="http://www.w3.org/2000/svg">
<path d="M82.8258 45.1691C82.7447 45.0984 82.6424 45.0565 82.535 45.05C82.4275 45.0436 82.321 45.0729 82.232 45.1335C81.7376 45.3883 81.3094 45.898 80.9577 46.4918L80.9807 46.3771C81.6739 42.9749 81.3553 42.7914 81.1412 42.6716C81.0189 42.6003 80.815 42.5722 80.5474 42.8347C79.8797 43.5024 79.2732 45.1284 78.8298 46.581C78.9342 44.476 78.9113 42.1925 78.371 41.8714C78.296 41.828 78.2099 41.8075 78.1234 41.8125C78.0369 41.8175 77.9538 41.8477 77.8843 41.8994C77.4281 42.2027 77.0942 43.245 76.8649 44.4479C76.7629 40.0365 76.266 39.8759 75.9984 39.7893C75.7308 39.7026 75.5244 39.8377 75.3052 40.1665C74.6859 41.0941 74.4438 42.8067 74.375 44.4989C73.7175 40.722 73.2307 40.615 72.9912 40.5615C72.8382 40.5283 72.614 40.5615 72.4126 40.8902C72.0227 41.535 71.903 42.8628 71.903 44.3256C71.9357 46.367 72.0931 48.4045 72.3744 50.4267C72.6624 52.4655 68.9747 56.1608 67.8381 57.249C62.29 62.5499 54.4713 63.819 47.4502 64.2956L46.9175 64.3287H46.8717C46.3167 64.333 45.7655 64.4189 45.2355 64.5836C43.0515 65.394 42.687 69.0307 42.9928 70.7993C43.3649 73.0293 45.0469 74.8769 47.9904 76.276C48.7691 76.6456 49.5936 76.9096 50.4421 77.061C50.6715 77.1043 50.9059 77.1374 51.1404 77.1655C51.5771 77.2135 52.0161 77.2373 52.4554 77.2368C56.6171 77.2368 60.9852 75.1394 65.1189 72.8254C72.0044 69.0145 77.2843 62.8478 79.9893 55.4574C80.4498 54.1769 80.8386 52.8718 81.154 51.548C82.0358 49.4226 83.4476 45.7604 82.8258 45.1691ZM80.6596 51.3875L80.6468 51.4282C80.3321 52.7399 79.9449 54.0331 79.4873 55.302C76.825 62.5775 71.6273 68.6485 64.8487 72.3998C60.3506 74.9151 55.5824 77.1731 51.1761 76.6762C50.8983 76.6456 50.6256 76.6022 50.358 76.5487C49.6071 76.402 48.8776 76.1614 48.1867 75.8326C45.4012 74.5048 43.816 72.7897 43.472 70.7356C43.2171 69.1632 43.5102 65.7788 45.391 65.0831C45.8742 64.9338 46.3762 64.854 46.8819 64.8461H46.9252L47.6464 64.7976C54.7083 64.3058 62.5474 62.9908 68.1643 57.6236C69.6781 56.1761 73.1644 52.5725 72.851 50.363C72.5554 48.286 71.9743 42.5824 72.8306 41.1604C72.8446 41.1324 72.8626 41.1066 72.8841 41.0839C73.3938 41.5044 74.1176 45.6483 74.5101 49.3487L75.0198 49.2952C75.0198 49.2263 74.3342 42.5136 75.7104 40.4519C75.7466 40.3945 75.7903 40.3423 75.8404 40.2964C76.3016 40.7755 76.4469 45.1131 76.3144 48.9613L76.8241 48.9868C76.9617 46.7084 77.4332 42.9469 78.134 42.3607C78.473 42.8832 78.3889 46.3109 78.1187 49.313L78.6284 49.3895C78.6284 49.341 79.7039 44.4581 80.8915 43.2323C80.9909 43.9714 80.4098 46.9123 79.7549 49.4557L80.2467 49.5831C80.5016 48.6631 81.3655 46.1529 82.4639 45.6049H82.4919C82.6397 46.1274 81.6764 48.9639 80.6519 51.3875H80.6596Z" fill="black"/>
<path d="M46.4667 55.4656C45.381 58.2689 45.5033 59.8948 47.4275 64.2986C47.4988 64.4592 47.5702 64.6248 47.6466 64.793C47.8556 65.2645 48.085 65.7666 48.3347 66.3043C49.1197 67.9965 49.7899 71.7861 50.3582 76.5492C50.3761 76.7251 50.399 76.9009 50.4194 77.0793C50.9902 82.0234 51.4541 87.9461 51.816 93.6445C51.8287 93.828 51.8389 94.009 51.8491 94.1924C52.4837 104.297 52.8022 113.561 52.8685 115.192V115.447C48.2812 119.132 43.9819 120.738 40.2025 121.15C34.2925 121.798 29.6211 119.53 26.9503 117.733C26.0612 117.149 25.2277 116.484 24.4604 115.748C24.6975 108.676 26.1475 100.979 28.1609 93.4585C28.2093 93.2724 28.2603 93.0864 28.3087 92.9004C31.5953 95.4662 35.1725 97.6363 38.9665 99.3659L39.0047 99.3863C39.0659 99.4245 45.1644 103.263 47.6084 102.954C47.6785 102.949 47.7473 102.933 47.8123 102.906C47.5829 102.297 43.9309 100.357 40.5924 98.8536L40.7759 98.372C40.8218 98.3924 45.5365 100.334 48.7629 100.979C47.8862 100.401 45.6868 99.2665 43.3779 98.1757C42.6134 97.8393 42.0833 97.5667 42.0221 97.5361L42.2464 97.0799C42.717 97.2957 43.1587 97.5021 43.5716 97.6992C45.0472 98.3414 47.4478 99.2283 49.0508 99.0218C49.1387 99.0163 49.2249 98.9956 49.3057 98.9607C49.2089 98.7058 48.4927 98.2267 47.4708 97.6635C45.9699 97.0666 44.5128 96.3649 43.1103 95.5635L43.3397 95.1099C44.6318 95.6629 46.3749 96.453 47.7282 97.215C48.7093 97.5819 49.6013 97.8113 50.1365 97.7247L50.2155 97.7068C50.0091 97.3169 48.457 96.3765 46.6807 95.4539C45.2128 94.9213 44.8968 94.6079 44.8433 94.4957L44.4457 93.7847L45.1644 94.1236C45.6868 94.3785 46.2959 94.6639 46.9152 94.9825C47.7129 95.2679 48.8826 95.6323 50.6003 96.0732C50.8018 96.1272 51.006 96.1706 51.212 96.2032C51.1635 96.1267 51.0845 96.0172 50.9571 95.8566C50.3608 95.0921 49.1732 94.4498 48.1359 93.8764C47.7664 93.6726 47.4198 93.4814 47.1165 93.2954L46.194 92.7245C45.1415 92.0695 44.0507 91.3917 42.9345 90.8386C42.6159 90.6832 42.3024 90.5354 41.989 90.3901C38.286 88.6852 35.1845 86.6081 32.7711 84.2151C32.2971 83.7462 31.8281 83.2594 31.3822 82.7523C31.4433 82.5662 31.507 82.3776 31.5707 82.1916C33.0998 77.6833 34.7309 73.4069 36.288 69.5664C36.3772 69.3472 36.4638 69.1306 36.5428 68.9165C38.9362 68.008 41.1469 66.677 43.0695 64.9867C44.2495 63.9291 44.8305 62.6115 44.7031 61.2838C44.5553 59.7547 43.5257 58.3403 41.7137 57.1501L41.9329 56.6837C42.6465 55.1699 43.2275 53.9823 43.6226 53.1821C43.095 52.3208 42.728 51.371 42.5394 50.3788C47.2389 49.7595 47.8352 46.8109 48.164 45.1697C48.2659 44.66 48.3653 44.1834 48.5284 44.0814C48.5437 44.0814 48.5921 44.0432 48.7272 44.0814L48.9413 44.1452C50.5385 44.6258 52.1791 44.9484 53.8395 45.1085L54.0943 45.1289C54.5454 45.162 54.9812 45.1773 55.4017 45.1722C55.3979 45.9422 55.3219 46.7101 55.1749 47.4658C55.1315 47.6876 55.0831 47.9093 55.0271 48.1335C55.4985 49.0561 55.9114 49.8181 55.9114 49.8181C55.9114 49.8181 54.1427 51.0286 53.7375 51.4007C52.0096 54.4207 49.219 56.1587 46.6349 55.5063C46.5737 55.4987 46.5202 55.4834 46.4667 55.4656Z" fill="black"/>
<path d="M157.606 195.464H3.93213V195.974H157.606V195.464Z" fill="black"/>
<path d="M24.4657 115.082L22.5365 156.477L11.3231 184.765L6.73584 195.469H25.3398L15.6556 192.156C15.6556 192.156 16.8432 190.077 17.1847 189.098L35.0241 160.81L41.905 122.327C43.4341 121.818 24.4657 115.082 24.4657 115.082Z" fill="black"/>
<path d="M95.1684 195.979C94.3619 195.979 93.5736 195.74 92.903 195.292C92.2325 194.844 91.7098 194.207 91.4012 193.462C91.0926 192.717 91.0118 191.897 91.1692 191.106C91.3265 190.315 91.7149 189.589 92.2851 189.019C92.8554 188.448 93.5819 188.06 94.3729 187.903C95.1639 187.745 95.9838 187.826 96.7288 188.135C97.4739 188.443 98.1108 188.966 98.5588 189.636C99.0069 190.307 99.246 191.095 99.246 191.902C99.246 192.983 98.8164 194.02 98.0517 194.785C97.287 195.55 96.2499 195.979 95.1684 195.979ZM95.1684 188.334C94.4627 188.334 93.7729 188.543 93.1862 188.935C92.5995 189.327 92.1422 189.884 91.8721 190.536C91.6021 191.188 91.5314 191.906 91.6691 192.598C91.8067 193.29 92.1466 193.926 92.6455 194.425C93.1445 194.924 93.7802 195.263 94.4724 195.401C95.1645 195.539 95.8818 195.468 96.5338 195.198C97.1857 194.928 97.743 194.471 98.135 193.884C98.5271 193.297 98.7363 192.607 98.7363 191.902C98.7363 190.956 98.3604 190.048 97.6913 189.379C97.0222 188.71 96.1147 188.334 95.1684 188.334Z" fill="black"/>
<path d="M134.16 195.979C133.354 195.979 132.565 195.74 131.895 195.292C131.224 194.844 130.702 194.207 130.393 193.462C130.084 192.717 130.004 191.897 130.161 191.106C130.318 190.315 130.707 189.589 131.277 189.019C131.847 188.448 132.574 188.06 133.365 187.903C134.156 187.745 134.975 187.826 135.721 188.135C136.466 188.443 137.102 188.966 137.551 189.636C137.999 190.307 138.238 191.095 138.238 191.902C138.238 192.983 137.808 194.02 137.043 194.785C136.279 195.55 135.242 195.979 134.16 195.979ZM134.16 188.334C133.454 188.334 132.765 188.543 132.178 188.935C131.591 189.327 131.134 189.884 130.864 190.536C130.594 191.188 130.523 191.906 130.661 192.598C130.798 193.29 131.138 193.926 131.637 194.425C132.136 194.924 132.772 195.263 133.464 195.401C134.156 195.539 134.874 195.468 135.525 195.198C136.177 194.928 136.735 194.471 137.127 193.884C137.519 193.297 137.728 192.607 137.728 191.902C137.728 190.956 137.352 190.048 136.683 189.379C136.014 188.71 135.106 188.334 134.16 188.334Z" fill="black"/>
<path d="M69.3778 104.998L57.9274 95.6683L57.9121 95.6174L48.3553 92.5107L48.1973 92.995L57.4993 96.0124L59.9076 104.998L59.9484 105.149L60.0121 105.337L60.9754 108.123C61.0646 108.378 61.1564 108.645 61.2532 108.926C64.0565 116.986 70.3742 135.147 75.6267 149.617V149.638C77.7674 155.53 79.7298 160.808 81.2002 164.544C82.4872 167.816 83.4021 169.896 83.7309 170.181C83.8048 170.242 83.9195 170.339 84.5872 170.436C85.5811 170.589 87.8085 170.752 92.9768 170.844L83.527 188.334H144.1V187.824H84.3833L93.5579 170.859C94.5543 170.874 95.6553 170.887 96.8709 170.897L99.1646 170.91C100.206 170.91 101.321 170.91 102.511 170.91C106.823 170.91 112.139 170.879 118.691 170.806C135.325 170.619 151.954 170.24 152.122 170.24H152.293L177.347 104.998H69.3778ZM157.441 105.508L155.858 115.429H138.732L138.223 105.508H157.441ZM110.674 136.406H95.9789L92.9743 125.386H108.235C108.956 128.684 109.771 132.362 110.674 136.406ZM108.755 125.386H123.472L125.152 136.396H111.191C110.35 132.578 109.514 128.855 108.755 125.386ZM110.793 136.905C110.877 137.283 110.962 137.67 111.048 138.05C111.884 141.799 112.725 145.555 113.525 149.113H99.45L96.1191 136.905H110.793ZM111.303 136.905H125.228L127.091 149.113H114.04C113.128 145.063 112.2 140.932 111.306 136.916L111.303 136.905ZM125.745 136.905H139.329L139.961 149.113H127.608L125.745 136.905ZM125.666 136.396L123.989 125.386H138.735L139.306 136.396H125.666ZM123.921 124.953L122.532 115.847H138.241L138.712 124.953H123.921ZM123.411 124.953H108.658C107.926 121.62 107.256 118.538 106.678 115.847H122.017L123.411 124.953ZM108.143 124.953H92.8519L90.3672 115.847H106.168C106.713 118.434 107.373 121.477 108.138 124.963L108.143 124.953ZM92.3422 124.953H78.0962L74.9564 115.847H89.8422L92.3422 124.953ZM92.4595 125.386L95.4667 136.396H82.0412L78.2389 125.386H92.4595ZM95.6043 136.905L98.9377 149.113H86.4501L82.24 136.905H95.6043ZM99.0754 149.622L101.94 160.204H90.2474L86.603 149.633L99.0754 149.622ZM99.6055 149.622H113.65C114.519 153.481 115.335 157.092 116.036 160.194H102.475L99.6055 149.622ZM114.17 149.622H127.17L128.783 160.194H116.55C115.776 156.827 114.97 153.262 114.155 149.633L114.17 149.622ZM127.703 149.622H139.989L140.534 160.194H129.3L127.703 149.622ZM139.859 136.905H152.425L150.476 149.113H140.473L139.859 136.905ZM139.831 136.396L139.247 125.386H154.266L152.507 136.396H139.831ZM139.24 124.953L138.768 115.847H155.79L154.334 124.953H139.24ZM137.708 105.508L138.218 115.429H122.468L120.954 105.508H137.708ZM120.437 105.508L121.951 115.429H106.583C105.47 110.213 104.723 106.548 104.598 105.508H120.437ZM104.101 105.508C104.183 106.336 104.611 108.643 106.068 115.429H90.2525L87.5434 105.508H104.101ZM87.0134 105.508L89.7224 115.429H74.8061L71.3835 105.508H87.0134ZM58.1619 96.5195L68.5699 104.998H60.509L58.1619 96.5195ZM61.4494 107.921C61.2354 107.301 61.023 106.689 60.8123 106.084L60.6135 105.508H70.8483L74.2709 115.429H64.054C63.1595 112.855 62.2879 110.35 61.4494 107.921ZM64.2043 115.857H74.4162L77.5584 124.963H67.3951C66.317 121.9 65.2416 118.842 64.2043 115.857ZM71.4472 136.429C70.1729 132.815 68.8503 129.102 67.5454 125.396H77.7063L81.5035 136.406H71.4472V136.429ZM71.6205 136.916H81.6794L85.8844 149.123H75.9988C74.62 145.318 73.1419 141.187 71.6128 136.916H71.6205ZM76.2001 149.633H86.0781L89.7071 160.204H80.084C78.9448 157.184 77.6222 153.59 76.2001 149.633ZM84.2788 169.868C84.208 169.849 84.1402 169.821 84.0775 169.784C83.9144 169.643 83.5678 168.925 83.0581 167.724C82.3853 166.147 81.4423 163.736 80.2981 160.713H89.8855L93.1985 170.342C88.415 170.265 85.1555 170.117 84.2661 169.868H84.2788ZM99.7329 170.398C99.1518 170.398 98.5835 170.398 98.0279 170.398C96.4988 170.398 95.0793 170.377 93.7592 170.357L90.4462 160.721H102.108L104.753 170.405C102.985 170.405 101.31 170.405 99.7201 170.398H99.7329ZM105.271 170.398L102.628 160.713H116.135C117.279 165.767 118.1 169.378 118.314 170.306C113.732 170.357 109.313 170.39 105.253 170.4L105.271 170.398ZM118.847 170.298C118.187 167.401 117.45 164.159 116.67 160.711H128.875L130.315 170.14C126.446 170.207 122.583 170.258 118.834 170.301L118.847 170.298ZM130.824 170.133L129.385 160.703H140.57L141.046 169.947C137.693 170.021 134.257 170.082 130.817 170.135L130.824 170.133ZM140.509 149.63H150.402L148.715 160.201H141.046L140.509 149.63ZM141.559 169.944L141.08 160.711H148.633L147.176 169.832L141.559 169.944ZM151.946 169.728L147.695 169.822L149.151 160.711H155.41L151.946 169.728ZM155.603 160.201H149.232L150.919 149.63H159.663L155.603 160.201ZM159.859 149.12H150.993L152.943 136.913H164.541L159.859 149.12ZM164.742 136.403H153.024L154.78 125.394H168.965L164.742 136.403ZM169.139 124.961H154.867L156.322 115.855H172.632L169.139 124.961ZM156.381 115.422L157.956 105.508H176.611L172.788 115.429L156.381 115.422Z" fill="black"/>
<path d="M101.282 169.51L89.0496 174.862L85.5123 172.589L52.861 115.737L24.5728 114.463C31.6015 127.3 60.7027 158.297 60.7027 158.297L79.8317 177.612L79.926 177.528L85.7366 183.784L101.282 169.51Z" fill="#1173AB"/>
<path d="M51.3597 95.5324C50.6996 94.6965 49.4687 94.0186 48.383 93.4197C48.0212 93.2184 47.6797 93.0298 47.3815 92.8488L46.464 92.2805C45.3988 91.6179 44.3004 90.9349 43.151 90.3717C42.8299 90.2137 42.5113 90.0633 42.1928 89.9155C38.5535 88.2361 35.5004 86.1947 33.1303 83.845C32.5951 83.3149 32.0625 82.7619 31.5706 82.1834C29.9243 80.2618 28.701 78.0829 29.2235 75.7255C29.4783 74.5736 29.83 72.9961 30.9412 72.28C32.5084 71.2273 34.1902 70.3561 35.954 69.683L36.2879 69.5582C39.132 68.4827 41.4613 67.1116 43.3982 65.3735C44.703 64.2038 45.3427 62.7359 45.2 61.2424C45.0827 60.0421 44.4125 58.304 41.9226 56.6908C41.7969 56.6093 41.6669 56.5243 41.5327 56.436C39.1193 54.9961 32.2995 57.1062 26.6393 61.0437C19.6641 65.8985 16.295 72.0786 17.3959 77.9988C18.6447 84.7166 23.7366 90.0022 28.1353 93.435C28.4462 93.6746 28.752 93.909 29.0527 94.1307C32.0717 96.3601 35.3178 98.2643 38.737 99.8113C39.1575 100.066 44.5985 103.463 47.3101 103.463C47.4268 103.463 47.5434 103.456 47.6593 103.443C48.0568 103.392 48.276 103.236 48.3142 102.987C48.3525 102.737 48.4213 102.255 45.1872 100.522C46.3305 100.905 47.4945 101.222 48.6736 101.473C49.1221 101.562 49.5324 101.618 49.6343 101.307C49.693 101.129 49.7873 100.838 46.9686 99.3602C47.6738 99.5254 48.4009 99.5762 49.1221 99.5106C49.5503 99.4545 49.7873 99.294 49.8229 99.034C49.8586 98.7741 49.6191 98.4912 49.2062 98.1574C49.5411 98.2296 49.886 98.2434 50.2256 98.1981C50.613 98.1293 50.7175 97.9305 50.7353 97.7802C50.7863 97.3903 50.0778 96.8041 49.089 96.1848C49.5095 96.3021 49.9708 96.4244 50.4804 96.5544C51.2246 96.7455 51.5839 96.7888 51.7547 96.5314C51.9254 96.274 51.691 95.9529 51.3597 95.5324ZM50.5951 96.0625C48.8774 95.6216 47.7077 95.2572 46.91 94.9717C46.2907 94.6532 45.6816 94.3576 45.1592 94.1129L44.4456 93.7841L44.833 94.4773C44.8967 94.5895 45.2025 94.9029 46.6705 95.4356C48.4544 96.3581 49.9988 97.2985 50.2052 97.6884L50.1262 97.7063C49.591 97.8031 48.6991 97.5738 47.7179 97.1966C46.3646 96.432 44.6215 95.6445 43.3294 95.0915L43.1 95.5452C44.5025 96.3465 45.9596 97.0482 47.4605 97.6451C48.4799 98.2083 49.1986 98.69 49.2954 98.9423C49.2146 98.9772 49.1284 98.9979 49.0406 99.0035C47.4375 99.2099 45.0369 98.323 43.5613 97.6808C43.1484 97.4837 42.7067 97.2773 42.2361 97.0615L42.0118 97.5177C42.073 97.5483 42.598 97.821 43.3676 98.1574C45.6765 99.2609 47.8759 100.395 48.7526 100.961C45.5287 100.329 40.814 98.3867 40.7758 98.3714L40.5745 98.8404C43.913 100.336 47.565 102.283 47.7943 102.892C47.7294 102.919 47.6606 102.936 47.5905 102.941C45.1465 103.252 39.0479 99.4138 38.9868 99.373L38.9485 99.3526C35.1536 97.6224 31.5755 95.4514 28.2882 92.8845C23.678 89.2555 19.0703 84.1916 17.9031 77.9147C17.3246 74.8106 17.977 71.6964 19.8425 68.6586C21.4225 66.0871 23.8742 63.5998 26.9349 61.4718C31.6471 58.1919 36.5937 56.5048 39.4531 56.5048C40.083 56.4698 40.7111 56.5998 41.2753 56.882C41.4257 56.9712 41.5684 57.0629 41.7085 57.1547C43.5205 58.3448 44.5501 59.7669 44.6979 61.2883C44.8253 62.6161 44.2443 63.9337 43.0643 64.9913C41.1466 66.674 38.9431 67.9998 36.558 68.9058C36.3032 69.0077 36.0483 69.1045 35.7935 69.2014C33.9947 69.8877 32.2796 70.776 30.6812 71.8493C29.407 72.6775 29.0018 74.4436 28.7418 75.6108C28.1506 78.2715 29.565 80.662 31.3973 82.7466C31.8433 83.2563 32.3123 83.7405 32.7863 84.2095C35.1997 86.6025 38.3012 88.6795 42.0042 90.3845C42.3176 90.5297 42.6311 90.6775 42.9497 90.833C44.0659 91.386 45.1567 92.0639 46.2092 92.7189L47.1317 93.2897C47.4376 93.4758 47.7841 93.6669 48.1511 93.8708C49.1935 94.4442 50.376 95.0966 50.9723 95.851C51.0972 96.0115 51.1762 96.1211 51.2272 96.1976C51.0159 96.1638 50.8066 96.1187 50.6002 96.0625H50.5951Z" fill="black"/>
<path d="M62.1601 32.4982C60.1952 31.6648 57.2721 32.516 55.2562 33.3723C57.7794 30.2559 59.3367 26.4699 59.7365 22.48C60.501 13.8508 54.6955 8.15496 49.6954 4.8776C46.4486 2.7598 41.8588 0.690426 38.4132 2.85919C35.5844 4.64314 34.198 9.13613 34.8836 14.3096C35.1553 16.3969 35.7683 18.4253 36.6981 20.3138L36.7949 20.5075C37.8143 22.4724 39.2644 24.1442 41.1656 24.9674C41.3854 25.0638 41.6099 25.1488 41.8384 25.2222L42.0066 25.2757C43.5178 25.7625 44.3385 26.3588 44.4404 27.0597C44.6749 28.6321 41.3822 30.862 38.1788 33.0181C34.7663 35.3117 31.2392 37.7022 30.7015 39.9627C30.2708 41.7696 31.2392 43.5 32.7403 45.0138L33.2168 45.4649C36.354 48.3268 41.2217 50.3223 41.5402 50.4523L41.5963 50.4727H41.6524C41.9548 50.4523 42.2428 50.4243 42.5163 50.3886C47.2157 49.7693 47.8121 46.8207 48.1408 45.1795C48.2428 44.6698 48.3421 44.1932 48.5052 44.0912C48.5205 44.0912 48.569 44.053 48.704 44.0912L48.9181 44.155C50.5232 44.6336 52.1715 44.9529 53.8392 45.1081L54.0941 45.1285C54.5452 45.1616 54.981 45.1769 55.4015 45.1718C57.4657 45.1591 59.1962 44.708 60.5775 43.8211C62.4888 42.5953 63.6688 40.5514 64.0791 37.743C64.4894 34.9345 63.837 33.2092 62.1601 32.4982ZM57.9933 15.013H58.1054C59.0805 17.3551 59.4664 19.9006 59.2293 22.4265C58.7731 27.5694 56.0411 31.8814 54.3489 33.6399C52.7969 33.7444 51.5456 33.0486 51.3825 32.3656C51.1863 31.5527 51.6781 30.4441 53.2149 29.8019C54.3719 29.3227 55.3683 27.9032 56.0182 25.8135C57.165 22.1666 56.8006 18.6522 55.8729 17.197C55.4728 16.5701 55.3632 16.0782 55.5518 15.7418C55.6996 15.4717 56.2093 15.0231 57.9474 15.0231L57.9933 15.013ZM35.3831 14.2484C34.723 9.27375 36.0176 4.97699 38.6808 3.28989C39.6083 2.71885 40.6806 2.42689 41.7696 2.44889C42.5623 2.45763 43.3505 2.56986 44.1142 2.78274C43.2605 3.15482 39.5014 4.90818 38.8363 7.09734C38.732 7.42509 38.7055 7.77265 38.7591 8.11241C38.8126 8.45217 38.9446 8.77477 39.1446 9.05458C40.7323 11.4374 36.9529 14.9722 35.7093 16.0553C35.5742 15.4589 35.4621 14.8524 35.3831 14.2408V14.2484ZM35.8469 16.6109C36.9249 15.7189 41.5071 11.6897 39.5677 8.78189C39.4081 8.56492 39.3019 8.31343 39.2576 8.04778C39.2134 7.78212 39.2323 7.50978 39.3128 7.25279C39.8557 5.46885 43.3496 3.6008 44.6647 2.95349C46.191 3.47062 47.6464 4.17696 48.9971 5.05599C47.5878 5.68292 43.3547 7.73191 43.0438 9.76816C42.9495 10.3798 43.1942 10.9328 43.7701 11.4119C45.0954 12.5154 44.4251 14.8983 43.1712 16.7638C41.6422 19.0574 39.1319 20.8643 37.1517 20.1125C36.5901 18.9938 36.1525 17.8171 35.8469 16.6032V16.6109ZM42.1162 24.766L41.9786 24.7227C40.3016 24.213 38.7827 22.8776 37.5875 20.8796C37.5595 20.8312 37.5289 20.7802 37.5034 20.7318C37.7016 20.7696 37.903 20.7884 38.1048 20.7878C40.0774 20.7878 42.2258 19.1058 43.6045 17.0441C45.6433 13.9859 45.154 11.8834 44.1142 11.0093C43.6784 10.6474 43.5 10.2626 43.5663 9.83442C43.8211 8.12693 47.8426 6.09068 49.5297 5.3771C51.1666 6.44246 52.687 7.67675 54.0661 9.05967C53.513 9.11319 51.1506 9.42411 50.4013 10.892C49.9808 11.7101 50.1465 12.7193 50.8702 13.8891C52.1445 15.9279 50.2663 19.3403 47.9904 21.662C45.8727 23.8129 43.6019 24.975 42.1162 24.7686V24.766ZM38.4591 33.4309C41.5173 31.3564 44.2442 29.5241 44.8303 27.865C46.0383 27.6101 51.3672 26.3588 52.0833 23.2497C52.2158 22.6788 52.4885 22.3679 52.8479 22.3679C53.3168 22.3679 53.931 22.8929 54.1221 23.7313C54.4432 25.2197 53.2633 26.7411 50.9645 27.8089C45.0291 30.5486 42.3812 32.4421 41.8206 34.3484C41.7118 34.7259 41.6888 35.123 41.7532 35.5105C41.8176 35.8981 41.9677 36.2664 42.1926 36.5885C42.5112 37.0982 42.4959 37.7251 42.1519 38.3724C41.5504 39.5091 39.9117 40.6916 37.9443 40.7527C36.535 40.7961 34.5191 40.2889 32.8473 37.6334C34.277 36.2495 36.3923 34.8224 38.4591 33.4258V33.4309ZM31.1933 40.0646C31.3513 39.3995 31.8177 38.7063 32.488 38.0004C33.854 40.108 35.7246 41.2573 37.7914 41.2573H37.9723C39.9117 41.1962 41.8206 40.1054 42.6131 38.6069C43.0489 37.7837 43.0566 36.9657 42.6335 36.3133C42.4478 36.0525 42.3234 35.7533 42.2696 35.4377C42.2158 35.1222 42.2339 34.7986 42.3226 34.4911C42.9597 32.3249 47.1647 30.1306 51.1914 28.2728C52.1394 27.8344 55.1899 26.2059 54.6344 23.632C54.4177 22.6304 53.6608 21.8709 52.8759 21.8659C52.5777 21.8659 51.8744 21.9933 51.6017 23.1401C50.9951 25.765 46.4155 26.9985 44.9603 27.3247C44.9688 27.2108 44.9645 27.0962 44.9475 26.9832C44.8456 26.2951 44.3002 25.709 43.2859 25.235C44.9399 24.8935 46.8538 23.5733 48.3523 22.034C50.8448 19.4856 52.723 15.9177 51.3009 13.624C50.6715 12.6046 50.5211 11.7789 50.8499 11.1316C51.4538 9.9491 53.8239 9.6025 54.4967 9.51331C55.892 10.9836 57.0409 12.6694 57.899 14.5058C56.4081 14.5058 55.4728 14.8422 55.1186 15.487C54.8357 15.9967 54.9478 16.6644 55.4575 17.4646C56.4565 19.0345 56.4948 22.6304 55.5467 25.6529C54.9325 27.5974 54.038 28.9022 53.0263 29.3253C51.2092 30.0898 50.646 31.4533 50.8932 32.4778C51.1404 33.5023 52.1674 34.1598 53.5462 34.1598H53.6328C53.4075 34.2722 53.1962 34.4108 53.0033 34.5726L52.8759 34.7459L52.9957 34.9039C53.1359 35.0823 53.3448 34.9931 53.5666 34.9039C53.8382 34.7686 54.0874 34.5924 54.3056 34.3815C55.1416 33.9658 56.006 33.6098 56.8923 33.3162C57.4181 33.1412 57.9533 32.9957 58.4953 32.8804C58.0519 33.9202 56.0284 38.3138 53.1435 38.9968C52.651 39.1154 52.1375 39.1154 51.645 38.9968C50.6572 38.7618 49.7117 38.3759 48.8416 37.8525C48.2912 37.5289 47.8222 37.195 47.417 36.9071C46.6525 36.3668 46.1555 36.01 45.7325 36.2062C45.4318 36.3438 45.2738 36.7159 45.2075 37.4371C45.0826 38.821 43.709 41.2166 41.4153 42.9317C40.2912 43.7859 39.0073 44.4064 37.6395 44.7565C36.2717 45.1067 34.8477 45.1794 33.4513 44.9705C31.8559 43.4847 30.783 41.7951 31.1933 40.0646ZM60.2971 43.4006C58.9948 44.234 57.3536 44.6596 55.3862 44.6749C54.9402 44.6749 54.4764 44.6749 53.9972 44.6213H53.9692C52.3088 44.4631 50.6686 44.1378 49.0736 43.6504L48.8544 43.5866C48.7561 43.5524 48.6516 43.5395 48.5479 43.5487C48.4442 43.5579 48.3437 43.5891 48.2529 43.6402C47.8987 43.8568 47.7968 44.3639 47.6541 45.0648C47.3075 46.7774 46.7952 49.3182 42.4424 49.8738L42.0525 49.9171C42.1315 49.7387 42.2385 49.5042 42.3685 49.2265C43.4185 47.0067 45.9822 42.0703 48.3804 41.3618C48.6279 41.2789 48.8916 41.2557 49.1499 41.2943C49.4081 41.3328 49.6536 41.4319 49.8661 41.5835C51.199 42.4908 53.0874 42.9087 55.1517 42.7915C55.8698 42.7518 56.5833 42.6521 57.2848 42.4933C59.8078 41.925 61.9791 40.6661 63.289 39.0452C62.7615 41.0025 61.7574 42.4653 60.2971 43.4006ZM63.5694 37.6741C63.5694 37.7328 63.5515 37.7939 63.5413 37.8525C62.3639 39.662 59.8588 41.3898 57.1701 41.9938C56.4646 42.1533 55.7467 42.2513 55.0243 42.2869C53.1104 42.3812 51.3723 41.9913 50.149 41.1605C49.8741 40.9666 49.5577 40.8393 49.2251 40.7889C48.8924 40.7385 48.5526 40.7662 48.2326 40.87C45.9109 41.558 43.5714 45.6305 42.3252 48.1332C41.9378 48.913 41.6574 49.5399 41.5147 49.8661C40.5616 49.4584 36.8561 47.7968 34.1241 45.5566C34.435 45.5821 34.7408 45.5923 35.0365 45.5923C37.4491 45.5876 39.7944 44.7957 41.7161 43.3369C44.1575 41.5147 45.5745 39.0045 45.7146 37.4754C45.7784 36.772 45.916 36.6726 45.9415 36.6624C46.0995 36.5885 46.6397 36.9759 47.1189 37.3148C47.4247 37.5314 47.7815 37.7863 48.1918 38.0437C49.2068 38.7075 50.327 39.1944 51.5048 39.4836C52.1707 39.6414 52.8672 39.6132 53.5181 39.402C54.721 39.0223 55.9035 38.0488 57.0096 36.5171C57.8443 35.3299 58.5661 34.0671 59.1656 32.7454C60.2385 32.595 61.314 32.6281 62.1422 33.0588C63.4572 33.7316 63.9185 35.2837 63.5694 37.6741Z" fill="black"/>
</svg>
