<svg width="180" height="188" viewBox="0 0 180 188" fill="none" xmlns="http://www.w3.org/2000/svg">
<path d="M166.866 124.1C165.703 122.592 164.289 121.749 162.66 121.591C161.833 121.494 160.995 121.602 160.219 121.905C159.444 122.208 158.754 122.696 158.211 123.327C154.783 127.106 153.779 136.886 155.213 152.385C155.881 159.588 156.947 166.416 157.657 170.539C157.123 169.181 156.502 167.858 155.799 166.58C152.883 161.313 149.093 158.282 144.834 157.812C143.278 157.637 142.155 158.05 141.502 159.037C138.252 163.93 148.114 181.73 148.536 182.486L148.615 182.63L167.952 182.698L167.991 182.46C168.008 182.344 169.906 170.582 170.715 157.6C171.804 140.102 170.506 128.834 166.866 124.1ZM167.482 182.115L162.98 182.098L164.677 131.905L164.111 131.888L162.414 182.095L155.061 182.07L146.757 164.32L146.242 164.557L154.421 182.067L148.952 182.047C148.004 180.319 139.053 163.72 141.974 159.334C142.512 158.528 143.428 158.202 144.774 158.355C154.639 159.452 158.35 174.394 158.389 174.544L158.955 174.422C158.873 174.004 150.719 132.463 158.638 123.706C159.117 123.139 159.73 122.701 160.422 122.43C161.113 122.159 161.861 122.065 162.598 122.157C164.066 122.295 165.35 123.067 166.413 124.445C174.618 135.093 168.039 178.486 167.471 182.115H167.482Z" fill="black"/>
<path d="M81.7869 49.1381C81.1951 48.0763 80.4304 47.1204 79.5243 46.3099C79.1741 45.994 78.8068 45.6975 78.4241 45.4218C74.6683 42.7096 69.354 41.7734 64.1133 41.1795C55.4395 40.1626 46.6899 42.3086 39.4709 47.2234C38.2271 48.0792 37.0326 49.0045 35.8932 49.9951C33.6872 51.3442 30.0472 53.7312 30.2367 54.673C30.2622 54.8031 30.364 55.0265 30.7515 55.0887C31.3539 55.1849 32.0751 54.9954 32.7821 54.69L32.6831 54.7776C29.8549 57.3966 30.0274 57.7699 30.1377 58.016C30.2056 58.1602 30.3697 58.3186 30.7797 58.2507C31.8149 58.081 33.4185 57.0091 34.7393 55.9881C33.2827 57.818 31.8262 59.8911 32.1034 60.5331C32.1443 60.6194 32.2093 60.6921 32.2906 60.7422C32.3719 60.7924 32.466 60.818 32.5615 60.8159C33.1639 60.8329 34.1453 60.1145 35.1381 59.184C32.3777 63.2312 32.7199 63.7092 32.9066 63.9468C33.0932 64.1843 33.3648 64.2098 33.7777 64.0542C34.9344 63.6215 36.2609 62.2328 37.4204 60.748C35.5708 64.5774 35.9384 64.9904 36.1194 65.1912C36.166 65.2441 36.2235 65.2861 36.288 65.3145C36.3525 65.3428 36.4224 65.3567 36.4928 65.3552C36.6179 65.3512 36.7409 65.3224 36.8548 65.2704C39.0127 64.3399 42.6555 57.4786 43.0769 56.7008C44.1318 54.6815 49.8505 53.7284 51.5786 53.4823C59.2572 52.3991 66.4664 55.5469 72.7026 59.2151C73.3644 59.6082 74.0149 60.0014 74.6541 60.4002C74.6909 60.205 74.7361 60.0099 74.787 59.8175C74.1733 59.4357 73.5454 59.0567 72.9091 58.6862C66.605 54.9813 59.3109 51.8221 51.4994 52.9251C49.2028 53.2504 43.7444 54.2403 42.582 56.4265V56.4406C41.2329 59.0115 38.2576 64.0599 36.6427 64.7528C36.6119 64.7674 36.5796 64.7787 36.5465 64.7867C36.3598 64.0769 38.3849 59.8741 40.4268 56.2822L39.9347 55.9994C39.898 56.0673 36.1647 62.5609 33.591 63.5254C33.5214 63.5542 33.4481 63.5732 33.3732 63.5819C33.2658 62.8522 35.9413 58.8475 38.5461 55.4705L38.1049 55.1198C36.5069 57.0855 33.6476 60.1711 32.6351 60.2474C32.669 59.5573 34.957 56.517 37.1461 53.9914L36.7445 53.5954C36.7021 53.6322 32.5842 57.3485 30.7204 57.6851C31.1106 56.9525 33.5486 54.6786 35.7716 52.8092L35.4096 52.3736C34.595 53.0467 32.1825 54.7437 30.8363 54.5287H30.8024C31.0117 53.9348 33.7183 51.9833 36.21 50.4731L36.2467 50.4448C37.3768 49.4622 38.5608 48.5435 39.7933 47.6929C46.9019 42.858 55.5158 40.7492 64.0539 41.7536C66.8821 42.0732 69.7556 42.4974 72.3632 43.2498C74.5325 43.8776 76.5292 44.7402 78.1894 45.9649C78.522 46.2076 78.842 46.4672 79.1482 46.7426C80.0098 47.5139 80.7364 48.424 81.2976 49.4351C81.8605 50.4255 82.293 51.4845 82.5845 52.5857C82.774 52.5857 82.9691 52.5857 83.1671 52.5857C82.8671 51.3787 82.4027 50.2187 81.7869 49.1381Z" fill="black"/>
<path d="M99.2537 22.2332C97.2005 16.0111 90.6418 10.3376 85.1889 7.1191C85.138 7.08799 80.1377 4.16077 77.977 4.98662C77.759 5.06297 77.5623 5.18995 77.403 5.35712C77.2437 5.52428 77.1264 5.72687 77.0606 5.94821C76.7014 7.07951 77.3434 8.471 77.8384 9.59663C77.9458 9.83421 78.0477 10.0576 78.1212 10.2613C78.7151 11.7263 79.3175 13.4968 79.2723 15.5048C79.2497 16.407 79.046 17.5807 78.1947 18.0502C77.782 18.2422 77.3286 18.3306 76.8739 18.3076C76.4441 18.3076 75.9859 18.3076 75.5136 18.285C72.8494 18.2227 69.5347 18.1436 67.7105 19.9027C66.8111 20.7682 66.3444 22.0154 66.3246 23.6077C66.302 25.4545 67.1929 27.0383 67.9452 28.0452C71.786 33.17 77.7196 36.2471 81.8856 37.9016C83.2092 38.4248 84.3518 38.8038 85.1946 39.0612C85.37 39.1149 85.5453 39.1658 85.7207 39.2111C86.7653 39.4889 87.8413 39.6315 88.9222 39.6353C91.1764 39.6484 93.3795 38.9638 95.2292 37.6753C96.6494 36.6784 97.8213 35.3681 98.6542 33.8459C99.5057 32.3088 100.006 30.602 100.119 28.8484C100.199 26.6106 99.9068 24.3751 99.2537 22.2332ZM99.5535 28.8088C99.46 30.4688 98.9946 32.0865 98.1918 33.5423C97.3889 34.9982 96.2692 36.2551 94.9152 37.22C92.3472 39.0074 89.1739 39.5222 85.9271 38.685C85.7433 38.6369 85.5566 38.586 85.3615 38.5294C84.2585 38.1957 83.1781 37.8196 82.1316 37.3982C76.2687 35.1045 71.3702 31.6766 68.4062 27.7171C67.7076 26.781 66.8761 25.3131 66.8988 23.6247C66.9186 22.171 67.3145 21.0793 68.1121 20.3213C69.4357 19.0458 71.653 18.8365 73.8675 18.8365C74.419 18.8365 74.9734 18.8365 75.5107 18.8619C75.9859 18.8619 76.4469 18.8845 76.8824 18.8845C77.4343 18.9088 77.9835 18.795 78.4804 18.5536C79.5636 17.9456 79.821 16.5739 79.8436 15.5218C79.8917 13.4091 79.2779 11.5623 78.6529 10.052C78.5681 9.84269 78.4634 9.61077 78.3531 9.36755C77.8865 8.32959 77.3067 7.03708 77.6008 6.12357C77.6403 5.98504 77.7122 5.85791 77.8106 5.75267C77.9089 5.64742 78.0309 5.5671 78.1665 5.51832C79.7446 4.91591 83.6476 6.87587 84.8892 7.60839C90.2628 10.776 96.6999 16.3278 98.7051 22.4114C99.3404 24.4821 99.6271 26.644 99.5535 28.8088Z" fill="black"/>
<path d="M95.5945 29.7558C96.4005 25.5417 95.2183 21.6133 92.7662 19.8711C91.4144 24.5377 87.6047 35.3302 81.6965 33.5399C81.9201 34.4387 82.2817 35.2974 82.7684 36.0853C82.5799 36.4511 82.3659 36.8867 82.1264 37.392C82.0501 37.5532 81.9681 37.7201 81.8832 37.8954C81.0008 39.7225 79.796 42.2792 78.4101 45.3959C78.3309 45.5712 78.2518 45.7466 78.1726 45.9276C76.569 49.5477 74.7391 53.8778 72.8951 58.6546C72.8244 58.8328 72.7565 59.0082 72.6886 59.1864C72.0212 60.9285 71.3509 62.7273 70.6919 64.56L74.51 63.9943C74.462 63.6095 74.4336 63.2225 74.4252 62.8348C74.4252 62.7386 74.4252 62.6396 74.4252 62.5519C74.4244 61.8159 74.4974 61.0816 74.6429 60.3601C74.6797 60.1649 74.725 59.9698 74.7759 59.7775C74.8268 59.5851 74.872 59.4211 74.9286 59.2457C76.0288 55.7953 77.8021 53.6685 80.1948 52.9218C80.9695 52.6975 81.7698 52.5739 82.5761 52.5541C82.7656 52.5541 82.9608 52.5541 83.1587 52.5541C84.8557 52.5937 86.6318 53.0802 87.3672 54.4575C87.6332 55.014 87.8152 55.6068 87.9073 56.2167V56.2648C88.2778 58.0975 88.6992 59.9811 89.2196 61.859L90.2095 61.7148C89.5873 56.5646 88.8548 52.475 88.0007 50.6309C85.0989 44.3749 84.6068 42.3669 85.7098 39.1936C85.7692 39.0182 85.8342 38.8429 85.905 38.659L85.9276 38.6025C85.987 38.6223 86.0492 38.6392 86.1086 38.6534C89.0867 39.4057 92.3109 37.2987 94.2058 33.7068C94.2058 33.7719 94.2228 33.803 94.2284 33.786C94.285 33.5993 96.7314 31.925 96.7314 31.925C96.7314 31.925 96.1941 30.9182 95.5945 29.7558ZM94.2624 26.7013C94.2499 26.6598 94.2499 26.6155 94.2624 26.574C94.3387 26.4552 94.3246 26.5316 94.2737 26.7013H94.2624Z" fill="#1173AB"/>
<path d="M78.6955 111.545C80.7573 117.377 79.1707 124.035 79.1707 124.035L77.8159 125.254L41.3629 158.061L11.5703 121.953L2.80273 125.087L15.2158 110.066L36.2013 134.906L61.2877 103.162L61.5027 103.14H61.6102C61.6102 103.174 61.6102 103.205 61.6102 103.239L65.3547 106.879L65.4566 106.975L74.4645 105.66L84.1597 104.245L92.9668 102.947C93.012 104.118 93.0347 104.873 93.0431 105.108C93.0431 105.159 93.0431 105.184 93.0431 105.184C87.8251 109.373 82.9605 111.149 78.6955 111.545Z" fill="#1173AB"/>
<path d="M146.641 164.038L129.389 179.876L122.943 172.932L122.839 173.026L101.607 151.593C101.607 151.593 89.2365 138.417 77.9575 125.008C72.6942 118.741 67.6656 112.422 64.2462 107.366C63.2648 105.915 62.4164 104.568 61.7319 103.355L61.5142 102.965H61.7461L65.4907 106.605L65.5925 106.701L74.6004 105.386L84.2956 103.972L92.9047 104.362L93.1875 104.848L129.14 167.454L133.066 169.977L146.641 164.038Z" fill="black"/>
<path d="M55.7471 85.4774C55.6582 84.8372 55.3269 84.2555 54.8217 83.8524C54.3164 83.4493 53.6757 83.2556 53.0317 83.3111C52.3878 83.3666 51.7897 83.6671 51.3608 84.1507C50.932 84.6344 50.7051 85.2641 50.727 85.9101C50.7335 86.1188 50.7658 86.3259 50.8232 86.5266C50.9735 87.0533 51.2908 87.5169 51.7275 87.8474C52.1642 88.178 52.6965 88.3577 53.2442 88.3593C53.3682 88.3582 53.4919 88.3488 53.6147 88.331C54.2759 88.2331 54.8714 87.8773 55.271 87.3415C55.6707 86.8057 55.8418 86.1334 55.7471 85.4717V85.4774ZM54.8195 87.0103C54.5882 87.321 54.2699 87.5562 53.9049 87.6859C53.5398 87.8157 53.1445 87.8342 52.769 87.7391C52.3935 87.644 52.0546 87.4396 51.7953 87.1517C51.536 86.8639 51.368 86.5056 51.3125 86.1222C51.2923 85.9855 51.2875 85.847 51.2983 85.7093C51.3325 85.2279 51.5433 84.7762 51.8902 84.4408C52.2372 84.1054 52.6958 83.9099 53.178 83.8921C53.6602 83.8742 54.1321 84.0351 54.5029 84.3439C54.8737 84.6526 55.1174 85.0875 55.1872 85.565C55.2005 85.6587 55.2071 85.7532 55.207 85.8479C55.2065 86.267 55.0706 86.6747 54.8195 87.0103Z" fill="black"/>
<path d="M177.328 182.964H6.78516V183.53H177.328V182.964Z" fill="black"/>
<path d="M145.829 53.6293L90.2205 61.7407L89.2306 61.885C88.7102 60.007 88.2888 58.1234 87.9183 56.2907V56.2426C87.8262 55.6328 87.6442 55.0399 87.3781 54.4835C86.6428 53.1061 84.8723 52.6197 83.1697 52.5801C82.9717 52.5801 82.7766 52.5801 82.5871 52.5801C81.7808 52.5998 80.9804 52.7234 80.2057 52.9477C77.813 53.6944 76.0397 55.8212 74.9396 59.2717C74.883 59.447 74.8321 59.6252 74.7868 59.8034C74.7416 59.9816 74.6907 60.1908 74.6539 60.386C74.5084 61.1075 74.4354 61.8418 74.4361 62.5779C74.4361 62.674 74.4361 62.773 74.4361 62.8607C74.4446 63.2484 74.4729 63.6355 74.521 64.0203L70.7029 64.5859L59.6501 66.198L59.5314 66.2178L46.5413 83.9989C44.9829 83.6765 31.0171 80.9218 27.5667 85.034C26.6362 86.1427 26.5429 87.6417 27.2839 89.4857C28.2087 91.7652 29.9905 93.069 32.584 93.3575C32.9597 93.3978 33.3374 93.4176 33.7153 93.4169C37.9576 93.4169 43.2634 91.0638 46.9655 88.9851L61.5083 103.126H61.6158C61.6158 103.16 61.6158 103.191 61.6158 103.225L65.3603 106.865L65.4622 106.961L74.4701 105.646L84.1653 104.232L92.9667 102.948L151.774 94.3672L145.829 53.6293ZM75.1658 60.6999C75.1998 60.502 75.2394 60.304 75.2903 60.1117C75.3412 59.9193 75.4062 59.6591 75.4769 59.4357C76.5177 56.1748 78.1637 54.1695 80.3726 53.4823C81.1309 53.2653 81.9144 53.1483 82.7031 53.1344H82.9491H83.2772C84.7677 53.1853 86.2723 53.6039 86.8775 54.7352C87.1147 55.2438 87.2776 55.7839 87.3612 56.3388V56.3869C87.7288 58.2111 88.1502 60.0834 88.665 61.9557L88.8177 62.5043C88.9685 63.0266 89.1269 63.5489 89.2928 64.0712C89.3494 64.2522 89.406 64.4332 89.4682 64.6142C89.8924 65.8954 90.3704 67.1596 90.9163 68.4069C92.6302 72.29 95.0172 75.8762 98.5044 78.6479C100.326 80.0931 104.814 83.3824 107.196 82.7064C108.573 82.3161 110.666 81.7957 112.623 81.4563L113.189 81.363C114.973 81.0802 116.582 80.9784 117.315 81.2951C117.346 81.3078 117.377 81.323 117.405 81.3404C117.213 81.6543 116.006 82.1634 114.345 82.7234L113.568 82.9751C113.389 83.0317 113.208 83.091 113.022 83.1448C111.633 83.5747 110.069 84.0074 108.567 84.3751L108.703 84.9237C110.181 84.5773 111.677 84.3082 113.183 84.1177L113.749 84.0526C115.595 83.8603 117.485 83.8434 118.525 84.3496C118.595 84.3795 118.66 84.4195 118.718 84.4684C118.435 84.8361 116.427 85.2942 113.91 85.693L113.344 85.7807C112.037 85.9787 110.623 86.1568 109.26 86.2954L109.311 86.8611C110.479 86.7734 112.006 86.714 113.387 86.7451C113.582 86.7451 113.774 86.7451 113.952 86.7621C115.307 86.8215 116.43 86.9799 116.78 87.3023C116.515 87.5314 115.403 87.7548 113.935 87.9415L113.37 88.0093C112.074 88.1536 110.57 88.2695 109.144 88.3318V88.8974C110.527 89.0154 111.904 89.2042 113.268 89.4631C113.454 89.4998 113.641 89.5366 113.833 89.579C114.852 89.8081 115.771 90.0994 116.269 90.4642C115.884 90.5689 114.917 90.5774 113.695 90.5236L113.129 90.4954C111.93 90.4247 110.55 90.303 109.257 90.1531L109.189 90.7188C110.452 90.877 111.684 91.221 112.846 91.7398C113.02 91.822 113.187 91.9165 113.347 92.0226C113.566 92.1604 113.758 92.3379 113.913 92.5458L113.932 92.5769C113.685 92.6422 113.428 92.6585 113.174 92.625C113.005 92.625 112.81 92.5967 112.609 92.5713C110.81 92.3029 109.03 91.9251 107.278 91.44H107.232C105.743 91.2941 104.262 91.0666 102.798 90.7584C99.0772 89.9656 95.5123 88.5668 92.2455 86.6179C90.4116 85.5313 88.6785 84.2828 87.067 82.8874C86.9935 82.8252 86.9228 82.763 86.8493 82.6951C84.9816 81.0551 83.2872 79.228 81.7924 77.2423C80.07 74.9599 78.3985 72.5926 77.1626 70.1717C76.5651 69.0377 76.0701 67.8527 75.6834 66.6307C75.624 66.4469 75.5703 66.2631 75.5194 66.0821C75.3765 65.56 75.2632 65.0302 75.18 64.4954C75.1479 64.3069 75.1225 64.1183 75.1036 63.9298C75.0612 63.5649 75.0357 63.2029 75.0272 62.8381C75.0019 62.1263 75.0483 61.4137 75.1658 60.7112V60.6999ZM104.8 68.7689C106.039 69.7475 107.583 70.2582 109.161 70.2113C109.65 70.2107 110.137 70.1748 110.621 70.1038C115.058 69.4703 116.721 66.7919 117.94 64.8348C119.02 63.0983 119.513 62.4252 120.898 63.2764C122.895 64.5067 125.706 64.6029 128.085 63.5253C129.115 63.048 130.018 62.3344 130.72 61.4424C131.422 60.5504 131.904 59.5054 132.126 58.3921L138.1 57.521C137.726 58.9181 135.331 67.3944 131.849 69.4646C131.52 69.6785 131.151 69.8216 130.764 69.8849C130.377 69.9482 129.981 69.9303 129.601 69.8323C125.104 68.6501 111.978 72.9207 110.369 76.094C110.214 76.3506 110.162 76.656 110.222 76.9494C110.283 77.2428 110.451 77.5028 110.694 77.6778C111.373 78.2435 112.001 79.4059 112.484 80.919C109.854 81.38 107.249 82.1125 107.06 82.1662C104.868 82.7884 100.244 79.2927 98.8777 78.2067C98.4902 77.8984 98.1169 77.5817 97.7464 77.2507C98.6345 76.9198 100.725 75.9526 101.562 73.9615C102.187 72.4767 101.972 70.7543 100.928 68.8368C99.0644 65.4231 98.3121 63.9807 98.0066 63.3698L101.836 62.8041C101.929 63.6498 102.424 66.857 104.8 68.7802V68.7689ZM102.402 62.7334L131.51 58.4911C131.148 60.4991 129.853 62.1056 127.85 63.0163C125.65 64.0203 123.042 63.9354 121.192 62.8013C119.275 61.6191 118.432 62.9738 117.459 64.5435C116.3 66.4045 114.716 68.9527 110.541 69.5495C108.349 69.8634 106.539 69.4561 105.168 68.339C102.948 66.5572 102.484 63.4603 102.402 62.7447V62.7334ZM143.391 89.3725C143.361 88.9345 143.236 88.5083 143.024 88.1238C142.812 87.7393 142.518 87.4058 142.164 87.1467C141.975 87.0136 141.823 86.8354 141.722 86.6284C141.62 86.4214 141.572 86.1922 141.581 85.9617C141.669 84.0498 145.105 81.5468 145.92 80.9784L147.56 92.2036L141.79 93.0521C142.235 92.5345 143.468 90.9988 143.391 89.3725ZM141.018 85.9362C141.003 86.2559 141.068 86.5744 141.206 86.8629C141.345 87.1513 141.554 87.4005 141.813 87.5879C142.104 87.7986 142.346 88.0702 142.521 88.3838C142.696 88.6974 142.801 89.0454 142.828 89.4037C142.908 90.8178 141.496 92.5939 141.016 93.1567L135.877 93.909C135.877 92.8852 135.727 89.6101 133.863 89.0756C133.014 88.8324 132.313 87.4493 132.336 86.055C132.35 85.2066 132.664 83.2013 135.269 82.5509C139.214 81.5638 143.592 75.6245 144.87 73.7833L145.821 80.2883C145.156 80.738 141.109 83.6425 141.004 85.9391L141.018 85.9362ZM135.119 82.0191C133.046 82.5367 131.79 84.0498 131.756 86.0635C131.728 87.7605 132.579 89.3188 133.696 89.6356C135.065 90.0259 135.311 92.7608 135.294 94.008L122.954 95.8096C125.248 94.783 126.094 93.2133 126.382 91.966C126.948 89.4913 125.757 85.3395 121.792 82.0672C120.763 81.2188 120.352 80.4834 120.57 79.8782C121.034 78.5857 124.92 77.1942 132.358 77.1942C136.052 77.1942 138.838 73.4411 140.526 70.2933C141.725 68.0515 142.66 65.679 143.315 63.2227L144.729 72.966C144.489 73.328 139.401 80.9359 135.119 82.0191ZM132.358 76.6455C127.183 76.6455 120.847 77.4459 120.039 79.7028C119.733 80.5513 120.2 81.5072 121.43 82.5311C124.165 84.7936 126.555 88.7107 125.831 91.8642C125.409 93.6884 123.37 95.3599 120.938 96.1292L108.72 97.911C110.94 96.9352 112.224 95.0997 112.962 93.2105C113.092 93.2105 113.217 93.2105 113.333 93.2105C113.879 93.2105 114.269 93.1256 114.413 92.9276C114.479 92.8281 114.509 92.7096 114.5 92.5909C114.491 92.4721 114.442 92.3597 114.362 92.2715C114.131 91.9545 113.837 91.6895 113.497 91.4937C113.528 91.3693 113.556 91.2477 113.585 91.1261C116.673 91.276 116.812 90.9337 116.905 90.699C116.964 90.5519 116.964 90.3228 116.622 90.0711C116.056 89.6412 115.013 89.3075 113.882 89.0558C113.898 88.8946 113.913 88.7305 113.921 88.5693C115.652 88.3516 117.148 88.0235 117.355 87.5342C117.391 87.4451 117.401 87.3472 117.382 87.2526C117.363 87.1581 117.317 87.0711 117.25 87.0025C116.848 86.5443 115.652 86.335 114.297 86.253C119.131 85.4752 119.233 84.9068 119.286 84.5985C119.34 84.2902 119.162 84.0838 118.769 83.8914C117.654 83.3512 115.737 83.3428 113.859 83.5238C117.912 82.2313 117.957 81.6798 117.98 81.4082C117.994 81.2357 117.929 80.9925 117.533 80.8228C116.656 80.4466 114.874 80.5739 113.008 80.8709C112.482 79.2022 111.774 77.9069 111.028 77.2875C110.954 77.2394 110.891 77.1766 110.843 77.1031C110.794 77.0296 110.761 76.9469 110.746 76.8601C110.731 76.7734 110.734 76.6845 110.755 76.5989C110.775 76.5133 110.813 76.4329 110.867 76.3627C112.247 73.6561 124.892 69.1875 129.462 70.3923C129.914 70.5076 130.385 70.529 130.846 70.455C131.307 70.3811 131.747 70.2134 132.141 69.9624C135.863 67.7479 138.323 58.9153 138.708 57.4446L142.384 56.9073L143.176 62.3403C142.639 64.5746 138.527 76.6229 132.361 76.6229L132.358 76.6455ZM83.6534 91.4372C82.6154 90.1249 82.2392 88.8352 82.5673 87.6021C83.133 85.396 85.7095 83.8943 86.7361 83.3597C88.2777 84.6927 89.9297 85.8924 91.6742 86.9459C88.4613 87.1326 87.9805 88.0065 87.9127 88.2837C87.7684 88.8635 88.2775 89.4546 89.5134 90.1503C90.4615 90.658 91.4512 91.0838 92.4718 91.423C93.8859 91.9038 95.3905 92.3224 96.8018 92.7127C99.466 93.4452 102.218 94.2032 102.659 95.0686C102.692 95.1285 102.71 95.1949 102.714 95.2629C102.717 95.331 102.705 95.3989 102.679 95.4617C101.992 97.3001 97.3307 99.2176 96.0834 99.7041L92.8677 100.174L86.7899 101.062C86.9794 99.5174 87.0048 95.688 83.6534 91.4372ZM103.211 95.6795C103.264 95.543 103.288 95.3965 103.28 95.25C103.271 95.1035 103.231 94.9606 103.163 94.831C102.597 93.7422 100.114 93.0549 96.9545 92.1838C95.4754 91.7765 93.8831 91.3353 92.4294 90.8263C91.5151 90.5181 90.6286 90.133 89.7793 89.6752C88.7215 89.0784 88.3991 88.6457 88.45 88.4392C88.5801 87.9273 90.492 87.5625 92.2568 87.5059C92.2568 87.4409 92.2568 87.3758 92.2568 87.3079C92.3134 87.3419 92.37 87.3758 92.4294 87.4069C95.6175 89.2333 99.0707 90.552 102.665 91.3155C104.142 91.6291 105.636 91.8595 107.139 92.0056C108.862 92.4937 110.616 92.866 112.388 93.12C111.659 94.8933 109.667 97.1445 107.478 98.0552L98.2979 99.393C100.199 98.5021 102.665 97.1078 103.211 95.671V95.6795ZM112.991 91.1883C112.889 91.1374 112.784 91.0921 112.68 91.0469H112.81H113.016L112.991 91.1883ZM100.433 69.1281C101.392 70.8844 101.596 72.4427 101.044 73.7607C100.196 75.7829 97.786 76.6681 97.2826 76.835C94.2649 73.9276 92.2172 70.3301 90.7437 66.4978C90.4948 65.853 90.2629 65.2044 90.048 64.552L90.5401 64.4813L97.4212 63.4773C97.7351 64.1702 98.5581 65.6804 100.433 69.1224V69.1281ZM113.361 88.6118C113.361 88.7136 113.347 88.8126 113.338 88.9115C112.976 88.838 112.614 88.7758 112.261 88.7192C112.626 88.6825 112.996 88.6457 113.361 88.6061V88.6118ZM75.0895 66.7297C76.2208 70.4715 78.7039 74.1284 81.3116 77.5873C82.7868 79.5362 84.4492 81.336 86.2751 82.9609C85.0731 83.5888 82.5984 85.1359 82.0158 87.4494C81.6538 88.8635 82.0554 90.32 83.2037 91.7765C86.524 95.9765 86.3741 99.8144 86.1903 101.146L77.7763 102.382C79.8607 97.5207 76.1161 91.8953 72.5978 88.0263C72.2725 87.6671 72.1396 87.356 72.1962 87.0789C72.3319 86.3831 73.6244 85.7722 74.8745 85.1811C76.4357 84.4429 78.0478 83.6821 78.4749 82.4462C78.5624 82.1662 78.5918 81.8711 78.5611 81.5793C78.5305 81.2875 78.4405 81.005 78.2967 80.7493C76.4696 77.098 74.504 68.0024 74.2636 66.8598L75.0895 66.7297ZM50.7271 85.9136C50.1506 86.3835 49.5441 86.8152 48.9113 87.2061L48.1279 86.4821L53.2838 79.8046V79.8301C53.9821 79.9144 54.6846 79.9588 55.388 79.963C57.6506 79.963 59.1807 79.3974 59.9301 78.317C61.0614 76.6512 60.0037 74.2981 59.6473 73.625C59.3645 73.0989 59.1184 72.703 58.9601 72.4767L61.4319 69.2751C62.1758 69.722 65.1567 71.7329 65.6319 75.5255C65.9147 77.7513 63.4598 80.8511 61.299 83.586C59.5003 85.8486 58.0805 87.6558 58.2332 88.8239C58.2501 88.9728 58.2978 89.1166 58.3732 89.2461C58.4487 89.3757 58.5503 89.4881 58.6716 89.5762C60.5297 90.9677 58.3888 94.8763 57.99 95.5607L49.3356 87.5823C49.9606 87.1778 50.4669 86.8158 50.8402 86.533C50.7768 86.3321 50.7388 86.124 50.7271 85.9136ZM53.6713 79.3012L58.5104 73.0367C58.5896 73.1102 58.6772 73.1809 58.6772 73.1838C58.9148 73.3902 60.4251 75.9215 59.6558 77.6495C59.0251 79.0665 56.9605 79.6349 53.6713 79.3012ZM58.994 89.1237C58.9335 89.0808 58.8829 89.0257 58.8453 88.9618C58.8078 88.8979 58.7842 88.8268 58.7762 88.7532C58.6546 87.8198 60.1451 85.9249 61.7232 83.9452C63.9547 81.1169 66.4832 77.9239 66.1749 75.4605C65.6743 71.4614 62.6707 69.3713 61.7628 68.8254L61.8929 68.6586L67.6908 67.8101C67.9397 68.0788 68.576 68.7067 69.0823 69.2695C70.3352 70.6638 72.0435 72.9094 72.0915 74.8156C72.1108 75.1657 72.0546 75.5158 71.9268 75.8423C71.7989 76.1687 71.6024 76.4639 71.3505 76.7077C70.7849 77.2734 70.0382 77.9606 69.2492 78.6875C67.8662 79.9574 66.3248 81.3715 65.0888 82.7432C63.6747 84.3242 62.6537 85.8542 62.7584 87.0251C62.7851 87.3087 62.8798 87.5817 63.0344 87.8209C63.189 88.0602 63.3989 88.2587 63.6464 88.3996C63.6817 88.4213 63.7157 88.4449 63.7483 88.4703C66.7094 90.4784 69.1671 98.0496 66.7914 103.047C66.7405 103.149 66.6924 103.251 66.6387 103.35L66.5737 103.505L66.5143 103.449L66.0193 102.993L61.9636 99.2431L58.3972 95.9538C58.5839 95.6512 61.4065 90.9337 58.994 89.1237ZM67.1138 103.593L67.1987 103.485C67.2637 103.364 67.3231 103.237 67.3797 103.109C68.412 100.787 68.5789 97.7356 67.8294 94.6246C67.0912 91.5531 65.6007 88.9907 63.9406 87.9386C63.9153 87.9242 63.8915 87.9072 63.8699 87.8877C63.7116 87.7935 63.5778 87.6631 63.4795 87.5073C63.3812 87.3515 63.3211 87.1746 63.3042 86.9912C63.2335 86.1936 63.8359 85.133 64.7636 83.9904C66.0674 82.3755 68.0161 80.5965 69.614 79.123C70.4059 78.3962 71.1526 77.7089 71.7324 77.1433C72.0367 76.8436 72.2746 76.4833 72.4305 76.0857C72.5864 75.6881 72.6569 75.2621 72.6374 74.8354C72.5836 72.6238 70.5869 70.1095 69.269 68.6869C68.8815 68.2683 68.5534 67.943 68.3498 67.7479L69.6536 67.5556L73.698 66.9673C73.698 66.9843 73.698 67.0041 73.698 67.0239C73.7291 67.1653 73.7687 67.3576 73.8196 67.5895C73.8337 67.6574 73.8507 67.7281 73.8677 67.8045C73.8846 67.8808 73.9129 68.0109 73.9384 68.1212C74.0119 68.4606 74.1024 68.8537 74.2014 69.2893C74.2353 69.4335 74.2721 69.5721 74.306 69.739L74.3485 69.92C74.3711 70.0161 74.3965 70.1151 74.4192 70.2028C74.4531 70.3499 74.4899 70.4998 74.5266 70.6497C74.7727 71.6763 75.0612 72.8246 75.3751 73.9926C75.4006 74.0888 75.426 74.1849 75.4543 74.2754C75.6212 74.8807 75.7937 75.4888 75.9719 76.0883C76.0115 76.2269 76.0539 76.3712 76.0935 76.4984C76.1331 76.6257 76.201 76.8463 76.2547 77.016C76.2915 77.1348 76.3282 77.2507 76.3678 77.3667C76.4074 77.4827 76.4442 77.6071 76.4838 77.7259C76.5941 78.0596 76.7044 78.3877 76.8175 78.7016C76.8656 78.8346 76.9108 78.9618 76.9589 79.0891C77.007 79.2164 77.0664 79.3719 77.1201 79.5105C77.2531 79.8527 77.386 80.1751 77.5189 80.4721C77.5698 80.5881 77.6236 80.7012 77.6745 80.8115L77.7678 81.001C77.8783 81.1917 77.9484 81.4031 77.9737 81.622C77.999 81.841 77.979 82.0628 77.9149 82.2737C77.5642 83.2834 75.9945 84.0244 74.6087 84.6805C73.1691 85.3621 71.8087 86.007 71.6136 86.9799C71.5231 87.4409 71.7041 87.9245 72.1538 88.4166C75.5787 92.1866 79.2243 97.877 77.1767 102.476L69.8233 103.548L69.5574 103.587L67.012 103.958L66.8734 103.83L67.1138 103.593ZM32.8922 92.8286C30.3949 92.6165 28.6867 91.4145 27.8184 89.2849C27.1509 87.6502 27.2132 86.3463 27.9994 85.413C31.0624 81.7618 43.8375 84.0611 46.1736 84.5221L44.5898 86.6886L46.5696 88.6061C42.7062 90.7499 37.0639 93.185 32.8894 92.8286H32.8922ZM45.3365 86.6065L59.8481 66.7467L70.4879 65.194L74.5945 64.5944C74.6833 65.1294 74.8013 65.659 74.9481 66.181L69.894 66.9192L61.7119 68.1127L61.5988 68.1297L47.3615 86.5443L48.4164 87.5172C48.0073 87.7718 47.5613 88.0367 47.0787 88.312L45.3365 86.6065ZM92.9469 102.382L81.1702 104.099H81.156L73.7743 105.18L65.6517 106.365L62.4558 103.254L62.2549 103.061L61.6638 102.496L47.4831 88.7079C47.9667 88.4251 48.4164 88.1592 48.8293 87.9019L61.8929 99.9501L65.1539 102.948L65.6347 103.392L66.8791 104.54L71.1526 103.918L72.6006 103.706L86.3176 101.704L86.6824 101.65L92.8819 100.745L95.9477 100.298L96.2305 100.258L148.199 92.6844L142.871 56.2822L97.6955 62.8607L97.26 62.9229L90.4722 63.9128L89.8641 64.0005C89.6945 63.4801 89.5389 62.9569 89.389 62.4336L90.2912 62.3035L145.346 54.2685L151.132 93.8977L92.9469 102.382Z" fill="black"/>
<path d="M31.3932 124.948C30.2308 123.441 28.8167 122.598 27.1877 122.44C26.3606 122.343 25.5226 122.451 24.747 122.754C23.9714 123.056 23.2819 123.545 22.7389 124.176C19.311 127.955 18.307 137.735 19.7409 153.233C20.4084 160.437 21.4746 167.264 22.1845 171.388C21.6502 170.03 21.0296 168.707 20.3264 167.428C17.4105 162.162 13.6206 159.13 9.36132 158.661C7.80579 158.488 6.68298 158.898 6.02683 159.885C2.78002 164.761 12.6421 182.562 13.0635 183.317L13.1427 183.461L32.4793 183.529L32.5189 183.292C32.5358 183.176 34.4336 171.413 35.2425 158.432C36.3342 140.95 35.0332 129.683 31.3932 124.948ZM32.0098 182.964L26.5852 182.944L28.2822 132.884L27.7165 132.864L26.0196 182.941L19.8201 182.918L11.5362 165.168L11.0243 165.409L19.2007 182.91L13.4764 182.89C12.5289 181.162 3.57758 164.563 6.49915 160.177C7.03651 159.371 7.95003 159.045 9.2991 159.198C19.164 160.295 22.8746 175.237 22.9142 175.387L23.4798 175.265C23.3978 174.847 15.244 133.306 23.1631 124.549C23.6421 123.982 24.255 123.543 24.9464 123.273C25.6378 123.002 26.3858 122.908 27.1226 123C28.5905 123.138 29.8745 123.91 30.9379 125.288C39.1454 135.942 32.567 179.335 31.9985 182.964H32.0098Z" fill="black"/>
</svg>
