<svg width="180" height="227" viewBox="0 0 180 227" fill="none" xmlns="http://www.w3.org/2000/svg">
<path d="M149.56 144.246L157.597 217.796H134.216L148.098 210.977L130.076 148.457C130.076 148.457 139.375 130.04 148.481 143.586" fill="#1173AB"/>
<path d="M68.9419 61.0563C68.2594 59.706 67.4999 58.396 66.6672 57.1328C65.844 55.2405 63.847 50.9005 62.8338 50.9005C62.7227 50.9082 62.6171 50.9514 62.5324 51.0238C62.4478 51.0961 62.3886 51.1938 62.3638 51.3024C62.1349 51.9429 62.2591 52.7904 62.5148 53.616L62.2445 53.2312C60.189 50.3282 59.6848 50.1796 59.3707 50.2698C59.2318 50.3112 59.0638 50.4378 59.0638 50.8202C59.0638 51.9307 60.038 53.8474 60.9318 55.372C59.2635 53.6282 57.1325 51.5995 56.4068 51.7895C56.3223 51.8117 56.2462 51.8581 56.1878 51.923C56.1294 51.9879 56.0912 52.0685 56.078 52.1548C55.9367 52.7953 56.6795 54.0325 57.605 55.2721L57.3493 55.0286C53.4964 51.58 52.9655 51.8625 52.7073 52.0086C52.4492 52.1548 52.4053 52.3983 52.4881 52.7953C52.756 54.0568 54.1004 55.6691 55.5397 57.0938C53.4526 55.7081 51.4166 54.5585 50.8588 54.9336C50.7249 55.0213 50.5909 55.2064 50.6908 55.5887C50.9879 56.7115 52.8242 58.4723 54.6484 59.9968C56.4725 61.5214 58.2869 62.8122 58.5451 62.9876C60.4934 64.349 60.4934 70.0722 60.4471 71.7941C60.2596 79.3439 55.8198 85.8075 50.9757 91.2458C50.3036 92.0008 49.6241 92.7339 48.947 93.4377L48.9154 93.4718C48.4663 93.8989 48.0844 94.3916 47.7829 94.933C46.6456 97.2321 49.3538 100.308 51.0561 101.443C52.3013 102.245 53.7594 102.653 55.2402 102.614C56.0085 102.606 56.7743 102.525 57.527 102.371C58.2552 102.228 58.9735 102.038 59.6775 101.803C60.8674 101.414 61.9878 100.837 62.997 100.096C67.1908 96.9861 69.3169 91.4626 70.9901 85.9585C73.5442 77.7042 72.8103 68.7823 68.9419 61.0563ZM70.5249 85.827C69.6993 88.5376 68.7641 91.2556 67.5269 93.6691C66.2897 96.0826 64.7481 98.2014 62.7072 99.7138C61.7382 100.436 60.6593 100.998 59.5119 101.377C58.7679 101.624 58.0079 101.82 57.2372 101.964C54.8383 102.393 52.8535 102.093 51.3094 101.065C49.7653 100.038 47.213 97.1688 48.2018 95.1742C48.4839 94.6777 48.8375 94.2255 49.2515 93.8322L49.2831 93.7957C49.9326 93.1187 50.5739 92.4237 51.2071 91.711C56.1608 86.1777 60.7223 79.5947 60.9172 71.8208C60.9756 69.5364 60.8831 64.064 58.8056 62.6052C56.8354 61.2243 51.6187 57.2473 51.1487 55.4791C51.1347 55.4367 51.1281 55.3922 51.1292 55.3476C51.6991 55.1479 55.3863 57.4421 59.4218 60.4912L59.7165 60.104C59.6556 60.0577 53.5159 55.3744 52.9509 52.7076C52.9322 52.6278 52.924 52.546 52.9265 52.4641C53.4696 52.279 56.9085 55.1211 60.5981 58.8132L60.9464 58.4723C59.1466 56.5775 56.3727 53.2385 56.5407 52.2717C57.1666 52.2717 60.0209 55.0505 62.3735 57.6929L62.7559 57.3934C62.7242 57.3447 59.5217 52.6881 59.5265 50.8372C59.5252 50.8186 59.5252 50.7998 59.5265 50.7812C60.1354 51.0881 62.1933 53.9472 63.8445 56.5507L64.2561 56.2901C63.6936 55.3866 62.3346 52.7612 62.7949 51.4826C62.8144 51.4339 62.829 51.4095 62.829 51.4022C63.3355 51.4655 64.9843 54.5196 66.2167 57.3568L66.2361 57.3958C67.0647 58.6491 67.8186 59.9503 68.4938 61.2925C72.3075 68.9033 73.0351 77.6927 70.5249 85.827Z" fill="black"/>
<path d="M51.9941 144.08C48.2118 143.997 47.4495 139.606 45.0945 133.966C41.2246 124.711 37.2524 111.618 39.5685 105.374C39.7 105.023 39.812 104.672 39.9362 104.319C40.0605 103.966 40.1798 103.588 40.2699 103.221C41.7555 101.591 43.3166 100.055 44.8607 98.5934L44.9021 98.5569C45.3658 98.1612 45.7695 97.7002 46.1003 97.1882C47.2815 95.1034 44.7121 91.8862 43.1437 90.7051C42.5891 90.2861 41.9718 89.9573 41.3147 89.7309C41.2977 89.5482 41.2782 89.3729 41.2611 89.2C41.1103 87.7236 40.8605 86.2591 40.5134 84.8162C40.5134 84.6555 40.5134 84.4996 40.5134 84.3535C40.5255 84.0627 40.5622 83.7735 40.623 83.4889C40.6608 83.312 40.7129 83.1385 40.7789 82.9701C40.9192 82.5661 41.1729 82.211 41.5095 81.9473C42.8149 84.0442 44.9459 82.6389 45.8324 82.1908C46.188 82.3442 46.49 82.4952 46.7043 82.6073C46.9186 82.7193 47.055 82.8045 47.055 82.8045C47.5421 84.6676 48.9571 87.6462 50.9517 91.2652C51.0321 91.4138 51.1149 91.5648 51.1952 91.7158C52.9 94.7917 54.9799 98.2914 57.2253 101.969L57.4981 102.412C64.8726 114.433 73.8691 128.008 76.6917 133.413C81.5017 142.587 61.989 144.301 51.9941 144.08Z" fill="black"/>
<path d="M46.6821 129.606L44.5267 175.58L32.072 207.012L26.9746 218.901H47.6416L36.8844 215.221C36.8844 215.221 38.2019 212.913 38.5745 211.812L58.3916 180.395L66.034 137.648C67.7388 137.081 46.6821 129.606 46.6821 129.606Z" fill="black"/>
<path d="M130.585 193.129L116.998 199.076L113.067 196.551L76.7988 133.4L45.3818 131.985C53.1898 146.242 85.5152 180.672 85.5152 180.672L106.764 202.126L106.869 202.036L113.323 208.984L130.585 193.129Z" fill="#1173AB"/>
<path d="M39.6976 54.9209C37.6417 54.9189 35.6082 55.3481 33.7284 56.1808C31.8486 57.0135 30.1644 58.2312 28.7845 59.7552C28.0895 58.8868 27.1857 58.2089 26.1574 57.7848C25.1292 57.3608 24.0102 57.2045 22.9052 57.3305C21.8001 57.4566 20.745 57.8608 19.8387 58.5056C18.9324 59.1503 18.2044 60.0144 17.7229 61.0169C17.2414 62.0195 17.022 63.1279 17.0854 64.2383C17.1487 65.3488 17.4927 66.425 18.0851 67.3663C18.6776 68.3076 19.4991 69.0833 20.4728 69.6208C21.4466 70.1582 22.5408 70.4399 23.653 70.4395C24.0998 70.4401 24.5454 70.3944 24.9828 70.3031C25.1508 74.0928 26.7746 77.6716 29.5158 80.2939C32.2569 82.9162 35.9041 84.3798 39.6976 84.3798C39.9752 84.3798 40.248 84.3798 40.5208 84.3555C44.3456 84.1353 47.9342 82.4336 50.5251 79.6113C53.116 76.789 54.5052 73.0683 54.3981 69.2386C54.291 65.4089 52.696 61.7716 49.9514 59.0986C47.2069 56.4255 43.5288 54.9269 39.6976 54.9209ZM47.6615 70.5247C48.3496 71.3198 49.1683 71.9919 50.0823 72.512C50.1459 72.9964 50.1736 73.4848 50.1651 73.9733L48.5796 74.2923L48.1461 74.38L45.4671 74.9133C46.2753 73.4897 47.0085 72.0248 47.6639 70.5247H47.6615ZM48.7623 79.375C48.7623 79.3896 48.7477 79.3555 48.733 79.2776C48.0645 80.4996 47.064 81.5077 45.8471 82.1855C45.4294 82.4033 44.981 82.5561 44.5173 82.6385L44.5051 82.6653C43.7354 82.8061 42.9408 82.6995 42.2353 82.3609C41.9848 82.2485 41.7465 82.1105 41.5242 81.9493C40.9307 81.5115 40.4368 80.9529 40.0751 80.3102C41.322 80.1714 42.569 79.0925 43.7282 77.5899C43.7293 77.5947 43.7293 77.5997 43.7282 77.6045C43.8403 77.4535 43.9547 77.2976 44.0619 77.1417L44.1812 76.9737C44.2713 76.8446 44.359 76.7155 44.4394 76.5938C44.4954 76.5158 44.549 76.4355 44.5977 76.3502C44.7487 76.1189 44.8778 75.9143 44.9727 75.7609L45.0458 75.644C45.0604 75.6196 45.075 75.5977 45.0872 75.5733L45.1481 75.4735L48.0146 74.9011L48.8158 74.7404L50.1505 74.4749C50.1202 74.9788 50.0559 75.48 49.9581 75.9752C49.9215 76.1603 49.8801 76.3405 49.8363 76.5207C50.2722 77.2513 50.6327 77.831 50.6327 77.831C50.6327 77.831 48.7939 79.224 48.7647 79.375H48.7623Z" fill="black"/>
<path d="M43.4357 90.3179C42.7797 89.8264 42.0441 89.4515 41.2609 89.2097C39.3564 88.6082 37.0208 88.6715 34.2858 89.4021C33.642 89.5751 33.0132 89.7999 32.4057 90.0743C31.791 90.3524 31.199 90.6781 30.6351 91.0485C25.9834 94.1049 23.38 99.8525 21.2709 105.615C18.0492 114.252 18.29 123.8 21.9431 132.263C22.5897 133.743 23.3215 135.184 24.135 136.579C24.8972 138.649 26.7701 143.413 27.8417 143.439C27.9634 143.439 28.2021 143.396 28.3482 143.047C28.6429 142.358 28.5431 141.406 28.302 140.483L28.6234 140.999C30.5012 144.002 31.093 144.336 31.373 144.336C31.4118 144.335 31.4504 144.33 31.4875 144.319C31.6336 144.287 31.8114 144.163 31.8358 143.768C31.9064 142.55 30.9347 140.385 30.0579 138.693C31.7384 140.668 33.9546 143.038 34.7364 142.882C34.8249 142.863 34.906 142.819 34.97 142.755C35.034 142.691 35.078 142.61 35.0968 142.521C35.2892 141.83 34.5196 140.402 33.5674 138.985L33.9449 139.365C37.8294 143.262 38.409 142.991 38.6891 142.86C38.9326 142.745 39.0227 142.473 38.9594 142.054C38.7426 140.644 37.3106 138.756 35.8055 137.11C40.048 140.322 40.579 140.008 40.8322 139.857C40.9735 139.774 41.1245 139.589 41.0417 139.187C40.5546 136.774 33.8937 131.44 33.1339 130.838C31.1465 129.268 31.4826 123.162 31.6336 121.328C32.1743 114.752 35.6813 109.151 39.9409 104.319C41.6213 102.412 43.4187 100.627 45.199 98.9612L45.2404 98.9246C45.7411 98.496 46.1753 97.9954 46.5287 97.439C47.8682 95.0572 45.1746 91.6281 43.4357 90.3179ZM46.1001 97.1906C45.7693 97.7026 45.3656 98.1637 44.9018 98.5593L44.8604 98.5959C43.3164 100.057 41.7553 101.591 40.2697 103.223C35.6423 108.291 31.7237 114.231 31.1441 121.292C30.9444 123.727 30.7106 129.528 32.8173 131.214C35.3379 133.218 40.1844 137.458 40.5595 139.285C40.569 139.336 40.5747 139.388 40.5765 139.44C40.5486 139.451 40.5188 139.456 40.4888 139.455C39.7071 139.455 36.0271 136.854 32.0233 133.459L31.7067 133.829C31.77 133.883 38.0388 139.246 38.4723 142.127C38.4943 142.223 38.4943 142.323 38.4723 142.419C37.9049 142.633 34.4076 139.384 30.6789 135.188L30.3112 135.507C32.1256 137.65 34.9044 141.416 34.6341 142.392C34.633 142.397 34.633 142.402 34.6341 142.407H34.6146C33.9716 142.407 31.0808 139.258 28.7111 136.272L28.3141 136.55C28.3458 136.603 31.4802 141.759 31.3584 143.739C31.3603 143.767 31.3603 143.794 31.3584 143.822C30.7496 143.515 28.7063 140.32 27.0818 137.397L26.6556 137.641C26.6751 137.677 28.604 141.25 27.9196 142.865C27.9055 142.897 27.8892 142.929 27.8709 142.96C27.3838 142.923 25.9006 139.923 24.6026 136.399L24.5855 136.36C23.7784 134.976 23.0539 133.545 22.4155 132.076C18.8123 123.727 18.5741 114.31 21.7507 105.79C23.8378 100.108 26.3926 94.441 30.9249 91.4625C31.9938 90.7478 33.1705 90.2092 34.41 89.8673C37.1499 89.1367 39.4635 89.0904 41.3145 89.7333C41.9716 89.9598 42.5889 90.2885 43.1435 90.7075C44.7119 91.8887 47.2813 95.1059 46.1001 97.1906Z" fill="black"/>
<path d="M45.9759 77.4956C45.6128 76.7242 45.0379 76.0719 44.3182 75.6148C43.5985 75.1577 42.7637 74.9147 41.9111 74.9141C41.6133 74.913 41.3162 74.9433 41.0246 75.0042C39.9324 75.2233 38.9608 75.8407 38.2985 76.7364C37.6362 77.632 37.3306 78.742 37.4411 79.8504C37.5517 80.9589 38.0704 81.9866 38.8966 82.7338C39.7227 83.4811 40.7972 83.8944 41.9111 83.8935C42.1239 83.8942 42.3364 83.8787 42.5468 83.8472C43.3357 83.7361 44.0802 83.4148 44.7021 82.9169C45.0672 82.63 45.3838 82.2863 45.6398 81.8989C46.0719 81.2567 46.3301 80.5134 46.389 79.7416C46.4479 78.9698 46.3055 78.196 45.9759 77.4956ZM45.0747 81.8526C44.8162 82.1892 44.5044 82.4812 44.1517 82.7172C43.7145 83.016 43.2217 83.2238 42.7026 83.3285C42.121 83.445 41.5207 83.4308 40.9451 83.2871C40.3696 83.1433 39.8331 82.8735 39.3745 82.4972C38.9159 82.1208 38.5467 81.6474 38.2933 81.1109C38.04 80.5745 37.909 79.9885 37.9097 79.3953C37.9087 78.5566 38.1729 77.7391 38.6647 77.0597C39.0848 76.4754 39.6547 76.0153 40.3145 75.7279C40.9742 75.4405 41.6993 75.3365 42.4132 75.4267C43.1272 75.517 43.8035 75.7983 44.371 76.2408C44.9384 76.6834 45.3759 77.2709 45.6373 77.9413C45.8224 78.4062 45.9167 78.9022 45.915 79.4026C45.9156 80.29 45.6199 81.1523 45.0747 81.8526Z" fill="#F96464"/>
<path d="M176.79 218.404H6.09082V218.891H176.79V218.404Z" fill="black"/>
<path d="M131.932 99.3016C131.737 98.8462 130.057 97.251 127.879 95.215L127.614 94.9715C126.852 94.2554 126.226 93.6661 126.079 93.4932C121.14 87.5824 118.396 81.4816 117.414 73.9342C117.37 73.6095 117.331 73.2807 117.297 72.9479C117.107 72.6897 116.917 72.4364 116.73 72.1856C116.759 72.5022 116.791 72.8188 116.825 73.1305C117.714 81.1674 120.515 87.5897 125.707 93.8049C125.877 94.007 126.545 94.6354 127.412 95.4415L127.553 95.5754C128.961 96.893 131.321 99.1019 131.489 99.4989C132.326 101.447 130.544 103.235 128.69 104.716C127.626 105.623 126.275 106.126 124.876 106.135C123.942 106.118 123.019 105.919 122.161 105.549C119.864 104.611 117.611 102.684 115.712 100.921C114.17 99.4333 112.812 97.7661 111.667 95.9554C109.131 91.8444 107.207 88.162 106.048 83.6126C103.325 72.8967 104.358 62.327 109.034 53.0237C109.869 51.3634 110.798 49.7518 111.815 48.1966L111.835 48.1601C113.595 44.1295 115.519 40.7491 116.038 40.7491C116.075 40.7885 116.099 40.8375 116.109 40.8904C116.718 42.8801 114.251 46.9132 114.226 46.9546L114.64 47.2103C116.718 43.8957 119.294 40.2986 119.962 40.0599C119.967 40.1101 119.967 40.1607 119.962 40.2109C119.901 42.5635 115.977 48.3306 115.938 48.389L116.323 48.6886C119.27 45.3277 122.818 41.8329 123.408 42.0472C123.417 42.0628 123.422 42.0804 123.422 42.0983C123.634 43.3014 120.312 47.371 118.028 49.8162L118.381 50.1523C118.401 50.1304 120.505 47.9945 122.721 45.9804C127.02 42.0837 127.592 42.393 127.626 42.4101C127.66 42.4271 127.684 42.488 127.611 42.807C126.851 46.1679 119.482 51.8693 119.406 51.9253L119.704 52.3125C124.611 48.5546 129.165 45.7174 129.647 46.1192C129.647 46.1192 129.669 46.1996 129.628 46.3628C129.041 48.4816 123.325 53.009 120.373 55.1084H120.359C119.565 55.6831 118.883 56.8132 118.325 58.1648C118.262 58.3183 118.201 58.4717 118.142 58.63C118.301 58.6592 118.461 58.6933 118.63 58.7274C118.688 58.5716 118.749 58.4181 118.812 58.2696C119.336 57.0178 119.959 55.9949 120.666 55.4932C120.756 55.4274 122.906 53.8907 125.11 52.0422C128.086 49.5483 129.762 47.6755 130.093 46.4797C130.22 46.0267 130.069 45.8124 129.918 45.7101C129.674 45.5396 129.073 45.1402 124.104 48.5254L123.88 48.6789C125.782 46.8352 127.694 44.6263 128.081 42.9118C128.191 42.4247 128.113 42.1202 127.855 41.979C127.597 41.8377 126.937 41.4919 122.348 45.6565C122.122 45.8611 121.898 46.0681 121.676 46.2727C122.943 44.619 124.051 42.8801 123.9 42.0107C123.889 41.9121 123.85 41.8188 123.787 41.7425C123.724 41.6662 123.639 41.6104 123.544 41.582C122.663 41.3385 119.911 44.054 117.875 46.2361C119.026 44.3073 120.405 41.6989 120.444 40.2206C120.444 39.8602 120.344 39.6434 120.122 39.5777C119.901 39.5119 119.392 39.3536 116.696 43.204L116.209 43.9176C116.598 42.807 116.837 41.6259 116.569 40.7515C116.452 40.3692 116.231 40.2645 116.067 40.2645H116.046C114.828 40.2645 112.183 46.1095 111.382 47.9458C110.359 49.5158 109.424 51.1419 108.583 52.8166C103.854 62.2271 102.809 72.9211 105.561 83.7466C106.735 88.3739 108.681 92.0757 111.238 96.2233C111.784 97.0877 112.378 97.9203 113.018 98.7171C113.736 99.6282 114.519 100.486 115.361 101.284C118.425 104.126 121.628 106.581 124.796 106.642H124.893C126.267 106.642 127.631 106.187 128.975 105.113C130.32 104.039 133.028 101.864 131.932 99.3016Z" fill="black"/>
<path d="M75.8877 194.537L87.5777 199.651L90.9581 197.479L122.161 143.149L149.194 141.932C142.475 154.199 114.665 183.821 114.665 183.821L96.3843 202.279L96.2941 202.199L90.7438 208.175L75.8877 194.537Z" fill="black"/>
<path d="M162.199 56.4239C161.543 54.6727 160.789 52.9596 159.942 51.2925C159.338 49.3709 157.311 43.2117 156.113 43.1508C155.95 43.1508 155.721 43.2093 155.563 43.577C155.2 44.4221 155.319 45.6228 155.577 46.7699L155.163 46.0052C152.903 41.8917 152.416 41.9818 152.148 42.0306C151.922 42.072 151.79 42.2741 151.761 42.6345C151.637 44.1104 152.735 46.8527 153.663 48.8936C151.876 46.5069 149.43 43.5016 148.532 43.655C148.434 43.671 148.343 43.7167 148.271 43.786C148.2 43.8552 148.151 43.9446 148.132 44.0422C147.889 44.8897 148.8 46.7407 149.881 48.5185L149.279 47.8342C145.151 43.1874 144.477 43.465 144.189 43.5941C143.902 43.7232 143.807 44.0106 143.863 44.4976C144.063 46.2438 145.726 48.6379 147.419 50.6836L147.212 50.5083C142.636 46.6116 142.005 46.9379 141.734 47.0792C141.576 47.1644 141.401 47.3617 141.476 47.8269C141.949 50.7177 149.555 57.5174 149.878 57.8121C151.968 59.6679 152.606 66.7867 152.331 69.4218C151.179 80.4129 147.616 88.0626 140.414 94.9938C140.234 95.1691 139.404 95.7926 138.442 96.5159C138.001 96.8471 137.58 97.1638 137.183 97.4657C135.429 98.7931 134.168 99.7916 133.968 100.145C132.604 102.58 135.078 105.035 136.269 106.216C137.696 107.636 139.241 108.216 140.858 108.216C141.031 108.216 141.203 108.216 141.379 108.196C144.219 107.984 147.256 106.092 150.215 103.893C151.941 102.555 153.501 101.016 154.861 99.3069C157.852 95.4565 160.185 91.9787 161.851 87.5146C165.757 77.0374 165.872 66.2898 162.199 56.4239ZM161.408 87.3295C159.764 91.7352 157.453 95.1789 154.489 98.9928C153.867 99.7791 153.199 100.528 152.489 101.236C151.695 102.047 150.842 102.799 149.937 103.486C146.995 105.678 143.985 107.546 141.211 107.687C139.581 107.772 138.045 107.259 136.625 105.858C134.942 104.185 133.361 102.222 134.406 100.369C134.562 100.089 136.016 98.9562 137.387 97.9139L138.746 96.891C139.762 96.1287 140.563 95.5271 140.765 95.3323C148.057 88.311 151.664 80.5712 152.828 69.4559C153.098 66.8792 152.516 59.4706 150.215 57.4322C147.506 55.0406 142.314 49.9262 141.958 47.7343C141.935 47.6548 141.935 47.5703 141.958 47.4908C141.99 47.4742 142.025 47.4658 142.061 47.4664C142.891 47.4664 146.932 50.6641 151.179 54.724L151.518 54.3733C151.449 54.3075 144.737 47.8464 144.343 44.4221C144.306 44.0958 144.372 44.0252 144.372 44.0252C144.372 44.0252 145.008 43.7548 148.863 48.1045C150.848 50.3451 152.711 52.6977 152.728 52.7196L153.115 52.4225C151.108 49.7436 148.244 45.3427 148.585 44.1689C148.589 44.154 148.594 44.1393 148.6 44.125C149.218 43.9935 152.37 47.8342 154.932 51.4873L155.346 51.2438C155.314 51.1829 152.036 45.0237 152.231 42.6784C152.233 42.6281 152.241 42.5782 152.255 42.5298C152.894 42.8391 155.066 46.692 156.776 50.2136L157.214 50.0017C157.195 49.9603 155.176 45.6837 155.996 43.7719C156.014 43.7236 156.04 43.679 156.074 43.6404C156.593 43.6647 158.147 47.2448 159.469 51.4605L159.484 51.4995C160.327 53.1555 161.076 54.8572 161.729 56.5968C165.365 66.3507 165.258 76.9765 161.396 87.3295H161.408Z" fill="black"/>
<path d="M137.828 74.2147C135.592 70.793 134.377 70.0891 133.725 69.7116C133.208 69.4121 133.101 69.3487 132.994 68.0068C132.887 66.6649 130.785 64.3853 127.636 62.2738C125.123 60.5861 121.952 59.0104 118.832 58.2846C118.671 58.2456 118.51 58.2091 118.345 58.1799C116.272 57.7537 114.241 57.722 112.458 58.2968C110.885 58.8033 109.964 59.5486 109.648 60.5739C108.929 62.8949 111.433 66.134 114.604 70.2328C115.318 71.1558 116.065 72.1276 116.818 73.1358C117.015 73.4013 117.212 73.6692 117.407 73.9395C118.277 75.1426 119.124 76.3749 119.874 77.6487C120.274 78.3209 120.619 78.8981 120.917 79.39C120.897 79.2804 120.878 79.1708 120.861 79.0612C120.814 78.7617 120.778 78.4645 120.753 78.1699C120.607 77.9263 120.456 77.6828 120.293 77.4003C119.385 75.8732 118.345 74.3779 117.29 72.9532C117.1 72.695 116.91 72.4417 116.723 72.1909C116.136 71.4116 115.551 70.6566 114.991 69.9332C112.027 66.1048 109.47 62.7974 110.12 60.7176C110.388 59.8554 111.204 59.2149 112.614 58.7692C113.973 58.3309 115.875 58.214 118.169 58.6548C118.328 58.684 118.488 58.7181 118.657 58.7522C121.18 59.3075 124.146 60.5228 127.373 62.6878C130.31 64.6581 132.424 66.8646 132.517 68.0458C132.636 69.5825 132.828 69.7628 133.491 70.1427C134.109 70.5007 135.256 71.168 137.431 74.4924C138.376 75.9366 138.649 77.4149 138.264 78.9054C137.261 82.69 132.217 85.3178 132.176 85.3446L132.154 85.3568C132.046 85.4274 131.939 85.4932 131.835 85.5589L132.049 85.9998L132.409 85.7733C133.381 85.2453 134.302 84.6281 135.159 83.9296C136.489 82.8532 138.189 81.1289 138.744 79.0296C139.153 77.3978 138.854 75.7807 137.828 74.2147ZM112.614 58.7498C113.973 58.3114 115.875 58.1945 118.169 58.6353C118.228 58.477 118.289 58.3236 118.352 58.1701C116.28 57.7439 114.248 57.7123 112.466 58.287C110.892 58.7936 109.972 59.5388 109.655 60.5642C108.937 62.8851 111.44 66.1242 114.611 70.2231C115.325 71.1461 116.073 72.1178 116.825 73.1261C116.791 72.8144 116.759 72.4977 116.73 72.1811C116.143 71.4018 115.559 70.6468 114.999 69.9235C112.035 66.095 109.477 62.7877 110.128 60.7078C110.388 59.8457 111.204 59.2052 112.614 58.7498Z" fill="black"/>
<path d="M149.572 144.158C149.572 144.158 137.806 156.223 122.404 143.88C122.404 143.88 123.135 120.726 124.811 106.618C124.83 106.455 124.85 106.289 124.872 106.131C125.398 101.854 126.016 98.4714 126.732 96.9225C126.977 96.3948 127.202 95.8996 127.407 95.4368C127.48 95.2761 127.548 95.1178 127.614 94.9668C129.238 91.2382 129.504 89.5967 128.81 87.3926C128.368 87.4987 127.915 87.5535 127.46 87.5558C126.75 87.5624 126.048 87.3996 125.412 87.0809C124.095 86.416 123.22 85.1496 122.638 83.8199C122.577 83.7298 122.517 83.6372 122.458 83.5422C121.752 83.0283 120.093 81.7887 120.093 81.7887C120.093 81.7887 120.554 80.9388 121.048 79.967C121.002 79.7697 120.96 79.5749 120.924 79.3801C120.904 79.2705 120.885 79.1609 120.868 79.0513C120.821 78.7517 120.785 78.4546 120.761 78.1599C120.722 77.7438 120.707 77.3259 120.717 76.9081C121.016 77.0816 121.338 77.212 121.674 77.2954C121.725 77.3075 121.779 77.3148 121.83 77.3246V77.3368C122.026 77.3728 122.225 77.3915 122.424 77.3928C123.834 77.3928 125.066 76.5452 125.751 75.2812C127.334 78.9685 129.747 82.7312 132.908 82.3245C132.701 83.3751 132.277 84.3706 131.662 85.247L131.815 85.5612L132.029 86.002C133.223 88.4764 135.096 92.49 137.183 97.4631C137.244 97.6166 137.309 97.77 137.375 97.9259C136.004 98.9682 134.55 100.101 134.394 100.381C133.349 102.234 134.93 104.197 136.613 105.87C138.02 107.271 139.569 107.784 141.199 107.699C141.26 107.862 141.318 108.028 141.379 108.186C145.436 119.377 149.184 132.636 149.572 144.158Z" fill="black"/>
<path d="M66.1121 36.5996H42.9756V37.0867H66.1121V36.5996Z" fill="black"/>
<path d="M63.5455 25.1835L63.3276 25.6191L70.1455 29.0288L70.3633 28.5931L63.5455 25.1835Z" fill="black"/>
<path d="M118.087 11.315L103.479 21.7959L103.763 22.1917L118.371 11.7108L118.087 11.315Z" fill="black"/>
<path d="M118.218 26.411L109.7 28.1494L109.797 28.6268L118.315 26.8883L118.218 26.411Z" fill="black"/>
<path d="M87.7874 60.2236H87.3003V75.0797H87.7874V60.2236Z" fill="black"/>
<path d="M93.3632 57.9107L92.9302 58.1338L97.0709 66.1701L97.5039 65.947L93.3632 57.9107Z" fill="black"/>
<path d="M12.5666 84.4121L11.6241 87.5051C11.6241 87.5051 7.99535 88.3112 8.66753 88.4452C9.3397 88.5791 12.5642 89.5216 12.5642 89.5216L14.0449 91.8158V88.0433L16.3294 87.2348L14.0449 86.7014L12.5666 84.4121Z" fill="black"/>
<path d="M95.4421 112.176L94.4947 115.269C94.4947 115.269 90.866 116.075 91.5381 116.209C92.2103 116.343 95.4348 117.285 95.4348 117.285L96.9302 119.579V115.807L99.2146 114.998L96.9302 114.465L95.4421 112.176Z" fill="black"/>
<path d="M140.081 59.1396L139.351 61.5751C139.351 61.5751 136.494 62.2083 137.022 62.3057C137.551 62.4031 140.091 63.1508 140.091 63.1508L141.255 64.9506V61.9964L143.055 61.3632L141.255 60.9394L140.081 59.1396Z" fill="black"/>
<path d="M124.251 183.59L123.52 186.025C123.52 186.025 120.663 186.658 121.192 186.756C121.72 186.853 124.26 187.601 124.26 187.601L125.424 189.401V186.447L127.224 185.813L125.424 185.39L124.251 183.59Z" fill="black"/>
</svg>
