<svg width="20" height="20" viewBox="0 0 20 20" fill="none" xmlns="http://www.w3.org/2000/svg">
<path d="M15.625 20C16.7853 20 17.8981 19.5391 18.7186 18.7186C19.5391 17.8981 20 16.7853 20 15.625C20 14.4647 19.5391 13.3519 18.7186 12.5314C17.8981 11.7109 16.7853 11.25 15.625 11.25C14.4647 11.25 13.3519 11.7109 12.5314 12.5314C11.7109 13.3519 11.25 14.4647 11.25 15.625C11.25 16.7853 11.7109 17.8981 12.5314 18.7186C13.3519 19.5391 14.4647 20 15.625 20ZM16.25 13.75V15H17.5C17.6658 15 17.8247 15.0658 17.9419 15.1831C18.0592 15.3003 18.125 15.4592 18.125 15.625C18.125 15.7908 18.0592 15.9497 17.9419 16.0669C17.8247 16.1842 17.6658 16.25 17.5 16.25H16.25V17.5C16.25 17.6658 16.1842 17.8247 16.0669 17.9419C15.9497 18.0592 15.7908 18.125 15.625 18.125C15.4592 18.125 15.3003 18.0592 15.1831 17.9419C15.0658 17.8247 15 17.6658 15 17.5V16.25H13.75C13.5842 16.25 13.4253 16.1842 13.3081 16.0669C13.1908 15.9497 13.125 15.7908 13.125 15.625C13.125 15.4592 13.1908 15.3003 13.3081 15.1831C13.4253 15.0658 13.5842 15 13.75 15H15V13.75C15 13.5842 15.0658 13.4253 15.1831 13.3081C15.3003 13.1908 15.4592 13.125 15.625 13.125C15.7908 13.125 15.9497 13.1908 16.0669 13.3081C16.1842 13.4253 16.25 13.5842 16.25 13.75Z" fill="black" fill-opacity="0.5"/>
<path d="M2.5 1.25C2.5 0.918479 2.6317 0.600537 2.86612 0.366117C3.10054 0.131696 3.41848 0 3.75 0L16.25 0C16.5815 0 16.8995 0.131696 17.1339 0.366117C17.3683 0.600537 17.5 0.918479 17.5 1.25V9.375C17.5 9.54076 17.4342 9.69973 17.3169 9.81694C17.1997 9.93415 17.0408 10 16.875 10C16.7092 10 16.5503 9.93415 16.4331 9.81694C16.3158 9.69973 16.25 9.54076 16.25 9.375V1.25H3.75V18.75H7.5V15.625C7.5 15.4592 7.56585 15.3003 7.68306 15.1831C7.80027 15.0658 7.95924 15 8.125 15H10V20H3.75C3.41848 20 3.10054 19.8683 2.86612 19.6339C2.6317 19.3995 2.5 19.0815 2.5 18.75V1.25Z" fill="black" fill-opacity="0.5"/>
<path d="M5.625 2.5C5.45924 2.5 5.30027 2.56585 5.18306 2.68306C5.06585 2.80027 5 2.95924 5 3.125V4.375C5 4.54076 5.06585 4.69973 5.18306 4.81694C5.30027 4.93415 5.45924 5 5.625 5H6.875C7.04076 5 7.19973 4.93415 7.31694 4.81694C7.43415 4.69973 7.5 4.54076 7.5 4.375V3.125C7.5 2.95924 7.43415 2.80027 7.31694 2.68306C7.19973 2.56585 7.04076 2.5 6.875 2.5H5.625ZM9.375 2.5C9.20924 2.5 9.05027 2.56585 8.93306 2.68306C8.81585 2.80027 8.75 2.95924 8.75 3.125V4.375C8.75 4.54076 8.81585 4.69973 8.93306 4.81694C9.05027 4.93415 9.20924 5 9.375 5H10.625C10.7908 5 10.9497 4.93415 11.0669 4.81694C11.1842 4.69973 11.25 4.54076 11.25 4.375V3.125C11.25 2.95924 11.1842 2.80027 11.0669 2.68306C10.9497 2.56585 10.7908 2.5 10.625 2.5H9.375ZM13.125 2.5C12.9592 2.5 12.8003 2.56585 12.6831 2.68306C12.5658 2.80027 12.5 2.95924 12.5 3.125V4.375C12.5 4.54076 12.5658 4.69973 12.6831 4.81694C12.8003 4.93415 12.9592 5 13.125 5H14.375C14.5408 5 14.6997 4.93415 14.8169 4.81694C14.9342 4.69973 15 4.54076 15 4.375V3.125C15 2.95924 14.9342 2.80027 14.8169 2.68306C14.6997 2.56585 14.5408 2.5 14.375 2.5H13.125ZM5.625 6.25C5.45924 6.25 5.30027 6.31585 5.18306 6.43306C5.06585 6.55027 5 6.70924 5 6.875V8.125C5 8.29076 5.06585 8.44973 5.18306 8.56694C5.30027 8.68415 5.45924 8.75 5.625 8.75H6.875C7.04076 8.75 7.19973 8.68415 7.31694 8.56694C7.43415 8.44973 7.5 8.29076 7.5 8.125V6.875C7.5 6.70924 7.43415 6.55027 7.31694 6.43306C7.19973 6.31585 7.04076 6.25 6.875 6.25H5.625ZM9.375 6.25C9.20924 6.25 9.05027 6.31585 8.93306 6.43306C8.81585 6.55027 8.75 6.70924 8.75 6.875V8.125C8.75 8.29076 8.81585 8.44973 8.93306 8.56694C9.05027 8.68415 9.20924 8.75 9.375 8.75H10.625C10.7908 8.75 10.9497 8.68415 11.0669 8.56694C11.1842 8.44973 11.25 8.29076 11.25 8.125V6.875C11.25 6.70924 11.1842 6.55027 11.0669 6.43306C10.9497 6.31585 10.7908 6.25 10.625 6.25H9.375ZM13.125 6.25C12.9592 6.25 12.8003 6.31585 12.6831 6.43306C12.5658 6.55027 12.5 6.70924 12.5 6.875V8.125C12.5 8.29076 12.5658 8.44973 12.6831 8.56694C12.8003 8.68415 12.9592 8.75 13.125 8.75H14.375C14.5408 8.75 14.6997 8.68415 14.8169 8.56694C14.9342 8.44973 15 8.29076 15 8.125V6.875C15 6.70924 14.9342 6.55027 14.8169 6.43306C14.6997 6.31585 14.5408 6.25 14.375 6.25H13.125ZM5.625 10C5.45924 10 5.30027 10.0658 5.18306 10.1831C5.06585 10.3003 5 10.4592 5 10.625V11.875C5 12.0408 5.06585 12.1997 5.18306 12.3169C5.30027 12.4342 5.45924 12.5 5.625 12.5H6.875C7.04076 12.5 7.19973 12.4342 7.31694 12.3169C7.43415 12.1997 7.5 12.0408 7.5 11.875V10.625C7.5 10.4592 7.43415 10.3003 7.31694 10.1831C7.19973 10.0658 7.04076 10 6.875 10H5.625ZM9.375 10C9.20924 10 9.05027 10.0658 8.93306 10.1831C8.81585 10.3003 8.75 10.4592 8.75 10.625V11.875C8.75 12.0408 8.81585 12.1997 8.93306 12.3169C9.05027 12.4342 9.20924 12.5 9.375 12.5H10.625C10.7908 12.5 10.9497 12.4342 11.0669 12.3169C11.1842 12.1997 11.25 12.0408 11.25 11.875V10.625C11.25 10.4592 11.1842 10.3003 11.0669 10.1831C10.9497 10.0658 10.7908 10 10.625 10H9.375Z" fill="black" fill-opacity="0.5"/>
</svg>
