<svg width="106" height="98" viewBox="0 0 106 98" fill="none" xmlns="http://www.w3.org/2000/svg">
<path fill-rule="evenodd" clip-rule="evenodd" d="M8.01539 46.9075C8.01539 46.9075 3.56954 43.1096 9.80677 29.9967C16.044 16.8837 28.6756 19.7579 36.7496 14.6001C48.6793 6.97918 43.7896 1.01527 58.665 0.0539436C77.3943 -1.15644 78.455 18.4034 87.8254 18.4034C88.4417 18.4034 103.033 12.5403 105.169 28.5909C106.245 36.6741 87.8254 49.0004 87.8254 49.0004C87.8254 49.0004 80.1595 55.9491 79.7385 59.3803C77.9729 73.7704 81.6548 90.2519 40.3943 97.8394C35.058 98.8207 26.1973 95.2712 21.3089 88.7143C17.4791 83.5775 2.11646 87.222 0.682399 70.3337C-0.0403967 61.8217 8.01539 46.9075 8.01539 46.9075Z" fill="#1173AB"/>
<path d="M35.5373 35.4982C35.6764 35.4161 35.8558 35.4624 35.9379 35.6015L36.269 36.1602C37.5841 38.3665 38.1101 39.083 38.6691 39.4068C39.1286 39.6731 39.6036 39.5904 40.4733 39.0804L40.5895 39.0107C41.1364 38.6698 43.6392 36.9506 44.6068 36.3332C44.743 36.2463 44.9239 36.2863 45.0108 36.4225C45.0977 36.5587 45.0577 36.7396 44.9215 36.8265L44.7725 36.9223C43.6942 37.6214 41.2718 39.285 40.843 39.5414C39.7901 40.171 39.1075 40.3125 38.4235 39.9399L38.3758 39.9131C37.6409 39.4873 37.0692 38.6705 35.434 35.8988C35.3519 35.7597 35.3981 35.5803 35.5373 35.4982Z" fill="white"/>
<path d="M40.2748 38.8796C40.435 38.8582 40.5822 38.9706 40.6036 39.1308C40.7032 39.8749 40.9419 40.6211 41.3207 41.3702C41.3937 41.5143 41.3359 41.6903 41.1917 41.7633C41.0476 41.8362 40.8716 41.7784 40.7986 41.6342C40.391 40.8282 40.1323 40.0193 40.0237 39.2084C40.0023 39.0483 40.1147 38.9011 40.2748 38.8796Z" fill="white"/>
<path fill-rule="evenodd" clip-rule="evenodd" d="M74.3557 56.7474C74.3084 56.8669 74.205 57.0322 74.0849 57.1887L74.1884 57.296L74.3085 57.4239L74.3351 57.4495C74.3468 57.4598 74.3559 57.4661 74.3625 57.4678C74.4014 57.4734 74.4284 57.5092 74.4231 57.5483C74.4175 57.5865 74.3819 57.6141 74.3432 57.6085C74.308 57.6077 74.1803 57.5578 74.0282 57.4342C74.0006 57.4119 73.9732 57.386 73.9453 57.3577C73.8575 57.4556 73.7688 57.5398 73.6922 57.592C73.5795 57.6698 73.4819 57.676 73.4353 57.6445C73.3894 57.6138 73.3455 57.5108 73.42 57.3026C73.4317 57.2649 73.4719 57.245 73.5092 57.2568C73.5463 57.2686 73.5668 57.3083 73.5551 57.3459C73.5438 57.3845 73.5422 57.4198 73.5421 57.4481L73.5853 57.4186C73.6006 57.4076 73.6163 57.3953 73.6306 57.3809C73.6829 57.3294 73.7412 57.2669 73.7999 57.1992C73.7071 57.0913 73.6124 56.9646 73.5358 56.8184C73.4985 56.7471 73.4687 56.6714 73.4405 56.5918C73.4209 56.5474 73.4411 56.4952 73.4857 56.4755C73.5303 56.4559 73.5824 56.4762 73.602 56.5207C73.6872 56.6992 73.7961 56.8531 73.9036 56.9849L73.9394 57.0279C74.0373 56.8998 74.1215 56.7702 74.1596 56.6714C74.1808 56.6176 74.2418 56.5908 74.2957 56.6114C74.3502 56.6329 74.3769 56.6937 74.3557 56.7474Z" fill="white"/>
<path fill-rule="evenodd" clip-rule="evenodd" d="M30.8274 19.842L30.6491 19.8097C29.6533 19.6246 28.8899 19.3974 27.4637 18.9029C27.3002 18.8462 27.2135 18.6676 27.2703 18.5041C27.327 18.3405 27.5055 18.2539 27.6691 18.3106L28.0245 18.4329C29.2756 18.8599 29.9775 19.0556 30.9362 19.2247C34.1621 19.7935 36.5774 18.1373 36.7751 14.9787C36.7859 14.8059 36.9347 14.6747 37.1075 14.6855C37.2802 14.6963 37.4115 14.8451 37.4007 15.0179C37.1784 18.5702 34.4039 20.4727 30.8274 19.842Z" fill="#00160A"/>
<path fill-rule="evenodd" clip-rule="evenodd" d="M38.8879 23.2247L39.0679 23.6246L39.4782 23.7424C39.5004 23.7488 39.5132 23.7719 39.5068 23.7941C39.5048 23.8009 39.5012 23.8072 39.4961 23.8122L39.1844 24.1225L39.2019 24.5691C39.2028 24.5922 39.1848 24.6116 39.1617 24.6125C39.1539 24.6128 39.1462 24.6109 39.1394 24.6071L38.7865 24.4061C38.7755 24.3998 38.7622 24.3989 38.7504 24.4036L38.3729 24.5535C38.3515 24.562 38.3272 24.5515 38.3187 24.5301C38.3158 24.5228 38.315 24.5149 38.3164 24.5072L38.3958 24.0674L38.1303 23.7167C38.1164 23.6983 38.12 23.6721 38.1384 23.6581C38.1441 23.6538 38.1508 23.6511 38.1578 23.6501L38.5805 23.5906L38.8144 23.2195C38.8267 23.2 38.8525 23.1941 38.8721 23.2065C38.879 23.2108 38.8845 23.2172 38.8879 23.2247Z" fill="#00160A"/>
<path d="M80.1178 13.1717C80.279 13.1602 80.419 13.2815 80.4305 13.4426C80.442 13.6038 80.3206 13.7437 80.1595 13.7552C79.0051 13.8376 78.0985 14.2849 77.6957 15.3915C77.6715 15.4581 77.6514 15.5224 77.6351 15.5835L77.6242 15.6255L77.6419 15.5887C78.149 14.5532 79.127 13.8338 80.2604 13.6512L80.3346 13.6401C80.4946 13.6177 80.6424 13.7293 80.6647 13.8893C80.6871 14.0494 80.5755 14.1972 80.4155 14.2195C79.3625 14.3665 78.4619 15.0663 78.0689 16.07L78.0435 16.1373C77.8568 16.6503 77.4086 16.8963 77.1201 16.4573C76.9442 16.1895 76.9557 15.7139 77.1459 15.1914C77.6283 13.866 78.7353 13.2703 80.1178 13.1717Z" fill="white"/>
<path d="M78.7853 10.9923C78.9465 10.9808 79.0864 11.1021 79.0979 11.2633C79.1094 11.4244 78.9881 11.5644 78.8269 11.5759C76.9907 11.7069 75.3805 12.8994 74.7398 14.6597C74.5499 15.1815 74.5145 15.6276 74.5825 15.8535L74.5908 15.8787L74.6038 15.8601C74.6365 15.8105 74.6732 15.7394 74.7093 15.6471L74.7247 15.6063C75.4014 13.747 77.0422 12.4448 78.9667 12.1762C79.1267 12.1539 79.2745 12.2655 79.2969 12.4255C79.3192 12.5855 79.2076 12.7333 79.0476 12.7557C77.3641 12.9907 75.9251 14.1142 75.3053 15.7241L75.2745 15.8064C75.0236 16.4959 74.4808 16.7937 74.1339 16.2658C73.8962 15.904 73.9129 15.221 74.19 14.4596C74.9103 12.4805 76.7209 11.1396 78.7853 10.9923Z" fill="white"/>
<path d="M76.9897 8.08633C77.1508 8.07483 77.2908 8.19615 77.3023 8.35731C77.3138 8.51846 77.1924 8.65842 77.0313 8.66992C74.4122 8.85677 72.1156 10.5577 71.2018 13.0683C70.8908 13.9227 70.8649 14.6469 71.0347 14.9479L71.0502 14.9734C71.0754 15.0117 71.0669 15.0128 71.0734 15.0075L71.0773 15.0049C71.1633 14.9577 71.277 14.7968 71.3808 14.5299L71.4014 14.4751C72.3347 11.9108 74.5975 10.1151 77.2517 9.74459C77.4117 9.72225 77.5595 9.83386 77.5819 9.99388C77.6042 10.1539 77.4926 10.3017 77.3326 10.324C74.9225 10.6605 72.8638 12.2738 71.9852 14.5837L71.9512 14.6752C71.6265 15.5673 70.9753 15.9247 70.5613 15.2947C70.2526 14.825 70.2751 13.9039 70.652 12.8682C71.6455 10.1387 74.1424 8.28946 76.9897 8.08633Z" fill="white"/>
<path d="M73.7839 5.35533C73.9425 5.32428 74.0962 5.42764 74.1272 5.58619C74.1583 5.74474 74.0549 5.89845 73.8964 5.9295C71.5254 6.39384 69.6186 8.20481 69.0656 10.6002C68.8784 11.4109 68.935 12.0701 69.1187 12.3216L69.1431 12.3531L69.145 12.3575L69.1484 12.3549C69.2142 12.2955 69.2911 12.1439 69.3507 11.9088L69.3632 11.8572C69.932 9.39357 71.8102 7.48657 74.2093 6.84615C74.3654 6.80448 74.5257 6.89724 74.5674 7.05334C74.6091 7.20944 74.5163 7.36976 74.3602 7.41143C72.1988 7.98841 70.5006 9.6901 69.9556 11.8953L69.9333 11.9888C69.7327 12.8577 69.1567 13.2725 68.6901 12.7225C68.3489 12.3202 68.2651 11.4666 68.4955 10.4686C69.1009 7.8463 71.1884 5.86364 73.7839 5.35533Z" fill="white"/>
<path d="M41.3555 41.4347L41.5244 41.3732C43.1205 40.8005 44.4672 40.5477 44.8093 40.8958C45.1093 41.201 45.3766 41.7538 45.6301 42.5646C45.6783 42.7188 45.5923 42.8828 45.4381 42.931C45.2839 42.9792 45.1198 42.8933 45.0716 42.7391C44.8525 42.0379 44.6288 41.566 44.4173 41.3328L44.4086 41.3236L44.4011 41.324C44.361 41.3158 44.301 41.3117 44.2245 41.3132C44.0559 41.3165 43.8255 41.3462 43.5503 41.4007C42.9842 41.5129 42.2686 41.7215 41.558 41.9836C40.3699 42.4219 39.3801 42.9368 38.8333 43.402C38.6326 43.5728 38.2661 43.0971 38.6188 42.8246C39.2533 42.3342 40.2158 41.8551 41.3555 41.4347Z" fill="white"/>
<path d="M40.5523 35.9082C40.5523 36.884 41.5842 37.9405 41.8038 38.0006C41.9596 38.0433 39.2748 39.7926 39.2748 39.7926C38.3047 39.9202 37.7351 39.1003 37.7351 37.8787C37.7351 37.7171 40.5523 35.7466 40.5523 35.9082Z" fill="white"/>
<path fill-rule="evenodd" clip-rule="evenodd" d="M37.3865 36.421C37.7264 36.3549 37.9572 36.0718 37.9022 35.7886C37.8471 35.5054 37.527 35.3294 37.1872 35.3954C36.8473 35.4615 36.6164 35.7446 36.6715 36.0278C36.7265 36.311 37.0467 36.4871 37.3865 36.421Z" fill="#FFB61D"/>
<path d="M72.0144 3.73315C72.1736 3.70542 72.3251 3.81198 72.3528 3.97115C72.3805 4.13031 72.274 4.28182 72.1148 4.30954C71.3578 4.4414 70.5944 4.89961 69.8074 5.62843C68.7853 6.5748 68.1103 7.88248 67.7381 9.62602C67.4382 11.0307 67.715 12.786 68.4988 14.329C69.3905 16.0845 70.9682 16.5184 72.8076 16.8544C74.6959 17.1993 75.2178 16.9863 77.0021 16.3519L77.1664 16.2923C77.4102 16.1999 78.5504 15.7538 78.8245 15.6709C79.4014 15.4964 79.7949 15.511 80.0803 15.8151C80.1908 15.9329 80.1849 16.118 80.0671 16.2286C79.9567 16.3323 79.7871 16.3336 79.6752 16.2362L79.6536 16.2155C79.5694 16.1258 79.3954 16.1154 79.0451 16.2158L78.9939 16.2309C78.7302 16.3107 77.4937 16.7959 77.3336 16.8544C75.4064 17.5579 74.7527 17.8044 72.7025 17.4299C70.6708 17.0588 68.947 16.5033 67.9772 14.594C67.1343 12.9347 66.8372 11.0434 67.1659 9.50387C67.5631 7.64303 68.2988 6.22789 69.4098 5.19913C70.2795 4.39383 71.146 3.88441 72.0144 3.73315Z" fill="white"/>
<path d="M85.7764 27.0105C84.1087 26.9252 82.7954 28.2132 82.7817 29.9422C82.7701 31.399 83.5906 32.5985 84.7178 32.8309C85.1736 32.9249 86.0487 32.8119 86.6978 32.4479C87.6835 31.9193 88.4369 30.8325 88.5319 29.9066C88.6868 28.3981 87.4655 27.0968 85.7764 27.0105Z" fill="white"/>
<path d="M55.5566 26.7058C56.0893 27.7817 56.9164 30.2667 56.5587 30.2548C55.5648 30.2216 54.2353 28.6942 53.3052 26.6291L53.2319 26.463C52.4198 24.588 51.9336 23.4101 52.4982 23.1844C53.0823 22.9511 54.4571 24.4853 55.5566 26.7058Z" fill="white"/>
<path fill-rule="evenodd" clip-rule="evenodd" d="M52.4982 23.161C53.0823 22.9276 54.4773 24.3918 55.5768 26.6123C56.1095 27.6882 56.4708 28.7203 56.5652 29.4604C56.5652 29.4604 54.7662 25.6698 53.6689 24.2814C53.2474 23.7481 52.4982 23.161 52.4982 23.161Z" fill="#E7EAEE"/>
<path d="M52.1918 32.7074C52.2347 32.5516 52.3957 32.46 52.5515 32.5029C52.7072 32.5457 52.7988 32.7068 52.7559 32.8625C52.7008 33.0629 51.926 33.5885 50.2352 34.6308L49.168 35.2839C47.0612 36.5664 45.6555 37.3871 45.4797 37.3871C44.3165 37.3871 43.2683 36.2897 42.503 34.5583C41.8349 33.0465 41.4879 31.2469 41.6446 30.0676C41.6935 29.6996 42.9198 28.7467 44.8133 27.4702L45.0845 27.2884C46.7596 26.1725 48.1915 25.3448 48.7095 25.2403C48.8678 25.2084 49.0221 25.3109 49.0541 25.4692C49.0741 25.5683 44.4567 29.4603 44.0057 32.0436C43.7003 33.7926 44.8548 36.7738 45.4279 36.8008L45.4797 36.802C45.4331 36.802 45.448 36.7911 45.4535 36.7881L45.5063 36.7609C45.5451 36.7405 45.5912 36.7156 45.6444 36.6864L45.8878 36.5503C45.9809 36.4975 46.0847 36.4381 46.1982 36.3725L46.4885 36.2039C47.0428 35.8803 47.7345 35.4682 48.4399 35.0414L49.1108 34.6335C49.9267 34.135 50.6638 33.6754 51.2178 33.3184L51.5032 33.133C51.68 33.0171 51.8293 32.9167 51.9487 32.8336L51.9921 32.8032C52.0579 32.7568 52.1127 32.7168 52.1554 32.684C52.1554 32.684 52.2035 32.665 52.1918 32.7074Z" fill="white"/>
<path fill-rule="evenodd" clip-rule="evenodd" d="M52.7718 26.8694C52.0649 25.2998 51.7525 23.8614 51.9893 22.9905C51.5615 23.1264 51.0268 23.3707 50.496 23.6752C49.7904 24.08 49.2305 24.5324 49.2175 24.6306C49.0811 25.6573 49.6045 27.6546 50.4743 29.4352C51.4047 31.3399 52.5117 32.5633 53.3685 32.5633C53.4505 32.5633 53.6853 32.5149 53.9206 32.4327C54.2554 32.3157 54.569 32.1454 54.8259 31.9222C54.9536 31.8112 55.0858 31.6858 55.2239 31.5458L55.3903 31.3738C55.4884 31.27 55.5897 31.1583 55.7478 30.9813L55.9679 30.7354L55.9774 30.725C54.8751 30.3222 53.7223 28.9024 52.8599 27.0612L52.7718 26.8694ZM48.6375 24.5535C48.7285 23.8687 51.2926 22.3882 52.4628 22.2926C52.5118 22.2619 52.5641 22.2353 52.62 22.2129C53.6334 21.808 55.1775 23.5426 56.4162 25.9833L56.5011 26.1527C57.0602 27.2819 57.4416 28.3714 57.5455 29.1864C57.6697 30.1603 57.3877 30.8059 56.6484 30.839C56.6285 30.9158 56.5785 30.9799 56.512 31.0186L56.5006 31.0244L56.4718 31.0533C56.4428 31.083 56.4086 31.12 56.3559 31.1786L55.9925 31.5843C55.8605 31.7297 55.7671 31.8283 55.6404 31.9567C55.4924 32.1067 55.3495 32.2423 55.2096 32.3639C54.6433 32.8558 53.806 33.1484 53.3685 33.1484C53.1366 33.1484 52.9019 33.0944 52.6669 32.9914C52.4158 33.2534 51.643 33.763 50.2352 34.6308L49.168 35.2839C47.0612 36.5664 45.6555 37.3871 45.4797 37.3871C45.0813 37.3871 44.6964 37.2584 44.3318 37.0196C44.3284 37.0219 44.325 37.0242 44.3215 37.0265L44.1725 37.1223C43.6545 37.4582 42.8262 38.0166 42.0579 38.5347L42.0575 38.5349L42.057 38.5353L42.0568 38.5355L42.0087 38.5679C42.1082 39.2783 42.3344 39.9906 42.6883 40.7055C43.9448 40.3169 44.94 40.1857 45.2272 40.4779C45.5272 40.7831 45.7945 41.3359 46.048 42.1466C46.0962 42.3008 46.0102 42.4649 45.856 42.5131C45.7018 42.5613 45.5378 42.4754 45.4895 42.3212C45.2704 41.62 45.0467 41.1481 44.8352 40.9148L44.8265 40.9057L44.819 40.9061C44.7789 40.8979 44.7189 40.8938 44.6424 40.8953C44.4738 40.8985 44.2434 40.9282 43.9682 40.9828C43.4021 41.0949 42.6865 41.3036 41.9759 41.5657C40.3516 42.1649 39.0979 42.9074 38.8403 43.4701C38.7649 43.6347 38.7745 43.8757 38.8647 44.2448L38.8814 44.3112C38.895 44.3635 38.9091 44.4153 38.9276 44.4809L39.0333 44.8548L39.0474 44.9089C39.088 45.0653 38.9942 45.225 38.8378 45.2656C38.6814 45.3062 38.5217 45.2123 38.4811 45.0559L38.4292 44.8667L38.3427 44.5614C38.3328 44.5253 38.3239 44.4919 38.3151 44.4581C38.178 43.9295 38.156 43.5592 38.3083 43.2265C38.5666 42.6624 39.3746 42.0781 40.4997 41.5468L40.255 40.9146L40.1946 40.7548C40.1019 40.5055 39.9941 40.1676 39.928 39.921C39.049 40.3947 38.4368 40.4739 37.8235 40.1399L37.7758 40.1131C37.6545 40.0428 37.5376 39.9619 37.4197 39.8633L33.9911 41.9457L34.0877 42.1534C34.2415 42.4833 33.9702 42.7169 33.554 42.8987L33.5092 42.9178C33.1514 43.0659 32.8287 43.0999 32.6365 42.889C31.8392 42.0139 30.9952 39.9206 31.4493 39.4418C31.5364 39.3499 31.7666 39.213 32.2019 38.9847L32.2366 38.9667C32.2454 38.9605 32.2548 38.9548 32.2645 38.9495L35.4695 37.2131C35.4768 37.2091 35.4843 37.2055 35.4918 37.2022C35.2938 36.8749 35.0768 36.5104 34.8369 36.1039C34.8004 36.0449 34.7869 35.9759 34.7962 35.9096C34.802 35.8675 34.8171 35.8264 34.8412 35.7897C34.8545 35.7694 34.8704 35.7507 34.8888 35.7339C35.5476 35.109 36.4455 34.4575 37.5718 33.7559L37.7084 33.6713C38.1958 33.3707 39.1845 32.8068 40.0244 32.3278L40.0244 32.3278C40.6758 31.9562 41.2378 31.6357 41.4071 31.5287L41.448 31.5015C41.5092 31.4567 41.582 31.4392 41.6519 31.4467C41.5963 30.9393 41.5915 30.4678 41.6446 30.0677C41.6935 29.6996 42.9198 28.7468 44.8133 27.4702L45.0845 27.2885C46.6715 26.2312 48.0402 25.4327 48.6203 25.2628C48.6047 25.0008 48.6098 24.7622 48.6375 24.5535ZM48.6843 25.856C48.116 26.0638 46.6931 26.9086 45.1403 27.9554L44.8917 28.124C44.1929 28.6008 43.5474 29.0657 43.0598 29.4445L42.9243 29.5508C42.7067 29.7232 42.5306 29.8718 42.4029 29.991C42.3389 30.0508 42.2884 30.1019 42.2528 30.1426L42.2279 30.1719C42.2225 30.1776 42.2211 30.1754 42.2231 30.157L42.2246 30.1447C42.224 30.1494 42.2235 30.1535 42.2231 30.157L42.2153 30.2198C41.9341 32.6886 43.7192 36.7204 45.4279 36.8008L45.4681 36.8018C45.4715 36.8019 45.4753 36.802 45.4797 36.802L45.4681 36.8018C45.4359 36.8001 45.4486 36.7909 45.4535 36.7881L45.5063 36.7609C45.5451 36.7405 45.5912 36.7156 45.6444 36.6865L45.8878 36.5503C45.9809 36.4975 46.0847 36.4381 46.1982 36.3725L46.4885 36.2039C47.0428 35.8803 47.7345 35.4682 48.4399 35.0414L49.1108 34.6335C49.9267 34.135 50.6638 33.6754 51.2178 33.3185L51.5032 33.133C51.68 33.0171 51.8293 32.9168 51.9487 32.8336L51.9921 32.8032C52.0553 32.7586 52.1083 32.72 52.1502 32.688C51.3967 32.1351 50.6547 31.1138 49.996 29.7882L49.9486 29.692C49.3138 28.3925 48.8547 26.9852 48.6843 25.856ZM41.7327 32.0139C41.5216 32.1467 40.899 32.5022 40.2063 32.8978L40.2061 32.8979L40.206 32.8979C39.3851 33.3667 38.4656 33.8917 38.0154 34.1693C36.9522 34.8248 36.0947 35.4324 35.4582 36.0045L35.669 36.3602C36.5916 37.908 37.1258 38.7226 37.5555 39.1828C37.4128 38.8442 37.3388 38.4144 37.3388 37.8755C37.3388 37.8507 37.3419 37.8266 37.3477 37.8036C37.3193 37.6915 37.3593 37.5684 37.4582 37.4958L37.6575 37.3477C37.7768 37.2575 37.9731 37.1075 38.1962 36.937L38.1964 36.9369L38.1965 36.9368L38.1972 36.9363L38.1972 36.9362L38.1974 36.9361L38.198 36.9357C38.6871 36.5618 39.3048 36.0898 39.5253 35.9319C40.219 35.435 40.7304 35.1561 41.196 35.0593C41.4184 35.0131 41.5912 35.1447 41.6413 35.3484L41.6495 35.3855C41.6611 35.4462 41.6633 35.5058 41.663 35.6361L41.6628 35.6774C41.6604 36.1642 41.7087 36.4451 41.9148 36.7696C42.0559 36.9916 42.2632 37.1942 42.5521 37.3757C42.5823 37.3947 42.6078 37.4183 42.6284 37.445C43.0943 37.1321 43.5308 36.8411 43.8528 36.6324C43.3454 36.1412 42.8884 35.4302 42.503 34.5583C42.1441 33.7463 41.8779 32.8512 41.7327 32.0139ZM56.9652 29.2604C56.8708 28.5203 56.5095 27.4882 55.9768 26.4123C54.8773 24.1918 53.4212 22.5228 52.8371 22.7562C52.2724 22.9819 52.4198 24.5881 53.2319 26.463L53.3052 26.6291C54.2353 28.6942 55.5648 30.2216 56.5587 30.2548C56.9164 30.2667 57.0562 29.9745 56.9652 29.2604ZM35.7941 37.6968C36.3016 38.5173 36.6723 39.0594 36.9954 39.4365L33.745 41.4107C33.4121 40.6807 33.1143 40.0013 32.8252 39.3111L35.7482 37.7275C35.7647 37.7186 35.78 37.7083 35.7941 37.6968ZM42.1273 40.89C41.8119 40.2377 41.594 39.5835 41.4743 38.928C41.0542 39.2106 40.6888 39.4553 40.4538 39.608C40.494 39.8098 40.6436 40.2889 40.7725 40.6295L41.0126 41.2475L41.0354 41.3078C41.2714 41.2082 41.518 41.111 41.7734 41.0168L41.9423 40.9553C42.0044 40.933 42.066 40.9113 42.1273 40.89ZM42.1168 37.7893C41.8172 37.5815 41.5874 37.3452 41.421 37.0833C41.1516 36.6593 41.0809 36.2972 41.0778 35.7502L41.0776 35.7013L41.0363 35.7167C40.7396 35.8319 40.3857 36.0402 39.9409 36.3542L39.866 36.4076C39.6542 36.5592 39.0516 37.0197 38.5655 37.3912C38.2952 37.5977 38.061 37.7767 37.95 37.8598L37.9239 37.8791C37.9245 38.8524 38.1674 39.299 38.6192 39.5156L38.6554 39.5322C38.7631 39.5799 38.8399 39.6038 39.0595 39.664L39.0672 39.6662L39.0724 39.6678C39.3003 39.5912 39.5614 39.4633 39.8733 39.2804L39.9895 39.2107C40.247 39.0501 40.9383 38.5839 41.6987 38.0711L41.6988 38.071L42.1168 37.7893ZM32.3082 39.591L32.353 39.6977C32.6637 40.4344 32.9866 41.1639 33.353 41.9596L33.4955 42.2683C33.4488 42.2997 33.3874 42.333 33.3199 42.3625C33.2229 42.4049 33.1244 42.4346 33.0504 42.4446L33.0268 42.4469L32.9912 42.4043C32.7143 42.0633 32.3928 41.484 32.1606 40.908C32.0369 40.6012 31.9488 40.3197 31.9091 40.1035C31.8929 40.0154 31.8854 39.9414 31.886 39.8853L31.8877 39.8483C31.8883 39.8393 31.8883 39.8346 31.8861 39.834L31.8949 39.8281C31.9443 39.7939 32.0707 39.72 32.2584 39.618L32.3082 39.591ZM36.3436 38.9465C36.2305 38.8311 36.0452 38.8293 35.9299 38.9425C35.727 39.1415 35.4427 39.3268 34.9462 39.6025L34.4409 39.8829C34.3074 39.959 34.198 40.0246 34.099 40.0888C34.0163 40.1424 33.9424 40.1942 33.8759 40.2456C33.7481 40.3444 33.7245 40.5281 33.8233 40.6559C33.9221 40.7838 34.1058 40.8073 34.2337 40.7085C34.2864 40.6678 34.3474 40.625 34.4174 40.5796C34.4821 40.5377 34.5531 40.4942 34.6353 40.4462L34.7964 40.354L35.3097 40.0696C35.8029 39.7928 36.1 39.5952 36.3396 39.3601C36.455 39.247 36.4567 39.0618 36.3436 38.9465Z" fill="#00160A"/>
<path d="M29.8 68.6541C31.2629 76.8103 36.7458 82.9418 43.7424 84.3874C45.0267 84.6527 47.2505 84.6877 49.5534 84.3896C52.5204 84.0056 55.4079 83.1248 57.9474 81.6972C64.9235 77.9478 70.2171 70.2959 70.9032 63.5973C71.5059 57.7134 69.258 52.2778 65.1887 48.4C65.1887 48.4 52.4056 54.6787 46.1306 58.2474C40.6702 61.3528 29.8 68.6541 29.8 68.6541Z" fill="white"/>
<path d="M59.5701 44.3316C56.948 43.0379 53.6629 42.016 50.4416 41.8513C38.6271 41.2472 29.3352 50.6854 29.2383 62.859C29.2383 62.859 42.4245 54.4599 49.275 50.4076C52.6832 48.3915 59.5701 44.3316 59.5701 44.3316Z" fill="white"/>
<path fill-rule="evenodd" clip-rule="evenodd" d="M83.871 38.1274C83.8312 40.1613 81.679 43.5466 78.2193 47.3774C75.7131 50.1524 72.7968 52.8348 70.3516 54.6423L70.1994 54.7538L70.3004 55.203C70.8951 57.8091 71.6713 60.642 71.378 63.499C70.6662 70.4331 65.2424 78.2562 58.075 82.0999C55.461 83.5664 52.4896 84.4708 49.4417 84.8644L49.1511 84.9003C46.8784 85.168 44.7037 85.1236 43.3746 84.8496C38.2161 83.7861 33.8487 80.1801 31.2082 74.9611C31.1994 74.9436 31.1924 74.9256 31.1873 74.9073C30.8397 75.1056 30.372 75.3272 30.1584 75.3997L29.5732 75.5975C23.2667 77.7185 17.0146 79.4933 14.4605 78.3857C13.4882 77.964 13.1559 77.1531 13.5625 76.0637C13.9577 75.0049 15.0534 73.6406 16.8917 71.9428L16.9927 71.8498C18.7346 70.253 22.603 67.3352 28.5977 63.0963L28.5993 63.0185C28.8917 50.4581 38.6482 40.8829 50.9118 41.6646C54.6628 41.9037 57.6501 43.2366 59.142 44.0552L59.7982 43.7031C65.9522 40.4125 70.89 38.0995 74.6575 36.715C80.8532 34.4382 83.9173 35.5027 83.871 38.1274ZM74.8593 38.0642C67.9313 40.61 56.9823 46.3358 41.7381 55.5461L41.2748 55.8262C29.4045 63.012 21.5443 68.4711 17.388 72.2811L17.1832 72.4703L16.989 72.6524C13.869 75.6002 13.316 77.2516 14.6933 77.8489C17.0511 78.8714 23.3829 77.1476 29.5836 75.1138L30.1584 74.9243C30.7114 74.741 31.0781 74.6359 31.3051 74.5873C31.315 74.5802 31.3258 74.5738 31.3372 74.568C31.4148 74.5288 31.5016 74.5273 31.5765 74.5569C31.5928 74.5599 31.6034 74.565 31.6089 74.5721C31.6594 74.5994 31.7024 74.6418 31.7303 74.697C34.2936 79.7633 38.5173 82.8508 43.4928 83.8765C44.7843 84.1428 46.9633 84.1818 49.2306 83.9014L49.3667 83.8842C52.3445 83.4996 55.2447 83.0168 57.7937 81.587C64.7976 77.8308 70.1044 70.1766 70.796 63.4392C71.0916 60.5598 70.7144 57.7334 69.7115 55.1027C69.6288 55.1607 69.5467 55.2174 69.4652 55.273C69.3113 55.3779 69.3687 55.2079 69.6376 54.7629C69.6519 54.7048 69.6839 54.6519 69.7299 54.6122L69.8127 54.481C69.8417 54.4353 69.8722 54.3878 69.9042 54.3383L70.2509 54.0458C73.5188 51.2819 76.0302 48.9283 77.785 46.9853L77.9854 46.7623C81.2323 43.1288 83.2505 39.9193 83.2838 38.1166C83.3204 36.139 80.7113 35.9137 74.8593 38.0642ZM45.4835 75.0603C46.2685 77.4593 45.081 79.0022 42.9908 79.082C41.0594 79.1557 39.3006 77.9386 39.3903 76.2093C39.4678 74.7146 40.4912 73.1167 41.7511 72.53C43.2749 71.8203 44.7051 72.6812 45.4835 75.0603ZM42.0599 73.1929C41.0516 73.6625 40.1844 75.0164 40.1206 76.2471C40.0571 77.4728 41.412 78.4103 42.9629 78.3512C44.5843 78.2893 45.4167 77.2077 44.7884 75.2877C44.1343 73.2887 43.1398 72.69 42.0599 73.1929ZM61.4422 70.1718C62.4438 72.0643 62.1816 73.9234 60.6416 74.7567L60.5984 74.7794L60.5761 74.8018C58.5109 76.8467 55.9311 77.0948 54.2487 75.6126L54.191 75.5608C52.2531 73.7855 52.7148 70.7356 55.7985 68.3447C57.783 66.806 60.2071 67.8378 61.4422 70.1718ZM56.1826 68.8401C53.3831 71.0106 52.9896 73.61 54.6145 75.0985C55.7799 76.1661 57.5018 76.2251 59.11 75.1889L59.1414 75.1681L59.1297 75.1657C59.0183 75.1362 58.929 75.0464 58.9036 74.9293L58.8986 74.8995C58.8783 74.7276 59.0011 74.5717 59.173 74.5514C59.5662 74.5047 59.9074 74.4098 60.1968 74.2739L60.2363 74.2547L60.2843 74.2051C60.473 74.0065 60.6572 73.7904 60.8358 73.5566L60.8951 73.4781C60.9621 73.3883 61.068 73.3447 61.1719 73.3531L61.18 73.3539L61.1842 73.3461C61.5597 72.6039 61.4707 71.5983 60.9211 70.528L60.8882 70.465C59.8141 68.4354 57.8066 67.5809 56.1826 68.8401ZM74.8245 46.3449C74.6635 46.9173 74.1731 47.7027 73.4216 48.6328C72.1114 50.2543 70.1432 52.1415 68.4228 53.432L68.8044 53.0123C68.8007 53.0089 68.7975 53.0045 68.7947 52.9994L68.663 52.7575C67.8021 51.1861 66.843 49.636 65.293 48.3724C61.2807 50.0267 56.6803 52.2879 52.4889 54.6523L51.1151 55.4289C40.998 61.1599 35.6752 64.5909 29.9833 68.8088C30.1981 69.7763 30.4688 70.7205 30.793 71.6352C30.8439 71.7788 30.1792 72.316 30.0575 72.2497C28.922 73.0105 27.1439 73.5631 26.1316 73.5918C25.1451 73.6198 24.5751 73.2205 24.8687 72.4242C25.1144 71.758 26.0396 70.8079 27.7048 69.5347L27.8947 69.3906L28.2785 69.1022C34.5455 64.4103 40.7497 60.6028 52.2015 54.1427L52.6807 53.8738C60.5351 49.4895 69.6306 45.5396 73.7966 45.1752C74.6529 45.1002 75.0414 45.5741 74.8245 46.3449ZM29.2212 69.3764L27.9081 70.3672C26.7368 71.2554 25.8923 71.9123 25.4361 72.3337L25.4026 72.3648C24.8458 72.8871 25.4761 73.0251 26.115 73.007C27.0829 72.9796 28.5656 72.2456 29.8207 71.5776C29.5887 70.8591 29.3886 70.1244 29.2212 69.3764ZM49.7599 66.2C49.9165 66.2397 50.0112 66.3989 49.9714 66.5555C49.9317 66.7121 49.7725 66.8068 49.6159 66.767C48.8292 66.5673 48.3645 66.644 48.2138 66.8558C48.1138 66.9964 48.1692 67.236 48.3562 67.389C48.5023 67.5086 48.6969 67.5657 48.8309 67.5366C48.9473 67.5112 49.0125 67.4214 49.0125 67.1968C49.0125 67.0352 49.1435 66.9043 49.3051 66.9043C49.4666 66.9043 49.5976 67.0352 49.5976 67.1968C49.5976 67.6853 49.3532 68.0216 48.9553 68.1082C48.6354 68.1779 48.2627 68.0684 47.9857 67.8419C47.5768 67.5073 47.4432 66.9296 47.7371 66.5166C48.0592 66.0639 48.7652 65.9474 49.7599 66.2ZM36.9095 65.126C37.3607 65.2612 37.555 65.6076 37.6163 66.1273L37.6224 66.1837L37.6298 66.2692C37.6308 66.2834 37.6318 66.2981 37.6328 66.3137L37.6482 66.6106L37.6528 66.6775C37.6552 66.707 37.6578 66.7311 37.6608 66.7524L37.6686 66.7971L37.6733 66.8168L37.6815 66.824C37.7718 66.9124 37.7958 67.051 37.7374 67.1655L37.7224 67.1915C37.6349 67.3272 37.4538 67.3663 37.318 67.2787C37.1312 67.1582 37.0887 67.0342 37.0661 66.6783L37.0475 66.3301C37.0454 66.2986 37.0431 66.2714 37.0401 66.2406C37.0068 65.8998 36.9237 65.741 36.7416 65.6865C36.2306 65.5334 35.9374 65.6897 35.8445 66.0312C35.7618 66.3356 35.8815 66.6555 36.0911 66.7443L36.1442 66.764C36.2813 66.8226 36.3539 66.9769 36.3077 67.1218C36.2586 67.2757 36.094 67.3607 35.9401 67.3116C35.383 67.134 35.1183 66.4722 35.2799 65.8777C35.4603 65.2142 36.0877 64.8798 36.9095 65.126ZM58.0152 60.6466C58.8253 61.7855 58.6747 63.2346 57.375 63.8903C57.2307 63.9631 57.0548 63.9051 56.982 63.7609C56.9092 63.6167 56.9672 63.4407 57.1114 63.368C58.0525 62.8932 58.1599 61.8594 57.5385 60.9857C56.9347 60.1369 56.0944 60.0436 55.5169 60.9607C54.9046 61.933 54.9491 62.5037 55.3899 62.7607C55.7398 62.9648 56.3033 62.9219 56.4582 62.7551L56.4732 62.7368C56.5669 62.6052 56.7496 62.5744 56.8812 62.6681C57.0128 62.7618 57.0436 62.9445 56.9499 63.0761C56.6247 63.5329 55.6966 63.6169 55.0952 63.2662C54.3253 62.8172 54.2516 61.8721 55.0218 60.6489C55.8465 59.3393 57.1917 59.4887 58.0152 60.6466ZM45.8865 58.9691C46.0385 58.9691 46.1635 59.0851 46.1777 59.2335L46.179 59.2617C46.179 59.3132 46.2268 59.3707 46.3985 59.4967L46.561 59.6132C46.7381 59.7423 46.8235 59.8225 46.9041 59.95C47.0886 60.2417 47.1931 60.5386 47.1931 60.8877C47.1931 61.7818 45.85 62.9979 44.384 63.539C42.6265 64.1876 41.1866 63.7066 40.7948 61.9032C40.7605 61.7453 40.8607 61.5895 41.0185 61.5552C41.1764 61.5209 41.3322 61.6211 41.3665 61.779C41.6706 63.1785 42.7205 63.5293 44.1814 62.9901C45.4429 62.5245 46.6081 61.4696 46.6081 60.8877C46.6081 60.6627 46.5396 60.4682 46.4096 60.2627L46.392 60.238C46.3622 60.2005 46.3157 60.1597 46.2318 60.0975L46.0388 59.9585C45.7181 59.722 45.5939 59.5624 45.5939 59.2617C45.5939 59.1001 45.7249 58.9691 45.8865 58.9691ZM47.2597 42.7547L47.0749 42.7755C37.0925 43.976 29.6037 51.9602 29.1953 62.6744L30.2664 61.9208C33.3407 59.7628 36.9092 57.2978 40.9718 54.5257L41.7635 54.0473C44.1268 52.6214 46.3865 51.2796 48.5436 50.0208C48.5043 49.9518 48.4932 49.867 48.5199 49.7856C48.6707 49.3252 48.8101 49.0159 49.0655 48.706C49.8648 47.7364 50.9599 47.2628 51.7357 47.8716C51.8121 47.9315 51.8506 48.0219 51.8475 48.112L52.5366 47.7188C54.7068 46.4834 56.7603 45.3425 58.6984 44.2943L57.9414 44.079C56.8188 43.763 55.4222 43.3883 54.031 43.0998C54.0437 44.0255 53.3508 44.7647 52.1995 45.2732C51.2209 45.7054 49.9455 45.938 49.0387 45.8839C47.3423 45.7828 46.3875 44.2949 47.2597 42.7547ZM64.7707 55.459C65.4866 57.4149 64.8959 59.1934 63.1085 59.1818C60.5616 59.1652 58.0746 56.9415 58.4767 54.9493C58.6561 54.0606 59.3241 53.2744 60.4859 52.8821C62.3413 52.2555 64.042 53.4681 64.7707 55.459ZM60.6731 53.4364C59.713 53.7607 59.189 54.3772 59.0502 55.0651C58.7311 56.6462 60.8964 58.5823 63.1123 58.5968C64.3816 58.605 64.8181 57.2906 64.2213 55.6601C63.5898 53.9348 62.178 52.9282 60.6731 53.4364ZM39.1621 46.5111L39.183 46.5412L39.3238 46.7651C39.3927 46.8788 39.4545 46.9903 39.5133 47.1105C40.1612 48.4353 40.1445 50.1719 39.048 52.5824C38.5513 53.6745 37.2859 55.1421 36.1809 56.0179C34.7699 57.1362 33.7164 57.3902 32.459 57.2521L32.0859 57.2083L32.0404 57.2041C32.0154 57.2023 31.9995 57.2021 31.982 57.2027L31.9564 57.2038C31.9369 57.2047 31.9302 57.2037 31.929 57.2012L31.9289 57.1992L31.9196 57.2144C31.8348 57.336 31.6699 57.3761 31.5376 57.3024C31.3964 57.2239 31.3456 57.0458 31.4241 56.9046C31.5293 56.7155 31.705 56.63 31.9287 56.6194C31.9879 56.6166 32.0506 56.6186 32.1252 56.6248L32.2124 56.6333L32.4537 56.6625C33.5991 56.8015 34.5104 56.5953 35.8175 55.5594C36.8554 54.7367 38.0618 53.3376 38.5155 52.3402C39.5415 50.0844 39.5565 48.5305 38.9877 47.3676C38.9499 47.2902 38.9104 47.2166 38.8675 47.1427L38.8063 47.0404L38.6836 46.8464C38.5978 46.7095 38.6392 46.529 38.776 46.4432C38.9044 46.3627 39.0711 46.394 39.1621 46.5111ZM73.8476 45.758C71.9774 45.9216 69.0457 46.8454 65.666 48.2196L65.7648 48.307C66.7054 49.1509 68.6031 51.152 69.1971 52.5794L69.7888 51.9233C71.2487 50.2994 72.308 49.0801 72.9665 48.2651L73.0999 48.098C73.7292 47.2992 74.136 46.6318 74.2613 46.1865L74.2791 46.1189C74.3572 45.7974 74.2668 45.7213 73.8476 45.758ZM45.8364 46.7083C46.5644 47.0603 46.8599 47.8439 46.3809 48.5545C46.2906 48.6884 46.1088 48.7238 45.9748 48.6335C45.8409 48.5432 45.8055 48.3614 45.8958 48.2274C46.1593 47.8366 46.0107 47.4425 45.5817 47.235C45.13 47.0166 44.635 47.1422 44.3796 47.619C44.1442 48.0583 44.128 48.6531 44.316 49.0427C44.4809 49.3846 44.7211 49.4502 45.0874 49.1744C45.2165 49.0772 45.3999 49.1031 45.4971 49.2322C45.5943 49.3612 45.5684 49.5447 45.4393 49.6418C44.7717 50.1444 44.1108 49.964 43.789 49.2969C43.5192 48.7377 43.5407 47.9458 43.8638 47.3427C44.276 46.5734 45.1163 46.3602 45.8364 46.7083ZM49.517 49.0782C49.3806 49.2436 49.2831 49.4182 49.1928 49.6423C49.9467 49.2044 50.6877 48.7765 51.416 48.3588L51.3948 48.3465L51.3745 48.3319C50.9278 47.9813 50.1404 48.3219 49.517 49.0782ZM48.2694 42.6652L48.0136 42.6832L47.9965 42.7048C46.9852 43.9828 47.3747 45.0201 48.7557 45.1674C49.7476 45.2732 52.3807 44.5373 52.6895 44.2791C52.9903 44.0275 53.3708 43.449 53.4294 42.9803C52.5358 42.8123 51.6617 42.6888 50.8819 42.6489C50.0851 42.6082 49.2993 42.6091 48.5265 42.6501L48.2694 42.6652Z" fill="#00160A"/>
<path d="M74.6818 38.1367C80.8775 35.8599 80.7355 36.5354 74.8836 38.6859C67.9556 41.2317 41.8042 57.1839 41.8042 57.1839C29.9339 64.3696 29.0459 63.2604 40.5514 56.268L41.2606 55.8378C41.3942 55.757 54.4934 47.4896 63.8535 43.0666C64.9068 42.5688 73.9764 38.3959 74.6818 38.1367Z" fill="white"/>
<path fill-rule="evenodd" clip-rule="evenodd" d="M85.3798 26.8021C83.46 26.7039 81.9614 28.1958 81.9459 30.1478C81.9328 31.7833 82.8711 33.172 84.2155 33.4492C84.5697 33.5222 85.5913 33.5222 86.4774 33.0251L86.5508 32.9847C87.6681 32.352 88.4281 31.1484 88.5298 30.1583C88.71 28.4028 87.2997 26.9002 85.3798 26.8021ZM82.3638 30.1512L82.3643 30.1134C82.3762 30.1096 82.388 30.1046 82.3994 30.0984C83.9046 29.2876 84.8338 28.6697 85.2048 28.2235C85.4498 27.9289 85.5693 27.5967 85.5596 27.2356C85.8124 27.2636 86.0533 27.319 86.2791 27.3985C86.2778 27.4093 86.2773 27.4203 86.2777 27.4316C86.296 27.9512 86.1575 28.3665 85.8631 28.6899C85.5247 29.0615 85.1147 29.4152 84.6487 29.7487C84.1504 30.1053 83.6154 30.4201 83.0803 30.6897C82.9554 30.7525 82.8366 30.8099 82.7251 30.8616L82.5636 30.9348L82.4993 30.9631L82.4512 30.9833C82.392 30.7198 82.3615 30.4406 82.3638 30.1512ZM82.5687 31.3873C82.701 31.7542 82.8927 32.0795 83.13 32.3443L83.2548 32.2725C85.2191 31.1353 86.4385 30.2419 86.9001 29.6117C87.3667 28.9744 87.5331 28.4852 87.4287 28.1525C87.4262 28.1447 87.4242 28.1368 87.4227 28.1289C87.2171 27.9131 86.9724 27.7275 86.6966 27.5811C86.6848 28.1334 86.5102 28.5999 86.1721 28.9712C85.8123 29.3664 85.3805 29.7389 84.8919 30.0885C84.3745 30.4587 83.8214 30.7843 83.2683 31.0629C83.1069 31.1442 82.9551 31.2166 82.8153 31.28L82.6524 31.3521L82.5687 31.3873ZM84.133 32.9978C83.8862 32.9241 83.6564 32.803 83.4494 32.6427C85.4715 31.4731 86.7297 30.5516 87.2372 29.8586C87.5521 29.4287 87.7533 29.0421 87.8351 28.6971C87.9368 28.887 88.0139 29.0896 88.0633 29.3011C88.0527 29.3227 88.0457 29.3464 88.043 29.3717C87.9921 29.8602 87.7403 30.3451 87.2799 30.828C86.838 31.2914 85.8844 31.9601 84.4273 32.8246L84.133 32.9978ZM84.8394 33.0654C85.288 33.0369 85.8366 32.9054 86.2799 32.6568C87.1044 32.2146 87.7664 31.382 88.0165 30.5795C87.8956 30.7608 87.7508 30.9397 87.5823 31.1164C87.1286 31.5923 86.2167 32.2392 84.8394 33.0654ZM82.4853 29.576L82.411 29.6164C82.6481 28.2356 83.7514 27.2447 85.1406 27.2161C85.1553 27.4874 85.071 27.7308 84.8835 27.9563C84.5804 28.3209 83.7762 28.8665 82.4853 29.576Z" fill="#00160A"/>
<path fill-rule="evenodd" clip-rule="evenodd" d="M100.465 22.7979C100.504 22.8024 100.531 22.8377 100.527 22.8764C100.527 22.9334 100.49 22.9642 100.441 22.9843C100.396 23.0021 100.325 22.9953 100.284 23.0009C99.8312 23.0358 99.4756 22.7028 99.3191 22.2736C99.1688 21.8614 99.2087 21.3684 99.4817 21.0644C99.5131 21.0285 99.5675 21.0249 99.6033 21.0563C99.6391 21.0877 99.8427 21.1423 99.8113 21.1782C99.5863 21.4408 99.4341 21.6001 99.6463 22.2235C99.8586 22.8469 100.436 22.7946 100.465 22.7979Z" fill="#E7EAEE"/>
<path fill-rule="evenodd" clip-rule="evenodd" d="M28.414 27.2613C28.2951 27.1796 28.1325 27.2098 28.0508 27.3288C27.9692 27.4477 27.9994 27.6103 28.1183 27.6919C28.2489 27.7816 28.3644 27.8644 28.4663 27.9414C28.3565 28.0287 28.2469 28.1288 28.133 28.2426L27.902 28.4772C27.8005 28.5797 27.8012 28.7451 27.9036 28.8466C28.0061 28.9482 28.1715 28.9475 28.273 28.845L28.5502 28.5649C28.663 28.455 28.7687 28.3632 28.875 28.2868C29.1112 28.5209 29.1831 28.6926 29.1869 28.8633L29.1869 28.9071L29.1883 28.9338C29.2017 29.0655 29.3129 29.1683 29.4481 29.1683C29.5924 29.1683 29.7093 29.0513 29.7093 28.9071L29.7093 28.8557C29.7044 28.5896 29.6105 28.3365 29.3577 28.0473C29.5247 27.9976 29.7129 27.9697 29.941 27.9578C30.0851 27.9503 30.1958 27.8274 30.1883 27.6834C30.1807 27.5393 30.0578 27.4286 29.9138 27.4361C29.5176 27.4568 29.2098 27.5229 28.9355 27.6483C28.821 27.5547 28.6913 27.4565 28.5447 27.3525L28.414 27.2613Z" fill="#00160A"/>
<path fill-rule="evenodd" clip-rule="evenodd" d="M67.5514 84.4951L67.7326 84.4959C68.7453 84.5053 69.5366 84.5966 71.027 84.8359C71.1979 84.8633 71.3142 85.0241 71.2868 85.195C71.2594 85.366 71.0986 85.4823 70.9276 85.4548L70.4392 85.378C69.206 85.1886 68.4954 85.122 67.5514 85.122C64.2758 85.122 62.1847 87.1724 62.5386 90.3173C62.5579 90.4894 62.4342 90.6445 62.2622 90.6639C62.0901 90.6832 61.935 90.5595 61.9156 90.3874C61.5177 86.8505 63.9197 84.4951 67.5514 84.4951ZM70.0883 85.7607L70.0577 85.7338C70.0282 85.7084 69.9828 85.7119 69.9579 85.7417C69.9321 85.7714 69.936 85.816 69.9655 85.8415L69.997 85.8682C70.0265 85.8936 70.071 85.8902 70.0968 85.8604C70.1217 85.8308 70.1188 85.786 70.0883 85.7607ZM64.4085 86.4162C64.296 86.3258 64.1316 86.3437 64.0413 86.4562C63.6764 86.9102 63.4105 87.3526 63.2445 87.7845C63.0832 88.2045 63.0281 88.9103 63.0701 89.9193L63.0801 90.1324C63.0877 90.2765 63.2106 90.3871 63.3547 90.3795C63.4988 90.3719 63.6094 90.249 63.6018 90.105C63.5464 89.0507 63.5936 88.3326 63.7322 87.9718C63.8773 87.594 64.1157 87.1975 64.4485 86.7834C64.5388 86.671 64.5209 86.5066 64.4085 86.4162ZM67.259 85.5521C67.3871 85.4857 67.5447 85.5357 67.6111 85.6638C67.6775 85.7919 67.6274 85.9495 67.4993 86.0159C66.9688 86.2907 66.5637 86.7514 66.2813 87.4083C65.9782 88.1132 65.7302 88.7422 65.5373 89.295C65.4898 89.4312 65.3409 89.5031 65.2047 89.4556C65.0685 89.4081 64.9966 89.2591 65.0441 89.1229C65.2413 88.5577 65.4937 87.9175 65.8013 87.2019C66.1296 86.4384 66.6164 85.885 67.259 85.5521ZM68.7775 85.5383C68.6825 85.4298 68.5175 85.4189 68.409 85.514C67.973 85.896 67.638 86.2433 67.4036 86.5584C67.1708 86.8713 66.8982 87.3391 66.5828 87.965C66.5178 88.0938 66.5696 88.2509 66.6984 88.3158C66.8273 88.3807 66.9843 88.3289 67.0492 88.2001C67.3523 87.5988 67.6112 87.1545 67.8227 86.8703C68.0325 86.5883 68.3428 86.2664 68.7532 85.9069C68.8617 85.8118 68.8726 85.6468 68.7775 85.5383ZM67.8239 88.488C67.7154 88.5831 67.5504 88.5722 67.4553 88.4637C67.3602 88.3552 67.3711 88.1901 67.4796 88.0951C67.89 87.7356 68.2004 87.4136 68.4102 87.1317C68.6217 86.8475 68.8805 86.4032 69.1836 85.8019C69.2485 85.6731 69.4056 85.6213 69.5344 85.6862C69.6632 85.7511 69.715 85.9082 69.6501 86.037C69.3346 86.6629 69.0621 87.1307 68.8293 87.4435C68.5948 87.7586 68.2599 88.106 67.8239 88.488ZM65.8463 85.765C65.7276 85.683 65.5649 85.7128 65.483 85.8315C64.899 86.6771 64.5262 87.309 64.3613 87.7382C64.1958 88.1689 64.0815 88.7496 64.0152 89.4834C64.0022 89.6271 64.1081 89.7541 64.2518 89.767C64.3955 89.78 64.5224 89.6741 64.5354 89.5304C64.5978 88.8406 64.7033 88.3045 64.8489 87.9255C64.9847 87.5722 65.3011 87.0272 65.7956 86.2995L65.9128 86.1284C65.9948 86.0097 65.965 85.847 65.8463 85.765Z" fill="#00160A"/>
<path fill-rule="evenodd" clip-rule="evenodd" d="M60.8879 84.2247L61.0679 84.6246L61.4782 84.7424C61.5004 84.7488 61.5132 84.7719 61.5068 84.7941C61.5048 84.8009 61.5012 84.8072 61.4961 84.8122L61.1844 85.1225L61.2019 85.5691C61.2028 85.5922 61.1848 85.6116 61.1617 85.6125C61.1539 85.6128 61.1462 85.611 61.1394 85.6071L60.7865 85.4061C60.7755 85.3998 60.7622 85.3989 60.7504 85.4036L60.3729 85.5535C60.3515 85.562 60.3272 85.5515 60.3187 85.5301C60.3158 85.5228 60.315 85.5149 60.3164 85.5072L60.3958 85.0674L60.1303 84.7167C60.1164 84.6983 60.12 84.6721 60.1384 84.6581C60.1441 84.6538 60.1508 84.6511 60.1578 84.6501L60.5805 84.5906L60.8144 84.2195C60.8267 84.2 60.8525 84.1941 60.8721 84.2065C60.879 84.2108 60.8845 84.2172 60.8879 84.2247Z" fill="#00160A"/>
<path fill-rule="evenodd" clip-rule="evenodd" d="M75.422 28.2275C75.5181 28.3127 75.6381 28.4665 75.744 28.6329L75.8803 28.5723L76.0415 28.5032C76.0739 28.4884 76.0949 28.4768 76.1013 28.4674C76.1198 28.4328 76.1627 28.4197 76.1977 28.438C76.2316 28.4563 76.2454 28.4992 76.2268 28.5337C76.2141 28.5665 76.1235 28.6695 75.9554 28.7701C75.925 28.7884 75.8913 28.8054 75.8551 28.8219C75.9171 28.9379 75.9658 29.0499 75.9887 29.1398C76.0233 29.2723 75.9957 29.3662 75.9502 29.3992C75.9057 29.4318 75.7938 29.4379 75.6236 29.2966C75.5923 29.2727 75.5873 29.2281 75.6111 29.1972C75.6349 29.1663 75.6792 29.1606 75.7106 29.1845C75.7429 29.2083 75.7756 29.2219 75.8021 29.2317L75.7892 29.1809C75.7841 29.1628 75.7779 29.1439 75.7693 29.1255C75.7388 29.0587 75.7 28.9825 75.6564 28.9043C75.5233 28.9546 75.3718 29.0002 75.2082 29.0221C75.1285 29.0329 75.0472 29.0349 74.9627 29.0343C74.9143 29.0375 74.8721 29.0006 74.8689 28.952C74.8657 28.9034 74.9027 28.8613 74.9511 28.8581C75.148 28.8392 75.3299 28.7894 75.4906 28.7335L75.5432 28.7146C75.4563 28.5787 75.3632 28.4554 75.2835 28.3857C75.2402 28.3474 75.2358 28.2809 75.2737 28.2373C75.3125 28.1935 75.3787 28.1891 75.422 28.2275Z" fill="#00160A"/>
<path fill-rule="evenodd" clip-rule="evenodd" d="M17.9109 63.5883C17.6377 63.6062 17.2045 63.6759 16.8504 63.8163C16.5475 63.9366 16.5475 67.2067 17.5831 67.4674C18.6127 67.8108 19.7385 67.3562 19.6041 65.6062C19.6017 65.5696 19.572 65.4701 19.5381 65.356C19.4883 65.1889 19.4293 64.9907 19.4329 64.9131C19.4468 64.6383 19.3746 64.4066 19.1841 64.2612C18.9788 63.826 18.5765 63.5455 17.9109 63.5883ZM17.7626 66.6713C17.2558 66.2926 17.2736 64.5252 17.852 64.4072C18.212 64.6839 18.5406 65.0834 18.6514 65.8533C18.5274 66.2772 18.2656 66.5225 18.0366 66.737C18.0121 66.76 17.988 66.7825 17.9645 66.805C17.8991 66.7678 17.8318 66.7225 17.7626 66.6713Z" fill="white"/>
<path fill-rule="evenodd" clip-rule="evenodd" d="M17.1472 65.6411C17.1012 65.3661 17.1326 65.0583 17.2708 64.7298C17.3335 64.5811 17.4983 64.4598 17.7045 64.3783C17.9455 64.2833 18.2403 64.236 18.4262 64.2238C18.8792 64.1947 19.1529 64.3843 19.2925 64.6786C19.4221 64.7769 19.4712 64.9336 19.4616 65.1194C19.4575 65.2077 19.5739 65.5272 19.578 65.5882C19.669 66.7717 18.9027 67.0795 18.2021 66.8475C17.9359 66.9829 17.6791 67.0053 17.4859 66.8616C17.3126 66.7334 17.1795 66.4629 17.1491 65.9859C17.1409 65.8628 17.1403 65.7479 17.1472 65.6411ZM18.3899 64.8617C17.9879 64.9406 17.9711 66.101 18.3221 66.3484C18.37 66.3818 18.4166 66.4114 18.4619 66.4356C18.6316 66.2827 18.7581 66.159 18.8299 65.9059C18.9017 65.6528 18.6392 65.0425 18.3899 64.8617Z" fill="#FFB61D"/>
<path fill-rule="evenodd" clip-rule="evenodd" d="M44.5795 94.6229C44.4606 94.5413 44.298 94.5715 44.2164 94.6904C44.1347 94.8093 44.1649 94.9719 44.2838 95.0536C44.4145 95.1433 44.5299 95.2261 44.6318 95.303C44.5221 95.3903 44.4125 95.4904 44.2986 95.6043L44.0676 95.8389C43.966 95.9413 43.9667 96.1067 44.0692 96.2083C44.1716 96.3098 44.337 96.3091 44.4386 96.2066L44.7157 95.9265C44.8285 95.8167 44.9342 95.7248 45.0405 95.6485C45.2767 95.8826 45.3486 96.0543 45.3525 96.2249L45.3525 96.2687L45.3538 96.2954C45.3672 96.4271 45.4784 96.5299 45.6137 96.5299C45.7579 96.5299 45.8749 96.4129 45.8749 96.2687L45.8748 96.2173C45.87 95.9513 45.7761 95.6982 45.5233 95.409C45.6902 95.3592 45.8784 95.3314 46.1066 95.3195C46.2506 95.3119 46.3613 95.1891 46.3538 95.045C46.3463 94.9009 46.2234 94.7903 46.0793 94.7978C45.6832 94.8185 45.3753 94.8845 45.1011 95.01C44.9866 94.9164 44.8568 94.8181 44.7103 94.7141L44.5795 94.6229Z" fill="#00160A"/>
<path fill-rule="evenodd" clip-rule="evenodd" d="M44.5795 94.6229C44.4606 94.5413 44.298 94.5715 44.2164 94.6904C44.1347 94.8093 44.1649 94.9719 44.2838 95.0536C44.4145 95.1433 44.5299 95.2261 44.6318 95.303C44.5221 95.3903 44.4125 95.4904 44.2986 95.6043L44.0676 95.8389C43.966 95.9413 43.9667 96.1067 44.0692 96.2083C44.1716 96.3098 44.337 96.3091 44.4386 96.2066L44.7157 95.9265C44.8285 95.8167 44.9342 95.7248 45.0405 95.6485C45.2767 95.8826 45.3486 96.0543 45.3525 96.2249L45.3525 96.2687L45.3538 96.2954C45.3672 96.4271 45.4784 96.5299 45.6137 96.5299C45.7579 96.5299 45.8749 96.4129 45.8749 96.2687L45.8748 96.2173C45.87 95.9513 45.7761 95.6982 45.5233 95.409C45.6902 95.3592 45.8784 95.3314 46.1066 95.3195C46.2506 95.3119 46.3613 95.1891 46.3538 95.045C46.3463 94.9009 46.2234 94.7903 46.0793 94.7978C45.6832 94.8185 45.3753 94.8845 45.1011 95.01C44.9866 94.9164 44.8568 94.8181 44.7103 94.7141L44.5795 94.6229Z" fill="#00160A"/>
<path fill-rule="evenodd" clip-rule="evenodd" d="M53.5063 87.4673L53.6863 87.8673L54.0966 87.985C54.1188 87.9914 54.1316 88.0145 54.1252 88.0367C54.1233 88.0436 54.1196 88.0498 54.1146 88.0548L53.8028 88.3651L53.8203 88.8118C53.8212 88.8348 53.8032 88.8542 53.7802 88.8551C53.7724 88.8555 53.7646 88.8536 53.7578 88.8497L53.4049 88.6487C53.3939 88.6424 53.3806 88.6415 53.3688 88.6462L52.9914 88.7961C52.9699 88.8046 52.9456 88.7941 52.9371 88.7727C52.9342 88.7654 52.9334 88.7575 52.9348 88.7498L53.0143 88.31L52.7487 87.9593C52.7348 87.9409 52.7384 87.9147 52.7568 87.9008C52.7625 87.8965 52.7692 87.8937 52.7762 87.8927L53.1989 87.8332L53.4328 87.4621C53.4451 87.4426 53.471 87.4368 53.4905 87.4491C53.4974 87.4535 53.5029 87.4598 53.5063 87.4673Z" fill="#00160A"/>
<path fill-rule="evenodd" clip-rule="evenodd" d="M30.8623 84.7189L31.1682 85.0332L31.5941 85.0036C31.6171 85.0019 31.6371 85.0193 31.6387 85.0423C31.6392 85.0494 31.6378 85.0565 31.6348 85.063L31.448 85.4612L31.6172 85.8749C31.6259 85.8963 31.6157 85.9207 31.5943 85.9294C31.5871 85.9324 31.5792 85.9333 31.5715 85.9319L31.1711 85.8638C31.1586 85.8617 31.1458 85.8653 31.1363 85.8738L30.8329 86.1437C30.8157 86.1591 30.7892 86.1575 30.7739 86.1403C30.7687 86.1345 30.7653 86.1273 30.7639 86.1196L30.6882 85.6791L30.3187 85.4404C30.2993 85.4278 30.2938 85.402 30.3063 85.3826C30.3102 85.3766 30.3155 85.3717 30.3218 85.3684L30.6986 85.1679L30.7915 84.7392C30.7964 84.7167 30.8186 84.7023 30.8412 84.7072C30.8492 84.709 30.8566 84.713 30.8623 84.7189Z" fill="#00160A"/>
<path fill-rule="evenodd" clip-rule="evenodd" d="M26.0849 56.0759L26.2649 56.4758L26.6752 56.5936C26.6974 56.6 26.7102 56.6231 26.7038 56.6453C26.7019 56.6521 26.6982 56.6584 26.6931 56.6634L26.3814 56.9737L26.3989 57.4203C26.3998 57.4434 26.3818 57.4628 26.3587 57.4637C26.3509 57.464 26.3432 57.4621 26.3364 57.4583L25.9835 57.2573C25.9725 57.251 25.9592 57.2501 25.9474 57.2548L25.5699 57.4047C25.5485 57.4132 25.5242 57.4027 25.5157 57.3813C25.5128 57.374 25.512 57.3661 25.5134 57.3584L25.5928 56.9186L25.3273 56.5679C25.3134 56.5495 25.317 56.5233 25.3354 56.5093C25.3411 56.505 25.3478 56.5023 25.3548 56.5013L25.7775 56.4418L26.0114 56.0707C26.0237 56.0512 26.0495 56.0453 26.0691 56.0577C26.076 56.062 26.0815 56.0684 26.0849 56.0759Z" fill="#00160A"/>
<path fill-rule="evenodd" clip-rule="evenodd" d="M26.0431 56.4742L26.1195 56.6441L26.2938 56.6941C26.3032 56.6968 26.3087 56.7067 26.306 56.7161C26.3051 56.719 26.3036 56.7216 26.3014 56.7238L26.169 56.8556L26.1764 57.0453C26.1768 57.0551 26.1692 57.0634 26.1594 57.0637C26.1561 57.0639 26.1528 57.0631 26.1499 57.0614L26 56.9761C25.9953 56.9734 25.9897 56.973 25.9847 56.975L25.8243 57.0387C25.8152 57.0423 25.8049 57.0378 25.8013 57.0287C25.8001 57.0256 25.7997 57.0223 25.8003 57.019L25.8341 56.8322L25.7213 56.6832C25.7154 56.6754 25.7169 56.6643 25.7247 56.6583C25.7271 56.6565 25.73 56.6553 25.733 56.6549L25.9125 56.6296L26.0119 56.472C26.0171 56.4637 26.028 56.4613 26.0363 56.4665C26.0393 56.4683 26.0416 56.471 26.0431 56.4742Z" fill="#E7EAEE"/>
<path fill-rule="evenodd" clip-rule="evenodd" d="M4.68788 73.6246L4.86787 74.0246L5.27817 74.1424C5.30036 74.1487 5.31318 74.1719 5.30681 74.1941C5.30485 74.2009 5.30117 74.2071 5.29613 74.2122L4.98439 74.5225L5.00186 74.9691C5.00276 74.9922 4.98479 75.0116 4.96173 75.0125C4.95393 75.0128 4.9462 75.0109 4.93942 75.0071L4.5865 74.8061C4.57547 74.7998 4.56219 74.7988 4.55039 74.8035L4.17294 74.9535C4.15149 74.962 4.12719 74.9515 4.11867 74.93C4.11579 74.9228 4.115 74.9149 4.11638 74.9072L4.19583 74.4673L3.93032 74.1166C3.91639 74.0982 3.92001 74.072 3.93842 74.0581C3.94409 74.0538 3.95077 74.051 3.95781 74.05L4.38051 73.9905L4.61442 73.6195C4.62673 73.6 4.65253 73.5941 4.67206 73.6064C4.67901 73.6108 4.68451 73.6171 4.68788 73.6246Z" fill="#00160A"/>
<path fill-rule="evenodd" clip-rule="evenodd" d="M22.7722 37.709L22.9029 37.8003C23.0496 37.9043 23.5974 38.4206 23.712 38.5143C23.9858 38.3885 24.2937 38.3225 24.6899 38.3018C24.834 38.2943 24.9568 38.405 24.9644 38.549C24.9719 38.6931 24.8612 38.816 24.7172 38.8235C24.4889 38.8354 24.3007 38.8633 24.1337 38.9131C24.3867 39.2024 24.4805 39.4554 24.4854 39.7214L24.4854 39.7727C24.4854 39.917 24.3685 40.0339 24.2243 40.0339C24.089 40.0339 23.9778 39.9311 23.9644 39.7994L23.9631 39.7727L23.9631 39.7289C23.9592 39.5583 23.8873 39.3866 23.6511 39.1525C23.5448 39.2288 23.4391 39.3207 23.3263 39.4305L23.0491 39.7107C22.9476 39.8131 22.7822 39.8138 22.6798 39.7123C22.5773 39.6107 22.5766 39.4454 22.6781 39.3429L22.9091 39.1083C23.023 38.9944 23.1326 38.8944 23.2424 38.8071C23.0496 38.3671 22.3274 37.8954 22.409 37.7765C22.4907 37.6576 22.6533 37.6274 22.7722 37.709Z" fill="#00160A"/>
<path fill-rule="evenodd" clip-rule="evenodd" d="M73.1672 67.8323L73.523 68.0887L73.9373 67.9855C73.9597 67.9799 73.9823 67.9936 73.9879 68.016C73.9896 68.0229 73.9896 68.0301 73.9877 68.037L73.8729 68.4616L74.1113 68.8397C74.1236 68.8592 74.1178 68.885 74.0983 68.8973C74.0917 68.9015 74.084 68.9037 74.0762 68.9037L73.6701 68.9061C73.6574 68.9062 73.6454 68.912 73.6376 68.922L73.3856 69.2406C73.3713 69.2587 73.345 69.2617 73.3269 69.2474C73.3208 69.2426 73.3162 69.2361 73.3135 69.2288L73.1624 68.8081L72.7571 68.6372C72.7359 68.6282 72.7259 68.6037 72.7349 68.5824C72.7376 68.5759 72.742 68.5701 72.7476 68.5657L73.0839 68.3028L73.101 67.8646C73.1019 67.8415 73.1213 67.8235 73.1444 67.8244C73.1526 67.8248 73.1605 67.8275 73.1672 67.8323Z" fill="#00160A"/>
<path fill-rule="evenodd" clip-rule="evenodd" d="M77.255 51.4622L77.3628 51.8873L77.7464 52.0746C77.7671 52.0847 77.7757 52.1097 77.7656 52.1304C77.7625 52.1368 77.7578 52.1423 77.7519 52.1464L77.3911 52.3979L77.3307 52.8408C77.3276 52.8636 77.3065 52.8796 77.2836 52.8765C77.2759 52.8755 77.2686 52.8723 77.2626 52.8673L76.95 52.6081C76.9402 52.6 76.9273 52.5967 76.9148 52.5993L76.5171 52.6814C76.4945 52.6861 76.4724 52.6715 76.4677 52.6489C76.4661 52.6413 76.4667 52.6333 76.4694 52.626L76.6241 52.2067L76.4235 51.8152C76.413 51.7946 76.4211 51.7695 76.4416 51.7589C76.4479 51.7557 76.455 51.7541 76.4621 51.7544L76.8887 51.7691L77.1835 51.4444C77.199 51.4273 77.2254 51.426 77.2425 51.4415C77.2486 51.447 77.2529 51.4542 77.255 51.4622Z" fill="#00160A"/>
<path fill-rule="evenodd" clip-rule="evenodd" d="M67.946 34.3513L68.0538 34.7765L68.4374 34.9637C68.4582 34.9738 68.4668 34.9989 68.4566 35.0196C68.4535 35.026 68.4488 35.0315 68.443 35.0356L68.0821 35.2871L68.0217 35.7299C68.0186 35.7528 67.9976 35.7688 67.9747 35.7657C67.9669 35.7646 67.9597 35.7614 67.9537 35.7564L67.641 35.4972C67.6312 35.4891 67.6183 35.4859 67.6059 35.4885L67.2081 35.5706C67.1855 35.5752 67.1634 35.5607 67.1587 35.5381C67.1572 35.5304 67.1578 35.5225 67.1605 35.5152L67.3151 35.0958L67.1145 34.7043C67.104 34.6838 67.1121 34.6586 67.1326 34.6481C67.139 34.6448 67.146 34.6433 67.1531 34.6435L67.5798 34.6583L67.8745 34.3335C67.8901 34.3164 67.9165 34.3152 67.9336 34.3307C67.9397 34.3362 67.944 34.3434 67.946 34.3513Z" fill="#00160A"/>
<path fill-rule="evenodd" clip-rule="evenodd" d="M95.4472 38.5172L95.606 38.503C95.7853 38.4884 95.948 38.4803 96.0959 38.4784C96.2249 38.2061 96.4183 37.9576 96.7085 37.6871C96.8141 37.5887 96.9793 37.5945 97.0777 37.7C97.1761 37.8056 97.1703 37.9708 97.0648 38.0692C96.8976 38.2251 96.7713 38.3674 96.6753 38.5129C97.0551 38.5719 97.2897 38.7053 97.4644 38.906L97.4974 38.9453C97.5901 39.0558 97.5757 39.2205 97.4652 39.3133C97.3616 39.4002 97.2103 39.393 97.1154 39.3007L97.0972 39.2811L97.0691 39.2475C96.9564 39.1193 96.791 39.034 96.4596 39.0065C96.4272 39.1333 96.4053 39.2716 96.3895 39.4282L96.3572 39.821C96.3453 39.9647 96.2191 40.0716 96.0753 40.0597C95.9316 40.0477 95.8247 39.9215 95.8366 39.7778L95.8628 39.4495C95.8768 39.2891 95.8965 39.142 95.9244 39.0046C95.7971 39.0111 95.6554 39.0219 95.4975 39.0371C95.3539 39.051 95.2263 38.9459 95.2124 38.8023C95.1985 38.6587 95.3036 38.5311 95.4472 38.5172Z" fill="#00160A"/>
<path fill-rule="evenodd" clip-rule="evenodd" d="M74.3557 56.5474C74.3084 56.6669 74.205 56.8322 74.0849 56.9886L74.1884 57.096L74.3085 57.2239L74.3351 57.2495C74.3468 57.2598 74.3559 57.2661 74.3625 57.2678C74.4014 57.2734 74.4284 57.3092 74.4231 57.3483C74.4175 57.3865 74.3819 57.4141 74.3432 57.4084C74.308 57.4077 74.1803 57.3578 74.0282 57.2342C74.0006 57.2119 73.9732 57.186 73.9453 57.1577C73.8575 57.2556 73.7688 57.3398 73.6922 57.392C73.5795 57.4698 73.4819 57.476 73.4353 57.4445C73.3894 57.4138 73.3455 57.3108 73.42 57.1025C73.4317 57.0649 73.4719 57.045 73.5092 57.0568C73.5463 57.0686 73.5668 57.1083 73.5551 57.1459C73.5438 57.1845 73.5422 57.2198 73.5421 57.248L73.5853 57.2186C73.6006 57.2076 73.6163 57.1953 73.6306 57.1809C73.6829 57.1294 73.7412 57.0669 73.7999 56.9992C73.7071 56.8913 73.6124 56.7646 73.5358 56.6184C73.4985 56.5471 73.4687 56.4714 73.4405 56.3918C73.4209 56.3474 73.4411 56.2951 73.4857 56.2755C73.5303 56.2559 73.5824 56.2762 73.602 56.3206C73.6872 56.4992 73.7961 56.6531 73.9036 56.7849L73.9394 56.8279C74.0373 56.6998 74.1215 56.5702 74.1596 56.4714C74.1808 56.4176 74.2418 56.3907 74.2957 56.4114C74.3502 56.4329 74.3769 56.4937 74.3557 56.5474Z" fill="#E7EAEE"/>
<path fill-rule="evenodd" clip-rule="evenodd" d="M71.8055 3.31524C71.9646 3.28752 72.1161 3.39407 72.1439 3.55324C72.1716 3.71241 72.065 3.86391 71.9059 3.89164C71.1488 4.0235 70.2378 4.476 69.4507 5.20482C68.4286 6.15119 67.6747 7.48689 67.3025 9.23043C67.0026 10.6351 67.2782 12.4846 68.062 14.0277C68.9538 15.7832 70.3872 16.9768 72.2267 17.3127C74.115 17.6576 75.7126 17.4434 77.4969 16.8091L77.6612 16.7495C77.7133 16.7297 77.8064 16.6938 77.9233 16.6487L77.9233 16.6487L77.9235 16.6486C78.3533 16.4828 79.1038 16.1932 79.3193 16.1281C79.8962 15.9536 80.2897 15.9682 80.5751 16.2723C80.6856 16.3901 80.6797 16.5752 80.5619 16.6858C80.4515 16.7894 80.2819 16.7907 80.17 16.6934L80.1484 16.6726C80.0642 16.5829 79.8902 16.5725 79.5399 16.673L79.4887 16.6881C79.2987 16.7455 78.6037 17.0135 78.1701 17.1807L78.1699 17.1808L78.1698 17.1808L78.1696 17.1809L78.1689 17.1812C78.0013 17.2458 77.873 17.2953 77.8284 17.3115C75.9012 18.015 74.1718 18.2628 72.1215 17.8883C70.0899 17.5172 68.5102 16.202 67.5404 14.2927C66.6975 12.6333 66.4016 10.6479 66.7303 9.10828C67.1275 7.24744 67.9421 5.80428 69.0531 4.77552C69.9228 3.97022 70.937 3.4665 71.8055 3.31524ZM73.7839 4.7285C73.9425 4.69745 74.0962 4.80081 74.1272 4.95936C74.1583 5.11791 74.0549 5.27162 73.8964 5.30267C71.5254 5.76701 69.6186 7.57798 69.0656 9.9734C68.8784 10.7841 68.935 11.4433 69.1187 11.6948L69.1431 11.7263L69.145 11.7307L69.1484 11.728C69.2142 11.6687 69.2911 11.5171 69.3507 11.282L69.3632 11.2304C69.932 8.76674 71.8102 6.85974 74.2093 6.21932C74.3654 6.17765 74.5257 6.27041 74.5674 6.42651C74.609 6.58261 74.5163 6.74293 74.3602 6.7846C72.1988 7.36158 70.5006 9.06328 69.9556 11.2685L69.9333 11.362C69.7327 12.2309 69.1567 12.6456 68.6901 12.0956C68.3489 11.6933 68.2651 10.8397 68.4955 9.84178C69.1009 7.21947 71.1884 5.23681 73.7839 4.7285ZM77.3023 7.93943C77.2908 7.77828 77.1508 7.65696 76.9897 7.66845C74.1424 7.87158 71.6455 9.72087 70.652 12.4503C70.2751 13.486 70.2526 14.4071 70.5613 14.8768C70.9753 15.5068 71.6265 15.1494 71.9512 14.2574L71.9852 14.1658C72.8638 11.8559 74.9225 10.2426 77.3326 9.90617C77.4926 9.88384 77.6042 9.73601 77.5819 9.576C77.5595 9.41599 77.4117 9.30438 77.2517 9.32672C74.5975 9.6972 72.3347 11.493 71.4014 14.0572L71.3808 14.112C71.277 14.3789 71.1633 14.5398 71.0773 14.5871L71.0734 14.5896L71.0719 14.591C71.0712 14.5916 71.0708 14.5919 71.0705 14.5919C71.0703 14.5919 71.0701 14.5917 71.0698 14.5912C71.0696 14.5908 71.0693 14.5901 71.0689 14.5891C71.0671 14.5847 71.063 14.5749 71.0502 14.5555L71.0347 14.5301C70.8649 14.229 70.8908 13.5049 71.2018 12.6504C72.1156 10.1398 74.4122 8.4389 77.0313 8.25205C77.1924 8.24055 77.3138 8.10059 77.3023 7.93943ZM78.5764 10.7833C78.7375 10.7718 78.8775 10.8931 78.889 11.0543C78.9005 11.2154 78.7791 11.3554 78.618 11.3669C76.7817 11.4979 75.1715 12.6904 74.5308 14.4507C74.3409 14.9725 74.3056 15.4186 74.3736 15.6446L74.3819 15.6698L74.3948 15.6511C74.4275 15.6016 74.4643 15.5304 74.5004 15.4381L74.5158 15.3973C75.1925 13.538 76.8333 12.2359 78.7577 11.9672C78.9178 11.9449 79.0656 12.0565 79.0879 12.2165C79.1102 12.3765 78.9986 12.5244 78.8386 12.5467C77.1551 12.7817 75.7162 13.9052 75.0964 15.5151L75.0655 15.5974C74.8146 16.2869 74.2719 16.5847 73.925 16.0568C73.6872 15.695 73.7039 15.012 73.981 14.2506C74.7014 12.2715 76.5119 10.9306 78.5764 10.7833ZM80.1182 13.1403C80.1067 12.9792 79.9667 12.8578 79.8056 12.8693C78.423 12.968 77.2104 13.866 76.728 15.1914C76.5378 15.7139 76.5262 16.1895 76.7022 16.4573C76.9907 16.8963 77.4389 16.6503 77.6256 16.1373L77.651 16.07C78.0439 15.0663 78.9446 14.3665 79.9975 14.2195C80.1576 14.1972 80.2692 14.0494 80.2468 13.8894C80.2245 13.7293 80.0767 13.6177 79.9167 13.6401L79.8425 13.6512C78.7091 13.8338 77.7311 14.5532 77.224 15.5887L77.2063 15.6255L77.2172 15.5835C77.2335 15.5224 77.2536 15.4581 77.2778 15.3915C77.6806 14.2849 78.6928 13.5353 79.8472 13.4529C80.0083 13.4414 80.1297 13.3015 80.1182 13.1403Z" fill="#00160A"/>
<path fill-rule="evenodd" clip-rule="evenodd" d="M78.5764 10.7833C78.7375 10.7718 78.8775 10.8931 78.889 11.0543C78.9005 11.2154 78.7791 11.3554 78.618 11.3669C76.7817 11.4979 75.1715 12.6904 74.5308 14.4507C74.3409 14.9725 74.3056 15.4186 74.3736 15.6445L74.3819 15.6698L74.3948 15.6511C74.4275 15.6016 74.4643 15.5304 74.5004 15.4381L74.5158 15.3973C75.1925 13.538 76.8333 12.2359 78.7577 11.9672C78.9178 11.9449 79.0656 12.0565 79.0879 12.2165C79.1102 12.3765 78.9986 12.5243 78.8386 12.5467C77.1551 12.7817 75.7162 13.9052 75.0964 15.5151L75.0655 15.5974C74.8146 16.2869 74.2719 16.5847 73.925 16.0568C73.6873 15.695 73.7039 15.012 73.981 14.2506C74.7014 12.2715 76.5119 10.9306 78.5764 10.7833Z" fill="#00160A"/>
<path d="M60.3575 48.871C66.4904 46.0023 71.6181 44.4871 74.8105 44.2088C75.7882 44.1236 76.2316 44.6626 75.984 45.5393C75.8002 46.1903 75.2404 47.0836 74.3823 48.1415C72.8864 49.9857 70.914 51.5638 68.9498 53.0316C72.0921 50.1313 72.8936 48.918 73.8627 47.7233L74.015 47.5332C74.7335 46.6247 75.198 45.8656 75.341 45.3591L75.3614 45.2822C75.4505 44.9166 75.3473 44.83 74.8687 44.8718C71.7485 45.1437 66.6404 46.662 60.5299 49.5268C54.4095 52.3962 54.2345 51.7351 60.3575 48.871Z" fill="white"/>
<path d="M32.3082 39.5909L32.353 39.6977C32.6637 40.4344 32.9866 41.1639 33.353 41.9596L33.4955 42.2683C33.4488 42.2997 33.3874 42.333 33.3199 42.3625C33.2229 42.4049 33.1244 42.4346 33.0504 42.4446L33.0268 42.4469L32.9912 42.4043C32.7143 42.0633 32.3928 41.484 32.1606 40.908C32.0369 40.6012 31.9488 40.3197 31.9091 40.1035C31.8929 40.0154 31.8854 39.9414 31.886 39.8853L31.8877 39.8483C31.8883 39.8393 31.8883 39.8346 31.8861 39.834L31.8949 39.828C31.9443 39.7939 32.0707 39.72 32.2584 39.618L32.3082 39.5909Z" fill="white"/>
<path fill-rule="evenodd" clip-rule="evenodd" d="M40.0612 36.9222C40.2531 36.6872 40.502 36.7223 40.8173 36.9135L40.8983 36.9646L41.125 37.1148C41.1883 37.1554 41.2158 37.1695 41.2528 37.1842C41.3385 37.2184 41.3804 37.3156 41.3462 37.4013C41.3121 37.4871 41.2149 37.529 41.1291 37.4948L41.0985 37.4822C41.0406 37.4574 40.9968 37.4316 40.8794 37.3537L40.7168 37.2454C40.69 37.2279 40.6668 37.2132 40.6439 37.1994C40.4554 37.085 40.3697 37.0729 40.3201 37.1337C40.2888 37.1721 40.2965 37.2537 40.3586 37.4212L40.4268 37.5969C40.5624 37.9568 40.5632 38.1177 40.3217 38.2551C40.1138 38.3733 40.0072 38.3181 39.7086 38.0255L39.6361 37.9537C39.4449 37.7628 39.3446 37.6963 39.2801 37.71C39.2586 37.7145 39.2336 37.7297 39.2031 37.7623C39.1672 37.8004 39.1571 37.9226 39.1791 38.1392L39.2127 38.4222C39.252 38.7681 39.2362 38.8577 39.0934 38.9532C38.8968 39.0848 38.6351 38.9361 38.1502 38.5006C38.0815 38.4389 38.0759 38.3332 38.1375 38.2645C38.1992 38.1958 38.3049 38.1902 38.3736 38.2519C38.5809 38.438 38.7375 38.5593 38.8468 38.6214L38.8713 38.6348L38.8918 38.645L38.8922 38.624L38.8909 38.574C38.8888 38.5329 38.8837 38.4833 38.8734 38.3991L38.8521 38.2255C38.8115 37.8733 38.8242 37.6775 38.9592 37.5335C39.0342 37.4536 39.1184 37.4024 39.2109 37.3829C39.4256 37.3375 39.5782 37.4292 39.8315 37.6768L39.9594 37.8026C40.0972 37.9352 40.1484 37.969 40.1564 37.9645C40.1877 37.9467 40.183 37.8913 40.0983 37.6738L40.0612 37.5796C39.9431 37.2761 39.9206 37.0943 40.0612 36.9222Z" fill="#00160A"/>
<path fill-rule="evenodd" clip-rule="evenodd" d="M58.3107 9.71341L58.1519 9.72758C58.0084 9.74147 57.9032 9.86913 57.9171 10.0127C57.9255 10.0995 57.9755 10.1723 58.0454 10.2132L58.0179 10.2328C57.9001 10.316 57.8721 10.479 57.9553 10.5968C58.0386 10.7146 58.2016 10.7426 58.3194 10.6594L58.5878 10.4693C58.58 10.5308 58.5733 10.5942 58.5675 10.6599L58.5414 10.9881C58.5294 11.1319 58.6363 11.2581 58.78 11.2701C58.9238 11.282 59.05 11.1751 59.062 11.0314L59.0942 10.6386C59.1027 10.5546 59.1129 10.4758 59.1256 10.4012C59.2173 10.5753 59.2356 10.7093 59.2162 10.8361L59.2086 10.8792L59.2053 10.9057C59.1956 11.0377 59.2873 11.1583 59.4205 11.1818C59.5626 11.2068 59.698 11.112 59.7231 10.9699L59.732 10.9193C59.7597 10.743 59.7471 10.5656 59.6757 10.3686C59.713 10.3954 59.7451 10.4253 59.7738 10.4579L59.8019 10.4915L59.8201 10.511C59.915 10.6033 60.0663 10.6106 60.1699 10.5237C60.2804 10.4309 60.2948 10.2662 60.2021 10.1557L60.1691 10.1164C60.1573 10.1029 60.1453 10.0897 60.133 10.0769C60.2694 10.0848 60.3903 9.98546 60.4072 9.84796C60.4248 9.70478 60.323 9.57444 60.1799 9.55684C59.9336 9.52656 59.7183 9.51974 59.5202 9.53753C59.5912 9.4539 59.6736 9.36897 59.7695 9.27958C59.875 9.18122 59.8808 9.01594 59.7824 8.91042C59.6841 8.80491 59.5188 8.79911 59.4133 8.89747C59.2362 9.06248 59.0953 9.21929 58.9829 9.37831C58.9395 9.3323 58.8939 9.28513 58.8461 9.23672L58.7332 9.12419C58.6303 9.02313 58.4649 9.02465 58.3638 9.12758C58.2628 9.23052 58.2643 9.39589 58.3672 9.49695C58.4387 9.56713 58.5047 9.63353 58.5655 9.69645C58.4845 9.70054 58.3996 9.70618 58.3107 9.71341Z" fill="#00160A"/>
<path fill-rule="evenodd" clip-rule="evenodd" d="M48.2446 11.5232C48.182 11.4589 48.0804 11.4607 48.0179 11.5272C47.9553 11.5937 47.9555 11.6997 48.0181 11.764C48.0776 11.8249 48.1308 11.8814 48.1783 11.934C48.0778 11.9766 47.977 12.0317 47.869 12.0998L47.7052 12.2049C47.6333 12.2507 47.6176 12.3424 47.6702 12.4096C47.7227 12.4769 47.8236 12.4942 47.8956 12.4484L48.0919 12.3231C48.1945 12.2603 48.2869 12.2127 48.3799 12.1794C48.5211 12.3757 48.5507 12.5016 48.5327 12.6183L48.5278 12.646L48.5256 12.663C48.519 12.7477 48.5747 12.8245 48.6563 12.8389C48.7434 12.8543 48.8271 12.7928 48.8431 12.7016L48.8488 12.6691C48.8756 12.4998 48.8469 12.3293 48.7256 12.1187C48.8079 12.1174 48.8976 12.1235 48.9993 12.1365C49.0879 12.1478 49.1674 12.0917 49.1768 12.0111C49.1863 11.9306 49.1222 11.8561 49.0336 11.8447C48.8394 11.8199 48.6766 11.8171 48.5276 11.8372C48.4664 11.7618 48.3953 11.6814 48.3134 11.5947L48.2446 11.5232Z" fill="#E7EAEE"/>
<path fill-rule="evenodd" clip-rule="evenodd" d="M14.5845 55.0672L14.7644 55.4672L15.1747 55.585C15.1969 55.5914 15.2098 55.6145 15.2034 55.6367C15.2014 55.6435 15.1977 55.6498 15.1927 55.6548L14.881 55.9651L14.8984 56.4117C14.8993 56.4348 14.8814 56.4542 14.8583 56.4551C14.8505 56.4554 14.8428 56.4535 14.836 56.4497L14.4831 56.2487C14.472 56.2424 14.4588 56.2415 14.447 56.2462L14.0695 56.3961C14.0481 56.4046 14.0238 56.3941 14.0152 56.3727C14.0124 56.3654 14.0116 56.3575 14.013 56.3498L14.0924 55.91L13.8269 55.5593C13.813 55.5409 13.8166 55.5147 13.835 55.5007C13.8407 55.4964 13.8473 55.4937 13.8544 55.4927L14.2771 55.4331L14.511 55.0621C14.5233 55.0426 14.5491 55.0367 14.5686 55.049C14.5756 55.0534 14.5811 55.0598 14.5845 55.0672Z" fill="#00160A"/>
<path fill-rule="evenodd" clip-rule="evenodd" d="M16.9845 32.8672L17.1644 33.2672L17.5747 33.385C17.5969 33.3913 17.6098 33.4145 17.6034 33.4367C17.6014 33.4435 17.5977 33.4497 17.5927 33.4548L17.281 33.7651L17.2984 34.2117C17.2993 34.2348 17.2814 34.2542 17.2583 34.2551C17.2505 34.2554 17.2428 34.2535 17.236 34.2497L16.8831 34.0487C16.872 34.0424 16.8588 34.0415 16.847 34.0461L16.4695 34.1961C16.4481 34.2046 16.4238 34.1941 16.4152 34.1727C16.4124 34.1654 16.4116 34.1575 16.413 34.1498L16.4924 33.71L16.2269 33.3593C16.213 33.3409 16.2166 33.3146 16.235 33.3007C16.2407 33.2964 16.2473 33.2936 16.2544 33.2927L16.6771 33.2331L16.911 32.8621C16.9233 32.8426 16.9491 32.8367 16.9686 32.849C16.9756 32.8534 16.9811 32.8597 16.9845 32.8672Z" fill="#00160A"/>
<path d="M22.4208 68.2122C22.5549 68.1148 22.7425 68.1446 22.8399 68.2787C22.9372 68.4127 18.6929 71.8697 17.0465 73.454L16.8551 73.6396C15.9147 74.5597 15.2213 75.3566 14.8305 75.9865C14.4163 76.6539 14.3898 77.0164 14.6571 77.1646C15.6716 77.7268 17.1301 78.0008 19.219 77.6547L19.4337 77.6181C20.2288 77.4788 26.2101 76.1744 26.1154 76.2089L26.0786 76.22C25.89 76.27 23.4546 77.1123 22.614 77.3262L22.5124 77.3519C21.2273 77.6752 20.2217 77.8968 19.3171 78.0467C17.1065 78.4128 15.5272 78.3328 14.3663 77.6894C13.6964 77.3182 13.7498 76.5902 14.3206 75.6701C14.7697 74.9465 15.5595 74.0522 16.6305 73.0216C18.2989 71.4162 20.6457 69.5011 22.4208 68.2122Z" fill="white"/>
</svg>
