<svg width="150" height="150" viewBox="0 0 150 150" fill="none" xmlns="http://www.w3.org/2000/svg">
<rect width="150" height="150" fill="white"/>
<path fill-rule="evenodd" clip-rule="evenodd" d="M30.0154 72.9075C30.0154 72.9075 25.5696 69.1096 31.8068 55.9967C38.044 42.8837 50.6756 45.7579 58.7496 40.6001C70.6794 32.9792 65.7896 27.0153 80.665 26.0539C99.3943 24.8436 100.455 44.4034 109.825 44.4034C110.442 44.4034 125.033 38.5403 127.169 54.5909C128.245 62.6741 109.825 75.0004 109.825 75.0004C109.825 75.0004 102.16 81.9491 101.739 85.3803C99.973 99.7704 103.655 116.252 62.3943 123.839C57.0581 124.821 48.1974 121.271 43.3089 114.714C39.4792 109.577 24.1165 113.222 22.6824 96.3337C21.9596 87.8217 30.0154 72.9075 30.0154 72.9075Z" fill="#1173AB"/>
<path d="M57.5372 61.4982C57.6764 61.4161 57.8557 61.4623 57.9378 61.6014L58.269 62.1601C59.584 64.3664 60.11 65.0829 60.6691 65.4068C61.1286 65.673 61.6036 65.5904 62.4733 65.0804L62.5894 65.0106C63.1364 64.6697 65.6391 62.9505 66.6068 62.3332C66.743 62.2463 66.9239 62.2863 67.0108 62.4225C67.0977 62.5587 67.0577 62.7395 66.9215 62.8264L66.7725 62.9223C65.6942 63.6213 63.2718 65.285 62.843 65.5414C61.7901 66.1709 61.1075 66.3124 60.4235 65.9399L60.3758 65.913C59.6409 65.4872 59.0692 64.6704 57.4339 61.8988C57.3518 61.7596 57.3981 61.5802 57.5372 61.4982Z" fill="white"/>
<path d="M62.2749 64.8796C62.435 64.8581 62.5822 64.9706 62.6036 65.1307C62.7033 65.8749 62.9419 66.6211 63.3208 67.3701C63.3937 67.5143 63.3359 67.6903 63.1918 67.7632C63.0476 67.8361 62.8716 67.7784 62.7987 67.6342C62.391 66.8281 62.1323 66.0193 62.0237 65.2083C62.0023 65.0482 62.1147 64.901 62.2749 64.8796Z" fill="white"/>
<path fill-rule="evenodd" clip-rule="evenodd" d="M96.3557 82.7472C96.3085 82.8666 96.2051 83.032 96.0849 83.1884L96.1885 83.2958L96.3085 83.4236L96.3352 83.4493C96.3468 83.4595 96.356 83.4659 96.3626 83.4676C96.4014 83.4732 96.4285 83.5089 96.4232 83.5481C96.4176 83.5863 96.382 83.6139 96.3432 83.6082C96.308 83.6075 96.1804 83.5576 96.0282 83.434C96.0007 83.4117 95.9732 83.3858 95.9453 83.3575C95.8575 83.4554 95.7689 83.5395 95.6923 83.5917C95.5796 83.6695 95.4819 83.6757 95.4354 83.6443C95.3895 83.6136 95.3455 83.5106 95.4201 83.3023C95.4318 83.2647 95.472 83.2448 95.5092 83.2566C95.5463 83.2683 95.5669 83.308 95.5552 83.3457C95.5438 83.3843 95.5423 83.4196 95.5421 83.4478L95.5854 83.4183C95.6007 83.4074 95.6163 83.3951 95.6307 83.3806C95.6829 83.3292 95.7413 83.2667 95.7999 83.199C95.7071 83.0911 95.6125 82.9643 95.5359 82.8181C95.4985 82.7469 95.4688 82.6712 95.4405 82.5916C95.421 82.5471 95.4412 82.4949 95.4858 82.4753C95.5303 82.4556 95.5825 82.476 95.6021 82.5204C95.6872 82.6989 95.7962 82.8529 95.9037 82.9847L95.9395 83.0277C96.0374 82.8996 96.1215 82.7699 96.1597 82.6711C96.1808 82.6174 96.2419 82.5905 96.2958 82.6112C96.3502 82.6327 96.377 82.6934 96.3557 82.7472Z" fill="white"/>
<path fill-rule="evenodd" clip-rule="evenodd" d="M52.8274 45.842L52.6491 45.8097C51.6534 45.6246 50.89 45.3974 49.4638 44.9029C49.3002 44.8462 49.2136 44.6676 49.2703 44.5041C49.327 44.3405 49.5056 44.2539 49.6691 44.3106L50.0245 44.4329C51.2756 44.8599 51.9776 45.0556 52.9363 45.2247C56.1622 45.7935 58.5775 44.1373 58.7751 40.9787C58.7859 40.8059 58.9347 40.6747 59.1075 40.6855C59.2803 40.6963 59.4116 40.8451 59.4008 41.0179C59.1785 44.5702 56.4039 46.4727 52.8274 45.842Z" fill="#00160A"/>
<path fill-rule="evenodd" clip-rule="evenodd" d="M60.8879 49.2248L61.0678 49.6248L61.4782 49.7426C61.5003 49.749 61.5132 49.7721 61.5068 49.7943C61.5048 49.8011 61.5011 49.8073 61.4961 49.8124L61.1844 50.1227L61.2018 50.5693C61.2027 50.5924 61.1848 50.6118 61.1617 50.6127C61.1539 50.613 61.1462 50.6111 61.1394 50.6073L60.7865 50.4063C60.7754 50.4 60.7622 50.3991 60.7504 50.4038L60.3729 50.5537C60.3515 50.5622 60.3272 50.5517 60.3186 50.5303C60.3158 50.523 60.315 50.5151 60.3164 50.5074L60.3958 50.0676L60.1303 49.7169C60.1164 49.6985 60.12 49.6723 60.1384 49.6583C60.1441 49.654 60.1507 49.6512 60.1578 49.6503L60.5805 49.5907L60.8144 49.2197C60.8267 49.2002 60.8525 49.1943 60.872 49.2066C60.879 49.211 60.8845 49.2174 60.8879 49.2248Z" fill="#00160A"/>
<path d="M102.118 39.1716C102.279 39.1601 102.419 39.2814 102.43 39.4426C102.442 39.6037 102.321 39.7437 102.16 39.7552C101.005 39.8375 100.099 40.2849 99.6958 41.3915C99.6715 41.4581 99.6514 41.5224 99.6351 41.5835L99.6242 41.6254L99.642 41.5886C100.149 40.5532 101.127 39.8337 102.26 39.6511L102.335 39.64C102.495 39.6177 102.642 39.7293 102.665 39.8893C102.687 40.0493 102.576 40.1971 102.415 40.2195C101.363 40.3664 100.462 41.0662 100.069 42.0699L100.044 42.1373C99.8568 42.6502 99.4086 42.8962 99.1201 42.4572C98.9442 42.1894 98.9558 41.7139 99.146 41.1914C99.6284 39.8659 100.735 39.2702 102.118 39.1716Z" fill="white"/>
<path d="M100.785 36.9923C100.947 36.9808 101.086 37.1021 101.098 37.2633C101.109 37.4244 100.988 37.5644 100.827 37.5759C98.9907 37.7069 97.3805 38.8994 96.7399 40.6597C96.5499 41.1815 96.5146 41.6276 96.5826 41.8535L96.5909 41.8787L96.6039 41.8601C96.6365 41.8105 96.6733 41.7394 96.7094 41.6471L96.7248 41.6063C97.4015 39.747 99.0423 38.4448 100.967 38.1762C101.127 38.1539 101.275 38.2655 101.297 38.4255C101.319 38.5855 101.208 38.7333 101.048 38.7557C99.3641 38.9907 97.9252 40.1142 97.3054 41.7241L97.2746 41.8064C97.0236 42.4959 96.4809 42.7937 96.134 42.2658C95.8963 41.904 95.9129 41.221 96.1901 40.4596C96.9104 38.4805 98.7209 37.1396 100.785 36.9923Z" fill="white"/>
<path d="M98.9897 34.0865C99.1509 34.075 99.2909 34.1963 99.3024 34.3574C99.3139 34.5186 99.1925 34.6585 99.0314 34.67C96.4123 34.8569 94.1157 36.5578 93.2019 39.0684C92.8909 39.9228 92.865 40.647 93.0348 40.9481L93.0503 40.9735C93.0755 41.0118 93.067 41.0129 93.0735 41.0076L93.0774 41.0051C93.1634 40.9578 93.2771 40.7969 93.3808 40.53L93.4015 40.4752C94.3348 37.911 96.5976 36.1152 99.2518 35.7447C99.4118 35.7224 99.5596 35.834 99.582 35.994C99.6043 36.154 99.4927 36.3018 99.3327 36.3242C96.9226 36.6606 94.8639 38.2739 93.9853 40.5838L93.9512 40.6754C93.6265 41.5674 92.9754 41.9248 92.5614 41.2948C92.2527 40.8251 92.2752 39.904 92.6521 38.8683C93.6456 36.1389 96.1425 34.2896 98.9897 34.0865Z" fill="white"/>
<path d="M95.784 31.3555C95.9425 31.3244 96.0962 31.4278 96.1273 31.5863C96.1583 31.7449 96.055 31.8986 95.8964 31.9296C93.5254 32.394 91.6186 34.2049 91.0656 36.6003C90.8785 37.411 90.935 38.0702 91.1187 38.3217L91.1431 38.3532L91.145 38.3576L91.1484 38.355C91.2142 38.2956 91.2911 38.144 91.3507 37.909L91.3632 37.8573C91.932 35.3937 93.8102 33.4867 96.2093 32.8463C96.3654 32.8046 96.5257 32.8974 96.5674 33.0535C96.6091 33.2096 96.5163 33.3699 96.3602 33.4115C94.1988 33.9885 92.5006 35.6902 91.9556 37.8955L91.9333 37.9889C91.7327 38.8578 91.1567 39.2726 90.6902 38.7226C90.3489 38.3203 90.2651 37.4667 90.4955 36.4687C91.1009 33.8464 93.1885 31.8638 95.784 31.3555Z" fill="white"/>
<path d="M63.3556 67.4346L63.5245 67.3731C65.1206 66.8004 66.4673 66.5476 66.8093 66.8957C67.1093 67.2009 67.3767 67.7537 67.6301 68.5644C67.6783 68.7186 67.5924 68.8827 67.4382 68.9309C67.284 68.9791 67.1199 68.8932 67.0717 68.739C66.8525 68.0378 66.6289 67.5659 66.4174 67.3326L66.4087 67.3235L66.4011 67.3239C66.3611 67.3157 66.301 67.3116 66.2245 67.3131C66.056 67.3163 65.8255 67.3461 65.5503 67.4006C64.9842 67.5128 64.2687 67.7214 63.5581 67.9835C62.37 68.4218 61.3802 68.9367 60.8334 69.4019C60.6326 69.5727 60.2661 69.097 60.6188 68.8244C61.2534 68.3341 62.2159 67.855 63.3556 67.4346Z" fill="white"/>
<path d="M62.5524 61.9083C62.5524 62.8841 63.5843 63.9406 63.8039 64.0007C63.9597 64.0434 61.2749 65.7927 61.2749 65.7927C60.3048 65.9204 59.7351 65.1004 59.7351 63.8788C59.7351 63.7173 62.5524 61.7468 62.5524 61.9083Z" fill="white"/>
<path fill-rule="evenodd" clip-rule="evenodd" d="M59.3866 62.4208C59.7264 62.3548 59.9573 62.0716 59.9023 61.7884C59.8472 61.5052 59.5271 61.3292 59.1872 61.3952C58.8474 61.4613 58.6165 61.7444 58.6716 62.0276C58.7266 62.3108 59.0467 62.4869 59.3866 62.4208Z" fill="#FFB61D"/>
<path d="M94.0144 29.7329C94.1736 29.7052 94.3251 29.8117 94.3528 29.9709C94.3805 30.1301 94.274 30.2816 94.1148 30.3093C93.3578 30.4412 92.5944 30.8994 91.8073 31.6282C90.7853 32.5746 90.1103 33.8822 89.7381 35.6258C89.4382 37.0305 89.715 38.7857 90.4988 40.3288C91.3905 42.0843 92.9682 42.5182 94.8076 42.8541C96.6959 43.199 97.2178 42.986 99.0021 42.3517L99.1664 42.292C99.4102 42.1997 100.55 41.7536 100.825 41.6706C101.401 41.4962 101.795 41.5108 102.08 41.8149C102.191 41.9327 102.185 42.1178 102.067 42.2284C101.957 42.332 101.787 42.3333 101.675 42.236L101.654 42.2152C101.569 42.1255 101.395 42.1151 101.045 42.2156L100.994 42.2307C100.73 42.3104 99.4937 42.7957 99.3336 42.8541C97.4064 43.5576 96.7527 43.8042 94.7025 43.4297C92.6708 43.0586 90.947 42.5031 89.9771 40.5938C89.1342 38.9344 88.8372 37.0432 89.1659 35.5036C89.5631 33.6428 90.2988 32.2276 91.4098 31.1989C92.2795 30.3936 93.146 29.8842 94.0144 29.7329Z" fill="white"/>
<path d="M107.776 53.0103C106.109 52.9251 104.795 54.2131 104.782 55.9421C104.77 57.3988 105.591 58.5984 106.718 58.8308C107.174 58.9248 108.049 58.8118 108.698 58.4477C109.684 57.9191 110.437 56.8324 110.532 55.9065C110.687 54.398 109.466 53.0967 107.776 53.0103Z" fill="white"/>
<path d="M77.5566 52.7059C78.0893 53.7818 78.9165 56.2668 78.5587 56.2549C77.5649 56.2217 76.2353 54.6943 75.3053 52.6292L75.2319 52.4631C74.4199 50.5882 73.9336 49.4102 74.4983 49.1846C75.0824 48.9512 76.4572 50.4854 77.5566 52.7059Z" fill="white"/>
<path fill-rule="evenodd" clip-rule="evenodd" d="M74.4983 49.1611C75.0824 48.9277 76.4774 50.3918 77.5768 52.6124C78.1095 53.6882 78.4708 54.7203 78.5652 55.4604C78.5652 55.4604 76.7662 51.6698 75.6689 50.2814C75.2474 49.7481 74.4983 49.1611 74.4983 49.1611Z" fill="#E7EAEE"/>
<path d="M74.1919 58.7073C74.2348 58.5515 74.3958 58.4599 74.5516 58.5028C74.7073 58.5456 74.7989 58.7066 74.756 58.8624C74.7009 59.0628 73.9261 59.5884 72.2353 60.6306L71.1681 61.2837C69.0613 62.5663 67.6555 63.387 67.4798 63.387C66.3166 63.387 65.2684 62.2896 64.5031 60.5582C63.8349 59.0464 63.488 57.2468 63.6447 56.0675C63.6936 55.6994 64.9199 54.7466 66.8134 53.4701L67.0846 53.2883C68.7597 52.1724 70.1915 51.3447 70.7096 51.2402C70.8679 51.2083 71.0222 51.3107 71.0542 51.4691C71.0742 51.5682 66.4568 55.4602 66.0058 58.0434C65.7004 59.7925 66.8549 62.7737 67.428 62.8007L67.4798 62.8019C67.4332 62.8019 67.4481 62.791 67.4536 62.7879L67.5063 62.7607C67.5452 62.7404 67.5913 62.7155 67.6445 62.6863L67.8879 62.5501C67.981 62.4974 68.0848 62.4379 68.1983 62.3724L68.4886 62.2037C69.0429 61.8801 69.7345 61.4681 70.44 61.0413L71.1109 60.6333C71.9268 60.1349 72.6639 59.6752 73.2179 59.3183L73.5033 59.1329C73.6801 59.0169 73.8294 58.9166 73.9488 58.8334L73.9922 58.8031C74.058 58.7566 74.1127 58.7167 74.1554 58.6839C74.1554 58.6839 74.2036 58.6648 74.1919 58.7073Z" fill="white"/>
<path fill-rule="evenodd" clip-rule="evenodd" d="M74.7718 52.8695C74.0649 51.2999 73.7526 49.8615 73.9893 48.9906C73.5616 49.1265 73.0268 49.3708 72.496 49.6753C71.7905 50.0801 71.2306 50.5325 71.2175 50.6307C71.0811 51.6574 71.6046 53.6547 72.4744 55.4354C73.4048 57.34 74.5117 58.5634 75.3686 58.5634C75.4506 58.5634 75.6854 58.515 75.9207 58.4328C76.2554 58.3158 76.569 58.1455 76.8259 57.9223C76.9537 57.8113 77.0859 57.6859 77.224 57.5459L77.3904 57.3739C77.4885 57.2702 77.5898 57.1584 77.7478 56.9814L77.968 56.7355L77.9775 56.7251C76.8752 56.3223 75.7223 54.9025 74.8599 53.0613L74.7718 52.8695ZM70.6375 50.5537C70.7285 49.8688 73.2927 48.3883 74.4629 48.2927C74.5118 48.262 74.5642 48.2354 74.62 48.2131C75.6334 47.8081 77.1776 49.5427 78.4162 51.9834L78.5011 52.1528C79.0602 53.282 79.4417 54.3715 79.5456 55.1865C79.6698 56.1604 79.3878 56.8061 78.6484 56.8391C78.6286 56.9159 78.5785 56.98 78.5121 57.0187L78.5007 57.0245L78.4718 57.0534C78.4428 57.0831 78.4087 57.1201 78.356 57.1787L77.9925 57.5844C77.8606 57.7298 77.7671 57.8284 77.6405 57.9568C77.4925 58.1068 77.3496 58.2424 77.2096 58.364C76.6433 58.856 75.806 59.1485 75.3686 59.1485C75.1366 59.1485 74.902 59.0945 74.6669 58.9915C74.4158 59.2535 73.643 59.7631 72.2353 60.6309L71.1681 61.284C69.0613 62.5666 67.6555 63.3872 67.4797 63.3872C67.0814 63.3872 66.6965 63.2585 66.3318 63.0197C66.3285 63.0221 66.325 63.0244 66.3215 63.0266L66.1726 63.1224C65.6545 63.4583 64.8263 64.0167 64.0579 64.5348L64.0576 64.5351L64.057 64.5354L64.0568 64.5356L64.0087 64.568C64.1082 65.2784 64.3344 65.9907 64.6884 66.7056C65.9448 66.317 66.94 66.1858 67.2272 66.478C67.5272 66.7832 67.7946 67.336 68.048 68.1467C68.0962 68.3009 68.0103 68.465 67.8561 68.5132C67.7019 68.5614 67.5378 68.4755 67.4896 68.3213C67.2704 67.6201 67.0468 67.1482 66.8353 66.9149L66.8265 66.9058L66.819 66.9062C66.779 66.898 66.7189 66.8939 66.6424 66.8954C66.4739 66.8986 66.2434 66.9284 65.9682 66.9829C65.4021 67.0951 64.6866 67.3037 63.976 67.5658C62.3516 68.165 61.098 68.9075 60.8403 69.4702C60.7649 69.6348 60.7745 69.8758 60.8647 70.2449L60.8815 70.3113C60.895 70.3636 60.9091 70.4155 60.9276 70.481L61.0333 70.8549L61.0475 70.9091C61.0881 71.0654 60.9942 71.2251 60.8378 71.2657C60.6814 71.3063 60.5218 71.2124 60.4812 71.0561L60.4292 70.8669L60.3427 70.5615C60.3328 70.5254 60.3239 70.4921 60.3151 70.4582C60.1781 69.9297 60.156 69.5593 60.3084 69.2266C60.5667 68.6625 61.3747 68.0782 62.4998 67.5469L62.2551 66.9148L62.1946 66.7549C62.102 66.5056 61.9941 66.1677 61.928 65.9211C61.049 66.3948 60.4369 66.474 59.8235 66.14L59.7758 66.1132C59.6545 66.0429 59.5377 65.962 59.4198 65.8634L55.9912 67.9458L56.0877 68.1535C56.2416 68.4835 55.9702 68.7171 55.5541 68.8988L55.5092 68.9179C55.1515 69.0661 54.8287 69.1 54.6365 68.8891C53.8392 68.014 52.9952 65.9207 53.4493 65.442C53.5365 65.35 53.7667 65.2131 54.2019 64.9848L54.2366 64.9668C54.2455 64.9606 54.2548 64.9549 54.2645 64.9496L57.4695 63.2132C57.4769 63.2092 57.4843 63.2056 57.4918 63.2023C57.2939 62.875 57.0769 62.5106 56.837 62.104C56.8005 62.045 56.787 61.976 56.7962 61.9097C56.8021 61.8676 56.8171 61.8265 56.8413 61.7898C56.8545 61.7696 56.8704 61.7508 56.8888 61.7341C57.5477 61.1092 58.4456 60.4576 59.5718 59.756L59.7084 59.6714C60.1959 59.3708 61.1845 58.807 62.0244 58.3279L62.0244 58.3279C62.6759 57.9564 63.2378 57.6358 63.4071 57.5288L63.4481 57.5016C63.5093 57.4568 63.5821 57.4393 63.652 57.4468C63.5963 56.9394 63.5915 56.4679 63.6446 56.0678C63.6935 55.6997 64.9198 54.7469 66.8133 53.4704L67.0845 53.2886C68.6715 52.2313 70.0402 51.4329 70.6203 51.2629C70.6047 51.001 70.6098 50.7623 70.6375 50.5537ZM70.6844 51.8561C70.1161 52.0639 68.6931 52.9087 67.1404 53.9555L66.8917 54.1241C66.1929 54.6009 65.5474 55.0658 65.0598 55.4447L64.9243 55.5509C64.7067 55.7234 64.5307 55.872 64.403 55.9911C64.339 56.0509 64.2885 56.102 64.2529 56.1427L64.2279 56.1721C64.2225 56.1777 64.2211 56.1755 64.2231 56.1571L64.2246 56.1448C64.224 56.1496 64.2235 56.1536 64.2231 56.1571L64.2154 56.2199C63.9341 58.6887 65.7192 62.7205 67.428 62.8009L67.4682 62.8019C67.4715 62.8021 67.4753 62.8022 67.4797 62.8022L67.4682 62.8019C67.4359 62.8002 67.4486 62.791 67.4536 62.7882L67.5063 62.761C67.5451 62.7406 67.5913 62.7158 67.6444 62.6866L67.8878 62.5504C67.9809 62.4977 68.0847 62.4382 68.1982 62.3727L68.4886 62.204C69.0429 61.8804 69.7345 61.4684 70.4399 61.0415L71.1109 60.6336C71.9267 60.1351 72.6639 59.6755 73.2179 59.3186L73.5033 59.1332C73.68 59.0172 73.8294 58.9169 73.9488 58.8337L73.9921 58.8033C74.0554 58.7588 74.1083 58.7202 74.1503 58.6881C73.3967 58.1352 72.6547 57.1139 71.9961 55.7883L71.9487 55.6922C71.3139 54.3926 70.8548 52.9853 70.6844 51.8561ZM63.7327 58.014C63.5216 58.1468 62.8991 58.5023 62.2063 58.8979L62.2061 58.898L62.2061 58.898C61.3851 59.3668 60.4656 59.8919 60.0154 60.1694C58.9522 60.8249 58.0948 61.4325 57.4582 62.0046L57.6691 62.3603C58.5916 63.9082 59.1259 64.7227 59.5556 65.1829C59.4128 64.8443 59.3389 64.4146 59.3389 63.8756C59.3389 63.8508 59.342 63.8267 59.3478 63.8037C59.3194 63.6916 59.3594 63.5686 59.4583 63.4959L59.6575 63.3478C59.7769 63.2576 59.9731 63.1076 60.1963 62.9371L60.1964 62.937L60.1966 62.9369L60.1972 62.9364L60.1973 62.9364L60.1975 62.9362L60.198 62.9358C60.6872 62.562 61.3049 62.09 61.5253 61.932C62.2191 61.4351 62.7304 61.1562 63.196 61.0595C63.4184 61.0132 63.5912 61.1448 63.6413 61.3486L63.6495 61.3856C63.6611 61.4463 63.6633 61.5059 63.663 61.6362L63.6629 61.6775C63.6605 62.1643 63.7087 62.4452 63.9149 62.7697C64.056 62.9917 64.2633 63.1944 64.5521 63.3758C64.5823 63.3948 64.6079 63.4184 64.6284 63.4451C65.0944 63.1322 65.5309 62.8412 65.8528 62.6325C65.3455 62.1413 64.8884 61.4303 64.5031 60.5584C64.1442 59.7464 63.878 58.8514 63.7327 58.014ZM78.9652 55.2605C78.8708 54.5204 78.5095 53.4883 77.9768 52.4124C76.8774 50.1919 75.4212 48.523 74.8371 48.7564C74.2725 48.982 74.4199 50.5882 75.2319 52.4631L75.3053 52.6292C76.2353 54.6944 77.5649 56.2217 78.5587 56.2549C78.9165 56.2669 79.0563 55.9747 78.9652 55.2605ZM57.7941 63.6969C58.3016 64.5174 58.6724 65.0595 58.9954 65.4366L55.7451 67.4108C55.4121 66.6808 55.1143 66.0014 54.8253 65.3112L57.7482 63.7277C57.7647 63.7187 57.7801 63.7084 57.7941 63.6969ZM64.1273 66.8901C63.8119 66.2378 63.594 65.5837 63.4743 64.9281C63.0543 65.2108 62.6888 65.4554 62.4538 65.6081C62.4941 65.8099 62.6437 66.289 62.7725 66.6296L63.0126 67.2476L63.0354 67.3079C63.2714 67.2083 63.518 67.1111 63.7735 67.0169L63.9424 66.9554C64.0044 66.9332 64.0661 66.9114 64.1273 66.8901ZM64.1168 63.7894C63.8172 63.5817 63.5875 63.3454 63.421 63.0834C63.1517 62.6594 63.0809 62.2974 63.0778 61.7503L63.0777 61.7014L63.0363 61.7169C62.7397 61.832 62.3857 62.0403 61.941 62.3544L61.866 62.4077C61.6543 62.5594 61.0516 63.0199 60.5655 63.3913C60.2953 63.5979 60.061 63.7768 59.9501 63.8599L59.9239 63.8792C59.9245 64.8525 60.1675 65.2991 60.6193 65.5157L60.6554 65.5324C60.7631 65.58 60.84 65.604 61.0595 65.6641L61.0672 65.6663L61.0725 65.668C61.3003 65.5914 61.5614 65.4634 61.8733 65.2805L61.9895 65.2108C62.247 65.0502 62.9383 64.584 63.6988 64.0712L63.6989 64.0712L64.1168 63.7894ZM54.3082 65.5911L54.3531 65.6978C54.6638 66.4345 54.9866 67.1641 55.3531 67.9598L55.4956 68.2685C55.4489 68.2998 55.3874 68.3332 55.3199 68.3627C55.2229 68.405 55.1245 68.4347 55.0504 68.4447L55.0268 68.4471L54.9912 68.4044C54.7143 68.0634 54.3929 67.4841 54.1606 66.9081C54.0369 66.6013 53.9488 66.3199 53.9091 66.1036C53.8929 66.0156 53.8854 65.9416 53.8861 65.8854L53.8878 65.8484C53.8884 65.8394 53.8884 65.8348 53.8862 65.8341L53.8949 65.8282C53.9444 65.7941 54.0707 65.7201 54.2584 65.6181L54.3082 65.5911ZM58.3436 64.9466C58.2305 64.8312 58.0453 64.8295 57.93 64.9426C57.7271 65.1416 57.4428 65.3269 56.9462 65.6026L56.4409 65.883C56.3074 65.9591 56.1981 66.0247 56.0991 66.0889C56.0163 66.1426 55.9424 66.1944 55.876 66.2457C55.7481 66.3445 55.7246 66.5282 55.8234 66.6561C55.9222 66.7839 56.1059 66.8074 56.2337 66.7087C56.2865 66.6679 56.3475 66.6251 56.4175 66.5797C56.4821 66.5378 56.5531 66.4944 56.6353 66.4463L56.7964 66.3541L57.3098 66.0697C57.8029 65.7929 58.1001 65.5953 58.3397 65.3603C58.455 65.2471 58.4568 65.0619 58.3436 64.9466Z" fill="#00160A"/>
<path d="M51.8 94.6539C53.263 102.81 58.7459 108.942 65.7424 110.387C67.0267 110.653 69.2506 110.688 71.5534 110.39C74.5204 110.005 77.408 109.125 79.9475 107.697C86.9236 103.948 92.2171 96.2958 92.9032 89.5972C93.5059 83.7133 91.2581 78.2777 87.1888 74.3999C87.1888 74.3999 74.4057 80.6786 68.1306 84.2473C62.6702 87.3527 51.8 94.6539 51.8 94.6539Z" fill="white"/>
<path d="M81.5701 70.3315C78.948 69.0378 75.6629 68.0159 72.4416 67.8512C60.6271 67.2471 51.3352 76.6853 51.2383 88.8589C51.2383 88.8589 64.4245 80.4598 71.275 76.4075C74.6832 74.3914 81.5701 70.3315 81.5701 70.3315Z" fill="white"/>
<path fill-rule="evenodd" clip-rule="evenodd" d="M105.871 64.1274C105.831 66.1614 103.679 69.5466 100.219 73.3775C97.7131 76.1525 94.7968 78.8349 92.3516 80.6424L92.1994 80.7538L92.3004 81.203C92.8951 83.8091 93.6713 86.6421 93.378 89.499C92.6662 96.4332 87.2424 104.256 80.0751 108.1C77.461 109.566 74.4896 110.471 71.4417 110.864L71.1511 110.9C68.8784 111.168 66.7037 111.124 65.3746 110.85C60.2161 109.786 55.8487 106.18 53.2082 100.961C53.1994 100.944 53.1924 100.926 53.1873 100.907C52.8397 101.106 52.372 101.327 52.1584 101.4L51.5733 101.598C45.2668 103.719 39.0146 105.493 36.4605 104.386C35.4882 103.964 35.1559 103.153 35.5625 102.064C35.9577 101.005 37.0534 99.6406 38.8917 97.9428L38.9927 97.8499C40.7346 96.2531 44.603 93.3352 50.5977 89.0964L50.5993 89.0185C50.8918 76.4582 60.6482 66.883 72.9118 67.6646C76.6628 67.9037 79.6501 69.2367 81.142 70.0552L81.7982 69.7031C87.9522 66.4126 92.89 64.0995 96.6575 62.7151C102.853 60.4383 105.917 61.5028 105.871 64.1274ZM96.8593 64.0642C89.9313 66.6101 78.9824 72.3358 63.7381 81.5461L63.2748 81.8263C51.4046 89.012 43.5443 94.4712 39.3881 98.2812L39.1832 98.4704L38.989 98.6525C35.869 101.6 35.316 103.252 36.6933 103.849C39.0511 104.871 45.3829 103.148 51.5836 101.114L52.1584 100.924C52.7114 100.741 53.0781 100.636 53.3051 100.587C53.315 100.58 53.3258 100.574 53.3372 100.568C53.4148 100.529 53.5016 100.527 53.5766 100.557C53.5928 100.56 53.6034 100.565 53.6089 100.572C53.6595 100.599 53.7024 100.642 53.7303 100.697C56.2936 105.763 60.5173 108.851 65.4928 109.877C66.7843 110.143 68.9633 110.182 71.2306 109.901L71.3667 109.884C74.3445 109.5 77.2447 109.017 79.7937 107.587C86.7976 103.831 92.1044 96.1766 92.796 89.4393C93.0916 86.5599 92.7144 83.7335 91.7116 81.1028C91.6288 81.1608 91.5467 81.2175 91.4652 81.273C91.3113 81.378 91.3687 81.208 91.6376 80.7629C91.6519 80.7049 91.6839 80.652 91.7299 80.6123L91.8127 80.4811C91.8418 80.4354 91.8722 80.3878 91.9042 80.3383L92.251 80.0459C95.5188 77.2819 98.0302 74.9284 99.785 72.9853L99.9854 72.7624C103.232 69.1289 105.251 65.9194 105.284 64.1166C105.32 62.139 102.711 61.9138 96.8593 64.0642ZM67.4835 101.06C68.2685 103.459 67.081 105.002 64.9908 105.082C63.0594 105.156 61.3007 103.939 61.3903 102.209C61.4678 100.715 62.4912 99.1168 63.7511 98.53C65.2749 97.8204 66.7051 98.6813 67.4835 101.06ZM64.0599 99.193C63.0516 99.6626 62.1844 101.016 62.1206 102.247C62.0571 103.473 63.412 104.41 64.9629 104.351C66.5843 104.289 67.4167 103.208 66.7884 101.288C66.1344 99.2887 65.1398 98.6901 64.0599 99.193ZM83.4423 96.1718C84.4438 98.0643 84.1816 99.9234 82.6416 100.757L82.5985 100.779L82.5761 100.802C80.5109 102.847 77.9311 103.095 76.2487 101.613L76.1911 101.561C74.2531 99.7856 74.7148 96.7356 77.7985 94.3447C79.783 92.8061 82.2071 93.8378 83.4423 96.1718ZM78.1826 94.8401C75.3831 97.0107 74.9896 99.6101 76.6145 101.099C77.7799 102.166 79.5018 102.225 81.11 101.189L81.1414 101.168L81.1297 101.166C81.0183 101.136 80.929 101.046 80.9036 100.929L80.8987 100.9C80.8783 100.728 81.0011 100.572 81.173 100.551C81.5662 100.505 81.9074 100.41 82.1968 100.274L82.2363 100.255L82.2843 100.205C82.473 100.007 82.6572 99.7904 82.8358 99.5567L82.8951 99.4781C82.9621 99.3884 83.068 99.3447 83.172 99.3531L83.18 99.354L83.1842 99.3462C83.5597 98.604 83.4707 97.5984 82.9211 96.5281L82.8882 96.465C81.8141 94.4355 79.8066 93.581 78.1826 94.8401ZM96.8245 72.345C96.6635 72.9174 96.1731 73.7028 95.4216 74.6329C94.1114 76.2543 92.1432 78.1416 90.4228 79.4321L90.8045 79.0124C90.8007 79.009 90.7975 79.0046 90.7947 78.9994L90.663 78.7576C89.8021 77.1861 88.843 75.636 87.293 74.3724C83.2807 76.0267 78.6803 78.288 74.4889 80.6524L73.1151 81.429C62.998 87.1599 57.6752 90.591 51.9833 94.8088C52.1981 95.7763 52.4688 96.7205 52.793 97.6353C52.8439 97.7788 52.1792 98.3161 52.0575 98.2498C50.922 99.0106 49.1439 99.5632 48.1316 99.5919C47.1451 99.6199 46.5751 99.2205 46.8687 98.4242C47.1144 97.7581 48.0397 96.808 49.7048 95.5347L49.8947 95.3906L50.2785 95.1022C56.5455 90.4104 62.7497 86.6029 74.2015 80.1428L74.6808 79.8738C82.5351 75.4896 91.6306 71.5397 95.7966 71.1752C96.653 71.1003 97.0414 71.5742 96.8245 72.345ZM51.2212 95.3764L49.9081 96.3672C48.7368 97.2554 47.8923 97.9123 47.4361 98.3337L47.4026 98.3649C46.8458 98.8872 47.4761 99.0252 48.1151 99.0071C49.0829 98.9796 50.5657 98.2456 51.8207 97.5776C51.5887 96.8591 51.3886 96.1245 51.2212 95.3764ZM71.7599 92.2C71.9165 92.2398 72.0112 92.399 71.9714 92.5556C71.9317 92.7121 71.7725 92.8069 71.6159 92.7671C70.8293 92.5674 70.3645 92.644 70.2138 92.8559C70.1138 92.9965 70.1692 93.2361 70.3562 93.3891C70.5024 93.5086 70.697 93.5658 70.8309 93.5366C70.9473 93.5113 71.0125 93.4215 71.0125 93.1969C71.0125 93.0353 71.1435 92.9043 71.3051 92.9043C71.4666 92.9043 71.5976 93.0353 71.5976 93.1969C71.5976 93.6854 71.3532 94.0217 70.9553 94.1083C70.6354 94.1779 70.2627 94.0685 69.9858 93.8419C69.5768 93.5074 69.4432 92.9297 69.7371 92.5167C70.0592 92.064 70.7653 91.9475 71.7599 92.2ZM58.9095 91.1261C59.3607 91.2612 59.555 91.6077 59.6163 92.1274L59.6224 92.1837L59.6298 92.2692C59.6308 92.2835 59.6318 92.2981 59.6328 92.3138L59.6482 92.6107L59.6528 92.6776C59.6552 92.7071 59.6578 92.7311 59.6608 92.7524L59.6686 92.7972L59.6733 92.8168L59.6815 92.8241C59.7718 92.9125 59.7958 93.0511 59.7374 93.1656L59.7225 93.1915C59.6349 93.3273 59.4538 93.3664 59.318 93.2788C59.1312 93.1583 59.0887 93.0342 59.0661 92.6784L59.0475 92.3302C59.0454 92.2987 59.0431 92.2715 59.0401 92.2406C59.0068 91.8999 58.9237 91.7411 58.7416 91.6865C58.2306 91.5335 57.9374 91.6898 57.8445 92.0313C57.7618 92.3357 57.8815 92.6555 58.0912 92.7444L58.1443 92.7641C58.2813 92.8226 58.3539 92.9769 58.3077 93.1218C58.2586 93.2758 58.094 93.3608 57.9401 93.3117C57.383 93.1341 57.1183 92.4722 57.2799 91.8778C57.4603 91.2143 58.0877 90.8799 58.9095 91.1261ZM80.0152 86.6466C80.8253 87.7855 80.6747 89.2346 79.375 89.8904C79.2307 89.9631 79.0548 89.9052 78.982 89.761C78.9092 89.6167 78.9672 89.4408 79.1114 89.368C80.0525 88.8932 80.1599 87.8594 79.5385 86.9858C78.9347 86.137 78.0944 86.0436 77.5169 86.9608C76.9047 87.933 76.9492 88.5038 77.3899 88.7608C77.7398 88.9648 78.3033 88.922 78.4582 88.7552L78.4732 88.7368C78.5669 88.6052 78.7496 88.5745 78.8812 88.6682C79.0128 88.7619 79.0436 88.9445 78.9499 89.0761C78.6247 89.533 77.6966 89.6169 77.0952 89.2662C76.3253 88.8173 76.2516 87.8721 77.0218 86.649C77.8465 85.3393 79.1917 85.4887 80.0152 86.6466ZM67.8865 84.9692C68.0385 84.9692 68.1635 85.0852 68.1777 85.2336L68.179 85.2617C68.179 85.3132 68.2269 85.3708 68.3985 85.4967L68.561 85.6132C68.7381 85.7424 68.8235 85.8225 68.9041 85.9501C69.0886 86.2417 69.1931 86.5387 69.1931 86.8878C69.1931 87.7819 67.85 88.9979 66.384 89.539C64.6265 90.1877 63.1866 89.7067 62.7948 87.9032C62.7605 87.7454 62.8607 87.5896 63.0185 87.5553C63.1764 87.521 63.3322 87.6211 63.3665 87.779C63.6706 89.1786 64.7205 89.5293 66.1814 88.9901C67.4429 88.5245 68.6081 87.4696 68.6081 86.8878C68.6081 86.6628 68.5396 86.4682 68.4096 86.2628L68.392 86.2381C68.3622 86.2005 68.3157 86.1597 68.2318 86.0976L68.0388 85.9585C67.7181 85.722 67.5939 85.5625 67.5939 85.2617C67.5939 85.1002 67.7249 84.9692 67.8865 84.9692ZM69.2597 68.7548L69.0749 68.7755C59.0925 69.976 51.6037 77.9602 51.1953 88.6745L52.2664 87.9209C55.3407 85.7628 58.9092 83.2978 62.9719 80.5258L63.7635 80.0474C66.1268 78.6215 68.3865 77.2797 70.5436 76.0209C70.5043 75.9518 70.4932 75.8671 70.5199 75.7856C70.6707 75.3252 70.8101 75.0159 71.0655 74.7061C71.8648 73.7364 72.9599 73.2628 73.7357 73.8717C73.8121 73.9316 73.8506 74.022 73.8475 74.1121L74.5367 73.7189C76.7068 72.4835 78.7603 71.3425 80.6984 70.2944L79.9414 70.079C78.8188 69.7631 77.4222 69.3883 76.031 69.0998C76.0437 70.0255 75.3508 70.7648 74.1995 71.2732C73.2209 71.7055 71.9456 71.938 71.0388 71.884C69.3424 71.7828 68.3875 70.2949 69.2597 68.7548ZM86.7707 81.4591C87.4866 83.415 86.8959 85.1935 85.1085 85.1819C82.5616 85.1653 80.0746 82.9415 80.4767 80.9494C80.6561 80.0606 81.3241 79.2745 82.4859 78.8822C84.3413 78.2556 86.042 79.4682 86.7707 81.4591ZM82.6731 79.4365C81.713 79.7607 81.189 80.3773 81.0502 81.0651C80.7311 82.6463 82.8964 84.5824 85.1123 84.5968C86.3816 84.6051 86.8181 83.2907 86.2213 81.6602C85.5898 79.9349 84.178 78.9283 82.6731 79.4365ZM61.1621 72.5111L61.183 72.5413L61.3238 72.7652C61.3927 72.8789 61.4545 72.9904 61.5133 73.1106C62.1612 74.4353 62.1445 76.1719 61.048 78.5825C60.5513 79.6745 59.2859 81.1422 58.1809 82.0179C56.7699 83.1362 55.7164 83.3902 54.459 83.2522L54.0859 83.2083L54.0404 83.2042C54.0154 83.2023 53.9995 83.2022 53.982 83.2028L53.9564 83.2039C53.9369 83.2048 53.9302 83.2038 53.929 83.2012L53.929 83.1992L53.9196 83.2144C53.8348 83.3361 53.6699 83.3761 53.5376 83.3025C53.3964 83.2239 53.3456 83.0458 53.4241 82.9046C53.5293 82.7156 53.705 82.6301 53.9287 82.6194C53.9879 82.6166 54.0506 82.6186 54.1252 82.6248L54.2124 82.6334L54.4537 82.6626C55.5991 82.8015 56.5104 82.5954 57.8175 81.5594C58.8554 80.7368 60.0618 79.3376 60.5155 78.3403C61.5415 76.0844 61.5565 74.5306 60.9877 73.3677C60.9499 73.2902 60.9104 73.2167 60.8675 73.1428L60.8063 73.0404L60.6836 72.8465C60.5978 72.7096 60.6392 72.5291 60.7761 72.4432C60.9044 72.3628 61.0711 72.3941 61.1621 72.5111ZM95.8476 71.7581C93.9774 71.9217 91.0458 72.8455 87.6661 74.2196L87.7648 74.307C88.7054 75.1509 90.6031 77.152 91.1971 78.5794L91.7888 77.9233C93.2487 76.2995 94.308 75.0801 94.9665 74.2652L95.0999 74.098C95.7292 73.2993 96.136 72.6318 96.2613 72.1865L96.2791 72.1189C96.3572 71.7975 96.2668 71.7214 95.8476 71.7581ZM67.8364 72.7084C68.5644 73.0604 68.8599 73.844 68.3809 74.5545C68.2906 74.6885 68.1088 74.7239 67.9749 74.6336C67.8409 74.5433 67.8055 74.3615 67.8958 74.2275C68.1593 73.8366 68.0107 73.4425 67.5817 73.2351C67.13 73.0167 66.635 73.1423 66.3796 73.6191C66.1442 74.0584 66.128 74.6532 66.316 75.0427C66.4809 75.3847 66.7211 75.4502 67.0874 75.1744C67.2165 75.0773 67.3999 75.1031 67.4971 75.2322C67.5943 75.3613 67.5684 75.5447 67.4393 75.6419C66.7717 76.1444 66.1108 75.9641 65.789 75.297C65.5192 74.7377 65.5407 73.9458 65.8638 73.3428C66.276 72.5735 67.1163 72.3602 67.8364 72.7084ZM71.517 75.0782C71.3806 75.2437 71.2831 75.4183 71.1928 75.6424C71.9467 75.2045 72.6877 74.7766 73.416 74.3589L73.3948 74.3465L73.3745 74.3319C72.9278 73.9814 72.1404 74.3219 71.517 75.0782ZM70.2694 68.6653L70.0136 68.6832L69.9965 68.7049C68.9852 69.9828 69.3747 71.0202 70.7557 71.1675C71.7476 71.2732 74.3807 70.5374 74.6895 70.2791C74.9903 70.0276 75.3708 69.449 75.4294 68.9804C74.5358 68.8124 73.6617 68.6888 72.8819 68.649C72.0851 68.6082 71.2993 68.6092 70.5265 68.6501L70.2694 68.6653Z" fill="#00160A"/>
<path d="M96.6819 64.1366C102.878 61.8599 102.736 62.5354 96.8837 64.6858C89.9557 67.2317 63.8042 83.1838 63.8042 83.1838C51.9339 90.3696 51.046 89.2604 62.5514 82.2679L63.2607 81.8378C63.3942 81.7569 76.4934 73.4895 85.8536 69.0665C86.9069 68.5688 95.9765 64.3959 96.6819 64.1366Z" fill="white"/>
<path fill-rule="evenodd" clip-rule="evenodd" d="M107.38 52.8019C105.46 52.7038 103.961 54.1957 103.946 56.1477C103.933 57.7832 104.871 59.1719 106.216 59.4491C106.57 59.5221 107.591 59.5221 108.477 59.025L108.551 58.9845C109.668 58.3519 110.428 57.1483 110.53 56.1581C110.71 54.4027 109.3 52.9001 107.38 52.8019ZM104.364 56.1511L104.364 56.1133C104.376 56.1095 104.388 56.1045 104.399 56.0983C105.905 55.2875 106.834 54.6696 107.205 54.2234C107.45 53.9288 107.569 53.5965 107.56 53.2355C107.812 53.2634 108.053 53.3189 108.279 53.3983C108.278 53.4092 108.277 53.4202 108.278 53.4315C108.296 53.951 108.158 54.3664 107.863 54.6897C107.525 55.0614 107.115 55.4151 106.649 55.7486C106.15 56.1051 105.615 56.42 105.08 56.6895C104.956 56.7524 104.837 56.8098 104.725 56.8614L104.564 56.9347L104.499 56.963L104.451 56.9832C104.392 56.7197 104.362 56.4404 104.364 56.1511ZM104.569 57.3871C104.701 57.7541 104.893 58.0793 105.13 58.3442L105.255 58.2724C107.219 57.1351 108.439 56.2418 108.9 55.6115C109.367 54.9743 109.533 54.4851 109.429 54.1524C109.426 54.1445 109.424 54.1367 109.423 54.1288C109.217 53.913 108.973 53.7274 108.697 53.581C108.685 54.1333 108.51 54.5997 108.172 54.9711C107.812 55.3663 107.381 55.7388 106.892 56.0884C106.375 56.4586 105.821 56.7841 105.268 57.0628C105.107 57.144 104.955 57.2165 104.815 57.2798L104.653 57.352L104.569 57.3871ZM106.133 58.9977C105.886 58.9239 105.656 58.8029 105.449 58.6426C107.472 57.473 108.73 56.5514 109.237 55.8585C109.552 55.4286 109.753 55.042 109.835 54.697C109.937 54.8869 110.014 55.0894 110.063 55.301C110.053 55.3225 110.046 55.3463 110.043 55.3716C109.992 55.8601 109.74 56.345 109.28 56.8279C108.838 57.2913 107.885 57.96 106.427 58.8245L106.133 58.9977ZM106.839 59.0653C107.288 59.0368 107.837 58.9053 108.28 58.6567C109.104 58.2145 109.766 57.3818 110.017 56.5794C109.896 56.7606 109.751 56.9396 109.582 57.1162C109.129 57.5922 108.217 58.2391 106.839 59.0653ZM104.485 55.5759L104.411 55.6163C104.648 54.2355 105.751 53.2446 107.141 53.2159C107.155 53.4872 107.071 53.7307 106.884 53.9562C106.58 54.3207 105.776 54.8664 104.485 55.5759Z" fill="#00160A"/>
<path fill-rule="evenodd" clip-rule="evenodd" d="M122.465 48.7979C122.504 48.8024 122.531 48.8377 122.527 48.8764C122.527 48.9334 122.49 48.9642 122.441 48.9843C122.396 49.0021 122.325 48.9953 122.284 49.0009C121.831 49.0358 121.476 48.7028 121.319 48.2736C121.169 47.8614 121.209 47.3684 121.482 47.0644C121.513 47.0285 121.567 47.0249 121.603 47.0563C121.639 47.0877 121.843 47.1423 121.811 47.1782C121.586 47.4408 121.434 47.6001 121.646 48.2235C121.859 48.8469 122.436 48.7946 122.465 48.7979Z" fill="#E7EAEE"/>
<path fill-rule="evenodd" clip-rule="evenodd" d="M50.4141 53.2612C50.2952 53.1796 50.1326 53.2098 50.0509 53.3287C49.9693 53.4476 49.9995 53.6102 50.1184 53.6919C50.249 53.7816 50.3645 53.8644 50.4664 53.9413C50.3566 54.0287 50.247 54.1287 50.1331 54.2426L49.9021 54.4772C49.8006 54.5796 49.8013 54.745 49.9037 54.8466C50.0062 54.9481 50.1716 54.9474 50.2731 54.8449L50.5503 54.5648C50.663 54.455 50.7687 54.3631 50.8751 54.2868C51.1113 54.5209 51.1832 54.6926 51.187 54.8632L51.187 54.907L51.1884 54.9337C51.2018 55.0654 51.313 55.1682 51.4482 55.1682C51.5925 55.1682 51.7094 55.0512 51.7094 54.907L51.7094 54.8556C51.7045 54.5896 51.6106 54.3365 51.3578 54.0473C51.5248 53.9975 51.7129 53.9697 51.9411 53.9578C52.0852 53.9502 52.1959 53.8274 52.1883 53.6833C52.1808 53.5392 52.0579 53.4286 51.9139 53.4361C51.5177 53.4568 51.2099 53.5228 50.9356 53.6483C50.8211 53.5547 50.6914 53.4564 50.5448 53.3524L50.4141 53.2612Z" fill="#00160A"/>
<path fill-rule="evenodd" clip-rule="evenodd" d="M89.5514 110.495L89.7327 110.496C90.7454 110.505 91.5367 110.597 93.0271 110.836C93.198 110.863 93.3143 111.024 93.2868 111.195C93.2594 111.366 93.0986 111.482 92.9277 111.455L92.4393 111.378C91.206 111.189 90.4954 111.122 89.5514 111.122C86.2758 111.122 84.1848 113.172 84.5386 116.317C84.558 116.489 84.4342 116.644 84.2622 116.664C84.0902 116.683 83.935 116.559 83.9157 116.387C83.5177 112.85 85.9198 110.495 89.5514 110.495ZM92.0883 111.761L92.0578 111.734C92.0283 111.708 91.9828 111.712 91.958 111.742C91.9321 111.771 91.936 111.816 91.9655 111.842L91.9971 111.868C92.0266 111.894 92.071 111.89 92.0969 111.86C92.1218 111.831 92.1188 111.786 92.0883 111.761ZM86.4085 112.416C86.2961 112.326 86.1317 112.344 86.0413 112.456C85.6765 112.91 85.4105 113.353 85.2446 113.784C85.0832 114.204 85.0282 114.91 85.0701 115.919L85.0802 116.132C85.0878 116.276 85.2107 116.387 85.3547 116.38C85.4988 116.372 85.6094 116.249 85.6019 116.105C85.5464 115.051 85.5937 114.333 85.7322 113.972C85.8774 113.594 86.1157 113.197 86.4485 112.783C86.5389 112.671 86.521 112.507 86.4085 112.416ZM89.2591 111.552C89.3872 111.486 89.5448 111.536 89.6111 111.664C89.6775 111.792 89.6275 111.95 89.4994 112.016C88.9689 112.291 88.5637 112.751 88.2813 113.408C87.9782 114.113 87.7303 114.742 87.5374 115.295C87.4899 115.431 87.3409 115.503 87.2047 115.456C87.0685 115.408 86.9966 115.259 87.0441 115.123C87.2414 114.558 87.4938 113.917 87.8014 113.202C88.1296 112.438 88.6164 111.885 89.2591 111.552ZM90.7776 111.538C90.6825 111.43 90.5175 111.419 90.409 111.514C89.973 111.896 89.6381 112.243 89.4036 112.558C89.1708 112.871 88.8983 113.339 88.5828 113.965C88.5179 114.094 88.5697 114.251 88.6985 114.316C88.8273 114.381 88.9844 114.329 89.0493 114.2C89.3524 113.599 89.6112 113.155 89.8227 112.87C90.0325 112.588 90.3429 112.266 90.7532 111.907C90.8617 111.812 90.8726 111.647 90.7776 111.538ZM89.8239 114.488C89.7154 114.583 89.5504 114.572 89.4554 114.464C89.3603 114.355 89.3712 114.19 89.4797 114.095C89.8901 113.736 90.2004 113.414 90.4102 113.132C90.6217 112.847 90.8806 112.403 91.1836 111.802C91.2486 111.673 91.4056 111.621 91.5345 111.686C91.6633 111.751 91.7151 111.908 91.6501 112.037C91.3347 112.663 91.0621 113.131 90.8293 113.444C90.5949 113.759 90.2599 114.106 89.8239 114.488ZM87.8464 111.765C87.7277 111.683 87.565 111.713 87.483 111.832C86.8991 112.677 86.5262 113.309 86.3613 113.738C86.1959 114.169 86.0815 114.75 86.0152 115.483C86.0022 115.627 86.1082 115.754 86.2518 115.767C86.3955 115.78 86.5225 115.674 86.5355 115.53C86.5978 114.841 86.7034 114.305 86.849 113.926C86.9847 113.572 87.3011 113.027 87.7956 112.3L87.9129 112.128C87.9948 112.01 87.9651 111.847 87.8464 111.765Z" fill="#00160A"/>
<path fill-rule="evenodd" clip-rule="evenodd" d="M82.8879 110.225L83.0678 110.625L83.4782 110.743C83.5003 110.749 83.5132 110.772 83.5068 110.794C83.5048 110.801 83.5011 110.807 83.4961 110.812L83.1844 111.123L83.2018 111.569C83.2027 111.592 83.1848 111.612 83.1617 111.613C83.1539 111.613 83.1462 111.611 83.1394 111.607L82.7865 111.406C82.7754 111.4 82.7622 111.399 82.7504 111.404L82.3729 111.554C82.3515 111.562 82.3272 111.552 82.3186 111.53C82.3158 111.523 82.315 111.515 82.3164 111.507L82.3958 111.068L82.1303 110.717C82.1164 110.698 82.12 110.672 82.1384 110.658C82.1441 110.654 82.1507 110.651 82.1578 110.65L82.5805 110.591L82.8144 110.22C82.8267 110.2 82.8525 110.194 82.872 110.207C82.879 110.211 82.8845 110.217 82.8879 110.225Z" fill="#00160A"/>
<path fill-rule="evenodd" clip-rule="evenodd" d="M97.422 54.2273C97.5181 54.3126 97.6381 54.4663 97.744 54.6327L97.8804 54.5721L98.0416 54.503C98.074 54.4882 98.0949 54.4766 98.1013 54.4672C98.1199 54.4326 98.1627 54.4195 98.1977 54.4378C98.2317 54.4562 98.2454 54.499 98.2269 54.5335C98.2141 54.5664 98.1236 54.6693 97.9554 54.77C97.925 54.7882 97.8913 54.8052 97.8552 54.8217C97.9172 54.9377 97.9659 55.0497 97.9888 55.1396C98.0233 55.2721 97.9957 55.366 97.9503 55.399C97.9057 55.4316 97.7939 55.4377 97.6237 55.2964C97.5923 55.2725 97.5874 55.228 97.6112 55.197C97.6349 55.1661 97.6793 55.1604 97.7106 55.1843C97.743 55.2082 97.7757 55.2217 97.8021 55.2315L97.7892 55.1807C97.7842 55.1626 97.778 55.1437 97.7693 55.1253C97.7388 55.0586 97.7 54.9824 97.6565 54.9041C97.5233 54.9544 97.3719 55 97.2083 55.022C97.1286 55.0327 97.0473 55.0348 96.9628 55.0341C96.9143 55.0373 96.8722 55.0004 96.869 54.9518C96.8658 54.9032 96.9027 54.8612 96.9512 54.858C97.1481 54.839 97.33 54.7893 97.4906 54.7333L97.5433 54.7144C97.4564 54.5786 97.3633 54.4552 97.2835 54.3855C97.2403 54.3473 97.2359 54.2807 97.2737 54.2371C97.3125 54.1933 97.3788 54.1889 97.422 54.2273Z" fill="#00160A"/>
<path fill-rule="evenodd" clip-rule="evenodd" d="M39.9109 89.5882C39.6377 89.6061 39.2045 89.6758 38.8504 89.8162C38.5475 89.9365 38.5475 93.2066 39.5831 93.4673C40.6127 93.8107 41.7385 93.3561 41.6041 91.6061C41.6017 91.5695 41.5721 91.47 41.5381 91.3559C41.4884 91.1888 41.4293 90.9905 41.4329 90.913C41.4469 90.6382 41.3747 90.4065 41.1841 90.2611C40.9788 89.8259 40.5765 89.5453 39.9109 89.5882ZM39.7627 92.6712C39.2558 92.2925 39.2736 90.5251 39.8521 90.407C40.212 90.6838 40.5406 91.0833 40.6515 91.8532C40.5274 92.2771 40.2656 92.5224 40.0366 92.7369C40.0121 92.7598 39.988 92.7824 39.9645 92.8048C39.8991 92.7677 39.8318 92.7224 39.7627 92.6712Z" fill="white"/>
<path fill-rule="evenodd" clip-rule="evenodd" d="M39.1472 91.6411C39.1012 91.3661 39.1326 91.0583 39.2708 90.7298C39.3335 90.5811 39.4983 90.4598 39.7045 90.3783C39.9455 90.2833 40.2403 90.236 40.4263 90.2238C40.8792 90.1947 41.1529 90.3843 41.2925 90.6786C41.4222 90.7769 41.4712 90.9336 41.4616 91.1194C41.4575 91.2077 41.574 91.5272 41.578 91.5882C41.669 92.7717 40.9027 93.0795 40.2021 92.8475C39.9359 92.9829 39.6792 93.0053 39.4859 92.8616C39.3126 92.7334 39.1796 92.4629 39.1491 91.9859C39.141 91.8628 39.1403 91.7479 39.1472 91.6411ZM40.3899 90.8617C39.9879 90.9406 39.9711 92.101 40.3221 92.3484C40.37 92.3818 40.4166 92.4114 40.4619 92.4356C40.6316 92.2827 40.7581 92.159 40.8299 91.9059C40.9017 91.6528 40.6392 91.0425 40.3899 90.8617Z" fill="#FFB61D"/>
<path fill-rule="evenodd" clip-rule="evenodd" d="M66.5796 120.623C66.4607 120.541 66.2981 120.572 66.2164 120.691C66.1348 120.809 66.165 120.972 66.2839 121.054C66.4146 121.143 66.53 121.226 66.6319 121.303C66.5221 121.39 66.4125 121.491 66.2986 121.604L66.0676 121.839C65.9661 121.941 65.9668 122.107 66.0693 122.208C66.1717 122.31 66.3371 122.309 66.4386 122.207L66.7158 121.927C66.8286 121.817 66.9343 121.725 67.0406 121.649C67.2768 121.883 67.3487 122.054 67.3526 122.225L67.3526 122.269L67.3539 122.296C67.3673 122.427 67.4785 122.53 67.6138 122.53C67.758 122.53 67.8749 122.413 67.8749 122.269L67.8749 122.217C67.87 121.951 67.7761 121.698 67.5233 121.409C67.6903 121.359 67.8785 121.332 68.1067 121.32C68.2507 121.312 68.3614 121.189 68.3539 121.045C68.3463 120.901 68.2235 120.79 68.0794 120.798C67.6833 120.819 67.3754 120.885 67.1011 121.01C66.9866 120.916 66.8569 120.818 66.7103 120.714L66.5796 120.623Z" fill="#00160A"/>
<path fill-rule="evenodd" clip-rule="evenodd" d="M66.5796 120.623C66.4607 120.541 66.2981 120.572 66.2164 120.691C66.1348 120.809 66.165 120.972 66.2839 121.054C66.4146 121.143 66.53 121.226 66.6319 121.303C66.5221 121.39 66.4125 121.491 66.2986 121.604L66.0676 121.839C65.9661 121.941 65.9668 122.107 66.0693 122.208C66.1717 122.31 66.3371 122.309 66.4386 122.207L66.7158 121.927C66.8286 121.817 66.9343 121.725 67.0406 121.649C67.2768 121.883 67.3487 122.054 67.3526 122.225L67.3526 122.269L67.3539 122.296C67.3673 122.427 67.4785 122.53 67.6138 122.53C67.758 122.53 67.8749 122.413 67.8749 122.269L67.8749 122.217C67.87 121.951 67.7761 121.698 67.5233 121.409C67.6903 121.359 67.8785 121.332 68.1067 121.32C68.2507 121.312 68.3614 121.189 68.3539 121.045C68.3463 120.901 68.2235 120.79 68.0794 120.798C67.6833 120.819 67.3754 120.885 67.1011 121.01C66.9866 120.916 66.8569 120.818 66.7103 120.714L66.5796 120.623Z" fill="#00160A"/>
<path fill-rule="evenodd" clip-rule="evenodd" d="M75.5064 113.467L75.6864 113.867L76.0967 113.985C76.1189 113.991 76.1317 114.014 76.1253 114.036C76.1234 114.043 76.1197 114.05 76.1146 114.055L75.8029 114.365L75.8204 114.812C75.8213 114.835 75.8033 114.854 75.7802 114.855C75.7724 114.855 75.7647 114.853 75.7579 114.849L75.405 114.648C75.394 114.642 75.3807 114.641 75.3689 114.646L74.9914 114.796C74.97 114.804 74.9457 114.794 74.9372 114.772C74.9343 114.765 74.9335 114.757 74.9349 114.75L75.0143 114.31L74.7488 113.959C74.7349 113.941 74.7385 113.914 74.7569 113.901C74.7626 113.896 74.7693 113.893 74.7763 113.892L75.199 113.833L75.4329 113.462C75.4452 113.442 75.471 113.437 75.4906 113.449C75.4975 113.453 75.503 113.46 75.5064 113.467Z" fill="#00160A"/>
<path fill-rule="evenodd" clip-rule="evenodd" d="M52.8623 110.719L53.1682 111.033L53.5941 111.004C53.6171 111.002 53.6371 111.02 53.6387 111.043C53.6392 111.05 53.6378 111.057 53.6348 111.063L53.448 111.461L53.6172 111.875C53.6259 111.897 53.6157 111.921 53.5943 111.93C53.5871 111.933 53.5792 111.934 53.5715 111.932L53.1711 111.864C53.1586 111.862 53.1458 111.866 53.1363 111.874L52.8329 112.144C52.8157 112.159 52.7892 112.158 52.7739 112.141C52.7687 112.135 52.7653 112.128 52.7639 112.12L52.6882 111.679L52.3187 111.441C52.2993 111.428 52.2938 111.402 52.3063 111.383C52.3102 111.377 52.3155 111.372 52.3218 111.369L52.6986 111.168L52.7915 110.739C52.7964 110.717 52.8186 110.703 52.8412 110.707C52.8492 110.709 52.8566 110.713 52.8623 110.719Z" fill="#00160A"/>
<path fill-rule="evenodd" clip-rule="evenodd" d="M48.0849 82.0759L48.2649 82.4759L48.6752 82.5937C48.6974 82.6 48.7102 82.6232 48.7038 82.6454C48.7018 82.6522 48.6982 82.6584 48.6931 82.6634L48.3814 82.9738L48.3989 83.4204C48.3998 83.4435 48.3818 83.4629 48.3587 83.4638C48.3509 83.4641 48.3432 83.4622 48.3364 83.4583L47.9835 83.2574C47.9725 83.2511 47.9592 83.2501 47.9474 83.2548L47.5699 83.4047C47.5485 83.4133 47.5242 83.4028 47.5157 83.3813C47.5128 83.3741 47.512 83.3662 47.5134 83.3585L47.5928 82.9186L47.3273 82.5679C47.3134 82.5495 47.317 82.5233 47.3354 82.5094C47.3411 82.5051 47.3478 82.5023 47.3548 82.5013L47.7775 82.4418L48.0114 82.0708C48.0237 82.0513 48.0495 82.0454 48.0691 82.0577C48.076 82.0621 48.0815 82.0684 48.0849 82.0759Z" fill="#00160A"/>
<path fill-rule="evenodd" clip-rule="evenodd" d="M48.0432 82.4743L48.1196 82.6442L48.2939 82.6943C48.3033 82.697 48.3088 82.7068 48.3061 82.7162C48.3052 82.7191 48.3037 82.7218 48.3015 82.7239L48.1691 82.8557L48.1765 83.0454C48.1769 83.0552 48.1693 83.0635 48.1595 83.0639C48.1562 83.064 48.1529 83.0632 48.15 83.0615L48.0001 82.9762C47.9954 82.9735 47.9898 82.9731 47.9848 82.9751L47.8244 83.0388C47.8153 83.0424 47.805 83.0379 47.8014 83.0288C47.8002 83.0258 47.7998 83.0224 47.8004 83.0191L47.8342 82.8323L47.7214 82.6833C47.7155 82.6755 47.717 82.6644 47.7248 82.6585C47.7272 82.6566 47.7301 82.6555 47.7331 82.655L47.9126 82.6298L48.012 82.4722C48.0172 82.4639 48.0281 82.4614 48.0364 82.4666C48.0394 82.4685 48.0417 82.4712 48.0432 82.4743Z" fill="#E7EAEE"/>
<path fill-rule="evenodd" clip-rule="evenodd" d="M26.6879 99.6247L26.8679 100.025L27.2782 100.142C27.3004 100.149 27.3132 100.172 27.3068 100.194C27.3049 100.201 27.3012 100.207 27.2962 100.212L26.9844 100.523L27.0019 100.969C27.0028 100.992 26.9848 101.012 26.9618 101.013C26.954 101.013 26.9462 101.011 26.9394 101.007L26.5865 100.806C26.5755 100.8 26.5622 100.799 26.5504 100.804L26.173 100.954C26.1515 100.962 26.1272 100.952 26.1187 100.93C26.1158 100.923 26.115 100.915 26.1164 100.907L26.1959 100.467L25.9303 100.117C25.9164 100.098 25.92 100.072 25.9384 100.058C25.9441 100.054 25.9508 100.051 25.9578 100.05L26.3805 99.9906L26.6144 99.6196C26.6268 99.6001 26.6526 99.5942 26.6721 99.6065C26.679 99.6109 26.6845 99.6173 26.6879 99.6247Z" fill="#00160A"/>
<path fill-rule="evenodd" clip-rule="evenodd" d="M44.7722 63.709L44.9029 63.8002C45.0496 63.9043 45.5974 64.4205 45.7119 64.5142C45.9858 64.3885 46.2937 64.3225 46.6899 64.3018C46.8339 64.2942 46.9568 64.4049 46.9643 64.549C46.9719 64.693 46.8612 64.8159 46.7171 64.8234C46.4889 64.8354 46.3007 64.8632 46.1336 64.913C46.3867 65.2023 46.4805 65.4553 46.4854 65.7213L46.4854 65.7727C46.4854 65.9169 46.3685 66.0339 46.2242 66.0339C46.089 66.0339 45.9778 65.9311 45.9644 65.7994L45.963 65.7727L45.963 65.7289C45.9592 65.5582 45.8873 65.3865 45.6511 65.1525C45.5448 65.2288 45.4391 65.3206 45.3263 65.4305L45.0491 65.7106C44.9476 65.8131 44.7822 65.8138 44.6797 65.7122C44.5773 65.6107 44.5766 65.4453 44.6781 65.3429L44.9091 65.1082C45.023 64.9944 45.1326 64.8943 45.2423 64.807C45.0496 64.3671 44.3273 63.8954 44.409 63.7765C44.4906 63.6575 44.6532 63.6273 44.7722 63.709Z" fill="#00160A"/>
<path fill-rule="evenodd" clip-rule="evenodd" d="M95.1672 93.8321L95.523 94.0885L95.9373 93.9853C95.9597 93.9798 95.9823 93.9934 95.9879 94.0158C95.9896 94.0227 95.9896 94.0299 95.9877 94.0368L95.8729 94.4614L96.1113 94.8395C96.1236 94.859 96.1178 94.8848 96.0983 94.8971C96.0917 94.9013 96.084 94.9035 96.0762 94.9036L95.6701 94.9059C95.6574 94.906 95.6454 94.9119 95.6376 94.9218L95.3856 95.2404C95.3713 95.2585 95.345 95.2616 95.3269 95.2472C95.3208 95.2424 95.3162 95.2359 95.3135 95.2286L95.1624 94.8079L94.7571 94.637C94.7359 94.628 94.7259 94.6035 94.7349 94.5822C94.7376 94.5757 94.742 94.5699 94.7476 94.5656L95.0839 94.3027L95.101 93.8644C95.1019 93.8413 95.1213 93.8234 95.1444 93.8243C95.1526 93.8246 95.1605 93.8273 95.1672 93.8321Z" fill="#00160A"/>
<path fill-rule="evenodd" clip-rule="evenodd" d="M99.255 77.4622L99.3628 77.8873L99.7465 78.0746C99.7672 78.0847 99.7758 78.1097 99.7657 78.1304C99.7626 78.1368 99.7579 78.1423 99.752 78.1464L99.3911 78.3979L99.3308 78.8408C99.3277 78.8636 99.3066 78.8796 99.2837 78.8765C99.276 78.8755 99.2687 78.8723 99.2627 78.8673L98.95 78.6081C98.9403 78.6 98.9274 78.5967 98.9149 78.5993L98.5172 78.6814C98.4946 78.6861 98.4725 78.6715 98.4678 78.6489C98.4662 78.6413 98.4668 78.6333 98.4695 78.626L98.6241 78.2067L98.4236 77.8152C98.413 77.7946 98.4211 77.7695 98.4417 77.7589C98.448 77.7557 98.4551 77.7541 98.4622 77.7544L98.8888 77.7691L99.1836 77.4444C99.1991 77.4273 99.2255 77.426 99.2426 77.4415C99.2487 77.447 99.253 77.4542 99.255 77.4622Z" fill="#00160A"/>
<path fill-rule="evenodd" clip-rule="evenodd" d="M89.9461 60.3513L90.0539 60.7765L90.4375 60.9637C90.4582 60.9738 90.4668 60.9989 90.4567 61.0196C90.4536 61.026 90.4489 61.0315 90.4431 61.0356L90.0822 61.2871L90.0218 61.7299C90.0187 61.7528 89.9976 61.7688 89.9748 61.7657C89.967 61.7646 89.9597 61.7614 89.9537 61.7564L89.6411 61.4972C89.6313 61.4891 89.6184 61.4859 89.606 61.4885L89.2082 61.5706C89.1856 61.5752 89.1635 61.5607 89.1588 61.5381C89.1573 61.5304 89.1578 61.5225 89.1606 61.5152L89.3152 61.0958L89.1146 60.7043C89.1041 60.6838 89.1122 60.6586 89.1327 60.6481C89.1391 60.6448 89.1461 60.6433 89.1532 60.6435L89.5798 60.6583L89.8746 60.3335C89.8901 60.3164 89.9166 60.3152 89.9337 60.3307C89.9397 60.3362 89.9441 60.3434 89.9461 60.3513Z" fill="#00160A"/>
<path fill-rule="evenodd" clip-rule="evenodd" d="M117.447 64.5169L117.606 64.5028C117.785 64.4882 117.948 64.4801 118.096 64.4782C118.225 64.2059 118.418 63.9574 118.709 63.6868C118.814 63.5885 118.979 63.5943 119.078 63.6998C119.176 63.8053 119.17 63.9706 119.065 64.0689C118.898 64.2248 118.771 64.3671 118.675 64.5126C119.055 64.5716 119.29 64.7051 119.464 64.9057L119.497 64.945C119.59 65.0555 119.576 65.2203 119.465 65.313C119.362 65.3999 119.21 65.3927 119.115 65.3004L119.097 65.2808L119.069 65.2473C118.956 65.1191 118.791 65.0337 118.46 65.0062C118.427 65.133 118.405 65.2714 118.389 65.428L118.357 65.8207C118.345 65.9645 118.219 66.0714 118.075 66.0594C117.932 66.0475 117.825 65.9213 117.837 65.7775L117.863 65.4493C117.877 65.2889 117.897 65.1418 117.924 65.0044C117.797 65.0108 117.655 65.0216 117.498 65.0369C117.354 65.0508 117.226 64.9457 117.212 64.8021C117.199 64.6585 117.304 64.5308 117.447 64.5169Z" fill="#00160A"/>
<path fill-rule="evenodd" clip-rule="evenodd" d="M96.3557 82.5475C96.3085 82.6669 96.2051 82.8323 96.0849 82.9887L96.1885 83.0961L96.3085 83.2239L96.3352 83.2496C96.3468 83.2598 96.356 83.2662 96.3626 83.2679C96.4014 83.2735 96.4285 83.3092 96.4232 83.3484C96.4176 83.3866 96.382 83.4142 96.3432 83.4085C96.308 83.4078 96.1804 83.3579 96.0282 83.2343C96.0007 83.2119 95.9732 83.1861 95.9453 83.1578C95.8575 83.2557 95.7689 83.3398 95.6923 83.392C95.5796 83.4698 95.4819 83.476 95.4354 83.4446C95.3895 83.4139 95.3455 83.3109 95.4201 83.1026C95.4318 83.065 95.472 83.0451 95.5092 83.0568C95.5463 83.0686 95.5669 83.1083 95.5552 83.146C95.5438 83.1846 95.5423 83.2199 95.5421 83.2481L95.5854 83.2186C95.6007 83.2077 95.6163 83.1954 95.6307 83.1809C95.6829 83.1295 95.7413 83.067 95.7999 82.9992C95.7071 82.8913 95.6125 82.7646 95.5359 82.6184C95.4985 82.5471 95.4688 82.4715 95.4405 82.3919C95.421 82.3474 95.4412 82.2952 95.4858 82.2755C95.5303 82.2559 95.5825 82.2763 95.6021 82.3207C95.6872 82.4992 95.7962 82.6532 95.9037 82.785L95.9395 82.828C96.0374 82.6999 96.1215 82.5702 96.1597 82.4714C96.1808 82.4177 96.2419 82.3908 96.2958 82.4114C96.3502 82.433 96.377 82.4937 96.3557 82.5475Z" fill="#E7EAEE"/>
<path fill-rule="evenodd" clip-rule="evenodd" d="M93.8055 29.3154C93.9646 29.2877 94.1161 29.3943 94.1439 29.5534C94.1716 29.7126 94.065 29.8641 93.9059 29.8918C93.1488 30.0237 92.2378 30.4762 91.4507 31.205C90.4286 32.1514 89.6747 33.4871 89.3025 35.2306C89.0026 36.6353 89.2782 38.4848 90.062 40.0279C90.9538 41.7834 92.3873 42.977 94.2267 43.3129C96.115 43.6578 97.7126 43.4436 99.4969 42.8093L99.6612 42.7496C99.7133 42.7299 99.8064 42.694 99.9233 42.6489L99.9233 42.6489L99.9235 42.6488C100.353 42.483 101.104 42.1934 101.319 42.1282C101.896 41.9538 102.29 41.9684 102.575 42.2724C102.686 42.3903 102.68 42.5754 102.562 42.6859C102.451 42.7896 102.282 42.7909 102.17 42.6936L102.148 42.6728C102.064 42.5831 101.89 42.5727 101.54 42.6732L101.489 42.6883C101.299 42.7457 100.604 43.0137 100.17 43.1809L100.17 43.181L100.17 43.181L100.17 43.1811L100.169 43.1814C100.001 43.246 99.8731 43.2954 99.8284 43.3117C97.9012 44.0152 96.1718 44.263 94.1216 43.8885C92.0899 43.5174 90.5102 42.2021 89.5404 40.2928C88.6975 38.6335 88.4016 36.648 88.7303 35.1085C89.1276 33.2476 89.9421 31.8045 91.0532 30.7757C91.9228 29.9704 92.937 29.4667 93.8055 29.3154ZM95.7839 30.7287C95.9425 30.6976 96.0962 30.801 96.1272 30.9595C96.1583 31.1181 96.0549 31.2718 95.8964 31.3029C93.5254 31.7672 91.6186 33.5782 91.0656 35.9736C90.8784 36.7843 90.935 37.4435 91.1187 37.695L91.1431 37.7265L91.145 37.7309L91.1484 37.7282C91.2142 37.6689 91.2911 37.5173 91.3507 37.2822L91.3632 37.2305C91.932 34.7669 93.8102 32.8599 96.2093 32.2195C96.3654 32.1778 96.5257 32.2706 96.5674 32.4267C96.6091 32.5828 96.5163 32.7431 96.3602 32.7848C94.1988 33.3618 92.5006 35.0635 91.9556 37.2687L91.9333 37.3622C91.7327 38.2311 91.1567 38.6458 90.6901 38.0958C90.3489 37.6935 90.2651 36.8399 90.4955 35.842C91.1009 33.2197 93.1884 31.237 95.7839 30.7287ZM99.3023 33.9396C99.2908 33.7785 99.1508 33.6571 98.9897 33.6686C96.1425 33.8718 93.6455 35.7211 92.652 38.4505C92.2751 39.4862 92.2526 40.4073 92.5613 40.877C92.9753 41.507 93.6265 41.1496 93.9512 40.2575L93.9852 40.166C94.8638 37.8561 96.9225 36.2428 99.3326 35.9064C99.4926 35.884 99.6042 35.7362 99.5819 35.5762C99.5596 35.4162 99.4117 35.3046 99.2517 35.3269C96.5975 35.6974 94.3347 37.4931 93.4014 40.0574L93.3808 40.1122C93.277 40.3791 93.1633 40.54 93.0773 40.5872L93.0734 40.5898L93.0719 40.5911C93.0712 40.5918 93.0708 40.5921 93.0705 40.5921C93.0703 40.592 93.0701 40.5918 93.0698 40.5914C93.0696 40.5909 93.0693 40.5902 93.0689 40.5892C93.0671 40.5849 93.063 40.5751 93.0502 40.5557L93.0348 40.5302C92.8649 40.2292 92.8909 39.505 93.2018 38.6506C94.1156 36.14 96.4123 34.4391 99.0313 34.2522C99.1925 34.2407 99.3138 34.1008 99.3023 33.9396ZM100.576 36.7835C100.738 36.772 100.877 36.8933 100.889 37.0545C100.9 37.2156 100.779 37.3556 100.618 37.3671C98.7817 37.4981 97.1715 38.6906 96.5308 40.4509C96.3409 40.9727 96.3056 41.4188 96.3736 41.6447L96.3819 41.67L96.3949 41.6513C96.4275 41.6017 96.4643 41.5306 96.5004 41.4383L96.5158 41.3975C97.1925 39.5382 98.8333 38.2361 100.758 37.9674C100.918 37.9451 101.066 38.0567 101.088 38.2167C101.11 38.3767 100.999 38.5245 100.839 38.5469C99.1551 38.7819 97.7162 39.9054 97.0964 41.5153L97.0656 41.5976C96.8146 42.2871 96.2719 42.5849 95.925 42.057C95.6873 41.6952 95.7039 41.0122 95.981 40.2508C96.7014 38.2717 98.5119 36.9308 100.576 36.7835ZM102.118 39.1405C102.107 38.9793 101.967 38.858 101.806 38.8695C100.423 38.9682 99.2104 39.8662 98.728 41.1916C98.5378 41.7141 98.5263 42.1897 98.7022 42.4575C98.9907 42.8965 99.4389 42.6505 99.6256 42.1375L99.651 42.0701C100.044 41.0664 100.945 40.3667 101.998 40.2197C102.158 40.1974 102.269 40.0495 102.247 39.8895C102.225 39.7295 102.077 39.6179 101.917 39.6402L101.843 39.6514C100.709 39.834 99.7311 40.5534 99.224 41.5888L99.2063 41.6257L99.2172 41.5837C99.2335 41.5226 99.2536 41.4583 99.2778 41.3917C99.6806 40.2851 100.693 39.5355 101.847 39.4531C102.008 39.4416 102.13 39.3017 102.118 39.1405Z" fill="#00160A"/>
<path fill-rule="evenodd" clip-rule="evenodd" d="M100.576 36.7833C100.738 36.7718 100.878 36.8931 100.889 37.0543C100.901 37.2154 100.779 37.3554 100.618 37.3669C98.7817 37.4979 97.1716 38.6904 96.5309 40.4507C96.3409 40.9725 96.3056 41.4186 96.3736 41.6445L96.3819 41.6698L96.3949 41.6511C96.4276 41.6016 96.4643 41.5304 96.5004 41.4381L96.5158 41.3973C97.1925 39.538 98.8333 38.2359 100.758 37.9672C100.918 37.9449 101.066 38.0565 101.088 38.2165C101.11 38.3765 100.999 38.5243 100.839 38.5467C99.1551 38.7817 97.7162 39.9052 97.0964 41.5151L97.0656 41.5974C96.8146 42.2869 96.2719 42.5847 95.925 42.0568C95.6873 41.695 95.7039 41.012 95.9811 40.2506C96.7014 38.2715 98.5119 36.9306 100.576 36.7833Z" fill="#00160A"/>
<path d="M82.3575 74.8712C88.4905 72.0025 93.6182 70.4873 96.8106 70.209C97.7882 70.1238 98.2317 70.6628 97.9841 71.5395C97.8002 72.1905 97.2404 73.0838 96.3823 74.1417C94.8864 75.9859 92.9141 77.564 90.9499 79.0317C94.0922 76.1315 94.8937 74.9182 95.8628 73.7235L96.015 73.5334C96.7336 72.6249 97.198 71.8657 97.3411 71.3593L97.3614 71.2824C97.4505 70.9167 97.3473 70.8302 96.8688 70.8719C93.7486 71.1439 88.6405 72.6621 82.53 75.5269C76.4096 78.3964 76.2345 77.7353 82.3575 74.8712Z" fill="white"/>
<path d="M54.3082 65.5908L54.353 65.6976C54.6637 66.4343 54.9866 67.1638 55.353 67.9595L55.4955 68.2682C55.4488 68.2996 55.3874 68.3329 55.3198 68.3624C55.2229 68.4048 55.1244 68.4345 55.0504 68.4445L55.0268 68.4468L54.9912 68.4041C54.7142 68.0632 54.3928 67.4839 54.1606 66.9078C54.0369 66.601 53.9488 66.3196 53.909 66.1034C53.8929 66.0153 53.8854 65.9413 53.886 65.8852L53.8877 65.8482C53.8883 65.8392 53.8883 65.8345 53.8861 65.8338L53.8949 65.8279C53.9443 65.7938 54.0707 65.7199 54.2583 65.6179L54.3082 65.5908Z" fill="white"/>
<path fill-rule="evenodd" clip-rule="evenodd" d="M62.0613 62.9221C62.2532 62.6872 62.5021 62.7222 62.8174 62.9134L62.8984 62.9645L63.1251 63.1147C63.1884 63.1554 63.2159 63.1694 63.2529 63.1841C63.3386 63.2183 63.3805 63.3155 63.3463 63.4013C63.3122 63.4871 63.215 63.5289 63.1292 63.4948L63.0986 63.4822C63.0407 63.4574 62.9969 63.4316 62.8795 63.3536L62.7169 63.2453C62.6901 63.2278 62.6669 63.2131 62.644 63.1993C62.4555 63.0849 62.3698 63.0729 62.3202 63.1337C62.2888 63.172 62.2966 63.2537 62.3587 63.4211L62.4269 63.5968C62.5625 63.9568 62.5633 64.1177 62.3218 64.255C62.1139 64.3733 62.0073 64.318 61.7087 64.0254L61.6362 63.9537C61.445 63.7627 61.3447 63.6962 61.2802 63.7099C61.2587 63.7144 61.2337 63.7296 61.2032 63.7622C61.1673 63.8004 61.1572 63.9225 61.1792 64.1392L61.2128 64.4221C61.2521 64.768 61.2363 64.8576 61.0935 64.9532C60.8969 65.0848 60.6352 64.936 60.1503 64.5005C60.0816 64.4388 60.076 64.3332 60.1376 64.2645C60.1993 64.1958 60.305 64.1901 60.3737 64.2518C60.581 64.438 60.7376 64.5592 60.8469 64.6214L60.8714 64.6347L60.8919 64.6449L60.8923 64.624L60.891 64.5739C60.8889 64.5329 60.8838 64.4833 60.8735 64.399L60.8522 64.2254C60.8116 63.8733 60.8243 63.6774 60.9593 63.5335C61.0343 63.4535 61.1185 63.4024 61.211 63.3828C61.4257 63.3374 61.5783 63.4291 61.8316 63.6767L61.9595 63.8025C62.0973 63.9351 62.1485 63.969 62.1565 63.9644C62.1878 63.9466 62.1831 63.8912 62.0984 63.6738L62.0613 63.5796C61.9432 63.276 61.9207 63.0942 62.0613 62.9221Z" fill="#00160A"/>
<path fill-rule="evenodd" clip-rule="evenodd" d="M80.3108 35.7132L80.152 35.7274C80.0084 35.7413 79.9033 35.8689 79.9172 36.0125C79.9256 36.0993 79.9755 36.1721 80.0455 36.213L80.0179 36.2326C79.9001 36.3159 79.8721 36.4789 79.9554 36.5966C80.0387 36.7144 80.2016 36.7424 80.3194 36.6592L80.5878 36.4691C80.58 36.5306 80.5733 36.594 80.5676 36.6598L80.5414 36.988C80.5295 37.1317 80.6363 37.2579 80.7801 37.2699C80.9239 37.2818 81.0501 37.175 81.062 37.0312L81.0943 36.6385C81.1027 36.5544 81.113 36.4756 81.1257 36.4011C81.2174 36.5751 81.2357 36.7091 81.2163 36.8359L81.2087 36.879L81.2054 36.9055C81.1957 37.0376 81.2874 37.1581 81.4206 37.1816C81.5626 37.2066 81.6981 37.1118 81.7232 36.9697L81.732 36.9191C81.7598 36.7429 81.7471 36.5654 81.6757 36.3684C81.7131 36.3953 81.7452 36.4251 81.7739 36.4577L81.802 36.4913L81.8202 36.5109C81.9151 36.6032 82.0664 36.6104 82.17 36.5235C82.2805 36.4307 82.2949 36.266 82.2022 36.1555L82.1691 36.1162C82.1574 36.1027 82.1454 36.0895 82.1331 36.0767C82.2695 36.0846 82.3904 35.9853 82.4073 35.8478C82.4249 35.7046 82.3231 35.5743 82.1799 35.5567C81.9337 35.5264 81.7183 35.5196 81.5202 35.5374C81.5912 35.4537 81.6736 35.3688 81.7695 35.2794C81.875 35.181 81.8808 35.0158 81.7825 34.9102C81.6841 34.8047 81.5188 34.7989 81.4133 34.8973C81.2363 35.0623 81.0953 35.2191 80.983 35.3781C80.9396 35.3321 80.894 35.2849 80.8462 35.2365L80.7333 35.124C80.6303 35.0229 80.465 35.0245 80.3639 35.1274C80.2628 35.2303 80.2644 35.3957 80.3673 35.4968C80.4388 35.5669 80.5047 35.6333 80.5655 35.6963C80.4845 35.7004 80.3997 35.706 80.3108 35.7132Z" fill="#00160A"/>
<path fill-rule="evenodd" clip-rule="evenodd" d="M70.2447 37.5234C70.182 37.4591 70.0805 37.4609 70.018 37.5274C69.9554 37.5939 69.9555 37.6999 70.0182 37.7642C70.0777 37.8252 70.1309 37.8817 70.1783 37.9343C70.0779 37.9768 69.977 38.032 69.8691 38.1001L69.7053 38.2051C69.6334 38.251 69.6177 38.3426 69.6702 38.4099C69.7228 38.4771 69.8237 38.4945 69.8956 38.4487L70.092 38.3234C70.1946 38.2605 70.287 38.213 70.38 38.1796C70.5212 38.376 70.5507 38.5018 70.5327 38.6185L70.5279 38.6462L70.5257 38.6632C70.5191 38.7479 70.5748 38.8247 70.6564 38.8391C70.7435 38.8545 70.8271 38.793 70.8432 38.7018L70.8489 38.6693C70.8757 38.5001 70.847 38.3296 70.7257 38.1189C70.808 38.1177 70.8977 38.1238 70.9994 38.1368C71.0879 38.1481 71.1674 38.0919 71.1769 38.0114C71.1864 37.9308 71.1223 37.8563 71.0337 37.845C70.8395 37.8202 70.6767 37.8173 70.5277 37.8374C70.4664 37.7621 70.3954 37.6816 70.3135 37.595L70.2447 37.5234Z" fill="#E7EAEE"/>
<path fill-rule="evenodd" clip-rule="evenodd" d="M36.5845 81.0671L36.7645 81.4671L37.1748 81.5849C37.197 81.5912 37.2098 81.6144 37.2034 81.6366C37.2015 81.6434 37.1978 81.6496 37.1928 81.6547L36.881 81.965L36.8985 82.4116C36.8994 82.4347 36.8814 82.4541 36.8584 82.455C36.8506 82.4553 36.8428 82.4534 36.8361 82.4496L36.4831 82.2486C36.4721 82.2423 36.4588 82.2414 36.447 82.246L36.0696 82.396C36.0481 82.4045 36.0238 82.394 36.0153 82.3725C36.0124 82.3653 36.0116 82.3574 36.013 82.3497L36.0925 81.9099L35.827 81.5591C35.813 81.5407 35.8166 81.5145 35.835 81.5006C35.8407 81.4963 35.8474 81.4935 35.8544 81.4925L36.2771 81.433L36.5111 81.062C36.5234 81.0425 36.5492 81.0366 36.5687 81.0489C36.5756 81.0533 36.5811 81.0596 36.5845 81.0671Z" fill="#00160A"/>
<path fill-rule="evenodd" clip-rule="evenodd" d="M38.9845 58.8674L39.1645 59.2674L39.5748 59.3852C39.597 59.3915 39.6098 59.4147 39.6035 59.4369C39.6015 59.4437 39.5978 59.4499 39.5928 59.4549L39.2811 59.7653L39.2985 60.2119C39.2994 60.235 39.2814 60.2544 39.2584 60.2553C39.2506 60.2556 39.2429 60.2537 39.2361 60.2498L38.8832 60.0489C38.8721 60.0426 38.8588 60.0416 38.847 60.0463L38.4696 60.1962C38.4481 60.2048 38.4238 60.1943 38.4153 60.1728C38.4124 60.1656 38.4117 60.1577 38.413 60.15L38.4925 59.7101L38.227 59.3594C38.213 59.341 38.2167 59.3148 38.2351 59.3009C38.2407 59.2966 38.2474 59.2938 38.2545 59.2928L38.6772 59.2333L38.9111 58.8623C38.9234 58.8428 38.9492 58.8369 38.9687 58.8492C38.9757 58.8536 38.9812 58.8599 38.9845 58.8674Z" fill="#00160A"/>
<path d="M44.4208 94.2121C44.5549 94.1147 44.7425 94.1445 44.8399 94.2785C44.9372 94.4126 40.6929 97.8696 39.0465 99.4538L38.8551 99.6395C37.9147 100.56 37.2213 101.356 36.8305 101.986C36.4163 102.654 36.3898 103.016 36.6571 103.165C37.6716 103.727 39.1301 104.001 41.219 103.655L41.4337 103.618C42.2288 103.479 48.2101 102.174 48.1154 102.209L48.0786 102.22C47.89 102.27 45.4546 103.112 44.614 103.326L44.5123 103.352C43.2273 103.675 42.2217 103.897 41.3171 104.047C39.1065 104.413 37.5272 104.333 36.3663 103.689C35.6964 103.318 35.7498 102.59 36.3206 101.67C36.7697 100.946 37.5595 100.052 38.6305 99.0215C40.2989 97.416 42.6457 95.501 44.4208 94.2121Z" fill="white"/>
<path fill-rule="evenodd" clip-rule="evenodd" d="M75.6716 52.6264C75.7448 52.5777 75.8431 52.5985 75.891 52.6728L76.974 54.3509C77.022 54.4253 77.0015 54.525 76.9283 54.5738C76.8551 54.6225 76.7569 54.6017 76.7089 54.5274L75.6259 52.8492C75.5779 52.7749 75.5984 52.6752 75.6716 52.6264Z" fill="#00160A"/>
<path fill-rule="evenodd" clip-rule="evenodd" d="M75.7245 51.3865C75.8084 51.3371 75.9192 51.362 75.9721 51.442L76.7174 52.5708C76.7702 52.6508 76.745 52.7557 76.6612 52.8051C76.5773 52.8545 76.4665 52.8297 76.4136 52.7497L75.6683 51.6209C75.6155 51.5408 75.6406 51.4359 75.7245 51.3865Z" fill="#00160A"/>
</svg>
