<svg width="26" height="25" viewBox="0 0 26 25" fill="none" xmlns="http://www.w3.org/2000/svg">
<rect opacity="0.5" width="26" height="25" rx="2" fill="white"/>
<g clip-path="url(#clip0_159_3674)">
<path d="M12.5 14C12.8978 14 13.2793 13.842 13.5606 13.5607C13.8419 13.2794 14 12.8978 14 12.5C14 12.1022 13.8419 11.7206 13.5606 11.4393C13.2793 11.158 12.8978 11 12.5 11C12.1022 11 11.7206 11.158 11.4393 11.4393C11.158 11.7206 11 12.1022 11 12.5C11 12.8978 11.158 13.2794 11.4393 13.5607C11.7206 13.842 12.1022 14 12.5 14Z" fill="black"/>
<path d="M19 18C19 18.5304 18.7893 19.0391 18.4142 19.4142C18.0391 19.7893 17.5304 20 17 20H6.99998C6.46955 20 5.96084 19.7893 5.58577 19.4142C5.2107 19.0391 4.99998 18.5304 4.99998 18V10C4.99998 9.46991 5.21042 8.96151 5.58506 8.58649C5.9597 8.21148 6.4679 8.00053 6.99798 8C6.99798 7.46957 7.2087 6.96086 7.58377 6.58579C7.95884 6.21071 8.46755 6 8.99798 6H18.998C19.5284 6 20.0371 6.21071 20.4122 6.58579C20.7873 6.96086 20.998 7.46957 20.998 8V16C20.998 16.5301 20.7875 17.0385 20.4129 17.4135C20.0383 17.7885 19.5301 17.9995 19 18ZM18.998 7H8.99798C8.73277 7 8.47841 7.10536 8.29088 7.29289C8.10334 7.48043 7.99798 7.73478 7.99798 8H17C17.5304 8 18.0391 8.21071 18.4142 8.58579C18.7893 8.96086 19 9.46957 19 10V17C19.2649 16.9995 19.5187 16.8939 19.7058 16.7064C19.8929 16.5189 19.998 16.2649 19.998 16V8C19.998 7.73478 19.8926 7.48043 19.7051 7.29289C19.5176 7.10536 19.2632 7 18.998 7ZM6.99998 9C6.73477 9 6.48041 9.10536 6.29288 9.29289C6.10534 9.48043 5.99998 9.73478 5.99998 10V18L8.64598 15.646C8.72772 15.5646 8.8351 15.5139 8.94992 15.5026C9.06475 15.4913 9.17994 15.5201 9.27598 15.584L11.936 17.357L15.646 13.647C15.7201 13.5728 15.8158 13.5238 15.9193 13.5069C16.0229 13.49 16.1291 13.5061 16.223 13.553L18 15.5V10C18 9.73478 17.8946 9.48043 17.7071 9.29289C17.5196 9.10536 17.2652 9 17 9H6.99998Z" fill="black"/>
</g>
<defs>
<clipPath id="clip0_159_3674">
<rect width="16" height="16" fill="white" transform="translate(5 5)"/>
</clipPath>
</defs>
</svg>
