<svg width="26" height="25" viewBox="0 0 26 25" fill="none" xmlns="http://www.w3.org/2000/svg">
<rect opacity="0.5" width="26" height="25" rx="2" fill="white"/>
<g clip-path="url(#clip0_159_3680)">
<path d="M13 20C13 20 18.25 15.0247 18.25 11.25C18.25 9.85761 17.6969 8.52226 16.7123 7.53769C15.7277 6.55312 14.3924 6 13 6C11.6076 6 10.2723 6.55312 9.28769 7.53769C8.30312 8.52226 7.75 9.85761 7.75 11.25C7.75 15.0247 13 20 13 20ZM13 13.875C12.3038 13.875 11.6361 13.5984 11.1438 13.1062C10.6516 12.6139 10.375 11.9462 10.375 11.25C10.375 10.5538 10.6516 9.88613 11.1438 9.39384C11.6361 8.90156 12.3038 8.625 13 8.625C13.6962 8.625 14.3639 8.90156 14.8562 9.39384C15.3484 9.88613 15.625 10.5538 15.625 11.25C15.625 11.9462 15.3484 12.6139 14.8562 13.1062C14.3639 13.5984 13.6962 13.875 13 13.875Z" fill="black"/>
</g>
<defs>
<clipPath id="clip0_159_3680">
<rect width="14" height="14" fill="white" transform="translate(6 6)"/>
</clipPath>
</defs>
</svg>
