<svg width="50" height="50" viewBox="0 0 50 50" fill="none" xmlns="http://www.w3.org/2000/svg">
<g clip-path="url(#clip0_470_5091)">
<path d="M14.0688 28.125C15.312 28.125 16.5043 27.6311 17.3834 26.7521C18.2625 25.873 18.7563 24.6807 18.7563 23.4375C18.7563 22.1943 18.2625 21.002 17.3834 20.1229C16.5043 19.2439 15.312 18.75 14.0688 18.75C12.8256 18.75 11.6334 19.2439 10.7543 20.1229C9.87521 21.002 9.38135 22.1943 9.38135 23.4375C9.38135 24.6807 9.87521 25.873 10.7543 26.7521C11.6334 27.6311 12.8256 28.125 14.0688 28.125Z" fill="black"/>
<path d="M43.7563 40.625C43.7563 42.2826 43.0979 43.8723 41.9258 45.0444C40.7537 46.2165 39.164 46.875 37.5063 46.875H6.25635C4.59874 46.875 3.00903 46.2165 1.83693 45.0444C0.664828 43.8723 0.00634766 42.2826 0.00634766 40.625V15.625C0.00634683 13.9685 0.663969 12.3797 1.83472 11.2078C3.00547 10.0359 4.59358 9.37666 6.2501 9.375C6.2501 7.7174 6.90858 6.12769 8.08068 4.95558C9.25278 3.78348 10.8425 3.125 12.5001 3.125H43.7501C45.4077 3.125 46.9974 3.78348 48.1695 4.95558C49.3416 6.12769 50.0001 7.7174 50.0001 9.375V34.375C50.0001 36.0315 49.3425 37.6203 48.1717 38.7922C47.001 39.9641 45.4129 40.6233 43.7563 40.625ZM43.7501 6.25H12.5001C11.6713 6.25 10.8764 6.57924 10.2904 7.16529C9.70434 7.75134 9.3751 8.5462 9.3751 9.375H37.5063C39.164 9.375 40.7537 10.0335 41.9258 11.2056C43.0979 12.3777 43.7563 13.9674 43.7563 15.625V37.5C44.5841 37.4983 45.3773 37.1684 45.962 36.5825C46.5467 35.9966 46.8751 35.2027 46.8751 34.375V9.375C46.8751 8.5462 46.5459 7.75134 45.9598 7.16529C45.3738 6.57924 44.5789 6.25 43.7501 6.25ZM6.25635 12.5C5.42755 12.5 4.63269 12.8292 4.04664 13.4153C3.46059 14.0013 3.13135 14.7962 3.13135 15.625V40.625L11.4001 33.2687C11.6555 33.0143 11.9911 32.8559 12.3499 32.8206C12.7087 32.7853 13.0687 32.8752 13.3688 33.075L21.6813 38.6156L33.2751 27.0219C33.5068 26.7899 33.8056 26.6367 34.1293 26.584C34.4529 26.5313 34.7849 26.5817 35.0782 26.7281L40.6313 32.8125V15.625C40.6313 14.7962 40.3021 14.0013 39.7161 13.4153C39.13 12.8292 38.3351 12.5 37.5063 12.5H6.25635Z" fill="black"/>
</g>
<defs>
<clipPath id="clip0_470_5091">
<rect width="50" height="50" fill="white"/>
</clipPath>
</defs>
</svg>
