<svg width="17" height="16" viewBox="0 0 17 16" fill="none" xmlns="http://www.w3.org/2000/svg">
<path d="M7.70407 0.927049C8.00343 0.00573874 9.30684 0.00573993 9.60619 0.927051L10.7532 4.45712C10.887 4.86914 11.271 5.1481 11.7042 5.1481H15.416C16.3847 5.1481 16.7875 6.38772 16.0037 6.95712L13.0009 9.13882C12.6504 9.39346 12.5037 9.84483 12.6376 10.2569L13.7846 13.7869C14.084 14.7082 13.0295 15.4744 12.2458 14.905L9.24292 12.7233C8.89243 12.4686 8.41783 12.4686 8.06734 12.7233L5.06449 14.905C4.28078 15.4744 3.2263 14.7082 3.52565 13.7869L4.67264 10.2569C4.80651 9.84483 4.65985 9.39346 4.30937 9.13882L1.30651 6.95712C0.522798 6.38771 0.925575 5.1481 1.8943 5.1481H5.60603C6.03926 5.1481 6.42321 4.86914 6.55709 4.45712L7.70407 0.927049Z" fill="black" fill-opacity="0.5"/>
</svg>
