<svg width="16" height="16" viewBox="0 0 16 16" fill="none" xmlns="http://www.w3.org/2000/svg">
<path d="M7.04892 0.927049C7.34828 0.00573874 8.65168 0.00573993 8.95104 0.927051L10.098 4.45712C10.2319 4.86914 10.6159 5.1481 11.0491 5.1481H14.7608C15.7295 5.1481 16.1323 6.38772 15.3486 6.95712L12.3457 9.13882C11.9953 9.39346 11.8486 9.84483 11.9825 10.2569L13.1295 13.7869C13.4288 14.7082 12.3743 15.4744 11.5906 14.905L8.58776 12.7233C8.23728 12.4686 7.76268 12.4686 7.41219 12.7233L4.40934 14.905C3.62563 15.4744 2.57115 14.7082 2.8705 13.7869L4.01749 10.2569C4.15136 9.84483 4.0047 9.39346 3.65422 9.13882L0.65136 6.95712C-0.132353 6.38771 0.270423 5.1481 1.23915 5.1481H4.95088C5.3841 5.1481 5.76806 4.86914 5.90193 4.45712L7.04892 0.927049Z" fill="#1173AB"/>
</svg>
