<svg width="21" height="20" viewBox="0 0 21 20" fill="none" xmlns="http://www.w3.org/2000/svg">
<g clip-path="url(#clip0_2014_8963)">
<path d="M8.62516 5.60245C10.7052 3.5112 15.9064 7.16995 8.62516 11.8749C1.34391 7.16995 6.54516 3.51245 8.62516 5.60245Z" fill="black" fill-opacity="0.5"/>
<path d="M16.75 8.12546C16.7527 9.854 16.2016 11.538 15.1775 12.9305C15.2275 12.968 15.275 13.008 15.3213 13.053L20.1338 17.8655C20.3683 18.0998 20.5001 18.4178 20.5003 18.7494C20.5004 19.081 20.3688 19.399 20.1344 19.6336C19.9 19.8681 19.582 20 19.2505 20.0001C18.9189 20.0002 18.6008 19.8686 18.3663 19.6342L13.5538 14.8217C13.5085 14.777 13.4667 14.729 13.4288 14.678H13.4313C11.9585 15.7585 10.1647 16.3112 8.33923 16.2469C6.51377 16.1827 4.76322 15.5052 3.3701 14.3239C1.97697 13.1425 1.02255 11.5262 0.660879 9.73576C0.299204 7.94534 0.551375 6.08528 1.37669 4.45579C2.20201 2.82629 3.55232 1.52243 5.20969 0.75463C6.86707 -0.0131677 8.73481 -0.200103 10.5115 0.223994C12.2881 0.648092 13.8701 1.65848 15.002 3.09208C16.1339 4.52569 16.7497 6.29888 16.75 8.12546ZM8.62501 15.0005C9.52785 15.0005 10.4218 14.8226 11.256 14.4771C12.0901 14.1316 12.848 13.6252 13.4864 12.9868C14.1248 12.3484 14.6312 11.5905 14.9767 10.7564C15.3222 9.92229 15.5 9.0283 15.5 8.12546C15.5 7.22262 15.3222 6.32862 14.9767 5.49451C14.6312 4.6604 14.1248 3.9025 13.4864 3.2641C12.848 2.6257 12.0901 2.11929 11.256 1.77379C10.4218 1.42829 9.52785 1.25046 8.62501 1.25046C6.80165 1.25046 5.05296 1.97479 3.76365 3.2641C2.47434 4.55341 1.75001 6.3021 1.75001 8.12546C1.75001 9.94882 2.47434 11.6975 3.76365 12.9868C5.05296 14.2761 6.80165 15.0005 8.62501 15.0005Z" fill="black" fill-opacity="0.5"/>
</g>
<defs>
<clipPath id="clip0_2014_8963">
<rect width="20" height="20" fill="white" transform="translate(0.5)"/>
</clipPath>
</defs>
</svg>
