<svg width="12" height="12" viewBox="0 0 12 12" fill="none" xmlns="http://www.w3.org/2000/svg">
<g clip-path="url(#clip0_159_3663)">
<path fill-rule="evenodd" clip-rule="evenodd" d="M4.371 7.6288C4.30068 7.5585 4.20531 7.51901 4.10588 7.51901C4.00644 7.51901 3.91108 7.5585 3.84075 7.6288L0.768753 10.7008V8.6248C0.768753 8.52535 0.729244 8.42997 0.658918 8.35964C0.588592 8.28931 0.493209 8.2498 0.393753 8.2498C0.294297 8.2498 0.198914 8.28931 0.128588 8.35964C0.0582619 8.42997 0.0187531 8.52535 0.0187531 8.6248V11.6061C0.0187531 11.7055 0.0582619 11.8009 0.128588 11.8712C0.198914 11.9415 0.294297 11.9811 0.393753 11.9811H3.375C3.47446 11.9811 3.56984 11.9415 3.64017 11.8712C3.71049 11.8009 3.75 11.7055 3.75 11.6061C3.75 11.5066 3.71049 11.4112 3.64017 11.3409C3.56984 11.2706 3.47446 11.2311 3.375 11.2311H1.299L4.371 8.15905C4.4413 8.08873 4.4808 7.99337 4.4808 7.89393C4.4808 7.79449 4.4413 7.69913 4.371 7.6288ZM7.629 7.6288C7.69933 7.5585 7.79469 7.51901 7.89413 7.51901C7.99357 7.51901 8.08893 7.5585 8.15925 7.6288L11.2313 10.7008V8.6248C11.2313 8.52535 11.2708 8.42997 11.3411 8.35964C11.4114 8.28931 11.5068 8.2498 11.6063 8.2498C11.7057 8.2498 11.8011 8.28931 11.8714 8.35964C11.9417 8.42997 11.9813 8.52535 11.9813 8.6248V11.6061C11.9813 11.7055 11.9417 11.8009 11.8714 11.8712C11.8011 11.9415 11.7057 11.9811 11.6063 11.9811H8.625C8.52555 11.9811 8.43016 11.9415 8.35984 11.8712C8.28951 11.8009 8.25 11.7055 8.25 11.6061C8.25 11.5066 8.28951 11.4112 8.35984 11.3409C8.43016 11.2706 8.52555 11.2311 8.625 11.2311H10.701L7.629 8.15905C7.5587 8.08873 7.51921 7.99337 7.51921 7.89393C7.51921 7.79449 7.5587 7.69913 7.629 7.6288ZM7.629 4.3708C7.69933 4.44111 7.79469 4.4806 7.89413 4.4806C7.99357 4.4806 8.08893 4.44111 8.15925 4.3708L11.2313 1.2988V3.3748C11.2313 3.47426 11.2708 3.56964 11.3411 3.63997C11.4114 3.7103 11.5068 3.7498 11.6063 3.7498C11.7057 3.7498 11.8011 3.7103 11.8714 3.63997C11.9417 3.56964 11.9813 3.47426 11.9813 3.3748V0.393555C11.9813 0.294098 11.9417 0.198716 11.8714 0.12839C11.8011 0.0580635 11.7057 0.0185547 11.6063 0.0185547H8.625C8.52555 0.0185547 8.43016 0.0580635 8.35984 0.12839C8.28951 0.198716 8.25 0.294098 8.25 0.393555C8.25 0.493011 8.28951 0.588394 8.35984 0.65872C8.43016 0.729046 8.52555 0.768555 8.625 0.768555H10.701L7.629 3.84055C7.5587 3.91088 7.51921 4.00624 7.51921 4.10568C7.51921 4.20512 7.5587 4.30048 7.629 4.3708ZM4.371 4.3708C4.30068 4.44111 4.20531 4.4806 4.10588 4.4806C4.00644 4.4806 3.91108 4.44111 3.84075 4.3708L0.768753 1.2988V3.3748C0.768753 3.47426 0.729244 3.56964 0.658918 3.63997C0.588592 3.7103 0.493209 3.7498 0.393753 3.7498C0.294297 3.7498 0.198914 3.7103 0.128588 3.63997C0.0582619 3.56964 0.0187531 3.47426 0.0187531 3.3748V0.393555C0.0187531 0.294098 0.0582619 0.198716 0.128588 0.12839C0.198914 0.0580635 0.294297 0.0185547 0.393753 0.0185547H3.375C3.47446 0.0185547 3.56984 0.0580635 3.64017 0.12839C3.71049 0.198716 3.75 0.294098 3.75 0.393555C3.75 0.493011 3.71049 0.588394 3.64017 0.65872C3.56984 0.729046 3.47446 0.768555 3.375 0.768555H1.299L4.371 3.84055C4.4413 3.91088 4.4808 4.00624 4.4808 4.10568C4.4808 4.20512 4.4413 4.30048 4.371 4.3708Z" fill="black"/>
</g>
<defs>
<clipPath id="clip0_159_3663">
<rect width="12" height="12" fill="white"/>
</clipPath>
</defs>
</svg>
