<svg width="14" height="14" viewBox="0 0 14 14" fill="none" xmlns="http://www.w3.org/2000/svg">
<g clip-path="url(#clip0_159_3650)">
<path d="M7.4375 4.40479V5.36729L8.27138 4.88604L8.70888 5.64466L7.875 6.12504L8.70888 6.60629L8.27138 7.36404L7.4375 6.88279V7.84528H6.5625V6.88279L5.72862 7.36404L5.29112 6.60629L6.125 6.12504L5.29112 5.64379L5.72862 4.88604L6.5625 5.36729V4.40479H7.4375ZM11.5938 7.87504C11.5357 7.87504 11.4801 7.89808 11.4391 7.93911C11.398 7.98013 11.375 8.03577 11.375 8.09379V8.53129C11.375 8.65204 11.473 8.75004 11.5938 8.75004H12.0312C12.0893 8.75004 12.1449 8.72699 12.1859 8.68597C12.227 8.64494 12.25 8.5893 12.25 8.53129V8.09379C12.25 8.03577 12.227 7.98013 12.1859 7.93911C12.1449 7.89808 12.0893 7.87504 12.0312 7.87504H11.5938ZM11.375 9.84379C11.375 9.78577 11.398 9.73013 11.4391 9.68911C11.4801 9.64808 11.5357 9.62504 11.5938 9.62504H12.0312C12.0893 9.62504 12.1449 9.64808 12.1859 9.68911C12.227 9.73013 12.25 9.78577 12.25 9.84379V10.2813C12.25 10.3393 12.227 10.3949 12.1859 10.436C12.1449 10.477 12.0893 10.5 12.0312 10.5H11.5938C11.5357 10.5 11.4801 10.477 11.4391 10.436C11.398 10.3949 11.375 10.3393 11.375 10.2813V9.84379ZM11.5938 11.375C11.5357 11.375 11.4801 11.3981 11.4391 11.4391C11.398 11.4801 11.375 11.5358 11.375 11.5938V12.0313C11.375 12.152 11.473 12.25 11.5938 12.25H12.0312C12.0893 12.25 12.1449 12.227 12.1859 12.186C12.227 12.1449 12.25 12.0893 12.25 12.0313V11.5938C12.25 11.5358 12.227 11.4801 12.1859 11.4391C12.1449 11.3981 12.0893 11.375 12.0312 11.375H11.5938ZM1.96875 7.87504C1.91073 7.87504 1.85509 7.89808 1.81407 7.93911C1.77305 7.98013 1.75 8.03577 1.75 8.09379V8.53129C1.75 8.65204 1.848 8.75004 1.96875 8.75004H2.40625C2.46427 8.75004 2.51991 8.72699 2.56093 8.68597C2.60195 8.64494 2.625 8.5893 2.625 8.53129V8.09379C2.625 8.03577 2.60195 7.98013 2.56093 7.93911C2.51991 7.89808 2.46427 7.87504 2.40625 7.87504H1.96875ZM1.96875 9.62504C1.91073 9.62504 1.85509 9.64808 1.81407 9.68911C1.77305 9.73013 1.75 9.78577 1.75 9.84379V10.2813C1.75 10.402 1.848 10.5 1.96875 10.5H2.40625C2.46427 10.5 2.51991 10.477 2.56093 10.436C2.60195 10.3949 2.625 10.3393 2.625 10.2813V9.84379C2.625 9.78577 2.60195 9.73013 2.56093 9.68911C2.51991 9.64808 2.46427 9.62504 2.40625 9.62504H1.96875ZM1.75 11.5938C1.75 11.5358 1.77305 11.4801 1.81407 11.4391C1.85509 11.3981 1.91073 11.375 1.96875 11.375H2.40625C2.46427 11.375 2.51991 11.3981 2.56093 11.4391C2.60195 11.4801 2.625 11.5358 2.625 11.5938V12.0313C2.625 12.0893 2.60195 12.1449 2.56093 12.186C2.51991 12.227 2.46427 12.25 2.40625 12.25H1.96875C1.91073 12.25 1.85509 12.227 1.81407 12.186C1.77305 12.1449 1.75 12.0893 1.75 12.0313V11.5938Z" fill="black"/>
<path d="M4.375 0.875C4.375 0.642936 4.46719 0.420376 4.63128 0.256282C4.79538 0.0921873 5.01794 0 5.25 0L8.75 0C8.98206 0 9.20462 0.0921873 9.36872 0.256282C9.53281 0.420376 9.625 0.642936 9.625 0.875V1.75C9.85706 1.75 10.0796 1.84219 10.2437 2.00628C10.4078 2.17038 10.5 2.39294 10.5 2.625V6.125H13.125C13.3571 6.125 13.5796 6.21719 13.7437 6.38128C13.9078 6.54538 14 6.76794 14 7V13.125C14 13.3571 13.9078 13.5796 13.7437 13.7437C13.5796 13.9078 13.3571 14 13.125 14H0.875C0.642936 14 0.420376 13.9078 0.256282 13.7437C0.0921873 13.5796 0 13.3571 0 13.125V7C0 6.76794 0.0921873 6.54538 0.256282 6.38128C0.420376 6.21719 0.642936 6.125 0.875 6.125H3.5V2.625C3.5 2.39294 3.59219 2.17038 3.75628 2.00628C3.92038 1.84219 4.14294 1.75 4.375 1.75V0.875ZM6.125 13.125H7.875V10.5H6.125V13.125ZM8.75 13.125H9.625V2.625H4.375V13.125H5.25V10.5C5.25 10.2679 5.34219 10.0454 5.50628 9.88128C5.67038 9.71719 5.89294 9.625 6.125 9.625H7.875C8.10706 9.625 8.32962 9.71719 8.49372 9.88128C8.65781 10.0454 8.75 10.2679 8.75 10.5V13.125ZM8.75 0.875H5.25V1.75H8.75V0.875ZM10.5 7V13.125H13.125V7H10.5ZM3.5 13.125V7H0.875V13.125H3.5Z" fill="black"/>
</g>
<defs>
<clipPath id="clip0_159_3650">
<rect width="14" height="14" fill="white"/>
</clipPath>
</defs>
</svg>
