<svg width="20" height="20" viewBox="0 0 20 20" fill="none" xmlns="http://www.w3.org/2000/svg">
<g id="search (5) 1" clip-path="url(#clip0_159_3619)">
<path id="Vector" d="M14.6775 12.9301C15.8879 11.2785 16.43 9.23074 16.1954 7.19656C15.9608 5.16239 14.9668 3.2918 13.4122 1.95904C11.8576 0.626277 9.85718 -0.0703699 7.81104 0.00847151C5.7649 0.0873129 3.82397 0.935828 2.37658 2.38426C0.929183 3.83269 0.0820563 5.77422 0.00467902 7.82042C-0.0726983 9.86661 0.62538 11.8666 1.95925 13.4202C3.29313 14.9738 5.16442 15.9665 7.19877 16.1996C9.23311 16.4328 11.2805 15.8892 12.9312 14.6776H12.93C12.9675 14.7276 13.0075 14.7751 13.0525 14.8214L17.865 19.6339C18.0994 19.8684 18.4173 20.0003 18.7489 20.0004C19.0805 20.0005 19.3986 19.8689 19.6331 19.6345C19.8677 19.4001 19.9995 19.0822 19.9996 18.7506C19.9997 18.419 19.8681 18.1009 19.6337 17.8664L14.8212 13.0539C14.7766 13.0086 14.7285 12.9681 14.6775 12.9301ZM15 8.12513C15 9.02796 14.8222 9.92196 14.4767 10.7561C14.1312 11.5902 13.6248 12.3481 12.9864 12.9865C12.3479 13.6249 11.5901 14.1313 10.7559 14.4768C9.92183 14.8223 9.02783 15.0001 8.12499 15.0001C7.22216 15.0001 6.32816 14.8223 5.49404 14.4768C4.65993 14.1313 3.90204 13.6249 3.26363 12.9865C2.62523 12.3481 2.11882 11.5902 1.77332 10.7561C1.42782 9.92196 1.24999 9.02796 1.24999 8.12513C1.24999 6.30176 1.97432 4.55308 3.26363 3.26377C4.55295 1.97445 6.30163 1.25013 8.12499 1.25013C9.94836 1.25013 11.697 1.97445 12.9864 3.26377C14.2757 4.55308 15 6.30176 15 8.12513Z" fill="black"/>
</g>
<defs>
<clipPath id="clip0_159_3619">
<rect width="20" height="20" fill="white"/>
</clipPath>
</defs>
</svg>
